<?xml version="1.0"?>
<svg xmlns="http://www.w3.org/2000/svg" version="1.1" height="341mm" width="492mm" >
 <g style="fill-opacity:1.0; stroke:black; stroke-width:1;">
  <line x1="109.500000mm" y1="331.000000mm" x2="109.500000mm" y2="331.000000mm" />
  <line x1="109.500000mm" y1="331.000000mm" x2="0.000000mm" y2="331.000000mm" />
  <line x1="0.000000mm" y1="331.000000mm" x2="0.000000mm" y2="0.000000mm" />
  <line x1="0.000000mm" y1="0.000000mm" x2="481.500000mm" y2="0.000000mm" />
  <line x1="481.500000mm" y1="0.000000mm" x2="481.500000mm" y2="331.000000mm" />
  <line x1="481.500000mm" y1="331.000000mm" x2="359.500000mm" y2="331.000000mm" />
  <line x1="359.500000mm" y1="331.000000mm" x2="359.500000mm" y2="102.900000mm" />
  <line x1="359.500000mm" y1="102.900000mm" x2="359.475000mm" y2="102.402000mm" />
  <line x1="359.475000mm" y1="102.402000mm" x2="359.401000mm" y2="101.909000mm" />
  <line x1="359.401000mm" y1="101.909000mm" x2="359.278000mm" y2="101.426000mm" />
  <line x1="359.278000mm" y1="101.426000mm" x2="359.107000mm" y2="100.958000mm" />
  <line x1="359.107000mm" y1="100.958000mm" x2="358.891000mm" y2="100.509000mm" />
  <line x1="358.891000mm" y1="100.509000mm" x2="358.631000mm" y2="100.083000mm" />
  <line x1="358.631000mm" y1="100.083000mm" x2="358.330000mm" y2="99.686000mm" />
  <line x1="358.330000mm" y1="99.686000mm" x2="357.991000mm" y2="99.321000mm" />
  <line x1="357.991000mm" y1="99.321000mm" x2="357.617000mm" y2="98.991000mm" />
  <line x1="357.617000mm" y1="98.991000mm" x2="357.213000mm" y2="98.700000mm" />
  <line x1="357.213000mm" y1="98.700000mm" x2="356.781000mm" y2="98.451000mm" />
  <line x1="356.781000mm" y1="98.451000mm" x2="356.327000mm" y2="98.246000mm" />
  <line x1="356.327000mm" y1="98.246000mm" x2="355.854000mm" y2="98.087000mm" />
  <line x1="355.854000mm" y1="98.087000mm" x2="355.368000mm" y2="97.976000mm" />
  <line x1="355.368000mm" y1="97.976000mm" x2="354.874000mm" y2="97.914000mm" />
  <line x1="354.874000mm" y1="97.914000mm" x2="354.500000mm" y2="97.905000mm" />
  <line x1="354.500000mm" y1="97.905000mm" x2="354.500000mm" y2="97.900000mm" />
  <line x1="354.500000mm" y1="97.900000mm" x2="114.500000mm" y2="97.900000mm" />
  <line x1="114.500000mm" y1="97.900000mm" x2="114.500000mm" y2="97.905000mm" />
  <line x1="114.500000mm" y1="97.905000mm" x2="114.375000mm" y2="97.902000mm" />
  <line x1="114.375000mm" y1="97.902000mm" x2="113.878000mm" y2="97.939000mm" />
  <line x1="113.878000mm" y1="97.939000mm" x2="113.387000mm" y2="98.025000mm" />
  <line x1="113.387000mm" y1="98.025000mm" x2="112.908000mm" y2="98.160000mm" />
  <line x1="112.908000mm" y1="98.160000mm" x2="112.444000mm" y2="98.342000mm" />
  <line x1="112.444000mm" y1="98.342000mm" x2="112.000000mm" y2="98.570000mm" />
  <line x1="112.000000mm" y1="98.570000mm" x2="111.581000mm" y2="98.840000mm" />
  <line x1="111.581000mm" y1="98.840000mm" x2="111.192000mm" y2="99.151000mm" />
  <line x1="111.192000mm" y1="99.151000mm" x2="110.835000mm" y2="99.499000mm" />
  <line x1="110.835000mm" y1="99.499000mm" x2="110.514000mm" y2="99.881000mm" />
  <line x1="110.514000mm" y1="99.881000mm" x2="110.234000mm" y2="100.293000mm" />
  <line x1="110.234000mm" y1="100.293000mm" x2="109.995000mm" y2="100.731000mm" />
  <line x1="109.995000mm" y1="100.731000mm" x2="109.802000mm" y2="101.190000mm" />
  <line x1="109.802000mm" y1="101.190000mm" x2="109.655000mm" y2="101.666000mm" />
  <line x1="109.655000mm" y1="101.666000mm" x2="109.556000mm" y2="102.155000mm" />
  <line x1="109.556000mm" y1="102.155000mm" x2="109.506000mm" y2="102.651000mm" />
  <line x1="109.506000mm" y1="102.651000mm" x2="109.506000mm" y2="102.900000mm" />
  <line x1="109.506000mm" y1="102.900000mm" x2="109.500000mm" y2="102.900000mm" />
  <line x1="109.500000mm" y1="102.900000mm" x2="109.500000mm" y2="331.000000mm" />
  <circle cx="7.499964mm" cy="224.899964mm" r="2.200229mm" fill="none"/>
  <line x1="11.900421mm" y1="224.899964mm" x2="3.099507mm" y2="224.899964mm" />
  <line x1="7.499964mm" y1="220.499507mm" x2="7.499964mm" y2="229.300421mm" />
  <text x="9mm" y="222mm" font-size="24">
   4.4
  </text>
  <circle cx="7.499964mm" cy="183.499964mm" r="2.200229mm" fill="none"/>
  <line x1="11.900421mm" y1="183.499964mm" x2="3.099507mm" y2="183.499964mm" />
  <line x1="7.499964mm" y1="179.099507mm" x2="7.499964mm" y2="187.900421mm" />
  <text x="9mm" y="181mm" font-size="24">
   4.4
  </text>
  <circle cx="9.699964mm" cy="322.799964mm" r="2.200229mm" fill="none"/>
  <line x1="14.100421mm" y1="322.799964mm" x2="5.299507mm" y2="322.799964mm" />
  <line x1="9.699964mm" y1="318.399507mm" x2="9.699964mm" y2="327.200421mm" />
  <text x="11mm" y="320mm" font-size="24">
   4.4
  </text>
  <circle cx="16.499964mm" cy="269.499964mm" r="2.200229mm" fill="none"/>
  <line x1="20.900421mm" y1="269.499964mm" x2="12.099507mm" y2="269.499964mm" />
  <line x1="16.499964mm" y1="265.099507mm" x2="16.499964mm" y2="273.900421mm" />
  <text x="18mm" y="267mm" font-size="24">
   4.4
  </text>
  <circle cx="30.019964mm" cy="322.799964mm" r="2.200229mm" fill="none"/>
  <line x1="34.420421mm" y1="322.799964mm" x2="25.619507mm" y2="322.799964mm" />
  <line x1="30.019964mm" y1="318.399507mm" x2="30.019964mm" y2="327.200421mm" />
  <text x="32mm" y="320mm" font-size="24">
   4.4
  </text>
  <circle cx="34.499818mm" cy="257.500055mm" r="2.000011mm" fill="none"/>
  <line x1="38.499840mm" y1="257.500055mm" x2="30.499795mm" y2="257.500055mm" />
  <line x1="34.499818mm" y1="253.500033mm" x2="34.499818mm" y2="261.500077mm" />
  <text x="36mm" y="255mm" font-size="24">
   4.0
  </text>
  <circle cx="40.499964mm" cy="8.499964mm" r="2.200229mm" fill="none"/>
  <line x1="44.900421mm" y1="8.499964mm" x2="36.099507mm" y2="8.499964mm" />
  <line x1="40.499964mm" y1="4.099507mm" x2="40.499964mm" y2="12.900421mm" />
  <text x="42mm" y="6mm" font-size="24">
   4.4
  </text>
  <circle cx="40.499818mm" cy="19.000055mm" r="2.000011mm" fill="none"/>
  <line x1="44.499840mm" y1="19.000055mm" x2="36.499795mm" y2="19.000055mm" />
  <line x1="40.499818mm" y1="15.000033mm" x2="40.499818mm" y2="23.000077mm" />
  <text x="42mm" y="17mm" font-size="24">
   4.0
  </text>
  <circle cx="42.220170mm" cy="323.499939mm" r="2.500268mm" fill="none"/>
  <line x1="47.220707mm" y1="323.499939mm" x2="37.219633mm" y2="323.499939mm" />
  <line x1="42.220170mm" y1="318.499402mm" x2="42.220170mm" y2="328.500476mm" />
  <text x="44mm" y="320mm" font-size="24">
   5.0
  </text>
  <circle cx="48.499964mm" cy="269.499964mm" r="2.200229mm" fill="none"/>
  <line x1="52.900421mm" y1="269.499964mm" x2="44.099507mm" y2="269.499964mm" />
  <line x1="48.499964mm" y1="265.099507mm" x2="48.499964mm" y2="273.900421mm" />
  <text x="50mm" y="267mm" font-size="24">
   4.4
  </text>
  <circle cx="73.499964mm" cy="8.499964mm" r="2.200229mm" fill="none"/>
  <line x1="77.900421mm" y1="8.499964mm" x2="69.099507mm" y2="8.499964mm" />
  <line x1="73.499964mm" y1="4.099507mm" x2="73.499964mm" y2="12.900421mm" />
  <text x="75mm" y="6mm" font-size="24">
   4.4
  </text>
  <circle cx="75.199964mm" cy="294.739964mm" r="2.200229mm" fill="none"/>
  <line x1="79.600421mm" y1="294.739964mm" x2="70.799507mm" y2="294.739964mm" />
  <line x1="75.199964mm" y1="290.339507mm" x2="75.199964mm" y2="299.140421mm" />
  <text x="77mm" y="292mm" font-size="24">
   4.4
  </text>
  <circle cx="75.199964mm" cy="36.259964mm" r="2.200229mm" fill="none"/>
  <line x1="79.600421mm" y1="36.259964mm" x2="70.799507mm" y2="36.259964mm" />
  <line x1="75.199964mm" y1="31.859507mm" x2="75.199964mm" y2="40.660421mm" />
  <text x="77mm" y="34mm" font-size="24">
   4.4
  </text>
  <circle cx="75.999964mm" cy="65.119964mm" r="2.200229mm" fill="none"/>
  <line x1="80.400421mm" y1="65.119964mm" x2="71.599507mm" y2="65.119964mm" />
  <line x1="75.999964mm" y1="60.719507mm" x2="75.999964mm" y2="69.520421mm" />
  <text x="78mm" y="62mm" font-size="24">
   4.4
  </text>
  <circle cx="79.979964mm" cy="322.799964mm" r="2.200229mm" fill="none"/>
  <line x1="84.380421mm" y1="322.799964mm" x2="75.579507mm" y2="322.799964mm" />
  <line x1="79.979964mm" y1="318.399507mm" x2="79.979964mm" y2="327.200421mm" />
  <text x="82mm" y="320mm" font-size="24">
   4.4
  </text>
  <circle cx="100.299964mm" cy="322.799964mm" r="2.200229mm" fill="none"/>
  <line x1="104.700421mm" y1="322.799964mm" x2="95.899507mm" y2="322.799964mm" />
  <line x1="100.299964mm" y1="318.399507mm" x2="100.299964mm" y2="327.200421mm" />
  <text x="102mm" y="320mm" font-size="24">
   4.4
  </text>
  <circle cx="128.999964mm" cy="304.399964mm" r="2.200229mm" fill="none"/>
  <line x1="133.400421mm" y1="304.399964mm" x2="124.599507mm" y2="304.399964mm" />
  <line x1="128.999964mm" y1="299.999507mm" x2="128.999964mm" y2="308.800421mm" />
  <text x="131mm" y="302mm" font-size="24">
   4.4
  </text>
  <circle cx="128.999964mm" cy="136.399964mm" r="2.200229mm" fill="none"/>
  <line x1="133.400421mm" y1="136.399964mm" x2="124.599507mm" y2="136.399964mm" />
  <line x1="128.999964mm" y1="131.999507mm" x2="128.999964mm" y2="140.800421mm" />
  <text x="131mm" y="134mm" font-size="24">
   4.4
  </text>
  <circle cx="130.000087mm" cy="315.400061mm" r="1.250061mm" fill="none"/>
  <line x1="132.500208mm" y1="315.400061mm" x2="127.499966mm" y2="315.400061mm" />
  <line x1="130.000087mm" y1="312.899939mm" x2="130.000087mm" y2="317.900182mm" />
  <text x="131mm" y="314mm" font-size="24">
   2.5
  </text>
  <circle cx="130.000087mm" cy="106.400061mm" r="1.250061mm" fill="none"/>
  <line x1="132.500208mm" y1="106.400061mm" x2="127.499966mm" y2="106.400061mm" />
  <line x1="130.000087mm" y1="103.899939mm" x2="130.000087mm" y2="108.900182mm" />
  <text x="131mm" y="105mm" font-size="24">
   2.5
  </text>
  <circle cx="161.999964mm" cy="285.399964mm" r="2.200229mm" fill="none"/>
  <line x1="166.400421mm" y1="285.399964mm" x2="157.599507mm" y2="285.399964mm" />
  <line x1="161.999964mm" y1="280.999507mm" x2="161.999964mm" y2="289.800421mm" />
  <text x="164mm" y="283mm" font-size="24">
   4.4
  </text>
  <circle cx="161.999964mm" cy="117.399964mm" r="2.200229mm" fill="none"/>
  <line x1="166.400421mm" y1="117.399964mm" x2="157.599507mm" y2="117.399964mm" />
  <line x1="161.999964mm" y1="112.999507mm" x2="161.999964mm" y2="121.800421mm" />
  <text x="164mm" y="115mm" font-size="24">
   4.4
  </text>
  <circle cx="205.529999mm" cy="269.574893mm" r="1.650220mm" fill="none"/>
  <line x1="208.830439mm" y1="269.574893mm" x2="202.229559mm" y2="269.574893mm" />
  <line x1="205.529999mm" y1="266.274453mm" x2="205.529999mm" y2="272.875333mm" />
  <text x="207mm" y="267mm" font-size="24">
   3.3
  </text>
  <circle cx="205.529999mm" cy="254.925893mm" r="1.650220mm" fill="none"/>
  <line x1="208.830439mm" y1="254.925893mm" x2="202.229559mm" y2="254.925893mm" />
  <line x1="205.529999mm" y1="251.625453mm" x2="205.529999mm" y2="258.226333mm" />
  <text x="207mm" y="253mm" font-size="24">
   3.3
  </text>
  <circle cx="205.529767mm" cy="165.724407mm" r="1.650015mm" fill="none"/>
  <line x1="208.829796mm" y1="165.724407mm" x2="202.229737mm" y2="165.724407mm" />
  <line x1="205.529767mm" y1="162.424377mm" x2="205.529767mm" y2="169.024436mm" />
  <text x="207mm" y="164mm" font-size="24">
   3.3
  </text>
  <circle cx="205.529767mm" cy="151.075407mm" r="1.650015mm" fill="none"/>
  <line x1="208.829796mm" y1="151.075407mm" x2="202.229737mm" y2="151.075407mm" />
  <line x1="205.529767mm" y1="147.775377mm" x2="205.529767mm" y2="154.375436mm" />
  <text x="207mm" y="149mm" font-size="24">
   3.3
  </text>
  <line x1="122.510000mm" y1="320.148000mm" x2="122.510000mm" y2="320.148000mm" />
  <line x1="122.510000mm" y1="320.148000mm" x2="122.500000mm" y2="101.900000mm" />
  <line x1="122.500000mm" y1="101.900000mm" x2="122.541000mm" y2="101.406000mm" />
  <line x1="122.541000mm" y1="101.406000mm" x2="122.663000mm" y2="100.926000mm" />
  <line x1="122.663000mm" y1="100.926000mm" x2="122.862000mm" y2="100.472000mm" />
  <line x1="122.862000mm" y1="100.472000mm" x2="123.133000mm" y2="100.057000mm" />
  <line x1="123.133000mm" y1="100.057000mm" x2="123.468000mm" y2="99.693000mm" />
  <line x1="123.468000mm" y1="99.693000mm" x2="123.859000mm" y2="99.389000mm" />
  <line x1="123.859000mm" y1="99.389000mm" x2="124.295000mm" y2="99.153000mm" />
  <line x1="124.295000mm" y1="99.153000mm" x2="124.764000mm" y2="98.992000mm" />
  <line x1="124.764000mm" y1="98.992000mm" x2="125.252000mm" y2="98.910000mm" />
  <line x1="125.252000mm" y1="98.910000mm" x2="343.500000mm" y2="98.900000mm" />
  <line x1="343.500000mm" y1="98.900000mm" x2="343.994000mm" y2="98.941000mm" />
  <line x1="343.994000mm" y1="98.941000mm" x2="344.474000mm" y2="99.063000mm" />
  <line x1="344.474000mm" y1="99.063000mm" x2="344.928000mm" y2="99.262000mm" />
  <line x1="344.928000mm" y1="99.262000mm" x2="345.343000mm" y2="99.533000mm" />
  <line x1="345.343000mm" y1="99.533000mm" x2="345.707000mm" y2="99.868000mm" />
  <line x1="345.707000mm" y1="99.868000mm" x2="346.011000mm" y2="100.259000mm" />
  <line x1="346.011000mm" y1="100.259000mm" x2="346.247000mm" y2="100.695000mm" />
  <line x1="346.247000mm" y1="100.695000mm" x2="346.408000mm" y2="101.164000mm" />
  <line x1="346.408000mm" y1="101.164000mm" x2="346.490000mm" y2="101.652000mm" />
  <line x1="346.490000mm" y1="101.652000mm" x2="346.500000mm" y2="319.900000mm" />
  <line x1="346.500000mm" y1="319.900000mm" x2="346.459000mm" y2="320.394000mm" />
  <line x1="346.459000mm" y1="320.394000mm" x2="346.337000mm" y2="320.874000mm" />
  <line x1="346.337000mm" y1="320.874000mm" x2="346.138000mm" y2="321.328000mm" />
  <line x1="346.138000mm" y1="321.328000mm" x2="345.867000mm" y2="321.743000mm" />
  <line x1="345.867000mm" y1="321.743000mm" x2="345.532000mm" y2="322.107000mm" />
  <line x1="345.532000mm" y1="322.107000mm" x2="345.141000mm" y2="322.411000mm" />
  <line x1="345.141000mm" y1="322.411000mm" x2="344.705000mm" y2="322.647000mm" />
  <line x1="344.705000mm" y1="322.647000mm" x2="344.236000mm" y2="322.808000mm" />
  <line x1="344.236000mm" y1="322.808000mm" x2="343.748000mm" y2="322.890000mm" />
  <line x1="343.748000mm" y1="322.890000mm" x2="125.500000mm" y2="322.900000mm" />
  <line x1="125.500000mm" y1="322.900000mm" x2="125.006000mm" y2="322.859000mm" />
  <line x1="125.006000mm" y1="322.859000mm" x2="124.526000mm" y2="322.737000mm" />
  <line x1="124.526000mm" y1="322.737000mm" x2="124.072000mm" y2="322.538000mm" />
  <line x1="124.072000mm" y1="322.538000mm" x2="123.657000mm" y2="322.267000mm" />
  <line x1="123.657000mm" y1="322.267000mm" x2="123.293000mm" y2="321.932000mm" />
  <line x1="123.293000mm" y1="321.932000mm" x2="122.989000mm" y2="321.541000mm" />
  <line x1="122.989000mm" y1="321.541000mm" x2="122.753000mm" y2="321.105000mm" />
  <line x1="122.753000mm" y1="321.105000mm" x2="122.592000mm" y2="320.636000mm" />
  <line x1="122.592000mm" y1="320.636000mm" x2="122.510000mm" y2="320.148000mm" />
  <circle cx="215.829964mm" cy="109.899964mm" r="2.200229mm" fill="none"/>
  <line x1="220.230421mm" y1="109.899964mm" x2="211.429507mm" y2="109.899964mm" />
  <line x1="215.829964mm" y1="105.499507mm" x2="215.829964mm" y2="114.300421mm" />
  <text x="218mm" y="107mm" font-size="24">
   4.4
  </text>
  <circle cx="253.169964mm" cy="109.899964mm" r="2.200229mm" fill="none"/>
  <line x1="257.570421mm" y1="109.899964mm" x2="248.769507mm" y2="109.899964mm" />
  <line x1="253.169964mm" y1="105.499507mm" x2="253.169964mm" y2="114.300421mm" />
  <text x="255mm" y="107mm" font-size="24">
   4.4
  </text>
  <circle cx="306.999964mm" cy="220.399964mm" r="2.200229mm" fill="none"/>
  <line x1="311.400421mm" y1="220.399964mm" x2="302.599507mm" y2="220.399964mm" />
  <line x1="306.999964mm" y1="215.999507mm" x2="306.999964mm" y2="224.800421mm" />
  <text x="309mm" y="218mm" font-size="24">
   4.4
  </text>
  <circle cx="339.000087mm" cy="315.400061mm" r="1.250061mm" fill="none"/>
  <line x1="341.500208mm" y1="315.400061mm" x2="336.499966mm" y2="315.400061mm" />
  <line x1="339.000087mm" y1="312.899939mm" x2="339.000087mm" y2="317.900182mm" />
  <text x="340mm" y="314mm" font-size="24">
   2.5
  </text>
  <circle cx="339.000087mm" cy="106.400061mm" r="1.250061mm" fill="none"/>
  <line x1="341.500208mm" y1="106.400061mm" x2="336.499966mm" y2="106.400061mm" />
  <line x1="339.000087mm" y1="103.899939mm" x2="339.000087mm" y2="108.900182mm" />
  <text x="340mm" y="105mm" font-size="24">
   2.5
  </text>
  <circle cx="339.999964mm" cy="201.399964mm" r="2.200229mm" fill="none"/>
  <line x1="344.400421mm" y1="201.399964mm" x2="335.599507mm" y2="201.399964mm" />
  <line x1="339.999964mm" y1="196.999507mm" x2="339.999964mm" y2="205.800421mm" />
  <text x="342mm" y="199mm" font-size="24">
   4.4
  </text>
  <circle cx="369.199964mm" cy="322.799964mm" r="2.200229mm" fill="none"/>
  <line x1="373.600421mm" y1="322.799964mm" x2="364.799507mm" y2="322.799964mm" />
  <line x1="369.199964mm" y1="318.399507mm" x2="369.199964mm" y2="327.200421mm" />
  <text x="371mm" y="320mm" font-size="24">
   4.4
  </text>
  <circle cx="370.499964mm" cy="8.499964mm" r="2.200229mm" fill="none"/>
  <line x1="374.900421mm" y1="8.499964mm" x2="366.099507mm" y2="8.499964mm" />
  <line x1="370.499964mm" y1="4.099507mm" x2="370.499964mm" y2="12.900421mm" />
  <text x="372mm" y="6mm" font-size="24">
   4.4
  </text>
  <circle cx="388.499964mm" cy="269.499964mm" r="2.200229mm" fill="none"/>
  <line x1="392.900421mm" y1="269.499964mm" x2="384.099507mm" y2="269.499964mm" />
  <line x1="388.499964mm" y1="265.099507mm" x2="388.499964mm" y2="273.900421mm" />
  <text x="390mm" y="267mm" font-size="24">
   4.4
  </text>
  <circle cx="389.519964mm" cy="322.799964mm" r="2.200229mm" fill="none"/>
  <line x1="393.920421mm" y1="322.799964mm" x2="385.119507mm" y2="322.799964mm" />
  <line x1="389.519964mm" y1="318.399507mm" x2="389.519964mm" y2="327.200421mm" />
  <text x="391mm" y="320mm" font-size="24">
   4.4
  </text>
  <circle cx="402.500170mm" cy="323.499939mm" r="2.500268mm" fill="none"/>
  <line x1="407.500707mm" y1="323.499939mm" x2="397.499633mm" y2="323.499939mm" />
  <line x1="402.500170mm" y1="318.499402mm" x2="402.500170mm" y2="328.500476mm" />
  <text x="405mm" y="320mm" font-size="24">
   5.0
  </text>
  <circle cx="403.499964mm" cy="8.499964mm" r="2.200229mm" fill="none"/>
  <line x1="407.900421mm" y1="8.499964mm" x2="399.099507mm" y2="8.499964mm" />
  <line x1="403.499964mm" y1="4.099507mm" x2="403.499964mm" y2="12.900421mm" />
  <text x="405mm" y="6mm" font-size="24">
   4.4
  </text>
  <circle cx="416.999964mm" cy="65.119964mm" r="2.200229mm" fill="none"/>
  <line x1="421.400421mm" y1="65.119964mm" x2="412.599507mm" y2="65.119964mm" />
  <line x1="416.999964mm" y1="60.719507mm" x2="416.999964mm" y2="69.520421mm" />
  <text x="419mm" y="62mm" font-size="24">
   4.4
  </text>
  <circle cx="417.799964mm" cy="294.739964mm" r="2.200229mm" fill="none"/>
  <line x1="422.200421mm" y1="294.739964mm" x2="413.399507mm" y2="294.739964mm" />
  <line x1="417.799964mm" y1="290.339507mm" x2="417.799964mm" y2="299.140421mm" />
  <text x="420mm" y="292mm" font-size="24">
   4.4
  </text>
  <circle cx="417.799964mm" cy="36.259964mm" r="2.200229mm" fill="none"/>
  <line x1="422.200421mm" y1="36.259964mm" x2="413.399507mm" y2="36.259964mm" />
  <line x1="417.799964mm" y1="31.859507mm" x2="417.799964mm" y2="40.660421mm" />
  <text x="420mm" y="34mm" font-size="24">
   4.4
  </text>
  <circle cx="420.499964mm" cy="269.499964mm" r="2.200229mm" fill="none"/>
  <line x1="424.900421mm" y1="269.499964mm" x2="416.099507mm" y2="269.499964mm" />
  <line x1="420.499964mm" y1="265.099507mm" x2="420.499964mm" y2="273.900421mm" />
  <text x="422mm" y="267mm" font-size="24">
   4.4
  </text>
  <circle cx="430.599964mm" cy="12.999964mm" r="2.200229mm" fill="none"/>
  <line x1="435.000421mm" y1="12.999964mm" x2="426.199507mm" y2="12.999964mm" />
  <line x1="430.599964mm" y1="8.599507mm" x2="430.599964mm" y2="17.400421mm" />
  <text x="432mm" y="10mm" font-size="24">
   4.4
  </text>
  <circle cx="451.479964mm" cy="322.799964mm" r="2.200229mm" fill="none"/>
  <line x1="455.880421mm" y1="322.799964mm" x2="447.079507mm" y2="322.799964mm" />
  <line x1="451.479964mm" y1="318.399507mm" x2="451.479964mm" y2="327.200421mm" />
  <text x="453mm" y="320mm" font-size="24">
   4.4
  </text>
  <circle cx="465.399964mm" cy="12.999964mm" r="2.200229mm" fill="none"/>
  <line x1="469.800421mm" y1="12.999964mm" x2="460.999507mm" y2="12.999964mm" />
  <line x1="465.399964mm" y1="8.599507mm" x2="465.399964mm" y2="17.400421mm" />
  <text x="467mm" y="10mm" font-size="24">
   4.4
  </text>
  <circle cx="471.799964mm" cy="322.799964mm" r="2.200229mm" fill="none"/>
  <line x1="476.200421mm" y1="322.799964mm" x2="467.399507mm" y2="322.799964mm" />
  <line x1="471.799964mm" y1="318.399507mm" x2="471.799964mm" y2="327.200421mm" />
  <text x="474mm" y="320mm" font-size="24">
   4.4
  </text>
 </g>
</svg>
