<?xml version="1.0"?>
<svg xmlns="http://www.w3.org/2000/svg" version="1.1" height="183mm" width="341mm" >
 <g style="fill-opacity:1.0; stroke:black; stroke-width:1;">
  <line x1="331.000000mm" y1="173.000000mm" x2="331.000000mm" y2="173.000000mm" />
  <line x1="331.000000mm" y1="173.000000mm" x2="0.000000mm" y2="173.000000mm" />
  <line x1="0.000000mm" y1="173.000000mm" x2="0.000000mm" y2="0.000000mm" />
  <line x1="0.000000mm" y1="0.000000mm" x2="331.000000mm" y2="0.000000mm" />
  <line x1="331.000000mm" y1="0.000000mm" x2="331.000000mm" y2="173.000000mm" />
  <circle cx="8.199964mm" cy="30.019964mm" r="2.200229mm" fill="none"/>
  <line x1="12.600421mm" y1="30.019964mm" x2="3.799507mm" y2="30.019964mm" />
  <line x1="8.199964mm" y1="25.619507mm" x2="8.199964mm" y2="34.420421mm" />
  <text x="10mm" y="27mm" font-size="24">
   4.4
  </text>
  <circle cx="8.199964mm" cy="9.699964mm" r="2.200229mm" fill="none"/>
  <line x1="12.600421mm" y1="9.699964mm" x2="3.799507mm" y2="9.699964mm" />
  <line x1="8.199964mm" y1="5.299507mm" x2="8.199964mm" y2="14.100421mm" />
  <text x="10mm" y="7mm" font-size="24">
   4.4
  </text>
  <circle cx="26.099964mm" cy="164.799964mm" r="2.200229mm" fill="none"/>
  <line x1="30.500421mm" y1="164.799964mm" x2="21.699507mm" y2="164.799964mm" />
  <line x1="26.099964mm" y1="160.399507mm" x2="26.099964mm" y2="169.200421mm" />
  <text x="28mm" y="162mm" font-size="24">
   4.4
  </text>
  <circle cx="46.419964mm" cy="164.799964mm" r="2.200229mm" fill="none"/>
  <line x1="50.820421mm" y1="164.799964mm" x2="42.019507mm" y2="164.799964mm" />
  <line x1="46.419964mm" y1="160.399507mm" x2="46.419964mm" y2="169.200421mm" />
  <text x="48mm" y="162mm" font-size="24">
   4.4
  </text>
  <circle cx="51.249964mm" cy="150.349964mm" r="2.200229mm" fill="none"/>
  <line x1="55.650421mm" y1="150.349964mm" x2="46.849507mm" y2="150.349964mm" />
  <line x1="51.249964mm" y1="145.949507mm" x2="51.249964mm" y2="154.750421mm" />
  <text x="53mm" y="148mm" font-size="24">
   4.4
  </text>
  <circle cx="51.249964mm" cy="78.849964mm" r="2.200229mm" fill="none"/>
  <line x1="55.650421mm" y1="78.849964mm" x2="46.849507mm" y2="78.849964mm" />
  <line x1="51.249964mm" y1="74.449507mm" x2="51.249964mm" y2="83.250421mm" />
  <text x="53mm" y="76mm" font-size="24">
   4.4
  </text>
  <circle cx="87.000225mm" cy="114.599651mm" r="37.499925mm" fill="none"/>
  <line x1="162.000075mm" y1="114.599651mm" x2="12.000375mm" y2="114.599651mm" />
  <line x1="87.000225mm" y1="39.599800mm" x2="87.000225mm" y2="189.599501mm" />
  <text x="124mm" y="77mm" font-size="24">
   75.0
  </text>
  <circle cx="122.749964mm" cy="150.349964mm" r="2.200229mm" fill="none"/>
  <line x1="127.150421mm" y1="150.349964mm" x2="118.349507mm" y2="150.349964mm" />
  <line x1="122.749964mm" y1="145.949507mm" x2="122.749964mm" y2="154.750421mm" />
  <text x="124mm" y="148mm" font-size="24">
   4.4
  </text>
  <circle cx="122.749964mm" cy="78.849964mm" r="2.200229mm" fill="none"/>
  <line x1="127.150421mm" y1="78.849964mm" x2="118.349507mm" y2="78.849964mm" />
  <line x1="122.749964mm" y1="74.449507mm" x2="122.749964mm" y2="83.250421mm" />
  <text x="124mm" y="76mm" font-size="24">
   4.4
  </text>
  <circle cx="259.579808mm" cy="165.000013mm" r="2.999761mm" fill="none"/>
  <line x1="265.579330mm" y1="165.000013mm" x2="253.580285mm" y2="165.000013mm" />
  <line x1="259.579808mm" y1="159.000490mm" x2="259.579808mm" y2="170.999535mm" />
  <text x="262mm" y="162mm" font-size="24">
   6.0
  </text>
  <circle cx="271.479818mm" cy="166.000055mm" r="2.000011mm" fill="none"/>
  <line x1="275.479840mm" y1="166.000055mm" x2="267.479795mm" y2="166.000055mm" />
  <line x1="271.479818mm" y1="162.000033mm" x2="271.479818mm" y2="170.000077mm" />
  <text x="273mm" y="164mm" font-size="24">
   4.0
  </text>
  <circle cx="284.579964mm" cy="164.799964mm" r="2.200229mm" fill="none"/>
  <line x1="288.980421mm" y1="164.799964mm" x2="280.179507mm" y2="164.799964mm" />
  <line x1="284.579964mm" y1="160.399507mm" x2="284.579964mm" y2="169.200421mm" />
  <text x="286mm" y="162mm" font-size="24">
   4.4
  </text>
  <circle cx="304.899964mm" cy="164.799964mm" r="2.200229mm" fill="none"/>
  <line x1="309.300421mm" y1="164.799964mm" x2="300.499507mm" y2="164.799964mm" />
  <line x1="304.899964mm" y1="160.399507mm" x2="304.899964mm" y2="169.200421mm" />
  <text x="307mm" y="162mm" font-size="24">
   4.4
  </text>
 </g>
</svg>
