  0
SECTION
  2
BLOCKS
  0
ENDSEC
  0
SECTION
  2
ENTITIES
  0
LINE
  8
0
 10
0
 11
0
 20
0
 21
173
  0
LINE
  8
0
 10
0
 11
331
 20
173
 21
173
  0
LINE
  8
0
 10
331
 11
331
 20
173
 21
0
  0
LINE
  8
0
 10
331
 11
0
 20
0
 21
0
  0
LINE
  8
0
 10
6
 11
6.055
 20
142.98
 21
143.47
  0
LINE
  8
0
 10
6.055
 11
6.218
 20
143.47
 21
143.935
  0
LINE
  8
0
 10
6.218
 11
6.48
 20
143.935
 21
144.352
  0
LINE
  8
0
 10
6.48
 11
6.828
 20
144.352
 21
144.7
  0
LINE
  8
0
 10
6.828
 11
7.245
 20
144.7
 21
144.962
  0
LINE
  8
0
 10
7.245
 11
7.71
 20
144.962
 21
145.125
  0
LINE
  8
0
 10
7.71
 11
8.2
 20
145.125
 21
145.18
  0
LINE
  8
0
 10
8.2
 11
8.69
 20
145.18
 21
145.125
  0
LINE
  8
0
 10
8.69
 11
9.155
 20
145.125
 21
144.962
  0
LINE
  8
0
 10
9.155
 11
9.572
 20
144.962
 21
144.7
  0
LINE
  8
0
 10
9.572
 11
9.92
 20
144.7
 21
144.352
  0
LINE
  8
0
 10
9.92
 11
10.182
 20
144.352
 21
143.935
  0
LINE
  8
0
 10
10.182
 11
10.345
 20
143.935
 21
143.47
  0
LINE
  8
0
 10
10.345
 11
10.4
 20
143.47
 21
142.98
  0
LINE
  8
0
 10
10.4
 11
10.345
 20
142.98
 21
142.49
  0
LINE
  8
0
 10
10.345
 11
10.182
 20
142.49
 21
142.025
  0
LINE
  8
0
 10
10.182
 11
9.92
 20
142.025
 21
141.608
  0
LINE
  8
0
 10
9.92
 11
9.572
 20
141.608
 21
141.26
  0
LINE
  8
0
 10
9.572
 11
9.155
 20
141.26
 21
140.998
  0
LINE
  8
0
 10
9.155
 11
8.69
 20
140.998
 21
140.835
  0
LINE
  8
0
 10
8.69
 11
8.2
 20
140.835
 21
140.78
  0
LINE
  8
0
 10
8.2
 11
7.71
 20
140.78
 21
140.835
  0
LINE
  8
0
 10
7.71
 11
7.245
 20
140.835
 21
140.998
  0
LINE
  8
0
 10
7.245
 11
6.828
 20
140.998
 21
141.26
  0
LINE
  8
0
 10
6.828
 11
6.48
 20
141.26
 21
141.608
  0
LINE
  8
0
 10
6.48
 11
6.218
 20
141.608
 21
142.025
  0
LINE
  8
0
 10
6.218
 11
6.055
 20
142.025
 21
142.49
  0
LINE
  8
0
 10
6.055
 11
6
 20
142.49
 21
142.98
  0
LINE
  8
0
 10
6
 11
6.055
 20
163.3
 21
163.79
  0
LINE
  8
0
 10
6.055
 11
6.218
 20
163.79
 21
164.255
  0
LINE
  8
0
 10
6.218
 11
6.48
 20
164.255
 21
164.672
  0
LINE
  8
0
 10
6.48
 11
6.828
 20
164.672
 21
165.02
  0
LINE
  8
0
 10
6.828
 11
7.245
 20
165.02
 21
165.282
  0
LINE
  8
0
 10
7.245
 11
7.71
 20
165.282
 21
165.445
  0
LINE
  8
0
 10
7.71
 11
8.2
 20
165.445
 21
165.5
  0
LINE
  8
0
 10
8.2
 11
8.69
 20
165.5
 21
165.445
  0
LINE
  8
0
 10
8.69
 11
9.155
 20
165.445
 21
165.282
  0
LINE
  8
0
 10
9.155
 11
9.572
 20
165.282
 21
165.02
  0
LINE
  8
0
 10
9.572
 11
9.92
 20
165.02
 21
164.672
  0
LINE
  8
0
 10
9.92
 11
10.182
 20
164.672
 21
164.255
  0
LINE
  8
0
 10
10.182
 11
10.345
 20
164.255
 21
163.79
  0
LINE
  8
0
 10
10.345
 11
10.4
 20
163.79
 21
163.3
  0
LINE
  8
0
 10
10.4
 11
10.345
 20
163.3
 21
162.81
  0
LINE
  8
0
 10
10.345
 11
10.182
 20
162.81
 21
162.345
  0
LINE
  8
0
 10
10.182
 11
9.92
 20
162.345
 21
161.928
  0
LINE
  8
0
 10
9.92
 11
9.572
 20
161.928
 21
161.58
  0
LINE
  8
0
 10
9.572
 11
9.155
 20
161.58
 21
161.318
  0
LINE
  8
0
 10
9.155
 11
8.69
 20
161.318
 21
161.155
  0
LINE
  8
0
 10
8.69
 11
8.2
 20
161.155
 21
161.1
  0
LINE
  8
0
 10
8.2
 11
7.71
 20
161.1
 21
161.155
  0
LINE
  8
0
 10
7.71
 11
7.245
 20
161.155
 21
161.318
  0
LINE
  8
0
 10
7.245
 11
6.828
 20
161.318
 21
161.58
  0
LINE
  8
0
 10
6.828
 11
6.48
 20
161.58
 21
161.928
  0
LINE
  8
0
 10
6.48
 11
6.218
 20
161.928
 21
162.345
  0
LINE
  8
0
 10
6.218
 11
6.055
 20
162.345
 21
162.81
  0
LINE
  8
0
 10
6.055
 11
6
 20
162.81
 21
163.3
  0
LINE
  8
0
 10
23.9
 11
23.955
 20
8.2
 21
8.69
  0
LINE
  8
0
 10
23.955
 11
24.118
 20
8.69
 21
9.155
  0
LINE
  8
0
 10
24.118
 11
24.38
 20
9.155
 21
9.572
  0
LINE
  8
0
 10
24.38
 11
24.728
 20
9.572
 21
9.92
  0
LINE
  8
0
 10
24.728
 11
25.145
 20
9.92
 21
10.182
  0
LINE
  8
0
 10
25.145
 11
25.61
 20
10.182
 21
10.345
  0
LINE
  8
0
 10
25.61
 11
26.1
 20
10.345
 21
10.4
  0
LINE
  8
0
 10
26.1
 11
26.59
 20
10.4
 21
10.345
  0
LINE
  8
0
 10
26.59
 11
27.055
 20
10.345
 21
10.182
  0
LINE
  8
0
 10
27.055
 11
27.472
 20
10.182
 21
9.92
  0
LINE
  8
0
 10
27.472
 11
27.82
 20
9.92
 21
9.572
  0
LINE
  8
0
 10
27.82
 11
28.082
 20
9.572
 21
9.155
  0
LINE
  8
0
 10
28.082
 11
28.245
 20
9.155
 21
8.69
  0
LINE
  8
0
 10
28.245
 11
28.3
 20
8.69
 21
8.2
  0
LINE
  8
0
 10
28.3
 11
28.245
 20
8.2
 21
7.71
  0
LINE
  8
0
 10
28.245
 11
28.082
 20
7.71
 21
7.245
  0
LINE
  8
0
 10
28.082
 11
27.82
 20
7.245
 21
6.828
  0
LINE
  8
0
 10
27.82
 11
27.472
 20
6.828
 21
6.48
  0
LINE
  8
0
 10
27.472
 11
27.055
 20
6.48
 21
6.218
  0
LINE
  8
0
 10
27.055
 11
26.59
 20
6.218
 21
6.055
  0
LINE
  8
0
 10
26.59
 11
26.1
 20
6.055
 21
6
  0
LINE
  8
0
 10
26.1
 11
25.61
 20
6
 21
6.055
  0
LINE
  8
0
 10
25.61
 11
25.145
 20
6.055
 21
6.218
  0
LINE
  8
0
 10
25.145
 11
24.728
 20
6.218
 21
6.48
  0
LINE
  8
0
 10
24.728
 11
24.38
 20
6.48
 21
6.828
  0
LINE
  8
0
 10
24.38
 11
24.118
 20
6.828
 21
7.245
  0
LINE
  8
0
 10
24.118
 11
23.955
 20
7.245
 21
7.71
  0
LINE
  8
0
 10
23.955
 11
23.9
 20
7.71
 21
8.2
  0
LINE
  8
0
 10
44.22
 11
44.275
 20
8.2
 21
8.69
  0
LINE
  8
0
 10
44.275
 11
44.438
 20
8.69
 21
9.155
  0
LINE
  8
0
 10
44.438
 11
44.7
 20
9.155
 21
9.572
  0
LINE
  8
0
 10
44.7
 11
45.048
 20
9.572
 21
9.92
  0
LINE
  8
0
 10
45.048
 11
45.465
 20
9.92
 21
10.182
  0
LINE
  8
0
 10
45.465
 11
45.93
 20
10.182
 21
10.345
  0
LINE
  8
0
 10
45.93
 11
46.42
 20
10.345
 21
10.4
  0
LINE
  8
0
 10
46.42
 11
46.91
 20
10.4
 21
10.345
  0
LINE
  8
0
 10
46.91
 11
47.375
 20
10.345
 21
10.182
  0
LINE
  8
0
 10
47.375
 11
47.792
 20
10.182
 21
9.92
  0
LINE
  8
0
 10
47.792
 11
48.14
 20
9.92
 21
9.572
  0
LINE
  8
0
 10
48.14
 11
48.402
 20
9.572
 21
9.155
  0
LINE
  8
0
 10
48.402
 11
48.565
 20
9.155
 21
8.69
  0
LINE
  8
0
 10
48.565
 11
48.62
 20
8.69
 21
8.2
  0
LINE
  8
0
 10
48.62
 11
48.565
 20
8.2
 21
7.71
  0
LINE
  8
0
 10
48.565
 11
48.402
 20
7.71
 21
7.245
  0
LINE
  8
0
 10
48.402
 11
48.14
 20
7.245
 21
6.828
  0
LINE
  8
0
 10
48.14
 11
47.792
 20
6.828
 21
6.48
  0
LINE
  8
0
 10
47.792
 11
47.375
 20
6.48
 21
6.218
  0
LINE
  8
0
 10
47.375
 11
46.91
 20
6.218
 21
6.055
  0
LINE
  8
0
 10
46.91
 11
46.42
 20
6.055
 21
6
  0
LINE
  8
0
 10
46.42
 11
45.93
 20
6
 21
6.055
  0
LINE
  8
0
 10
45.93
 11
45.465
 20
6.055
 21
6.218
  0
LINE
  8
0
 10
45.465
 11
45.048
 20
6.218
 21
6.48
  0
LINE
  8
0
 10
45.048
 11
44.7
 20
6.48
 21
6.828
  0
LINE
  8
0
 10
44.7
 11
44.438
 20
6.828
 21
7.245
  0
LINE
  8
0
 10
44.438
 11
44.275
 20
7.245
 21
7.71
  0
LINE
  8
0
 10
44.275
 11
44.22
 20
7.71
 21
8.2
  0
LINE
  8
0
 10
49.05
 11
49.105
 20
22.65
 21
23.14
  0
LINE
  8
0
 10
49.105
 11
49.268
 20
23.14
 21
23.605
  0
LINE
  8
0
 10
49.268
 11
49.53
 20
23.605
 21
24.022
  0
LINE
  8
0
 10
49.53
 11
49.878
 20
24.022
 21
24.37
  0
LINE
  8
0
 10
49.878
 11
50.295
 20
24.37
 21
24.632
  0
LINE
  8
0
 10
50.295
 11
50.76
 20
24.632
 21
24.795
  0
LINE
  8
0
 10
50.76
 11
51.25
 20
24.795
 21
24.85
  0
LINE
  8
0
 10
51.25
 11
51.74
 20
24.85
 21
24.795
  0
LINE
  8
0
 10
51.74
 11
52.205
 20
24.795
 21
24.632
  0
LINE
  8
0
 10
52.205
 11
52.622
 20
24.632
 21
24.37
  0
LINE
  8
0
 10
52.622
 11
52.97
 20
24.37
 21
24.022
  0
LINE
  8
0
 10
52.97
 11
53.232
 20
24.022
 21
23.605
  0
LINE
  8
0
 10
53.232
 11
53.395
 20
23.605
 21
23.14
  0
LINE
  8
0
 10
53.395
 11
53.45
 20
23.14
 21
22.65
  0
LINE
  8
0
 10
53.45
 11
53.395
 20
22.65
 21
22.16
  0
LINE
  8
0
 10
53.395
 11
53.232
 20
22.16
 21
21.695
  0
LINE
  8
0
 10
53.232
 11
52.97
 20
21.695
 21
21.278
  0
LINE
  8
0
 10
52.97
 11
52.622
 20
21.278
 21
20.93
  0
LINE
  8
0
 10
52.622
 11
52.205
 20
20.93
 21
20.668
  0
LINE
  8
0
 10
52.205
 11
51.74
 20
20.668
 21
20.505
  0
LINE
  8
0
 10
51.74
 11
51.25
 20
20.505
 21
20.45
  0
LINE
  8
0
 10
51.25
 11
50.76
 20
20.45
 21
20.505
  0
LINE
  8
0
 10
50.76
 11
50.295
 20
20.505
 21
20.668
  0
LINE
  8
0
 10
50.295
 11
49.878
 20
20.668
 21
20.93
  0
LINE
  8
0
 10
49.878
 11
49.53
 20
20.93
 21
21.278
  0
LINE
  8
0
 10
49.53
 11
49.268
 20
21.278
 21
21.695
  0
LINE
  8
0
 10
49.268
 11
49.105
 20
21.695
 21
22.16
  0
LINE
  8
0
 10
49.105
 11
49.05
 20
22.16
 21
22.65
  0
LINE
  8
0
 10
49.05
 11
49.105
 20
94.15
 21
94.64
  0
LINE
  8
0
 10
49.105
 11
49.268
 20
94.64
 21
95.105
  0
LINE
  8
0
 10
49.268
 11
49.53
 20
95.105
 21
95.522
  0
LINE
  8
0
 10
49.53
 11
49.878
 20
95.522
 21
95.87
  0
LINE
  8
0
 10
49.878
 11
50.295
 20
95.87
 21
96.132
  0
LINE
  8
0
 10
50.295
 11
50.76
 20
96.132
 21
96.295
  0
LINE
  8
0
 10
50.76
 11
51.25
 20
96.295
 21
96.35
  0
LINE
  8
0
 10
51.25
 11
51.74
 20
96.35
 21
96.295
  0
LINE
  8
0
 10
51.74
 11
52.205
 20
96.295
 21
96.132
  0
LINE
  8
0
 10
52.205
 11
52.622
 20
96.132
 21
95.87
  0
LINE
  8
0
 10
52.622
 11
52.97
 20
95.87
 21
95.522
  0
LINE
  8
0
 10
52.97
 11
53.232
 20
95.522
 21
95.105
  0
LINE
  8
0
 10
53.232
 11
53.395
 20
95.105
 21
94.64
  0
LINE
  8
0
 10
53.395
 11
53.45
 20
94.64
 21
94.15
  0
LINE
  8
0
 10
53.45
 11
53.395
 20
94.15
 21
93.66
  0
LINE
  8
0
 10
53.395
 11
53.232
 20
93.66
 21
93.195
  0
LINE
  8
0
 10
53.232
 11
52.97
 20
93.195
 21
92.778
  0
LINE
  8
0
 10
52.97
 11
52.622
 20
92.778
 21
92.43
  0
LINE
  8
0
 10
52.622
 11
52.205
 20
92.43
 21
92.168
  0
LINE
  8
0
 10
52.205
 11
51.74
 20
92.168
 21
92.005
  0
LINE
  8
0
 10
51.74
 11
51.25
 20
92.005
 21
91.95
  0
LINE
  8
0
 10
51.25
 11
50.76
 20
91.95
 21
92.005
  0
LINE
  8
0
 10
50.76
 11
50.295
 20
92.005
 21
92.168
  0
LINE
  8
0
 10
50.295
 11
49.878
 20
92.168
 21
92.43
  0
LINE
  8
0
 10
49.878
 11
49.53
 20
92.43
 21
92.778
  0
LINE
  8
0
 10
49.53
 11
49.268
 20
92.778
 21
93.195
  0
LINE
  8
0
 10
49.268
 11
49.105
 20
93.195
 21
93.66
  0
LINE
  8
0
 10
49.105
 11
49.05
 20
93.66
 21
94.15
  0
LINE
  8
0
 10
49.5
 11
49.643
 20
58.4
 21
61.668
  0
LINE
  8
0
 10
49.643
 11
50.07
 20
61.668
 21
64.912
  0
LINE
  8
0
 10
50.07
 11
50.778
 20
64.912
 21
68.106
  0
LINE
  8
0
 10
50.778
 11
51.762
 20
68.106
 21
71.226
  0
LINE
  8
0
 10
51.762
 11
53.013
 20
71.226
 21
74.248
  0
LINE
  8
0
 10
53.013
 11
54.524
 20
74.248
 21
77.15
  0
LINE
  8
0
 10
54.524
 11
56.282
 20
77.15
 21
79.909
  0
LINE
  8
0
 10
56.282
 11
58.273
 20
79.909
 21
82.505
  0
LINE
  8
0
 10
58.273
 11
60.483
 20
82.505
 21
84.917
  0
LINE
  8
0
 10
60.483
 11
62.895
 20
84.917
 21
87.127
  0
LINE
  8
0
 10
62.895
 11
65.491
 20
87.127
 21
89.118
  0
LINE
  8
0
 10
65.491
 11
68.25
 20
89.118
 21
90.876
  0
LINE
  8
0
 10
68.25
 11
71.152
 20
90.876
 21
92.387
  0
LINE
  8
0
 10
71.152
 11
74.174
 20
92.387
 21
93.638
  0
LINE
  8
0
 10
74.174
 11
77.294
 20
93.638
 21
94.622
  0
LINE
  8
0
 10
77.294
 11
80.488
 20
94.622
 21
95.33
  0
LINE
  8
0
 10
80.488
 11
83.732
 20
95.33
 21
95.757
  0
LINE
  8
0
 10
83.732
 11
87
 20
95.757
 21
95.9
  0
LINE
  8
0
 10
87
 11
90.268
 20
95.9
 21
95.757
  0
LINE
  8
0
 10
90.268
 11
93.512
 20
95.757
 21
95.33
  0
LINE
  8
0
 10
93.512
 11
96.706
 20
95.33
 21
94.622
  0
LINE
  8
0
 10
96.706
 11
99.826
 20
94.622
 21
93.638
  0
LINE
  8
0
 10
99.826
 11
102.848
 20
93.638
 21
92.387
  0
LINE
  8
0
 10
102.848
 11
105.75
 20
92.387
 21
90.876
  0
LINE
  8
0
 10
105.75
 11
108.509
 20
90.876
 21
89.118
  0
LINE
  8
0
 10
108.509
 11
111.105
 20
89.118
 21
87.127
  0
LINE
  8
0
 10
111.105
 11
113.517
 20
87.127
 21
84.917
  0
LINE
  8
0
 10
113.517
 11
115.727
 20
84.917
 21
82.505
  0
LINE
  8
0
 10
115.727
 11
117.718
 20
82.505
 21
79.909
  0
LINE
  8
0
 10
117.718
 11
119.476
 20
79.909
 21
77.15
  0
LINE
  8
0
 10
119.476
 11
120.987
 20
77.15
 21
74.248
  0
LINE
  8
0
 10
120.987
 11
122.238
 20
74.248
 21
71.226
  0
LINE
  8
0
 10
122.238
 11
123.222
 20
71.226
 21
68.106
  0
LINE
  8
0
 10
123.222
 11
123.93
 20
68.106
 21
64.912
  0
LINE
  8
0
 10
123.93
 11
124.357
 20
64.912
 21
61.668
  0
LINE
  8
0
 10
124.357
 11
124.5
 20
61.668
 21
58.4
  0
LINE
  8
0
 10
124.5
 11
124.357
 20
58.4
 21
55.132
  0
LINE
  8
0
 10
124.357
 11
123.93
 20
55.132
 21
51.888
  0
LINE
  8
0
 10
123.93
 11
123.222
 20
51.888
 21
48.694
  0
LINE
  8
0
 10
123.222
 11
122.238
 20
48.694
 21
45.574
  0
LINE
  8
0
 10
122.238
 11
120.987
 20
45.574
 21
42.552
  0
LINE
  8
0
 10
120.987
 11
119.476
 20
42.552
 21
39.65
  0
LINE
  8
0
 10
119.476
 11
117.718
 20
39.65
 21
36.891
  0
LINE
  8
0
 10
117.718
 11
115.727
 20
36.891
 21
34.295
  0
LINE
  8
0
 10
115.727
 11
113.517
 20
34.295
 21
31.883
  0
LINE
  8
0
 10
113.517
 11
111.105
 20
31.883
 21
29.673
  0
LINE
  8
0
 10
111.105
 11
108.509
 20
29.673
 21
27.682
  0
LINE
  8
0
 10
108.509
 11
105.75
 20
27.682
 21
25.924
  0
LINE
  8
0
 10
105.75
 11
102.848
 20
25.924
 21
24.413
  0
LINE
  8
0
 10
102.848
 11
99.826
 20
24.413
 21
23.162
  0
LINE
  8
0
 10
99.826
 11
96.706
 20
23.162
 21
22.178
  0
LINE
  8
0
 10
96.706
 11
93.512
 20
22.178
 21
21.47
  0
LINE
  8
0
 10
93.512
 11
90.268
 20
21.47
 21
21.043
  0
LINE
  8
0
 10
90.268
 11
87
 20
21.043
 21
20.9
  0
LINE
  8
0
 10
87
 11
83.732
 20
20.9
 21
21.043
  0
LINE
  8
0
 10
83.732
 11
80.488
 20
21.043
 21
21.47
  0
LINE
  8
0
 10
80.488
 11
77.294
 20
21.47
 21
22.178
  0
LINE
  8
0
 10
77.294
 11
74.174
 20
22.178
 21
23.162
  0
LINE
  8
0
 10
74.174
 11
71.152
 20
23.162
 21
24.413
  0
LINE
  8
0
 10
71.152
 11
68.25
 20
24.413
 21
25.924
  0
LINE
  8
0
 10
68.25
 11
65.491
 20
25.924
 21
27.682
  0
LINE
  8
0
 10
65.491
 11
62.895
 20
27.682
 21
29.673
  0
LINE
  8
0
 10
62.895
 11
60.483
 20
29.673
 21
31.883
  0
LINE
  8
0
 10
60.483
 11
58.273
 20
31.883
 21
34.295
  0
LINE
  8
0
 10
58.273
 11
56.282
 20
34.295
 21
36.891
  0
LINE
  8
0
 10
56.282
 11
54.524
 20
36.891
 21
39.65
  0
LINE
  8
0
 10
54.524
 11
53.013
 20
39.65
 21
42.552
  0
LINE
  8
0
 10
53.013
 11
51.762
 20
42.552
 21
45.574
  0
LINE
  8
0
 10
51.762
 11
50.778
 20
45.574
 21
48.694
  0
LINE
  8
0
 10
50.778
 11
50.07
 20
48.694
 21
51.888
  0
LINE
  8
0
 10
50.07
 11
49.643
 20
51.888
 21
55.132
  0
LINE
  8
0
 10
49.643
 11
49.5
 20
55.132
 21
58.4
  0
LINE
  8
0
 10
120.55
 11
120.605
 20
22.65
 21
23.14
  0
LINE
  8
0
 10
120.605
 11
120.768
 20
23.14
 21
23.605
  0
LINE
  8
0
 10
120.768
 11
121.03
 20
23.605
 21
24.022
  0
LINE
  8
0
 10
121.03
 11
121.378
 20
24.022
 21
24.37
  0
LINE
  8
0
 10
121.378
 11
121.795
 20
24.37
 21
24.632
  0
LINE
  8
0
 10
121.795
 11
122.26
 20
24.632
 21
24.795
  0
LINE
  8
0
 10
122.26
 11
122.75
 20
24.795
 21
24.85
  0
LINE
  8
0
 10
122.75
 11
123.24
 20
24.85
 21
24.795
  0
LINE
  8
0
 10
123.24
 11
123.705
 20
24.795
 21
24.632
  0
LINE
  8
0
 10
123.705
 11
124.122
 20
24.632
 21
24.37
  0
LINE
  8
0
 10
124.122
 11
124.47
 20
24.37
 21
24.022
  0
LINE
  8
0
 10
124.47
 11
124.732
 20
24.022
 21
23.605
  0
LINE
  8
0
 10
124.732
 11
124.895
 20
23.605
 21
23.14
  0
LINE
  8
0
 10
124.895
 11
124.95
 20
23.14
 21
22.65
  0
LINE
  8
0
 10
124.95
 11
124.895
 20
22.65
 21
22.16
  0
LINE
  8
0
 10
124.895
 11
124.732
 20
22.16
 21
21.695
  0
LINE
  8
0
 10
124.732
 11
124.47
 20
21.695
 21
21.278
  0
LINE
  8
0
 10
124.47
 11
124.122
 20
21.278
 21
20.93
  0
LINE
  8
0
 10
124.122
 11
123.705
 20
20.93
 21
20.668
  0
LINE
  8
0
 10
123.705
 11
123.24
 20
20.668
 21
20.505
  0
LINE
  8
0
 10
123.24
 11
122.75
 20
20.505
 21
20.45
  0
LINE
  8
0
 10
122.75
 11
122.26
 20
20.45
 21
20.505
  0
LINE
  8
0
 10
122.26
 11
121.795
 20
20.505
 21
20.668
  0
LINE
  8
0
 10
121.795
 11
121.378
 20
20.668
 21
20.93
  0
LINE
  8
0
 10
121.378
 11
121.03
 20
20.93
 21
21.278
  0
LINE
  8
0
 10
121.03
 11
120.768
 20
21.278
 21
21.695
  0
LINE
  8
0
 10
120.768
 11
120.605
 20
21.695
 21
22.16
  0
LINE
  8
0
 10
120.605
 11
120.55
 20
22.16
 21
22.65
  0
LINE
  8
0
 10
120.55
 11
120.605
 20
94.15
 21
94.64
  0
LINE
  8
0
 10
120.605
 11
120.768
 20
94.64
 21
95.105
  0
LINE
  8
0
 10
120.768
 11
121.03
 20
95.105
 21
95.522
  0
LINE
  8
0
 10
121.03
 11
121.378
 20
95.522
 21
95.87
  0
LINE
  8
0
 10
121.378
 11
121.795
 20
95.87
 21
96.132
  0
LINE
  8
0
 10
121.795
 11
122.26
 20
96.132
 21
96.295
  0
LINE
  8
0
 10
122.26
 11
122.75
 20
96.295
 21
96.35
  0
LINE
  8
0
 10
122.75
 11
123.24
 20
96.35
 21
96.295
  0
LINE
  8
0
 10
123.24
 11
123.705
 20
96.295
 21
96.132
  0
LINE
  8
0
 10
123.705
 11
124.122
 20
96.132
 21
95.87
  0
LINE
  8
0
 10
124.122
 11
124.47
 20
95.87
 21
95.522
  0
LINE
  8
0
 10
124.47
 11
124.732
 20
95.522
 21
95.105
  0
LINE
  8
0
 10
124.732
 11
124.895
 20
95.105
 21
94.64
  0
LINE
  8
0
 10
124.895
 11
124.95
 20
94.64
 21
94.15
  0
LINE
  8
0
 10
124.95
 11
124.895
 20
94.15
 21
93.66
  0
LINE
  8
0
 10
124.895
 11
124.732
 20
93.66
 21
93.195
  0
LINE
  8
0
 10
124.732
 11
124.47
 20
93.195
 21
92.778
  0
LINE
  8
0
 10
124.47
 11
124.122
 20
92.778
 21
92.43
  0
LINE
  8
0
 10
124.122
 11
123.705
 20
92.43
 21
92.168
  0
LINE
  8
0
 10
123.705
 11
123.24
 20
92.168
 21
92.005
  0
LINE
  8
0
 10
123.24
 11
122.75
 20
92.005
 21
91.95
  0
LINE
  8
0
 10
122.75
 11
122.26
 20
91.95
 21
92.005
  0
LINE
  8
0
 10
122.26
 11
121.795
 20
92.005
 21
92.168
  0
LINE
  8
0
 10
121.795
 11
121.378
 20
92.168
 21
92.43
  0
LINE
  8
0
 10
121.378
 11
121.03
 20
92.43
 21
92.778
  0
LINE
  8
0
 10
121.03
 11
120.768
 20
92.778
 21
93.195
  0
LINE
  8
0
 10
120.768
 11
120.605
 20
93.195
 21
93.66
  0
LINE
  8
0
 10
120.605
 11
120.55
 20
93.66
 21
94.15
  0
LINE
  8
0
 10
256.58
 11
256.621
 20
8
 21
8.494
  0
LINE
  8
0
 10
256.621
 11
256.743
 20
8.494
 21
8.974
  0
LINE
  8
0
 10
256.743
 11
256.942
 20
8.974
 21
9.428
  0
LINE
  8
0
 10
256.942
 11
257.213
 20
9.428
 21
9.843
  0
LINE
  8
0
 10
257.213
 11
257.548
 20
9.843
 21
10.207
  0
LINE
  8
0
 10
257.548
 11
257.939
 20
10.207
 21
10.511
  0
LINE
  8
0
 10
257.939
 11
258.375
 20
10.511
 21
10.747
  0
LINE
  8
0
 10
258.375
 11
258.844
 20
10.747
 21
10.908
  0
LINE
  8
0
 10
258.844
 11
259.332
 20
10.908
 21
10.99
  0
LINE
  8
0
 10
259.332
 11
259.828
 20
10.99
 21
10.99
  0
LINE
  8
0
 10
259.828
 11
260.316
 20
10.99
 21
10.908
  0
LINE
  8
0
 10
260.316
 11
260.785
 20
10.908
 21
10.747
  0
LINE
  8
0
 10
260.785
 11
261.221
 20
10.747
 21
10.511
  0
LINE
  8
0
 10
261.221
 11
261.612
 20
10.511
 21
10.207
  0
LINE
  8
0
 10
261.612
 11
261.947
 20
10.207
 21
9.843
  0
LINE
  8
0
 10
261.947
 11
262.218
 20
9.843
 21
9.428
  0
LINE
  8
0
 10
262.218
 11
262.417
 20
9.428
 21
8.974
  0
LINE
  8
0
 10
262.417
 11
262.539
 20
8.974
 21
8.494
  0
LINE
  8
0
 10
262.539
 11
262.58
 20
8.494
 21
8
  0
LINE
  8
0
 10
262.58
 11
262.539
 20
8
 21
7.506
  0
LINE
  8
0
 10
262.539
 11
262.417
 20
7.506
 21
7.026
  0
LINE
  8
0
 10
262.417
 11
262.218
 20
7.026
 21
6.572
  0
LINE
  8
0
 10
262.218
 11
261.947
 20
6.572
 21
6.157
  0
LINE
  8
0
 10
261.947
 11
261.612
 20
6.157
 21
5.793
  0
LINE
  8
0
 10
261.612
 11
261.221
 20
5.793
 21
5.489
  0
LINE
  8
0
 10
261.221
 11
260.785
 20
5.489
 21
5.253
  0
LINE
  8
0
 10
260.785
 11
260.316
 20
5.253
 21
5.092
  0
LINE
  8
0
 10
260.316
 11
259.828
 20
5.092
 21
5.01
  0
LINE
  8
0
 10
259.828
 11
259.332
 20
5.01
 21
5.01
  0
LINE
  8
0
 10
259.332
 11
258.844
 20
5.01
 21
5.092
  0
LINE
  8
0
 10
258.844
 11
258.375
 20
5.092
 21
5.253
  0
LINE
  8
0
 10
258.375
 11
257.939
 20
5.253
 21
5.489
  0
LINE
  8
0
 10
257.939
 11
257.548
 20
5.489
 21
5.793
  0
LINE
  8
0
 10
257.548
 11
257.213
 20
5.793
 21
6.157
  0
LINE
  8
0
 10
257.213
 11
256.942
 20
6.157
 21
6.572
  0
LINE
  8
0
 10
256.942
 11
256.743
 20
6.572
 21
7.026
  0
LINE
  8
0
 10
256.743
 11
256.621
 20
7.026
 21
7.506
  0
LINE
  8
0
 10
256.621
 11
256.58
 20
7.506
 21
8
  0
LINE
  8
0
 10
269.48
 11
269.538
 20
7
 21
7.479
  0
LINE
  8
0
 10
269.538
 11
269.709
 20
7.479
 21
7.929
  0
LINE
  8
0
 10
269.709
 11
269.983
 20
7.929
 21
8.326
  0
LINE
  8
0
 10
269.983
 11
270.344
 20
8.326
 21
8.646
  0
LINE
  8
0
 10
270.344
 11
270.771
 20
8.646
 21
8.87
  0
LINE
  8
0
 10
270.771
 11
271.239
 20
8.87
 21
8.985
  0
LINE
  8
0
 10
271.239
 11
271.721
 20
8.985
 21
8.985
  0
LINE
  8
0
 10
271.721
 11
272.189
 20
8.985
 21
8.87
  0
LINE
  8
0
 10
272.189
 11
272.616
 20
8.87
 21
8.646
  0
LINE
  8
0
 10
272.616
 11
272.977
 20
8.646
 21
8.326
  0
LINE
  8
0
 10
272.977
 11
273.251
 20
8.326
 21
7.929
  0
LINE
  8
0
 10
273.251
 11
273.422
 20
7.929
 21
7.479
  0
LINE
  8
0
 10
273.422
 11
273.48
 20
7.479
 21
7
  0
LINE
  8
0
 10
273.48
 11
273.422
 20
7
 21
6.521
  0
LINE
  8
0
 10
273.422
 11
273.251
 20
6.521
 21
6.071
  0
LINE
  8
0
 10
273.251
 11
272.977
 20
6.071
 21
5.674
  0
LINE
  8
0
 10
272.977
 11
272.616
 20
5.674
 21
5.354
  0
LINE
  8
0
 10
272.616
 11
272.189
 20
5.354
 21
5.13
  0
LINE
  8
0
 10
272.189
 11
271.721
 20
5.13
 21
5.015
  0
LINE
  8
0
 10
271.721
 11
271.239
 20
5.015
 21
5.015
  0
LINE
  8
0
 10
271.239
 11
270.771
 20
5.015
 21
5.13
  0
LINE
  8
0
 10
270.771
 11
270.344
 20
5.13
 21
5.354
  0
LINE
  8
0
 10
270.344
 11
269.983
 20
5.354
 21
5.674
  0
LINE
  8
0
 10
269.983
 11
269.709
 20
5.674
 21
6.071
  0
LINE
  8
0
 10
269.709
 11
269.538
 20
6.071
 21
6.521
  0
LINE
  8
0
 10
269.538
 11
269.48
 20
6.521
 21
7
  0
LINE
  8
0
 10
282.38
 11
282.435
 20
8.2
 21
8.69
  0
LINE
  8
0
 10
282.435
 11
282.598
 20
8.69
 21
9.155
  0
LINE
  8
0
 10
282.598
 11
282.86
 20
9.155
 21
9.572
  0
LINE
  8
0
 10
282.86
 11
283.208
 20
9.572
 21
9.92
  0
LINE
  8
0
 10
283.208
 11
283.625
 20
9.92
 21
10.182
  0
LINE
  8
0
 10
283.625
 11
284.09
 20
10.182
 21
10.345
  0
LINE
  8
0
 10
284.09
 11
284.58
 20
10.345
 21
10.4
  0
LINE
  8
0
 10
284.58
 11
285.07
 20
10.4
 21
10.345
  0
LINE
  8
0
 10
285.07
 11
285.535
 20
10.345
 21
10.182
  0
LINE
  8
0
 10
285.535
 11
285.952
 20
10.182
 21
9.92
  0
LINE
  8
0
 10
285.952
 11
286.3
 20
9.92
 21
9.572
  0
LINE
  8
0
 10
286.3
 11
286.562
 20
9.572
 21
9.155
  0
LINE
  8
0
 10
286.562
 11
286.725
 20
9.155
 21
8.69
  0
LINE
  8
0
 10
286.725
 11
286.78
 20
8.69
 21
8.2
  0
LINE
  8
0
 10
286.78
 11
286.725
 20
8.2
 21
7.71
  0
LINE
  8
0
 10
286.725
 11
286.562
 20
7.71
 21
7.245
  0
LINE
  8
0
 10
286.562
 11
286.3
 20
7.245
 21
6.828
  0
LINE
  8
0
 10
286.3
 11
285.952
 20
6.828
 21
6.48
  0
LINE
  8
0
 10
285.952
 11
285.535
 20
6.48
 21
6.218
  0
LINE
  8
0
 10
285.535
 11
285.07
 20
6.218
 21
6.055
  0
LINE
  8
0
 10
285.07
 11
284.58
 20
6.055
 21
6
  0
LINE
  8
0
 10
284.58
 11
284.09
 20
6
 21
6.055
  0
LINE
  8
0
 10
284.09
 11
283.625
 20
6.055
 21
6.218
  0
LINE
  8
0
 10
283.625
 11
283.208
 20
6.218
 21
6.48
  0
LINE
  8
0
 10
283.208
 11
282.86
 20
6.48
 21
6.828
  0
LINE
  8
0
 10
282.86
 11
282.598
 20
6.828
 21
7.245
  0
LINE
  8
0
 10
282.598
 11
282.435
 20
7.245
 21
7.71
  0
LINE
  8
0
 10
282.435
 11
282.38
 20
7.71
 21
8.2
  0
LINE
  8
0
 10
302.7
 11
302.755
 20
8.2
 21
8.69
  0
LINE
  8
0
 10
302.755
 11
302.918
 20
8.69
 21
9.155
  0
LINE
  8
0
 10
302.918
 11
303.18
 20
9.155
 21
9.572
  0
LINE
  8
0
 10
303.18
 11
303.528
 20
9.572
 21
9.92
  0
LINE
  8
0
 10
303.528
 11
303.945
 20
9.92
 21
10.182
  0
LINE
  8
0
 10
303.945
 11
304.41
 20
10.182
 21
10.345
  0
LINE
  8
0
 10
304.41
 11
304.9
 20
10.345
 21
10.4
  0
LINE
  8
0
 10
304.9
 11
305.39
 20
10.4
 21
10.345
  0
LINE
  8
0
 10
305.39
 11
305.855
 20
10.345
 21
10.182
  0
LINE
  8
0
 10
305.855
 11
306.272
 20
10.182
 21
9.92
  0
LINE
  8
0
 10
306.272
 11
306.62
 20
9.92
 21
9.572
  0
LINE
  8
0
 10
306.62
 11
306.882
 20
9.572
 21
9.155
  0
LINE
  8
0
 10
306.882
 11
307.045
 20
9.155
 21
8.69
  0
LINE
  8
0
 10
307.045
 11
307.1
 20
8.69
 21
8.2
  0
LINE
  8
0
 10
307.1
 11
307.045
 20
8.2
 21
7.71
  0
LINE
  8
0
 10
307.045
 11
306.882
 20
7.71
 21
7.245
  0
LINE
  8
0
 10
306.882
 11
306.62
 20
7.245
 21
6.828
  0
LINE
  8
0
 10
306.62
 11
306.272
 20
6.828
 21
6.48
  0
LINE
  8
0
 10
306.272
 11
305.855
 20
6.48
 21
6.218
  0
LINE
  8
0
 10
305.855
 11
305.39
 20
6.218
 21
6.055
  0
LINE
  8
0
 10
305.39
 11
304.9
 20
6.055
 21
6
  0
LINE
  8
0
 10
304.9
 11
304.41
 20
6
 21
6.055
  0
LINE
  8
0
 10
304.41
 11
303.945
 20
6.055
 21
6.218
  0
LINE
  8
0
 10
303.945
 11
303.528
 20
6.218
 21
6.48
  0
LINE
  8
0
 10
303.528
 11
303.18
 20
6.48
 21
6.828
  0
LINE
  8
0
 10
303.18
 11
302.918
 20
6.828
 21
7.245
  0
LINE
  8
0
 10
302.918
 11
302.755
 20
7.245
 21
7.71
  0
LINE
  8
0
 10
302.755
 11
302.7
 20
7.71
 21
8.2
  0
ENDSEC
  0
SECTION
  2
OBJECTS
  0
DICTIONARY
  0
ENDSEC
  0
EOF
