  0
SECTION
  2
BLOCKS
  0
ENDSEC
  0
SECTION
  2
ENTITIES
  0
LINE
  8
0
 10
0
 11
0
 20
0
 21
173
  0
LINE
  8
0
 10
0
 11
331
 20
173
 21
173
  0
LINE
  8
0
 10
331
 11
331
 20
173
 21
0
  0
LINE
  8
0
 10
331
 11
0
 20
0
 21
0
  0
LINE
  8
0
 10
5
 11
5.048
 20
18.9
 21
19.388
  0
LINE
  8
0
 10
5.048
 11
5.19
 20
19.388
 21
19.857
  0
LINE
  8
0
 10
5.19
 11
5.421
 20
19.857
 21
20.289
  0
LINE
  8
0
 10
5.421
 11
5.732
 20
20.289
 21
20.668
  0
LINE
  8
0
 10
5.732
 11
6.111
 20
20.668
 21
20.979
  0
LINE
  8
0
 10
6.111
 11
6.543
 20
20.979
 21
21.21
  0
LINE
  8
0
 10
6.543
 11
7.012
 20
21.21
 21
21.352
  0
LINE
  8
0
 10
7.012
 11
7.5
 20
21.352
 21
21.4
  0
LINE
  8
0
 10
7.5
 11
7.988
 20
21.4
 21
21.352
  0
LINE
  8
0
 10
7.988
 11
8.457
 20
21.352
 21
21.21
  0
LINE
  8
0
 10
8.457
 11
8.889
 20
21.21
 21
20.979
  0
LINE
  8
0
 10
8.889
 11
9.268
 20
20.979
 21
20.668
  0
LINE
  8
0
 10
9.268
 11
9.579
 20
20.668
 21
20.289
  0
LINE
  8
0
 10
9.579
 11
9.81
 20
20.289
 21
19.857
  0
LINE
  8
0
 10
9.81
 11
9.952
 20
19.857
 21
19.388
  0
LINE
  8
0
 10
9.952
 11
10
 20
19.388
 21
18.9
  0
LINE
  8
0
 10
10
 11
9.952
 20
18.9
 21
18.412
  0
LINE
  8
0
 10
9.952
 11
9.81
 20
18.412
 21
17.943
  0
LINE
  8
0
 10
9.81
 11
9.579
 20
17.943
 21
17.511
  0
LINE
  8
0
 10
9.579
 11
9.268
 20
17.511
 21
17.132
  0
LINE
  8
0
 10
9.268
 11
8.889
 20
17.132
 21
16.821
  0
LINE
  8
0
 10
8.889
 11
8.457
 20
16.821
 21
16.59
  0
LINE
  8
0
 10
8.457
 11
7.988
 20
16.59
 21
16.448
  0
LINE
  8
0
 10
7.988
 11
7.5
 20
16.448
 21
16.4
  0
LINE
  8
0
 10
7.5
 11
7.012
 20
16.4
 21
16.448
  0
LINE
  8
0
 10
7.012
 11
6.543
 20
16.448
 21
16.59
  0
LINE
  8
0
 10
6.543
 11
6.111
 20
16.59
 21
16.821
  0
LINE
  8
0
 10
6.111
 11
5.732
 20
16.821
 21
17.132
  0
LINE
  8
0
 10
5.732
 11
5.421
 20
17.132
 21
17.511
  0
LINE
  8
0
 10
5.421
 11
5.19
 20
17.511
 21
17.943
  0
LINE
  8
0
 10
5.19
 11
5.048
 20
17.943
 21
18.412
  0
LINE
  8
0
 10
5.048
 11
5
 20
18.412
 21
18.9
  0
LINE
  8
0
 10
5
 11
5.048
 20
28.9
 21
29.388
  0
LINE
  8
0
 10
5.048
 11
5.19
 20
29.388
 21
29.857
  0
LINE
  8
0
 10
5.19
 11
5.421
 20
29.857
 21
30.289
  0
LINE
  8
0
 10
5.421
 11
5.732
 20
30.289
 21
30.668
  0
LINE
  8
0
 10
5.732
 11
6.111
 20
30.668
 21
30.979
  0
LINE
  8
0
 10
6.111
 11
6.543
 20
30.979
 21
31.21
  0
LINE
  8
0
 10
6.543
 11
7.012
 20
31.21
 21
31.352
  0
LINE
  8
0
 10
7.012
 11
7.5
 20
31.352
 21
31.4
  0
LINE
  8
0
 10
7.5
 11
7.988
 20
31.4
 21
31.352
  0
LINE
  8
0
 10
7.988
 11
8.457
 20
31.352
 21
31.21
  0
LINE
  8
0
 10
8.457
 11
8.889
 20
31.21
 21
30.979
  0
LINE
  8
0
 10
8.889
 11
9.268
 20
30.979
 21
30.668
  0
LINE
  8
0
 10
9.268
 11
9.579
 20
30.668
 21
30.289
  0
LINE
  8
0
 10
9.579
 11
9.81
 20
30.289
 21
29.857
  0
LINE
  8
0
 10
9.81
 11
9.952
 20
29.857
 21
29.388
  0
LINE
  8
0
 10
9.952
 11
10
 20
29.388
 21
28.9
  0
LINE
  8
0
 10
10
 11
9.952
 20
28.9
 21
28.412
  0
LINE
  8
0
 10
9.952
 11
9.81
 20
28.412
 21
27.943
  0
LINE
  8
0
 10
9.81
 11
9.579
 20
27.943
 21
27.511
  0
LINE
  8
0
 10
9.579
 11
9.268
 20
27.511
 21
27.132
  0
LINE
  8
0
 10
9.268
 11
8.889
 20
27.132
 21
26.821
  0
LINE
  8
0
 10
8.889
 11
8.457
 20
26.821
 21
26.59
  0
LINE
  8
0
 10
8.457
 11
7.988
 20
26.59
 21
26.448
  0
LINE
  8
0
 10
7.988
 11
7.5
 20
26.448
 21
26.4
  0
LINE
  8
0
 10
7.5
 11
7.012
 20
26.4
 21
26.448
  0
LINE
  8
0
 10
7.012
 11
6.543
 20
26.448
 21
26.59
  0
LINE
  8
0
 10
6.543
 11
6.111
 20
26.59
 21
26.821
  0
LINE
  8
0
 10
6.111
 11
5.732
 20
26.821
 21
27.132
  0
LINE
  8
0
 10
5.732
 11
5.421
 20
27.132
 21
27.511
  0
LINE
  8
0
 10
5.421
 11
5.19
 20
27.511
 21
27.943
  0
LINE
  8
0
 10
5.19
 11
5.048
 20
27.943
 21
28.412
  0
LINE
  8
0
 10
5.048
 11
5
 20
28.412
 21
28.9
  0
LINE
  8
0
 10
5
 11
5.058
 20
38.4
 21
38.879
  0
LINE
  8
0
 10
5.058
 11
5.229
 20
38.879
 21
39.329
  0
LINE
  8
0
 10
5.229
 11
5.503
 20
39.329
 21
39.726
  0
LINE
  8
0
 10
5.503
 11
5.864
 20
39.726
 21
40.046
  0
LINE
  8
0
 10
5.864
 11
6.291
 20
40.046
 21
40.27
  0
LINE
  8
0
 10
6.291
 11
6.759
 20
40.27
 21
40.385
  0
LINE
  8
0
 10
6.759
 11
7.241
 20
40.385
 21
40.385
  0
LINE
  8
0
 10
7.241
 11
7.709
 20
40.385
 21
40.27
  0
LINE
  8
0
 10
7.709
 11
8.136
 20
40.27
 21
40.046
  0
LINE
  8
0
 10
8.136
 11
8.497
 20
40.046
 21
39.726
  0
LINE
  8
0
 10
8.497
 11
8.771
 20
39.726
 21
39.329
  0
LINE
  8
0
 10
8.771
 11
8.942
 20
39.329
 21
38.879
  0
LINE
  8
0
 10
8.942
 11
9
 20
38.879
 21
38.4
  0
LINE
  8
0
 10
9
 11
8.942
 20
38.4
 21
37.921
  0
LINE
  8
0
 10
8.942
 11
8.771
 20
37.921
 21
37.471
  0
LINE
  8
0
 10
8.771
 11
8.497
 20
37.471
 21
37.074
  0
LINE
  8
0
 10
8.497
 11
8.136
 20
37.074
 21
36.754
  0
LINE
  8
0
 10
8.136
 11
7.709
 20
36.754
 21
36.53
  0
LINE
  8
0
 10
7.709
 11
7.241
 20
36.53
 21
36.415
  0
LINE
  8
0
 10
7.241
 11
6.759
 20
36.415
 21
36.415
  0
LINE
  8
0
 10
6.759
 11
6.291
 20
36.415
 21
36.53
  0
LINE
  8
0
 10
6.291
 11
5.864
 20
36.53
 21
36.754
  0
LINE
  8
0
 10
5.864
 11
5.503
 20
36.754
 21
37.074
  0
LINE
  8
0
 10
5.503
 11
5.229
 20
37.074
 21
37.471
  0
LINE
  8
0
 10
5.229
 11
5.058
 20
37.471
 21
37.921
  0
LINE
  8
0
 10
5.058
 11
5
 20
37.921
 21
38.4
  0
LINE
  8
0
 10
5
 11
5.058
 20
119.28
 21
119.759
  0
LINE
  8
0
 10
5.058
 11
5.229
 20
119.759
 21
120.209
  0
LINE
  8
0
 10
5.229
 11
5.503
 20
120.209
 21
120.606
  0
LINE
  8
0
 10
5.503
 11
5.864
 20
120.606
 21
120.926
  0
LINE
  8
0
 10
5.864
 11
6.291
 20
120.926
 21
121.15
  0
LINE
  8
0
 10
6.291
 11
6.759
 20
121.15
 21
121.265
  0
LINE
  8
0
 10
6.759
 11
7.241
 20
121.265
 21
121.265
  0
LINE
  8
0
 10
7.241
 11
7.709
 20
121.265
 21
121.15
  0
LINE
  8
0
 10
7.709
 11
8.136
 20
121.15
 21
120.926
  0
LINE
  8
0
 10
8.136
 11
8.497
 20
120.926
 21
120.606
  0
LINE
  8
0
 10
8.497
 11
8.771
 20
120.606
 21
120.209
  0
LINE
  8
0
 10
8.771
 11
8.942
 20
120.209
 21
119.759
  0
LINE
  8
0
 10
8.942
 11
9
 20
119.759
 21
119.28
  0
LINE
  8
0
 10
9
 11
8.942
 20
119.28
 21
118.801
  0
LINE
  8
0
 10
8.942
 11
8.771
 20
118.801
 21
118.351
  0
LINE
  8
0
 10
8.771
 11
8.497
 20
118.351
 21
117.954
  0
LINE
  8
0
 10
8.497
 11
8.136
 20
117.954
 21
117.634
  0
LINE
  8
0
 10
8.136
 11
7.709
 20
117.634
 21
117.41
  0
LINE
  8
0
 10
7.709
 11
7.241
 20
117.41
 21
117.295
  0
LINE
  8
0
 10
7.241
 11
6.759
 20
117.295
 21
117.295
  0
LINE
  8
0
 10
6.759
 11
6.291
 20
117.295
 21
117.41
  0
LINE
  8
0
 10
6.291
 11
5.864
 20
117.41
 21
117.634
  0
LINE
  8
0
 10
5.864
 11
5.503
 20
117.634
 21
117.954
  0
LINE
  8
0
 10
5.503
 11
5.229
 20
117.954
 21
118.351
  0
LINE
  8
0
 10
5.229
 11
5.058
 20
118.351
 21
118.801
  0
LINE
  8
0
 10
5.058
 11
5
 20
118.801
 21
119.28
  0
LINE
  8
0
 10
5
 11
5.036
 20
129.78
 21
130.278
  0
LINE
  8
0
 10
5.036
 11
5.142
 20
130.278
 21
130.766
  0
LINE
  8
0
 10
5.142
 11
5.316
 20
130.766
 21
131.234
  0
LINE
  8
0
 10
5.316
 11
5.556
 20
131.234
 21
131.672
  0
LINE
  8
0
 10
5.556
 11
5.855
 20
131.672
 21
132.072
  0
LINE
  8
0
 10
5.855
 11
6.208
 20
132.072
 21
132.425
  0
LINE
  8
0
 10
6.208
 11
6.608
 20
132.425
 21
132.724
  0
LINE
  8
0
 10
6.608
 11
7.046
 20
132.724
 21
132.964
  0
LINE
  8
0
 10
7.046
 11
7.514
 20
132.964
 21
133.138
  0
LINE
  8
0
 10
7.514
 11
8.002
 20
133.138
 21
133.244
  0
LINE
  8
0
 10
8.002
 11
8.5
 20
133.244
 21
133.28
  0
LINE
  8
0
 10
8.5
 11
8.998
 20
133.28
 21
133.244
  0
LINE
  8
0
 10
8.998
 11
9.486
 20
133.244
 21
133.138
  0
LINE
  8
0
 10
9.486
 11
9.954
 20
133.138
 21
132.964
  0
LINE
  8
0
 10
9.954
 11
10.392
 20
132.964
 21
132.724
  0
LINE
  8
0
 10
10.392
 11
10.792
 20
132.724
 21
132.425
  0
LINE
  8
0
 10
10.792
 11
11.145
 20
132.425
 21
132.072
  0
LINE
  8
0
 10
11.145
 11
11.444
 20
132.072
 21
131.672
  0
LINE
  8
0
 10
11.444
 11
11.684
 20
131.672
 21
131.234
  0
LINE
  8
0
 10
11.684
 11
11.858
 20
131.234
 21
130.766
  0
LINE
  8
0
 10
11.858
 11
11.964
 20
130.766
 21
130.278
  0
LINE
  8
0
 10
11.964
 11
12
 20
130.278
 21
129.78
  0
LINE
  8
0
 10
12
 11
11.964
 20
129.78
 21
129.282
  0
LINE
  8
0
 10
11.964
 11
11.858
 20
129.282
 21
128.794
  0
LINE
  8
0
 10
11.858
 11
11.684
 20
128.794
 21
128.326
  0
LINE
  8
0
 10
11.684
 11
11.444
 20
128.326
 21
127.888
  0
LINE
  8
0
 10
11.444
 11
11.145
 20
127.888
 21
127.488
  0
LINE
  8
0
 10
11.145
 11
10.792
 20
127.488
 21
127.135
  0
LINE
  8
0
 10
10.792
 11
10.392
 20
127.135
 21
126.836
  0
LINE
  8
0
 10
10.392
 11
9.954
 20
126.836
 21
126.596
  0
LINE
  8
0
 10
9.954
 11
9.486
 20
126.596
 21
126.422
  0
LINE
  8
0
 10
9.486
 11
8.998
 20
126.422
 21
126.316
  0
LINE
  8
0
 10
8.998
 11
8.5
 20
126.316
 21
126.28
  0
LINE
  8
0
 10
8.5
 11
8.002
 20
126.28
 21
126.316
  0
LINE
  8
0
 10
8.002
 11
7.514
 20
126.316
 21
126.422
  0
LINE
  8
0
 10
7.514
 11
7.046
 20
126.422
 21
126.596
  0
LINE
  8
0
 10
7.046
 11
6.608
 20
126.596
 21
126.836
  0
LINE
  8
0
 10
6.608
 11
6.208
 20
126.836
 21
127.135
  0
LINE
  8
0
 10
6.208
 11
5.855
 20
127.135
 21
127.488
  0
LINE
  8
0
 10
5.855
 11
5.556
 20
127.488
 21
127.888
  0
LINE
  8
0
 10
5.556
 11
5.316
 20
127.888
 21
128.326
  0
LINE
  8
0
 10
5.316
 11
5.142
 20
128.326
 21
128.794
  0
LINE
  8
0
 10
5.142
 11
5.036
 20
128.794
 21
129.282
  0
LINE
  8
0
 10
5.036
 11
5
 20
129.282
 21
129.78
  0
LINE
  8
0
 10
6
 11
6.055
 20
142.98
 21
143.47
  0
LINE
  8
0
 10
6.055
 11
6.218
 20
143.47
 21
143.935
  0
LINE
  8
0
 10
6.218
 11
6.48
 20
143.935
 21
144.352
  0
LINE
  8
0
 10
6.48
 11
6.828
 20
144.352
 21
144.7
  0
LINE
  8
0
 10
6.828
 11
7.245
 20
144.7
 21
144.962
  0
LINE
  8
0
 10
7.245
 11
7.71
 20
144.962
 21
145.125
  0
LINE
  8
0
 10
7.71
 11
8.2
 20
145.125
 21
145.18
  0
LINE
  8
0
 10
8.2
 11
8.69
 20
145.18
 21
145.125
  0
LINE
  8
0
 10
8.69
 11
9.155
 20
145.125
 21
144.962
  0
LINE
  8
0
 10
9.155
 11
9.572
 20
144.962
 21
144.7
  0
LINE
  8
0
 10
9.572
 11
9.92
 20
144.7
 21
144.352
  0
LINE
  8
0
 10
9.92
 11
10.182
 20
144.352
 21
143.935
  0
LINE
  8
0
 10
10.182
 11
10.345
 20
143.935
 21
143.47
  0
LINE
  8
0
 10
10.345
 11
10.4
 20
143.47
 21
142.98
  0
LINE
  8
0
 10
10.4
 11
10.345
 20
142.98
 21
142.49
  0
LINE
  8
0
 10
10.345
 11
10.182
 20
142.49
 21
142.025
  0
LINE
  8
0
 10
10.182
 11
9.92
 20
142.025
 21
141.608
  0
LINE
  8
0
 10
9.92
 11
9.572
 20
141.608
 21
141.26
  0
LINE
  8
0
 10
9.572
 11
9.155
 20
141.26
 21
140.998
  0
LINE
  8
0
 10
9.155
 11
8.69
 20
140.998
 21
140.835
  0
LINE
  8
0
 10
8.69
 11
8.2
 20
140.835
 21
140.78
  0
LINE
  8
0
 10
8.2
 11
7.71
 20
140.78
 21
140.835
  0
LINE
  8
0
 10
7.71
 11
7.245
 20
140.835
 21
140.998
  0
LINE
  8
0
 10
7.245
 11
6.828
 20
140.998
 21
141.26
  0
LINE
  8
0
 10
6.828
 11
6.48
 20
141.26
 21
141.608
  0
LINE
  8
0
 10
6.48
 11
6.218
 20
141.608
 21
142.025
  0
LINE
  8
0
 10
6.218
 11
6.055
 20
142.025
 21
142.49
  0
LINE
  8
0
 10
6.055
 11
6
 20
142.49
 21
142.98
  0
LINE
  8
0
 10
6
 11
6.055
 20
163.3
 21
163.79
  0
LINE
  8
0
 10
6.055
 11
6.218
 20
163.79
 21
164.255
  0
LINE
  8
0
 10
6.218
 11
6.48
 20
164.255
 21
164.672
  0
LINE
  8
0
 10
6.48
 11
6.828
 20
164.672
 21
165.02
  0
LINE
  8
0
 10
6.828
 11
7.245
 20
165.02
 21
165.282
  0
LINE
  8
0
 10
7.245
 11
7.71
 20
165.282
 21
165.445
  0
LINE
  8
0
 10
7.71
 11
8.2
 20
165.445
 21
165.5
  0
LINE
  8
0
 10
8.2
 11
8.69
 20
165.5
 21
165.445
  0
LINE
  8
0
 10
8.69
 11
9.155
 20
165.445
 21
165.282
  0
LINE
  8
0
 10
9.155
 11
9.572
 20
165.282
 21
165.02
  0
LINE
  8
0
 10
9.572
 11
9.92
 20
165.02
 21
164.672
  0
LINE
  8
0
 10
9.92
 11
10.182
 20
164.672
 21
164.255
  0
LINE
  8
0
 10
10.182
 11
10.345
 20
164.255
 21
163.79
  0
LINE
  8
0
 10
10.345
 11
10.4
 20
163.79
 21
163.3
  0
LINE
  8
0
 10
10.4
 11
10.345
 20
163.3
 21
162.81
  0
LINE
  8
0
 10
10.345
 11
10.182
 20
162.81
 21
162.345
  0
LINE
  8
0
 10
10.182
 11
9.92
 20
162.345
 21
161.928
  0
LINE
  8
0
 10
9.92
 11
9.572
 20
161.928
 21
161.58
  0
LINE
  8
0
 10
9.572
 11
9.155
 20
161.58
 21
161.318
  0
LINE
  8
0
 10
9.155
 11
8.69
 20
161.318
 21
161.155
  0
LINE
  8
0
 10
8.69
 11
8.2
 20
161.155
 21
161.1
  0
LINE
  8
0
 10
8.2
 11
7.71
 20
161.1
 21
161.155
  0
LINE
  8
0
 10
7.71
 11
7.245
 20
161.155
 21
161.318
  0
LINE
  8
0
 10
7.245
 11
6.828
 20
161.318
 21
161.58
  0
LINE
  8
0
 10
6.828
 11
6.48
 20
161.58
 21
161.928
  0
LINE
  8
0
 10
6.48
 11
6.218
 20
161.928
 21
162.345
  0
LINE
  8
0
 10
6.218
 11
6.055
 20
162.345
 21
162.81
  0
LINE
  8
0
 10
6.055
 11
6
 20
162.81
 21
163.3
  0
LINE
  8
0
 10
12.56
 11
12.655
 20
76.01
 21
76.488
  0
LINE
  8
0
 10
12.655
 11
12.926
 20
76.488
 21
76.894
  0
LINE
  8
0
 10
12.926
 11
13.332
 20
76.894
 21
77.165
  0
LINE
  8
0
 10
13.332
 11
13.81
 20
77.165
 21
77.26
  0
LINE
  8
0
 10
13.81
 11
14.288
 20
77.26
 21
77.165
  0
LINE
  8
0
 10
14.288
 11
14.694
 20
77.165
 21
76.894
  0
LINE
  8
0
 10
14.694
 11
14.965
 20
76.894
 21
76.488
  0
LINE
  8
0
 10
14.965
 11
15.06
 20
76.488
 21
76.01
  0
LINE
  8
0
 10
15.06
 11
14.965
 20
76.01
 21
75.532
  0
LINE
  8
0
 10
14.965
 11
14.694
 20
75.532
 21
75.126
  0
LINE
  8
0
 10
14.694
 11
14.288
 20
75.126
 21
74.855
  0
LINE
  8
0
 10
14.288
 11
13.81
 20
74.855
 21
74.76
  0
LINE
  8
0
 10
13.81
 11
13.332
 20
74.76
 21
74.855
  0
LINE
  8
0
 10
13.332
 11
12.926
 20
74.855
 21
75.126
  0
LINE
  8
0
 10
12.926
 11
12.655
 20
75.126
 21
75.532
  0
LINE
  8
0
 10
12.655
 11
12.56
 20
75.532
 21
76.01
  0
LINE
  8
0
 10
12.56
 11
12.655
 20
119.19
 21
119.668
  0
LINE
  8
0
 10
12.655
 11
12.926
 20
119.668
 21
120.074
  0
LINE
  8
0
 10
12.926
 11
13.332
 20
120.074
 21
120.345
  0
LINE
  8
0
 10
13.332
 11
13.81
 20
120.345
 21
120.44
  0
LINE
  8
0
 10
13.81
 11
14.288
 20
120.44
 21
120.345
  0
LINE
  8
0
 10
14.288
 11
14.694
 20
120.345
 21
120.074
  0
LINE
  8
0
 10
14.694
 11
14.965
 20
120.074
 21
119.668
  0
LINE
  8
0
 10
14.965
 11
15.06
 20
119.668
 21
119.19
  0
LINE
  8
0
 10
15.06
 11
14.965
 20
119.19
 21
118.712
  0
LINE
  8
0
 10
14.965
 11
14.694
 20
118.712
 21
118.306
  0
LINE
  8
0
 10
14.694
 11
14.288
 20
118.306
 21
118.035
  0
LINE
  8
0
 10
14.288
 11
13.81
 20
118.035
 21
117.94
  0
LINE
  8
0
 10
13.81
 11
13.332
 20
117.94
 21
118.035
  0
LINE
  8
0
 10
13.332
 11
12.926
 20
118.035
 21
118.306
  0
LINE
  8
0
 10
12.926
 11
12.655
 20
118.306
 21
118.712
  0
LINE
  8
0
 10
12.655
 11
12.56
 20
118.712
 21
119.19
  0
LINE
  8
0
 10
23.9
 11
23.955
 20
8.2
 21
8.69
  0
LINE
  8
0
 10
23.955
 11
24.118
 20
8.69
 21
9.155
  0
LINE
  8
0
 10
24.118
 11
24.38
 20
9.155
 21
9.572
  0
LINE
  8
0
 10
24.38
 11
24.728
 20
9.572
 21
9.92
  0
LINE
  8
0
 10
24.728
 11
25.145
 20
9.92
 21
10.182
  0
LINE
  8
0
 10
25.145
 11
25.61
 20
10.182
 21
10.345
  0
LINE
  8
0
 10
25.61
 11
26.1
 20
10.345
 21
10.4
  0
LINE
  8
0
 10
26.1
 11
26.59
 20
10.4
 21
10.345
  0
LINE
  8
0
 10
26.59
 11
27.055
 20
10.345
 21
10.182
  0
LINE
  8
0
 10
27.055
 11
27.472
 20
10.182
 21
9.92
  0
LINE
  8
0
 10
27.472
 11
27.82
 20
9.92
 21
9.572
  0
LINE
  8
0
 10
27.82
 11
28.082
 20
9.572
 21
9.155
  0
LINE
  8
0
 10
28.082
 11
28.245
 20
9.155
 21
8.69
  0
LINE
  8
0
 10
28.245
 11
28.3
 20
8.69
 21
8.2
  0
LINE
  8
0
 10
28.3
 11
28.245
 20
8.2
 21
7.71
  0
LINE
  8
0
 10
28.245
 11
28.082
 20
7.71
 21
7.245
  0
LINE
  8
0
 10
28.082
 11
27.82
 20
7.245
 21
6.828
  0
LINE
  8
0
 10
27.82
 11
27.472
 20
6.828
 21
6.48
  0
LINE
  8
0
 10
27.472
 11
27.055
 20
6.48
 21
6.218
  0
LINE
  8
0
 10
27.055
 11
26.59
 20
6.218
 21
6.055
  0
LINE
  8
0
 10
26.59
 11
26.1
 20
6.055
 21
6
  0
LINE
  8
0
 10
26.1
 11
25.61
 20
6
 21
6.055
  0
LINE
  8
0
 10
25.61
 11
25.145
 20
6.055
 21
6.218
  0
LINE
  8
0
 10
25.145
 11
24.728
 20
6.218
 21
6.48
  0
LINE
  8
0
 10
24.728
 11
24.38
 20
6.48
 21
6.828
  0
LINE
  8
0
 10
24.38
 11
24.118
 20
6.828
 21
7.245
  0
LINE
  8
0
 10
24.118
 11
23.955
 20
7.245
 21
7.71
  0
LINE
  8
0
 10
23.955
 11
23.9
 20
7.71
 21
8.2
  0
LINE
  8
0
 10
44.22
 11
44.275
 20
8.2
 21
8.69
  0
LINE
  8
0
 10
44.275
 11
44.438
 20
8.69
 21
9.155
  0
LINE
  8
0
 10
44.438
 11
44.7
 20
9.155
 21
9.572
  0
LINE
  8
0
 10
44.7
 11
45.048
 20
9.572
 21
9.92
  0
LINE
  8
0
 10
45.048
 11
45.465
 20
9.92
 21
10.182
  0
LINE
  8
0
 10
45.465
 11
45.93
 20
10.182
 21
10.345
  0
LINE
  8
0
 10
45.93
 11
46.42
 20
10.345
 21
10.4
  0
LINE
  8
0
 10
46.42
 11
46.91
 20
10.4
 21
10.345
  0
LINE
  8
0
 10
46.91
 11
47.375
 20
10.345
 21
10.182
  0
LINE
  8
0
 10
47.375
 11
47.792
 20
10.182
 21
9.92
  0
LINE
  8
0
 10
47.792
 11
48.14
 20
9.92
 21
9.572
  0
LINE
  8
0
 10
48.14
 11
48.402
 20
9.572
 21
9.155
  0
LINE
  8
0
 10
48.402
 11
48.565
 20
9.155
 21
8.69
  0
LINE
  8
0
 10
48.565
 11
48.62
 20
8.69
 21
8.2
  0
LINE
  8
0
 10
48.62
 11
48.565
 20
8.2
 21
7.71
  0
LINE
  8
0
 10
48.565
 11
48.402
 20
7.71
 21
7.245
  0
LINE
  8
0
 10
48.402
 11
48.14
 20
7.245
 21
6.828
  0
LINE
  8
0
 10
48.14
 11
47.792
 20
6.828
 21
6.48
  0
LINE
  8
0
 10
47.792
 11
47.375
 20
6.48
 21
6.218
  0
LINE
  8
0
 10
47.375
 11
46.91
 20
6.218
 21
6.055
  0
LINE
  8
0
 10
46.91
 11
46.42
 20
6.055
 21
6
  0
LINE
  8
0
 10
46.42
 11
45.93
 20
6
 21
6.055
  0
LINE
  8
0
 10
45.93
 11
45.465
 20
6.055
 21
6.218
  0
LINE
  8
0
 10
45.465
 11
45.048
 20
6.218
 21
6.48
  0
LINE
  8
0
 10
45.048
 11
44.7
 20
6.48
 21
6.828
  0
LINE
  8
0
 10
44.7
 11
44.438
 20
6.828
 21
7.245
  0
LINE
  8
0
 10
44.438
 11
44.275
 20
7.245
 21
7.71
  0
LINE
  8
0
 10
44.275
 11
44.22
 20
7.71
 21
8.2
  0
LINE
  8
0
 10
106.54
 11
106.635
 20
76.01
 21
76.488
  0
LINE
  8
0
 10
106.635
 11
106.906
 20
76.488
 21
76.894
  0
LINE
  8
0
 10
106.906
 11
107.312
 20
76.894
 21
77.165
  0
LINE
  8
0
 10
107.312
 11
107.79
 20
77.165
 21
77.26
  0
LINE
  8
0
 10
107.79
 11
108.268
 20
77.26
 21
77.165
  0
LINE
  8
0
 10
108.268
 11
108.674
 20
77.165
 21
76.894
  0
LINE
  8
0
 10
108.674
 11
108.945
 20
76.894
 21
76.488
  0
LINE
  8
0
 10
108.945
 11
109.04
 20
76.488
 21
76.01
  0
LINE
  8
0
 10
109.04
 11
108.945
 20
76.01
 21
75.532
  0
LINE
  8
0
 10
108.945
 11
108.674
 20
75.532
 21
75.126
  0
LINE
  8
0
 10
108.674
 11
108.268
 20
75.126
 21
74.855
  0
LINE
  8
0
 10
108.268
 11
107.79
 20
74.855
 21
74.76
  0
LINE
  8
0
 10
107.79
 11
107.312
 20
74.76
 21
74.855
  0
LINE
  8
0
 10
107.312
 11
106.906
 20
74.855
 21
75.126
  0
LINE
  8
0
 10
106.906
 11
106.635
 20
75.126
 21
75.532
  0
LINE
  8
0
 10
106.635
 11
106.54
 20
75.532
 21
76.01
  0
LINE
  8
0
 10
106.54
 11
106.635
 20
119.19
 21
119.668
  0
LINE
  8
0
 10
106.635
 11
106.906
 20
119.668
 21
120.074
  0
LINE
  8
0
 10
106.906
 11
107.312
 20
120.074
 21
120.345
  0
LINE
  8
0
 10
107.312
 11
107.79
 20
120.345
 21
120.44
  0
LINE
  8
0
 10
107.79
 11
108.268
 20
120.44
 21
120.345
  0
LINE
  8
0
 10
108.268
 11
108.674
 20
120.345
 21
120.074
  0
LINE
  8
0
 10
108.674
 11
108.945
 20
120.074
 21
119.668
  0
LINE
  8
0
 10
108.945
 11
109.04
 20
119.668
 21
119.19
  0
LINE
  8
0
 10
109.04
 11
108.945
 20
119.19
 21
118.712
  0
LINE
  8
0
 10
108.945
 11
108.674
 20
118.712
 21
118.306
  0
LINE
  8
0
 10
108.674
 11
108.268
 20
118.306
 21
118.035
  0
LINE
  8
0
 10
108.268
 11
107.79
 20
118.035
 21
117.94
  0
LINE
  8
0
 10
107.79
 11
107.312
 20
117.94
 21
118.035
  0
LINE
  8
0
 10
107.312
 11
106.906
 20
118.035
 21
118.306
  0
LINE
  8
0
 10
106.906
 11
106.635
 20
118.306
 21
118.712
  0
LINE
  8
0
 10
106.635
 11
106.54
 20
118.712
 21
119.19
  0
LINE
  8
0
 10
189.368
 11
189.368
 20
25.154
 21
25.646
  0
LINE
  8
0
 10
189.368
 11
189.513
 20
25.646
 21
26.116
  0
LINE
  8
0
 10
189.513
 11
189.79
 20
26.116
 21
26.522
  0
LINE
  8
0
 10
189.79
 11
190.175
 20
26.522
 21
26.829
  0
LINE
  8
0
 10
190.175
 11
190.633
 20
26.829
 21
27.009
  0
LINE
  8
0
 10
190.633
 11
191.123
 20
27.009
 21
27.045
  0
LINE
  8
0
 10
191.123
 11
191.603
 20
27.045
 21
26.936
  0
LINE
  8
0
 10
191.603
 11
192.029
 20
26.936
 21
26.69
  0
LINE
  8
0
 10
192.029
 11
192.363
 20
26.69
 21
26.329
  0
LINE
  8
0
 10
192.363
 11
192.577
 20
26.329
 21
25.886
  0
LINE
  8
0
 10
192.577
 11
192.65
 20
25.886
 21
25.4
  0
LINE
  8
0
 10
192.65
 11
192.577
 20
25.4
 21
24.914
  0
LINE
  8
0
 10
192.577
 11
192.363
 20
24.914
 21
24.471
  0
LINE
  8
0
 10
192.363
 11
192.029
 20
24.471
 21
24.11
  0
LINE
  8
0
 10
192.029
 11
191.603
 20
24.11
 21
23.864
  0
LINE
  8
0
 10
191.603
 11
191.123
 20
23.864
 21
23.755
  0
LINE
  8
0
 10
191.123
 11
190.633
 20
23.755
 21
23.791
  0
LINE
  8
0
 10
190.633
 11
190.175
 20
23.791
 21
23.971
  0
LINE
  8
0
 10
190.175
 11
189.79
 20
23.971
 21
24.278
  0
LINE
  8
0
 10
189.79
 11
189.513
 20
24.278
 21
24.684
  0
LINE
  8
0
 10
189.513
 11
189.368
 20
24.684
 21
25.154
  0
LINE
  8
0
 10
189.368
 11
189.368
 20
109.154
 21
109.646
  0
LINE
  8
0
 10
189.368
 11
189.513
 20
109.646
 21
110.116
  0
LINE
  8
0
 10
189.513
 11
189.79
 20
110.116
 21
110.522
  0
LINE
  8
0
 10
189.79
 11
190.175
 20
110.522
 21
110.829
  0
LINE
  8
0
 10
190.175
 11
190.633
 20
110.829
 21
111.009
  0
LINE
  8
0
 10
190.633
 11
191.123
 20
111.009
 21
111.045
  0
LINE
  8
0
 10
191.123
 11
191.603
 20
111.045
 21
110.936
  0
LINE
  8
0
 10
191.603
 11
192.029
 20
110.936
 21
110.69
  0
LINE
  8
0
 10
192.029
 11
192.363
 20
110.69
 21
110.329
  0
LINE
  8
0
 10
192.363
 11
192.577
 20
110.329
 21
109.886
  0
LINE
  8
0
 10
192.577
 11
192.65
 20
109.886
 21
109.4
  0
LINE
  8
0
 10
192.65
 11
192.577
 20
109.4
 21
108.914
  0
LINE
  8
0
 10
192.577
 11
192.363
 20
108.914
 21
108.471
  0
LINE
  8
0
 10
192.363
 11
192.029
 20
108.471
 21
108.11
  0
LINE
  8
0
 10
192.029
 11
191.603
 20
108.11
 21
107.864
  0
LINE
  8
0
 10
191.603
 11
191.123
 20
107.864
 21
107.755
  0
LINE
  8
0
 10
191.123
 11
190.633
 20
107.755
 21
107.791
  0
LINE
  8
0
 10
190.633
 11
190.175
 20
107.791
 21
107.971
  0
LINE
  8
0
 10
190.175
 11
189.79
 20
107.971
 21
108.278
  0
LINE
  8
0
 10
189.79
 11
189.513
 20
108.278
 21
108.684
  0
LINE
  8
0
 10
189.513
 11
189.368
 20
108.684
 21
109.154
  0
LINE
  8
0
 10
256.58
 11
256.621
 20
8
 21
8.494
  0
LINE
  8
0
 10
256.621
 11
256.743
 20
8.494
 21
8.974
  0
LINE
  8
0
 10
256.743
 11
256.942
 20
8.974
 21
9.428
  0
LINE
  8
0
 10
256.942
 11
257.213
 20
9.428
 21
9.843
  0
LINE
  8
0
 10
257.213
 11
257.548
 20
9.843
 21
10.207
  0
LINE
  8
0
 10
257.548
 11
257.939
 20
10.207
 21
10.511
  0
LINE
  8
0
 10
257.939
 11
258.375
 20
10.511
 21
10.747
  0
LINE
  8
0
 10
258.375
 11
258.844
 20
10.747
 21
10.908
  0
LINE
  8
0
 10
258.844
 11
259.332
 20
10.908
 21
10.99
  0
LINE
  8
0
 10
259.332
 11
259.828
 20
10.99
 21
10.99
  0
LINE
  8
0
 10
259.828
 11
260.316
 20
10.99
 21
10.908
  0
LINE
  8
0
 10
260.316
 11
260.785
 20
10.908
 21
10.747
  0
LINE
  8
0
 10
260.785
 11
261.221
 20
10.747
 21
10.511
  0
LINE
  8
0
 10
261.221
 11
261.612
 20
10.511
 21
10.207
  0
LINE
  8
0
 10
261.612
 11
261.947
 20
10.207
 21
9.843
  0
LINE
  8
0
 10
261.947
 11
262.218
 20
9.843
 21
9.428
  0
LINE
  8
0
 10
262.218
 11
262.417
 20
9.428
 21
8.974
  0
LINE
  8
0
 10
262.417
 11
262.539
 20
8.974
 21
8.494
  0
LINE
  8
0
 10
262.539
 11
262.58
 20
8.494
 21
8
  0
LINE
  8
0
 10
262.58
 11
262.539
 20
8
 21
7.506
  0
LINE
  8
0
 10
262.539
 11
262.417
 20
7.506
 21
7.026
  0
LINE
  8
0
 10
262.417
 11
262.218
 20
7.026
 21
6.572
  0
LINE
  8
0
 10
262.218
 11
261.947
 20
6.572
 21
6.157
  0
LINE
  8
0
 10
261.947
 11
261.612
 20
6.157
 21
5.793
  0
LINE
  8
0
 10
261.612
 11
261.221
 20
5.793
 21
5.489
  0
LINE
  8
0
 10
261.221
 11
260.785
 20
5.489
 21
5.253
  0
LINE
  8
0
 10
260.785
 11
260.316
 20
5.253
 21
5.092
  0
LINE
  8
0
 10
260.316
 11
259.828
 20
5.092
 21
5.01
  0
LINE
  8
0
 10
259.828
 11
259.332
 20
5.01
 21
5.01
  0
LINE
  8
0
 10
259.332
 11
258.844
 20
5.01
 21
5.092
  0
LINE
  8
0
 10
258.844
 11
258.375
 20
5.092
 21
5.253
  0
LINE
  8
0
 10
258.375
 11
257.939
 20
5.253
 21
5.489
  0
LINE
  8
0
 10
257.939
 11
257.548
 20
5.489
 21
5.793
  0
LINE
  8
0
 10
257.548
 11
257.213
 20
5.793
 21
6.157
  0
LINE
  8
0
 10
257.213
 11
256.942
 20
6.157
 21
6.572
  0
LINE
  8
0
 10
256.942
 11
256.743
 20
6.572
 21
7.026
  0
LINE
  8
0
 10
256.743
 11
256.621
 20
7.026
 21
7.506
  0
LINE
  8
0
 10
256.621
 11
256.58
 20
7.506
 21
8
  0
LINE
  8
0
 10
269.48
 11
269.538
 20
7
 21
7.479
  0
LINE
  8
0
 10
269.538
 11
269.709
 20
7.479
 21
7.929
  0
LINE
  8
0
 10
269.709
 11
269.983
 20
7.929
 21
8.326
  0
LINE
  8
0
 10
269.983
 11
270.344
 20
8.326
 21
8.646
  0
LINE
  8
0
 10
270.344
 11
270.771
 20
8.646
 21
8.87
  0
LINE
  8
0
 10
270.771
 11
271.239
 20
8.87
 21
8.985
  0
LINE
  8
0
 10
271.239
 11
271.721
 20
8.985
 21
8.985
  0
LINE
  8
0
 10
271.721
 11
272.189
 20
8.985
 21
8.87
  0
LINE
  8
0
 10
272.189
 11
272.616
 20
8.87
 21
8.646
  0
LINE
  8
0
 10
272.616
 11
272.977
 20
8.646
 21
8.326
  0
LINE
  8
0
 10
272.977
 11
273.251
 20
8.326
 21
7.929
  0
LINE
  8
0
 10
273.251
 11
273.422
 20
7.929
 21
7.479
  0
LINE
  8
0
 10
273.422
 11
273.48
 20
7.479
 21
7
  0
LINE
  8
0
 10
273.48
 11
273.422
 20
7
 21
6.521
  0
LINE
  8
0
 10
273.422
 11
273.251
 20
6.521
 21
6.071
  0
LINE
  8
0
 10
273.251
 11
272.977
 20
6.071
 21
5.674
  0
LINE
  8
0
 10
272.977
 11
272.616
 20
5.674
 21
5.354
  0
LINE
  8
0
 10
272.616
 11
272.189
 20
5.354
 21
5.13
  0
LINE
  8
0
 10
272.189
 11
271.721
 20
5.13
 21
5.015
  0
LINE
  8
0
 10
271.721
 11
271.239
 20
5.015
 21
5.015
  0
LINE
  8
0
 10
271.239
 11
270.771
 20
5.015
 21
5.13
  0
LINE
  8
0
 10
270.771
 11
270.344
 20
5.13
 21
5.354
  0
LINE
  8
0
 10
270.344
 11
269.983
 20
5.354
 21
5.674
  0
LINE
  8
0
 10
269.983
 11
269.709
 20
5.674
 21
6.071
  0
LINE
  8
0
 10
269.709
 11
269.538
 20
6.071
 21
6.521
  0
LINE
  8
0
 10
269.538
 11
269.48
 20
6.521
 21
7
  0
LINE
  8
0
 10
282.38
 11
282.435
 20
8.2
 21
8.69
  0
LINE
  8
0
 10
282.435
 11
282.598
 20
8.69
 21
9.155
  0
LINE
  8
0
 10
282.598
 11
282.86
 20
9.155
 21
9.572
  0
LINE
  8
0
 10
282.86
 11
283.208
 20
9.572
 21
9.92
  0
LINE
  8
0
 10
283.208
 11
283.625
 20
9.92
 21
10.182
  0
LINE
  8
0
 10
283.625
 11
284.09
 20
10.182
 21
10.345
  0
LINE
  8
0
 10
284.09
 11
284.58
 20
10.345
 21
10.4
  0
LINE
  8
0
 10
284.58
 11
285.07
 20
10.4
 21
10.345
  0
LINE
  8
0
 10
285.07
 11
285.535
 20
10.345
 21
10.182
  0
LINE
  8
0
 10
285.535
 11
285.952
 20
10.182
 21
9.92
  0
LINE
  8
0
 10
285.952
 11
286.3
 20
9.92
 21
9.572
  0
LINE
  8
0
 10
286.3
 11
286.562
 20
9.572
 21
9.155
  0
LINE
  8
0
 10
286.562
 11
286.725
 20
9.155
 21
8.69
  0
LINE
  8
0
 10
286.725
 11
286.78
 20
8.69
 21
8.2
  0
LINE
  8
0
 10
286.78
 11
286.725
 20
8.2
 21
7.71
  0
LINE
  8
0
 10
286.725
 11
286.562
 20
7.71
 21
7.245
  0
LINE
  8
0
 10
286.562
 11
286.3
 20
7.245
 21
6.828
  0
LINE
  8
0
 10
286.3
 11
285.952
 20
6.828
 21
6.48
  0
LINE
  8
0
 10
285.952
 11
285.535
 20
6.48
 21
6.218
  0
LINE
  8
0
 10
285.535
 11
285.07
 20
6.218
 21
6.055
  0
LINE
  8
0
 10
285.07
 11
284.58
 20
6.055
 21
6
  0
LINE
  8
0
 10
284.58
 11
284.09
 20
6
 21
6.055
  0
LINE
  8
0
 10
284.09
 11
283.625
 20
6.055
 21
6.218
  0
LINE
  8
0
 10
283.625
 11
283.208
 20
6.218
 21
6.48
  0
LINE
  8
0
 10
283.208
 11
282.86
 20
6.48
 21
6.828
  0
LINE
  8
0
 10
282.86
 11
282.598
 20
6.828
 21
7.245
  0
LINE
  8
0
 10
282.598
 11
282.435
 20
7.245
 21
7.71
  0
LINE
  8
0
 10
282.435
 11
282.38
 20
7.71
 21
8.2
  0
LINE
  8
0
 10
302.7
 11
302.755
 20
8.2
 21
8.69
  0
LINE
  8
0
 10
302.755
 11
302.918
 20
8.69
 21
9.155
  0
LINE
  8
0
 10
302.918
 11
303.18
 20
9.155
 21
9.572
  0
LINE
  8
0
 10
303.18
 11
303.528
 20
9.572
 21
9.92
  0
LINE
  8
0
 10
303.528
 11
303.945
 20
9.92
 21
10.182
  0
LINE
  8
0
 10
303.945
 11
304.41
 20
10.182
 21
10.345
  0
LINE
  8
0
 10
304.41
 11
304.9
 20
10.345
 21
10.4
  0
LINE
  8
0
 10
304.9
 11
305.39
 20
10.4
 21
10.345
  0
LINE
  8
0
 10
305.39
 11
305.855
 20
10.345
 21
10.182
  0
LINE
  8
0
 10
305.855
 11
306.272
 20
10.182
 21
9.92
  0
LINE
  8
0
 10
306.272
 11
306.62
 20
9.92
 21
9.572
  0
LINE
  8
0
 10
306.62
 11
306.882
 20
9.572
 21
9.155
  0
LINE
  8
0
 10
306.882
 11
307.045
 20
9.155
 21
8.69
  0
LINE
  8
0
 10
307.045
 11
307.1
 20
8.69
 21
8.2
  0
LINE
  8
0
 10
307.1
 11
307.045
 20
8.2
 21
7.71
  0
LINE
  8
0
 10
307.045
 11
306.882
 20
7.71
 21
7.245
  0
LINE
  8
0
 10
306.882
 11
306.62
 20
7.245
 21
6.828
  0
LINE
  8
0
 10
306.62
 11
306.272
 20
6.828
 21
6.48
  0
LINE
  8
0
 10
306.272
 11
305.855
 20
6.48
 21
6.218
  0
LINE
  8
0
 10
305.855
 11
305.39
 20
6.218
 21
6.055
  0
LINE
  8
0
 10
305.39
 11
304.9
 20
6.055
 21
6
  0
LINE
  8
0
 10
304.9
 11
304.41
 20
6
 21
6.055
  0
LINE
  8
0
 10
304.41
 11
303.945
 20
6.055
 21
6.218
  0
LINE
  8
0
 10
303.945
 11
303.528
 20
6.218
 21
6.48
  0
LINE
  8
0
 10
303.528
 11
303.18
 20
6.48
 21
6.828
  0
LINE
  8
0
 10
303.18
 11
302.918
 20
6.828
 21
7.245
  0
LINE
  8
0
 10
302.918
 11
302.755
 20
7.245
 21
7.71
  0
LINE
  8
0
 10
302.755
 11
302.7
 20
7.71
 21
8.2
  0
LINE
  8
0
 10
315.368
 11
315.368
 20
25.154
 21
25.646
  0
LINE
  8
0
 10
315.368
 11
315.513
 20
25.646
 21
26.116
  0
LINE
  8
0
 10
315.513
 11
315.79
 20
26.116
 21
26.522
  0
LINE
  8
0
 10
315.79
 11
316.175
 20
26.522
 21
26.829
  0
LINE
  8
0
 10
316.175
 11
316.633
 20
26.829
 21
27.009
  0
LINE
  8
0
 10
316.633
 11
317.123
 20
27.009
 21
27.045
  0
LINE
  8
0
 10
317.123
 11
317.603
 20
27.045
 21
26.936
  0
LINE
  8
0
 10
317.603
 11
318.029
 20
26.936
 21
26.69
  0
LINE
  8
0
 10
318.029
 11
318.363
 20
26.69
 21
26.329
  0
LINE
  8
0
 10
318.363
 11
318.577
 20
26.329
 21
25.886
  0
LINE
  8
0
 10
318.577
 11
318.65
 20
25.886
 21
25.4
  0
LINE
  8
0
 10
318.65
 11
318.577
 20
25.4
 21
24.914
  0
LINE
  8
0
 10
318.577
 11
318.363
 20
24.914
 21
24.471
  0
LINE
  8
0
 10
318.363
 11
318.029
 20
24.471
 21
24.11
  0
LINE
  8
0
 10
318.029
 11
317.603
 20
24.11
 21
23.864
  0
LINE
  8
0
 10
317.603
 11
317.123
 20
23.864
 21
23.755
  0
LINE
  8
0
 10
317.123
 11
316.633
 20
23.755
 21
23.791
  0
LINE
  8
0
 10
316.633
 11
316.175
 20
23.791
 21
23.971
  0
LINE
  8
0
 10
316.175
 11
315.79
 20
23.971
 21
24.278
  0
LINE
  8
0
 10
315.79
 11
315.513
 20
24.278
 21
24.684
  0
LINE
  8
0
 10
315.513
 11
315.368
 20
24.684
 21
25.154
  0
LINE
  8
0
 10
315.368
 11
315.368
 20
109.154
 21
109.646
  0
LINE
  8
0
 10
315.368
 11
315.513
 20
109.646
 21
110.116
  0
LINE
  8
0
 10
315.513
 11
315.79
 20
110.116
 21
110.522
  0
LINE
  8
0
 10
315.79
 11
316.175
 20
110.522
 21
110.829
  0
LINE
  8
0
 10
316.175
 11
316.633
 20
110.829
 21
111.009
  0
LINE
  8
0
 10
316.633
 11
317.123
 20
111.009
 21
111.045
  0
LINE
  8
0
 10
317.123
 11
317.603
 20
111.045
 21
110.936
  0
LINE
  8
0
 10
317.603
 11
318.029
 20
110.936
 21
110.69
  0
LINE
  8
0
 10
318.029
 11
318.363
 20
110.69
 21
110.329
  0
LINE
  8
0
 10
318.363
 11
318.577
 20
110.329
 21
109.886
  0
LINE
  8
0
 10
318.577
 11
318.65
 20
109.886
 21
109.4
  0
LINE
  8
0
 10
318.65
 11
318.577
 20
109.4
 21
108.914
  0
LINE
  8
0
 10
318.577
 11
318.363
 20
108.914
 21
108.471
  0
LINE
  8
0
 10
318.363
 11
318.029
 20
108.471
 21
108.11
  0
LINE
  8
0
 10
318.029
 11
317.603
 20
108.11
 21
107.864
  0
LINE
  8
0
 10
317.603
 11
317.123
 20
107.864
 21
107.755
  0
LINE
  8
0
 10
317.123
 11
316.633
 20
107.755
 21
107.791
  0
LINE
  8
0
 10
316.633
 11
316.175
 20
107.791
 21
107.971
  0
LINE
  8
0
 10
316.175
 11
315.79
 20
107.971
 21
108.278
  0
LINE
  8
0
 10
315.79
 11
315.513
 20
108.278
 21
108.684
  0
LINE
  8
0
 10
315.513
 11
315.368
 20
108.684
 21
109.154
  0
ENDSEC
  0
SECTION
  2
OBJECTS
  0
DICTIONARY
  0
ENDSEC
  0
EOF
