  0
SECTION
  2
BLOCKS
  0
ENDSEC
  0
SECTION
  2
ENTITIES
  0
LINE
  8
0
 10
-240.75
 11
-240.75
 20
0
 21
331
  0
LINE
  8
0
 10
-240.75
 11
240.75
 20
331
 21
331
  0
LINE
  8
0
 10
240.75
 11
240.75
 20
331
 21
0
  0
LINE
  8
0
 10
240.75
 11
118.75
 20
0
 21
0
  0
LINE
  8
0
 10
118.75
 11
118.75
 20
0
 21
228.1
  0
LINE
  8
0
 10
118.75
 11
118.725
 20
228.1
 21
228.598
  0
LINE
  8
0
 10
118.725
 11
118.651
 20
228.598
 21
229.091
  0
LINE
  8
0
 10
118.651
 11
118.528
 20
229.091
 21
229.574
  0
LINE
  8
0
 10
118.528
 11
118.357
 20
229.574
 21
230.042
  0
LINE
  8
0
 10
118.357
 11
118.141
 20
230.042
 21
230.491
  0
LINE
  8
0
 10
118.141
 11
117.881
 20
230.491
 21
230.917
  0
LINE
  8
0
 10
117.881
 11
117.58
 20
230.917
 21
231.314
  0
LINE
  8
0
 10
117.58
 11
117.241
 20
231.314
 21
231.679
  0
LINE
  8
0
 10
117.241
 11
116.867
 20
231.679
 21
232.009
  0
LINE
  8
0
 10
116.867
 11
116.463
 20
232.009
 21
232.3
  0
LINE
  8
0
 10
116.463
 11
116.031
 20
232.3
 21
232.549
  0
LINE
  8
0
 10
116.031
 11
115.577
 20
232.549
 21
232.754
  0
LINE
  8
0
 10
115.577
 11
115.104
 20
232.754
 21
232.913
  0
LINE
  8
0
 10
115.104
 11
114.618
 20
232.913
 21
233.024
  0
LINE
  8
0
 10
114.618
 11
114.124
 20
233.024
 21
233.086
  0
LINE
  8
0
 10
114.124
 11
113.75
 20
233.086
 21
233.095
  0
LINE
  8
0
 10
113.75
 11
113.75
 20
233.095
 21
233.1
  0
LINE
  8
0
 10
113.75
 11
-126.25
 20
233.1
 21
233.1
  0
LINE
  8
0
 10
-126.25
 11
-126.25
 20
233.1
 21
233.095
  0
LINE
  8
0
 10
-126.25
 11
-126.375
 20
233.095
 21
233.098
  0
LINE
  8
0
 10
-126.375
 11
-126.872
 20
233.098
 21
233.061
  0
LINE
  8
0
 10
-126.872
 11
-127.363
 20
233.061
 21
232.975
  0
LINE
  8
0
 10
-127.363
 11
-127.842
 20
232.975
 21
232.84
  0
LINE
  8
0
 10
-127.842
 11
-128.306
 20
232.84
 21
232.658
  0
LINE
  8
0
 10
-128.306
 11
-128.75
 20
232.658
 21
232.43
  0
LINE
  8
0
 10
-128.75
 11
-129.169
 20
232.43
 21
232.16
  0
LINE
  8
0
 10
-129.169
 11
-129.558
 20
232.16
 21
231.849
  0
LINE
  8
0
 10
-129.558
 11
-129.915
 20
231.849
 21
231.501
  0
LINE
  8
0
 10
-129.915
 11
-130.236
 20
231.501
 21
231.119
  0
LINE
  8
0
 10
-130.236
 11
-130.516
 20
231.119
 21
230.707
  0
LINE
  8
0
 10
-130.516
 11
-130.755
 20
230.707
 21
230.269
  0
LINE
  8
0
 10
-130.755
 11
-130.948
 20
230.269
 21
229.81
  0
LINE
  8
0
 10
-130.948
 11
-131.095
 20
229.81
 21
229.334
  0
LINE
  8
0
 10
-131.095
 11
-131.194
 20
229.334
 21
228.845
  0
LINE
  8
0
 10
-131.194
 11
-131.244
 20
228.845
 21
228.349
  0
LINE
  8
0
 10
-131.244
 11
-131.244
 20
228.349
 21
228.1
  0
LINE
  8
0
 10
-131.244
 11
-131.25
 20
228.1
 21
228.1
  0
LINE
  8
0
 10
-131.25
 11
-131.25
 20
228.1
 21
0
  0
LINE
  8
0
 10
-131.25
 11
-240.75
 20
0
 21
0
  0
LINE
  8
0
 10
-235.45
 11
-235.395
 20
106.1
 21
106.59
  0
LINE
  8
0
 10
-235.395
 11
-235.232
 20
106.59
 21
107.055
  0
LINE
  8
0
 10
-235.232
 11
-234.97
 20
107.055
 21
107.472
  0
LINE
  8
0
 10
-234.97
 11
-234.622
 20
107.472
 21
107.82
  0
LINE
  8
0
 10
-234.622
 11
-234.205
 20
107.82
 21
108.082
  0
LINE
  8
0
 10
-234.205
 11
-233.74
 20
108.082
 21
108.245
  0
LINE
  8
0
 10
-233.74
 11
-233.25
 20
108.245
 21
108.3
  0
LINE
  8
0
 10
-233.25
 11
-232.76
 20
108.3
 21
108.245
  0
LINE
  8
0
 10
-232.76
 11
-232.295
 20
108.245
 21
108.082
  0
LINE
  8
0
 10
-232.295
 11
-231.878
 20
108.082
 21
107.82
  0
LINE
  8
0
 10
-231.878
 11
-231.53
 20
107.82
 21
107.472
  0
LINE
  8
0
 10
-231.53
 11
-231.268
 20
107.472
 21
107.055
  0
LINE
  8
0
 10
-231.268
 11
-231.105
 20
107.055
 21
106.59
  0
LINE
  8
0
 10
-231.105
 11
-231.05
 20
106.59
 21
106.1
  0
LINE
  8
0
 10
-231.05
 11
-231.105
 20
106.1
 21
105.61
  0
LINE
  8
0
 10
-231.105
 11
-231.268
 20
105.61
 21
105.145
  0
LINE
  8
0
 10
-231.268
 11
-231.53
 20
105.145
 21
104.728
  0
LINE
  8
0
 10
-231.53
 11
-231.878
 20
104.728
 21
104.38
  0
LINE
  8
0
 10
-231.878
 11
-232.295
 20
104.38
 21
104.118
  0
LINE
  8
0
 10
-232.295
 11
-232.76
 20
104.118
 21
103.955
  0
LINE
  8
0
 10
-232.76
 11
-233.25
 20
103.955
 21
103.9
  0
LINE
  8
0
 10
-233.25
 11
-233.74
 20
103.9
 21
103.955
  0
LINE
  8
0
 10
-233.74
 11
-234.205
 20
103.955
 21
104.118
  0
LINE
  8
0
 10
-234.205
 11
-234.622
 20
104.118
 21
104.38
  0
LINE
  8
0
 10
-234.622
 11
-234.97
 20
104.38
 21
104.728
  0
LINE
  8
0
 10
-234.97
 11
-235.232
 20
104.728
 21
105.145
  0
LINE
  8
0
 10
-235.232
 11
-235.395
 20
105.145
 21
105.61
  0
LINE
  8
0
 10
-235.395
 11
-235.45
 20
105.61
 21
106.1
  0
LINE
  8
0
 10
-235.45
 11
-235.395
 20
147.5
 21
147.99
  0
LINE
  8
0
 10
-235.395
 11
-235.232
 20
147.99
 21
148.455
  0
LINE
  8
0
 10
-235.232
 11
-234.97
 20
148.455
 21
148.872
  0
LINE
  8
0
 10
-234.97
 11
-234.622
 20
148.872
 21
149.22
  0
LINE
  8
0
 10
-234.622
 11
-234.205
 20
149.22
 21
149.482
  0
LINE
  8
0
 10
-234.205
 11
-233.74
 20
149.482
 21
149.645
  0
LINE
  8
0
 10
-233.74
 11
-233.25
 20
149.645
 21
149.7
  0
LINE
  8
0
 10
-233.25
 11
-232.76
 20
149.7
 21
149.645
  0
LINE
  8
0
 10
-232.76
 11
-232.295
 20
149.645
 21
149.482
  0
LINE
  8
0
 10
-232.295
 11
-231.878
 20
149.482
 21
149.22
  0
LINE
  8
0
 10
-231.878
 11
-231.53
 20
149.22
 21
148.872
  0
LINE
  8
0
 10
-231.53
 11
-231.268
 20
148.872
 21
148.455
  0
LINE
  8
0
 10
-231.268
 11
-231.105
 20
148.455
 21
147.99
  0
LINE
  8
0
 10
-231.105
 11
-231.05
 20
147.99
 21
147.5
  0
LINE
  8
0
 10
-231.05
 11
-231.105
 20
147.5
 21
147.01
  0
LINE
  8
0
 10
-231.105
 11
-231.268
 20
147.01
 21
146.545
  0
LINE
  8
0
 10
-231.268
 11
-231.53
 20
146.545
 21
146.128
  0
LINE
  8
0
 10
-231.53
 11
-231.878
 20
146.128
 21
145.78
  0
LINE
  8
0
 10
-231.878
 11
-232.295
 20
145.78
 21
145.518
  0
LINE
  8
0
 10
-232.295
 11
-232.76
 20
145.518
 21
145.355
  0
LINE
  8
0
 10
-232.76
 11
-233.25
 20
145.355
 21
145.3
  0
LINE
  8
0
 10
-233.25
 11
-233.74
 20
145.3
 21
145.355
  0
LINE
  8
0
 10
-233.74
 11
-234.205
 20
145.355
 21
145.518
  0
LINE
  8
0
 10
-234.205
 11
-234.622
 20
145.518
 21
145.78
  0
LINE
  8
0
 10
-234.622
 11
-234.97
 20
145.78
 21
146.128
  0
LINE
  8
0
 10
-234.97
 11
-235.232
 20
146.128
 21
146.545
  0
LINE
  8
0
 10
-235.232
 11
-235.395
 20
146.545
 21
147.01
  0
LINE
  8
0
 10
-235.395
 11
-235.45
 20
147.01
 21
147.5
  0
LINE
  8
0
 10
-233.25
 11
-233.195
 20
8.2
 21
8.69
  0
LINE
  8
0
 10
-233.195
 11
-233.032
 20
8.69
 21
9.155
  0
LINE
  8
0
 10
-233.032
 11
-232.77
 20
9.155
 21
9.572
  0
LINE
  8
0
 10
-232.77
 11
-232.422
 20
9.572
 21
9.92
  0
LINE
  8
0
 10
-232.422
 11
-232.005
 20
9.92
 21
10.182
  0
LINE
  8
0
 10
-232.005
 11
-231.54
 20
10.182
 21
10.345
  0
LINE
  8
0
 10
-231.54
 11
-231.05
 20
10.345
 21
10.4
  0
LINE
  8
0
 10
-231.05
 11
-230.56
 20
10.4
 21
10.345
  0
LINE
  8
0
 10
-230.56
 11
-230.095
 20
10.345
 21
10.182
  0
LINE
  8
0
 10
-230.095
 11
-229.678
 20
10.182
 21
9.92
  0
LINE
  8
0
 10
-229.678
 11
-229.33
 20
9.92
 21
9.572
  0
LINE
  8
0
 10
-229.33
 11
-229.068
 20
9.572
 21
9.155
  0
LINE
  8
0
 10
-229.068
 11
-228.905
 20
9.155
 21
8.69
  0
LINE
  8
0
 10
-228.905
 11
-228.85
 20
8.69
 21
8.2
  0
LINE
  8
0
 10
-228.85
 11
-228.905
 20
8.2
 21
7.71
  0
LINE
  8
0
 10
-228.905
 11
-229.068
 20
7.71
 21
7.245
  0
LINE
  8
0
 10
-229.068
 11
-229.33
 20
7.245
 21
6.828
  0
LINE
  8
0
 10
-229.33
 11
-229.678
 20
6.828
 21
6.48
  0
LINE
  8
0
 10
-229.678
 11
-230.095
 20
6.48
 21
6.218
  0
LINE
  8
0
 10
-230.095
 11
-230.56
 20
6.218
 21
6.055
  0
LINE
  8
0
 10
-230.56
 11
-231.05
 20
6.055
 21
6
  0
LINE
  8
0
 10
-231.05
 11
-231.54
 20
6
 21
6.055
  0
LINE
  8
0
 10
-231.54
 11
-232.005
 20
6.055
 21
6.218
  0
LINE
  8
0
 10
-232.005
 11
-232.422
 20
6.218
 21
6.48
  0
LINE
  8
0
 10
-232.422
 11
-232.77
 20
6.48
 21
6.828
  0
LINE
  8
0
 10
-232.77
 11
-233.032
 20
6.828
 21
7.245
  0
LINE
  8
0
 10
-233.032
 11
-233.195
 20
7.245
 21
7.71
  0
LINE
  8
0
 10
-233.195
 11
-233.25
 20
7.71
 21
8.2
  0
LINE
  8
0
 10
-226.45
 11
-226.395
 20
61.5
 21
61.99
  0
LINE
  8
0
 10
-226.395
 11
-226.232
 20
61.99
 21
62.455
  0
LINE
  8
0
 10
-226.232
 11
-225.97
 20
62.455
 21
62.872
  0
LINE
  8
0
 10
-225.97
 11
-225.622
 20
62.872
 21
63.22
  0
LINE
  8
0
 10
-225.622
 11
-225.205
 20
63.22
 21
63.482
  0
LINE
  8
0
 10
-225.205
 11
-224.74
 20
63.482
 21
63.645
  0
LINE
  8
0
 10
-224.74
 11
-224.25
 20
63.645
 21
63.7
  0
LINE
  8
0
 10
-224.25
 11
-223.76
 20
63.7
 21
63.645
  0
LINE
  8
0
 10
-223.76
 11
-223.295
 20
63.645
 21
63.482
  0
LINE
  8
0
 10
-223.295
 11
-222.878
 20
63.482
 21
63.22
  0
LINE
  8
0
 10
-222.878
 11
-222.53
 20
63.22
 21
62.872
  0
LINE
  8
0
 10
-222.53
 11
-222.268
 20
62.872
 21
62.455
  0
LINE
  8
0
 10
-222.268
 11
-222.105
 20
62.455
 21
61.99
  0
LINE
  8
0
 10
-222.105
 11
-222.05
 20
61.99
 21
61.5
  0
LINE
  8
0
 10
-222.05
 11
-222.105
 20
61.5
 21
61.01
  0
LINE
  8
0
 10
-222.105
 11
-222.268
 20
61.01
 21
60.545
  0
LINE
  8
0
 10
-222.268
 11
-222.53
 20
60.545
 21
60.128
  0
LINE
  8
0
 10
-222.53
 11
-222.878
 20
60.128
 21
59.78
  0
LINE
  8
0
 10
-222.878
 11
-223.295
 20
59.78
 21
59.518
  0
LINE
  8
0
 10
-223.295
 11
-223.76
 20
59.518
 21
59.355
  0
LINE
  8
0
 10
-223.76
 11
-224.25
 20
59.355
 21
59.3
  0
LINE
  8
0
 10
-224.25
 11
-224.74
 20
59.3
 21
59.355
  0
LINE
  8
0
 10
-224.74
 11
-225.205
 20
59.355
 21
59.518
  0
LINE
  8
0
 10
-225.205
 11
-225.622
 20
59.518
 21
59.78
  0
LINE
  8
0
 10
-225.622
 11
-225.97
 20
59.78
 21
60.128
  0
LINE
  8
0
 10
-225.97
 11
-226.232
 20
60.128
 21
60.545
  0
LINE
  8
0
 10
-226.232
 11
-226.395
 20
60.545
 21
61.01
  0
LINE
  8
0
 10
-226.395
 11
-226.45
 20
61.01
 21
61.5
  0
LINE
  8
0
 10
-212.93
 11
-212.875
 20
8.2
 21
8.69
  0
LINE
  8
0
 10
-212.875
 11
-212.712
 20
8.69
 21
9.155
  0
LINE
  8
0
 10
-212.712
 11
-212.45
 20
9.155
 21
9.572
  0
LINE
  8
0
 10
-212.45
 11
-212.102
 20
9.572
 21
9.92
  0
LINE
  8
0
 10
-212.102
 11
-211.685
 20
9.92
 21
10.182
  0
LINE
  8
0
 10
-211.685
 11
-211.22
 20
10.182
 21
10.345
  0
LINE
  8
0
 10
-211.22
 11
-210.73
 20
10.345
 21
10.4
  0
LINE
  8
0
 10
-210.73
 11
-210.24
 20
10.4
 21
10.345
  0
LINE
  8
0
 10
-210.24
 11
-209.775
 20
10.345
 21
10.182
  0
LINE
  8
0
 10
-209.775
 11
-209.358
 20
10.182
 21
9.92
  0
LINE
  8
0
 10
-209.358
 11
-209.01
 20
9.92
 21
9.572
  0
LINE
  8
0
 10
-209.01
 11
-208.748
 20
9.572
 21
9.155
  0
LINE
  8
0
 10
-208.748
 11
-208.585
 20
9.155
 21
8.69
  0
LINE
  8
0
 10
-208.585
 11
-208.53
 20
8.69
 21
8.2
  0
LINE
  8
0
 10
-208.53
 11
-208.585
 20
8.2
 21
7.71
  0
LINE
  8
0
 10
-208.585
 11
-208.748
 20
7.71
 21
7.245
  0
LINE
  8
0
 10
-208.748
 11
-209.01
 20
7.245
 21
6.828
  0
LINE
  8
0
 10
-209.01
 11
-209.358
 20
6.828
 21
6.48
  0
LINE
  8
0
 10
-209.358
 11
-209.775
 20
6.48
 21
6.218
  0
LINE
  8
0
 10
-209.775
 11
-210.24
 20
6.218
 21
6.055
  0
LINE
  8
0
 10
-210.24
 11
-210.73
 20
6.055
 21
6
  0
LINE
  8
0
 10
-210.73
 11
-211.22
 20
6
 21
6.055
  0
LINE
  8
0
 10
-211.22
 11
-211.685
 20
6.055
 21
6.218
  0
LINE
  8
0
 10
-211.685
 11
-212.102
 20
6.218
 21
6.48
  0
LINE
  8
0
 10
-212.102
 11
-212.45
 20
6.48
 21
6.828
  0
LINE
  8
0
 10
-212.45
 11
-212.712
 20
6.828
 21
7.245
  0
LINE
  8
0
 10
-212.712
 11
-212.875
 20
7.245
 21
7.71
  0
LINE
  8
0
 10
-212.875
 11
-212.93
 20
7.71
 21
8.2
  0
LINE
  8
0
 10
-208.25
 11
-208.192
 20
73.5
 21
73.979
  0
LINE
  8
0
 10
-208.192
 11
-208.021
 20
73.979
 21
74.429
  0
LINE
  8
0
 10
-208.021
 11
-207.747
 20
74.429
 21
74.826
  0
LINE
  8
0
 10
-207.747
 11
-207.386
 20
74.826
 21
75.146
  0
LINE
  8
0
 10
-207.386
 11
-206.959
 20
75.146
 21
75.37
  0
LINE
  8
0
 10
-206.959
 11
-206.491
 20
75.37
 21
75.485
  0
LINE
  8
0
 10
-206.491
 11
-206.009
 20
75.485
 21
75.485
  0
LINE
  8
0
 10
-206.009
 11
-205.541
 20
75.485
 21
75.37
  0
LINE
  8
0
 10
-205.541
 11
-205.114
 20
75.37
 21
75.146
  0
LINE
  8
0
 10
-205.114
 11
-204.753
 20
75.146
 21
74.826
  0
LINE
  8
0
 10
-204.753
 11
-204.479
 20
74.826
 21
74.429
  0
LINE
  8
0
 10
-204.479
 11
-204.308
 20
74.429
 21
73.979
  0
LINE
  8
0
 10
-204.308
 11
-204.25
 20
73.979
 21
73.5
  0
LINE
  8
0
 10
-204.25
 11
-204.308
 20
73.5
 21
73.021
  0
LINE
  8
0
 10
-204.308
 11
-204.479
 20
73.021
 21
72.571
  0
LINE
  8
0
 10
-204.479
 11
-204.753
 20
72.571
 21
72.174
  0
LINE
  8
0
 10
-204.753
 11
-205.114
 20
72.174
 21
71.854
  0
LINE
  8
0
 10
-205.114
 11
-205.541
 20
71.854
 21
71.63
  0
LINE
  8
0
 10
-205.541
 11
-206.009
 20
71.63
 21
71.515
  0
LINE
  8
0
 10
-206.009
 11
-206.491
 20
71.515
 21
71.515
  0
LINE
  8
0
 10
-206.491
 11
-206.959
 20
71.515
 21
71.63
  0
LINE
  8
0
 10
-206.959
 11
-207.386
 20
71.63
 21
71.854
  0
LINE
  8
0
 10
-207.386
 11
-207.747
 20
71.854
 21
72.174
  0
LINE
  8
0
 10
-207.747
 11
-208.021
 20
72.174
 21
72.571
  0
LINE
  8
0
 10
-208.021
 11
-208.192
 20
72.571
 21
73.021
  0
LINE
  8
0
 10
-208.192
 11
-208.25
 20
73.021
 21
73.5
  0
LINE
  8
0
 10
-202.45
 11
-202.395
 20
322.5
 21
322.99
  0
LINE
  8
0
 10
-202.395
 11
-202.232
 20
322.99
 21
323.455
  0
LINE
  8
0
 10
-202.232
 11
-201.97
 20
323.455
 21
323.872
  0
LINE
  8
0
 10
-201.97
 11
-201.622
 20
323.872
 21
324.22
  0
LINE
  8
0
 10
-201.622
 11
-201.205
 20
324.22
 21
324.482
  0
LINE
  8
0
 10
-201.205
 11
-200.74
 20
324.482
 21
324.645
  0
LINE
  8
0
 10
-200.74
 11
-200.25
 20
324.645
 21
324.7
  0
LINE
  8
0
 10
-200.25
 11
-199.76
 20
324.7
 21
324.645
  0
LINE
  8
0
 10
-199.76
 11
-199.295
 20
324.645
 21
324.482
  0
LINE
  8
0
 10
-199.295
 11
-198.878
 20
324.482
 21
324.22
  0
LINE
  8
0
 10
-198.878
 11
-198.53
 20
324.22
 21
323.872
  0
LINE
  8
0
 10
-198.53
 11
-198.268
 20
323.872
 21
323.455
  0
LINE
  8
0
 10
-198.268
 11
-198.105
 20
323.455
 21
322.99
  0
LINE
  8
0
 10
-198.105
 11
-198.05
 20
322.99
 21
322.5
  0
LINE
  8
0
 10
-198.05
 11
-198.105
 20
322.5
 21
322.01
  0
LINE
  8
0
 10
-198.105
 11
-198.268
 20
322.01
 21
321.545
  0
LINE
  8
0
 10
-198.268
 11
-198.53
 20
321.545
 21
321.128
  0
LINE
  8
0
 10
-198.53
 11
-198.878
 20
321.128
 21
320.78
  0
LINE
  8
0
 10
-198.878
 11
-199.295
 20
320.78
 21
320.518
  0
LINE
  8
0
 10
-199.295
 11
-199.76
 20
320.518
 21
320.355
  0
LINE
  8
0
 10
-199.76
 11
-200.25
 20
320.355
 21
320.3
  0
LINE
  8
0
 10
-200.25
 11
-200.74
 20
320.3
 21
320.355
  0
LINE
  8
0
 10
-200.74
 11
-201.205
 20
320.355
 21
320.518
  0
LINE
  8
0
 10
-201.205
 11
-201.622
 20
320.518
 21
320.78
  0
LINE
  8
0
 10
-201.622
 11
-201.97
 20
320.78
 21
321.128
  0
LINE
  8
0
 10
-201.97
 11
-202.232
 20
321.128
 21
321.545
  0
LINE
  8
0
 10
-202.232
 11
-202.395
 20
321.545
 21
322.01
  0
LINE
  8
0
 10
-202.395
 11
-202.45
 20
322.01
 21
322.5
  0
LINE
  8
0
 10
-202.25
 11
-202.192
 20
312
 21
312.479
  0
LINE
  8
0
 10
-202.192
 11
-202.021
 20
312.479
 21
312.929
  0
LINE
  8
0
 10
-202.021
 11
-201.747
 20
312.929
 21
313.326
  0
LINE
  8
0
 10
-201.747
 11
-201.386
 20
313.326
 21
313.646
  0
LINE
  8
0
 10
-201.386
 11
-200.959
 20
313.646
 21
313.87
  0
LINE
  8
0
 10
-200.959
 11
-200.491
 20
313.87
 21
313.985
  0
LINE
  8
0
 10
-200.491
 11
-200.009
 20
313.985
 21
313.985
  0
LINE
  8
0
 10
-200.009
 11
-199.541
 20
313.985
 21
313.87
  0
LINE
  8
0
 10
-199.541
 11
-199.114
 20
313.87
 21
313.646
  0
LINE
  8
0
 10
-199.114
 11
-198.753
 20
313.646
 21
313.326
  0
LINE
  8
0
 10
-198.753
 11
-198.479
 20
313.326
 21
312.929
  0
LINE
  8
0
 10
-198.479
 11
-198.308
 20
312.929
 21
312.479
  0
LINE
  8
0
 10
-198.308
 11
-198.25
 20
312.479
 21
312
  0
LINE
  8
0
 10
-198.25
 11
-198.308
 20
312
 21
311.521
  0
LINE
  8
0
 10
-198.308
 11
-198.479
 20
311.521
 21
311.071
  0
LINE
  8
0
 10
-198.479
 11
-198.753
 20
311.071
 21
310.674
  0
LINE
  8
0
 10
-198.753
 11
-199.114
 20
310.674
 21
310.354
  0
LINE
  8
0
 10
-199.114
 11
-199.541
 20
310.354
 21
310.13
  0
LINE
  8
0
 10
-199.541
 11
-200.009
 20
310.13
 21
310.015
  0
LINE
  8
0
 10
-200.009
 11
-200.491
 20
310.015
 21
310.015
  0
LINE
  8
0
 10
-200.491
 11
-200.959
 20
310.015
 21
310.13
  0
LINE
  8
0
 10
-200.959
 11
-201.386
 20
310.13
 21
310.354
  0
LINE
  8
0
 10
-201.386
 11
-201.747
 20
310.354
 21
310.674
  0
LINE
  8
0
 10
-201.747
 11
-202.021
 20
310.674
 21
311.071
  0
LINE
  8
0
 10
-202.021
 11
-202.192
 20
311.071
 21
311.521
  0
LINE
  8
0
 10
-202.192
 11
-202.25
 20
311.521
 21
312
  0
LINE
  8
0
 10
-201.03
 11
-200.982
 20
7.5
 21
7.988
  0
LINE
  8
0
 10
-200.982
 11
-200.84
 20
7.988
 21
8.457
  0
LINE
  8
0
 10
-200.84
 11
-200.609
 20
8.457
 21
8.889
  0
LINE
  8
0
 10
-200.609
 11
-200.298
 20
8.889
 21
9.268
  0
LINE
  8
0
 10
-200.298
 11
-199.919
 20
9.268
 21
9.579
  0
LINE
  8
0
 10
-199.919
 11
-199.487
 20
9.579
 21
9.81
  0
LINE
  8
0
 10
-199.487
 11
-199.018
 20
9.81
 21
9.952
  0
LINE
  8
0
 10
-199.018
 11
-198.53
 20
9.952
 21
10
  0
LINE
  8
0
 10
-198.53
 11
-198.042
 20
10
 21
9.952
  0
LINE
  8
0
 10
-198.042
 11
-197.573
 20
9.952
 21
9.81
  0
LINE
  8
0
 10
-197.573
 11
-197.141
 20
9.81
 21
9.579
  0
LINE
  8
0
 10
-197.141
 11
-196.762
 20
9.579
 21
9.268
  0
LINE
  8
0
 10
-196.762
 11
-196.451
 20
9.268
 21
8.889
  0
LINE
  8
0
 10
-196.451
 11
-196.22
 20
8.889
 21
8.457
  0
LINE
  8
0
 10
-196.22
 11
-196.078
 20
8.457
 21
7.988
  0
LINE
  8
0
 10
-196.078
 11
-196.03
 20
7.988
 21
7.5
  0
LINE
  8
0
 10
-196.03
 11
-196.078
 20
7.5
 21
7.012
  0
LINE
  8
0
 10
-196.078
 11
-196.22
 20
7.012
 21
6.543
  0
LINE
  8
0
 10
-196.22
 11
-196.451
 20
6.543
 21
6.111
  0
LINE
  8
0
 10
-196.451
 11
-196.762
 20
6.111
 21
5.732
  0
LINE
  8
0
 10
-196.762
 11
-197.141
 20
5.732
 21
5.421
  0
LINE
  8
0
 10
-197.141
 11
-197.573
 20
5.421
 21
5.19
  0
LINE
  8
0
 10
-197.573
 11
-198.042
 20
5.19
 21
5.048
  0
LINE
  8
0
 10
-198.042
 11
-198.53
 20
5.048
 21
5
  0
LINE
  8
0
 10
-198.53
 11
-199.018
 20
5
 21
5.048
  0
LINE
  8
0
 10
-199.018
 11
-199.487
 20
5.048
 21
5.19
  0
LINE
  8
0
 10
-199.487
 11
-199.919
 20
5.19
 21
5.421
  0
LINE
  8
0
 10
-199.919
 11
-200.298
 20
5.421
 21
5.732
  0
LINE
  8
0
 10
-200.298
 11
-200.609
 20
5.732
 21
6.111
  0
LINE
  8
0
 10
-200.609
 11
-200.84
 20
6.111
 21
6.543
  0
LINE
  8
0
 10
-200.84
 11
-200.982
 20
6.543
 21
7.012
  0
LINE
  8
0
 10
-200.982
 11
-201.03
 20
7.012
 21
7.5
  0
LINE
  8
0
 10
-194.45
 11
-194.395
 20
61.5
 21
61.99
  0
LINE
  8
0
 10
-194.395
 11
-194.232
 20
61.99
 21
62.455
  0
LINE
  8
0
 10
-194.232
 11
-193.97
 20
62.455
 21
62.872
  0
LINE
  8
0
 10
-193.97
 11
-193.622
 20
62.872
 21
63.22
  0
LINE
  8
0
 10
-193.622
 11
-193.205
 20
63.22
 21
63.482
  0
LINE
  8
0
 10
-193.205
 11
-192.74
 20
63.482
 21
63.645
  0
LINE
  8
0
 10
-192.74
 11
-192.25
 20
63.645
 21
63.7
  0
LINE
  8
0
 10
-192.25
 11
-191.76
 20
63.7
 21
63.645
  0
LINE
  8
0
 10
-191.76
 11
-191.295
 20
63.645
 21
63.482
  0
LINE
  8
0
 10
-191.295
 11
-190.878
 20
63.482
 21
63.22
  0
LINE
  8
0
 10
-190.878
 11
-190.53
 20
63.22
 21
62.872
  0
LINE
  8
0
 10
-190.53
 11
-190.268
 20
62.872
 21
62.455
  0
LINE
  8
0
 10
-190.268
 11
-190.105
 20
62.455
 21
61.99
  0
LINE
  8
0
 10
-190.105
 11
-190.05
 20
61.99
 21
61.5
  0
LINE
  8
0
 10
-190.05
 11
-190.105
 20
61.5
 21
61.01
  0
LINE
  8
0
 10
-190.105
 11
-190.268
 20
61.01
 21
60.545
  0
LINE
  8
0
 10
-190.268
 11
-190.53
 20
60.545
 21
60.128
  0
LINE
  8
0
 10
-190.53
 11
-190.878
 20
60.128
 21
59.78
  0
LINE
  8
0
 10
-190.878
 11
-191.295
 20
59.78
 21
59.518
  0
LINE
  8
0
 10
-191.295
 11
-191.76
 20
59.518
 21
59.355
  0
LINE
  8
0
 10
-191.76
 11
-192.25
 20
59.355
 21
59.3
  0
LINE
  8
0
 10
-192.25
 11
-192.74
 20
59.3
 21
59.355
  0
LINE
  8
0
 10
-192.74
 11
-193.205
 20
59.355
 21
59.518
  0
LINE
  8
0
 10
-193.205
 11
-193.622
 20
59.518
 21
59.78
  0
LINE
  8
0
 10
-193.622
 11
-193.97
 20
59.78
 21
60.128
  0
LINE
  8
0
 10
-193.97
 11
-194.232
 20
60.128
 21
60.545
  0
LINE
  8
0
 10
-194.232
 11
-194.395
 20
60.545
 21
61.01
  0
LINE
  8
0
 10
-194.395
 11
-194.45
 20
61.01
 21
61.5
  0
LINE
  8
0
 10
-169.45
 11
-169.395
 20
322.5
 21
322.99
  0
LINE
  8
0
 10
-169.395
 11
-169.232
 20
322.99
 21
323.455
  0
LINE
  8
0
 10
-169.232
 11
-168.97
 20
323.455
 21
323.872
  0
LINE
  8
0
 10
-168.97
 11
-168.622
 20
323.872
 21
324.22
  0
LINE
  8
0
 10
-168.622
 11
-168.205
 20
324.22
 21
324.482
  0
LINE
  8
0
 10
-168.205
 11
-167.74
 20
324.482
 21
324.645
  0
LINE
  8
0
 10
-167.74
 11
-167.25
 20
324.645
 21
324.7
  0
LINE
  8
0
 10
-167.25
 11
-166.76
 20
324.7
 21
324.645
  0
LINE
  8
0
 10
-166.76
 11
-166.295
 20
324.645
 21
324.482
  0
LINE
  8
0
 10
-166.295
 11
-165.878
 20
324.482
 21
324.22
  0
LINE
  8
0
 10
-165.878
 11
-165.53
 20
324.22
 21
323.872
  0
LINE
  8
0
 10
-165.53
 11
-165.268
 20
323.872
 21
323.455
  0
LINE
  8
0
 10
-165.268
 11
-165.105
 20
323.455
 21
322.99
  0
LINE
  8
0
 10
-165.105
 11
-165.05
 20
322.99
 21
322.5
  0
LINE
  8
0
 10
-165.05
 11
-165.105
 20
322.5
 21
322.01
  0
LINE
  8
0
 10
-165.105
 11
-165.268
 20
322.01
 21
321.545
  0
LINE
  8
0
 10
-165.268
 11
-165.53
 20
321.545
 21
321.128
  0
LINE
  8
0
 10
-165.53
 11
-165.878
 20
321.128
 21
320.78
  0
LINE
  8
0
 10
-165.878
 11
-166.295
 20
320.78
 21
320.518
  0
LINE
  8
0
 10
-166.295
 11
-166.76
 20
320.518
 21
320.355
  0
LINE
  8
0
 10
-166.76
 11
-167.25
 20
320.355
 21
320.3
  0
LINE
  8
0
 10
-167.25
 11
-167.74
 20
320.3
 21
320.355
  0
LINE
  8
0
 10
-167.74
 11
-168.205
 20
320.355
 21
320.518
  0
LINE
  8
0
 10
-168.205
 11
-168.622
 20
320.518
 21
320.78
  0
LINE
  8
0
 10
-168.622
 11
-168.97
 20
320.78
 21
321.128
  0
LINE
  8
0
 10
-168.97
 11
-169.232
 20
321.128
 21
321.545
  0
LINE
  8
0
 10
-169.232
 11
-169.395
 20
321.545
 21
322.01
  0
LINE
  8
0
 10
-169.395
 11
-169.45
 20
322.01
 21
322.5
  0
LINE
  8
0
 10
-167.75
 11
-167.695
 20
36.26
 21
36.75
  0
LINE
  8
0
 10
-167.695
 11
-167.532
 20
36.75
 21
37.215
  0
LINE
  8
0
 10
-167.532
 11
-167.27
 20
37.215
 21
37.632
  0
LINE
  8
0
 10
-167.27
 11
-166.922
 20
37.632
 21
37.98
  0
LINE
  8
0
 10
-166.922
 11
-166.505
 20
37.98
 21
38.242
  0
LINE
  8
0
 10
-166.505
 11
-166.04
 20
38.242
 21
38.405
  0
LINE
  8
0
 10
-166.04
 11
-165.55
 20
38.405
 21
38.46
  0
LINE
  8
0
 10
-165.55
 11
-165.06
 20
38.46
 21
38.405
  0
LINE
  8
0
 10
-165.06
 11
-164.595
 20
38.405
 21
38.242
  0
LINE
  8
0
 10
-164.595
 11
-164.178
 20
38.242
 21
37.98
  0
LINE
  8
0
 10
-164.178
 11
-163.83
 20
37.98
 21
37.632
  0
LINE
  8
0
 10
-163.83
 11
-163.568
 20
37.632
 21
37.215
  0
LINE
  8
0
 10
-163.568
 11
-163.405
 20
37.215
 21
36.75
  0
LINE
  8
0
 10
-163.405
 11
-163.35
 20
36.75
 21
36.26
  0
LINE
  8
0
 10
-163.35
 11
-163.405
 20
36.26
 21
35.77
  0
LINE
  8
0
 10
-163.405
 11
-163.568
 20
35.77
 21
35.305
  0
LINE
  8
0
 10
-163.568
 11
-163.83
 20
35.305
 21
34.888
  0
LINE
  8
0
 10
-163.83
 11
-164.178
 20
34.888
 21
34.54
  0
LINE
  8
0
 10
-164.178
 11
-164.595
 20
34.54
 21
34.278
  0
LINE
  8
0
 10
-164.595
 11
-165.06
 20
34.278
 21
34.115
  0
LINE
  8
0
 10
-165.06
 11
-165.55
 20
34.115
 21
34.06
  0
LINE
  8
0
 10
-165.55
 11
-166.04
 20
34.06
 21
34.115
  0
LINE
  8
0
 10
-166.04
 11
-166.505
 20
34.115
 21
34.278
  0
LINE
  8
0
 10
-166.505
 11
-166.922
 20
34.278
 21
34.54
  0
LINE
  8
0
 10
-166.922
 11
-167.27
 20
34.54
 21
34.888
  0
LINE
  8
0
 10
-167.27
 11
-167.532
 20
34.888
 21
35.305
  0
LINE
  8
0
 10
-167.532
 11
-167.695
 20
35.305
 21
35.77
  0
LINE
  8
0
 10
-167.695
 11
-167.75
 20
35.77
 21
36.26
  0
LINE
  8
0
 10
-167.75
 11
-167.695
 20
294.74
 21
295.23
  0
LINE
  8
0
 10
-167.695
 11
-167.532
 20
295.23
 21
295.695
  0
LINE
  8
0
 10
-167.532
 11
-167.27
 20
295.695
 21
296.112
  0
LINE
  8
0
 10
-167.27
 11
-166.922
 20
296.112
 21
296.46
  0
LINE
  8
0
 10
-166.922
 11
-166.505
 20
296.46
 21
296.722
  0
LINE
  8
0
 10
-166.505
 11
-166.04
 20
296.722
 21
296.885
  0
LINE
  8
0
 10
-166.04
 11
-165.55
 20
296.885
 21
296.94
  0
LINE
  8
0
 10
-165.55
 11
-165.06
 20
296.94
 21
296.885
  0
LINE
  8
0
 10
-165.06
 11
-164.595
 20
296.885
 21
296.722
  0
LINE
  8
0
 10
-164.595
 11
-164.178
 20
296.722
 21
296.46
  0
LINE
  8
0
 10
-164.178
 11
-163.83
 20
296.46
 21
296.112
  0
LINE
  8
0
 10
-163.83
 11
-163.568
 20
296.112
 21
295.695
  0
LINE
  8
0
 10
-163.568
 11
-163.405
 20
295.695
 21
295.23
  0
LINE
  8
0
 10
-163.405
 11
-163.35
 20
295.23
 21
294.74
  0
LINE
  8
0
 10
-163.35
 11
-163.405
 20
294.74
 21
294.25
  0
LINE
  8
0
 10
-163.405
 11
-163.568
 20
294.25
 21
293.785
  0
LINE
  8
0
 10
-163.568
 11
-163.83
 20
293.785
 21
293.368
  0
LINE
  8
0
 10
-163.83
 11
-164.178
 20
293.368
 21
293.02
  0
LINE
  8
0
 10
-164.178
 11
-164.595
 20
293.02
 21
292.758
  0
LINE
  8
0
 10
-164.595
 11
-165.06
 20
292.758
 21
292.595
  0
LINE
  8
0
 10
-165.06
 11
-165.55
 20
292.595
 21
292.54
  0
LINE
  8
0
 10
-165.55
 11
-166.04
 20
292.54
 21
292.595
  0
LINE
  8
0
 10
-166.04
 11
-166.505
 20
292.595
 21
292.758
  0
LINE
  8
0
 10
-166.505
 11
-166.922
 20
292.758
 21
293.02
  0
LINE
  8
0
 10
-166.922
 11
-167.27
 20
293.02
 21
293.368
  0
LINE
  8
0
 10
-167.27
 11
-167.532
 20
293.368
 21
293.785
  0
LINE
  8
0
 10
-167.532
 11
-167.695
 20
293.785
 21
294.25
  0
LINE
  8
0
 10
-167.695
 11
-167.75
 20
294.25
 21
294.74
  0
LINE
  8
0
 10
-166.95
 11
-166.895
 20
265.88
 21
266.37
  0
LINE
  8
0
 10
-166.895
 11
-166.732
 20
266.37
 21
266.835
  0
LINE
  8
0
 10
-166.732
 11
-166.47
 20
266.835
 21
267.252
  0
LINE
  8
0
 10
-166.47
 11
-166.122
 20
267.252
 21
267.6
  0
LINE
  8
0
 10
-166.122
 11
-165.705
 20
267.6
 21
267.862
  0
LINE
  8
0
 10
-165.705
 11
-165.24
 20
267.862
 21
268.025
  0
LINE
  8
0
 10
-165.24
 11
-164.75
 20
268.025
 21
268.08
  0
LINE
  8
0
 10
-164.75
 11
-164.26
 20
268.08
 21
268.025
  0
LINE
  8
0
 10
-164.26
 11
-163.795
 20
268.025
 21
267.862
  0
LINE
  8
0
 10
-163.795
 11
-163.378
 20
267.862
 21
267.6
  0
LINE
  8
0
 10
-163.378
 11
-163.03
 20
267.6
 21
267.252
  0
LINE
  8
0
 10
-163.03
 11
-162.768
 20
267.252
 21
266.835
  0
LINE
  8
0
 10
-162.768
 11
-162.605
 20
266.835
 21
266.37
  0
LINE
  8
0
 10
-162.605
 11
-162.55
 20
266.37
 21
265.88
  0
LINE
  8
0
 10
-162.55
 11
-162.605
 20
265.88
 21
265.39
  0
LINE
  8
0
 10
-162.605
 11
-162.768
 20
265.39
 21
264.925
  0
LINE
  8
0
 10
-162.768
 11
-163.03
 20
264.925
 21
264.508
  0
LINE
  8
0
 10
-163.03
 11
-163.378
 20
264.508
 21
264.16
  0
LINE
  8
0
 10
-163.378
 11
-163.795
 20
264.16
 21
263.898
  0
LINE
  8
0
 10
-163.795
 11
-164.26
 20
263.898
 21
263.735
  0
LINE
  8
0
 10
-164.26
 11
-164.75
 20
263.735
 21
263.68
  0
LINE
  8
0
 10
-164.75
 11
-165.24
 20
263.68
 21
263.735
  0
LINE
  8
0
 10
-165.24
 11
-165.705
 20
263.735
 21
263.898
  0
LINE
  8
0
 10
-165.705
 11
-166.122
 20
263.898
 21
264.16
  0
LINE
  8
0
 10
-166.122
 11
-166.47
 20
264.16
 21
264.508
  0
LINE
  8
0
 10
-166.47
 11
-166.732
 20
264.508
 21
264.925
  0
LINE
  8
0
 10
-166.732
 11
-166.895
 20
264.925
 21
265.39
  0
LINE
  8
0
 10
-166.895
 11
-166.95
 20
265.39
 21
265.88
  0
LINE
  8
0
 10
-162.97
 11
-162.915
 20
8.2
 21
8.69
  0
LINE
  8
0
 10
-162.915
 11
-162.752
 20
8.69
 21
9.155
  0
LINE
  8
0
 10
-162.752
 11
-162.49
 20
9.155
 21
9.572
  0
LINE
  8
0
 10
-162.49
 11
-162.142
 20
9.572
 21
9.92
  0
LINE
  8
0
 10
-162.142
 11
-161.725
 20
9.92
 21
10.182
  0
LINE
  8
0
 10
-161.725
 11
-161.26
 20
10.182
 21
10.345
  0
LINE
  8
0
 10
-161.26
 11
-160.77
 20
10.345
 21
10.4
  0
LINE
  8
0
 10
-160.77
 11
-160.28
 20
10.4
 21
10.345
  0
LINE
  8
0
 10
-160.28
 11
-159.815
 20
10.345
 21
10.182
  0
LINE
  8
0
 10
-159.815
 11
-159.398
 20
10.182
 21
9.92
  0
LINE
  8
0
 10
-159.398
 11
-159.05
 20
9.92
 21
9.572
  0
LINE
  8
0
 10
-159.05
 11
-158.788
 20
9.572
 21
9.155
  0
LINE
  8
0
 10
-158.788
 11
-158.625
 20
9.155
 21
8.69
  0
LINE
  8
0
 10
-158.625
 11
-158.57
 20
8.69
 21
8.2
  0
LINE
  8
0
 10
-158.57
 11
-158.625
 20
8.2
 21
7.71
  0
LINE
  8
0
 10
-158.625
 11
-158.788
 20
7.71
 21
7.245
  0
LINE
  8
0
 10
-158.788
 11
-159.05
 20
7.245
 21
6.828
  0
LINE
  8
0
 10
-159.05
 11
-159.398
 20
6.828
 21
6.48
  0
LINE
  8
0
 10
-159.398
 11
-159.815
 20
6.48
 21
6.218
  0
LINE
  8
0
 10
-159.815
 11
-160.28
 20
6.218
 21
6.055
  0
LINE
  8
0
 10
-160.28
 11
-160.77
 20
6.055
 21
6
  0
LINE
  8
0
 10
-160.77
 11
-161.26
 20
6
 21
6.055
  0
LINE
  8
0
 10
-161.26
 11
-161.725
 20
6.055
 21
6.218
  0
LINE
  8
0
 10
-161.725
 11
-162.142
 20
6.218
 21
6.48
  0
LINE
  8
0
 10
-162.142
 11
-162.49
 20
6.48
 21
6.828
  0
LINE
  8
0
 10
-162.49
 11
-162.752
 20
6.828
 21
7.245
  0
LINE
  8
0
 10
-162.752
 11
-162.915
 20
7.245
 21
7.71
  0
LINE
  8
0
 10
-162.915
 11
-162.97
 20
7.71
 21
8.2
  0
LINE
  8
0
 10
-142.65
 11
-142.595
 20
8.2
 21
8.69
  0
LINE
  8
0
 10
-142.595
 11
-142.432
 20
8.69
 21
9.155
  0
LINE
  8
0
 10
-142.432
 11
-142.17
 20
9.155
 21
9.572
  0
LINE
  8
0
 10
-142.17
 11
-141.822
 20
9.572
 21
9.92
  0
LINE
  8
0
 10
-141.822
 11
-141.405
 20
9.92
 21
10.182
  0
LINE
  8
0
 10
-141.405
 11
-140.94
 20
10.182
 21
10.345
  0
LINE
  8
0
 10
-140.94
 11
-140.45
 20
10.345
 21
10.4
  0
LINE
  8
0
 10
-140.45
 11
-139.96
 20
10.4
 21
10.345
  0
LINE
  8
0
 10
-139.96
 11
-139.495
 20
10.345
 21
10.182
  0
LINE
  8
0
 10
-139.495
 11
-139.078
 20
10.182
 21
9.92
  0
LINE
  8
0
 10
-139.078
 11
-138.73
 20
9.92
 21
9.572
  0
LINE
  8
0
 10
-138.73
 11
-138.468
 20
9.572
 21
9.155
  0
LINE
  8
0
 10
-138.468
 11
-138.305
 20
9.155
 21
8.69
  0
LINE
  8
0
 10
-138.305
 11
-138.25
 20
8.69
 21
8.2
  0
LINE
  8
0
 10
-138.25
 11
-138.305
 20
8.2
 21
7.71
  0
LINE
  8
0
 10
-138.305
 11
-138.468
 20
7.71
 21
7.245
  0
LINE
  8
0
 10
-138.468
 11
-138.73
 20
7.245
 21
6.828
  0
LINE
  8
0
 10
-138.73
 11
-139.078
 20
6.828
 21
6.48
  0
LINE
  8
0
 10
-139.078
 11
-139.495
 20
6.48
 21
6.218
  0
LINE
  8
0
 10
-139.495
 11
-139.96
 20
6.218
 21
6.055
  0
LINE
  8
0
 10
-139.96
 11
-140.45
 20
6.055
 21
6
  0
LINE
  8
0
 10
-140.45
 11
-140.94
 20
6
 21
6.055
  0
LINE
  8
0
 10
-140.94
 11
-141.405
 20
6.055
 21
6.218
  0
LINE
  8
0
 10
-141.405
 11
-141.822
 20
6.218
 21
6.48
  0
LINE
  8
0
 10
-141.822
 11
-142.17
 20
6.48
 21
6.828
  0
LINE
  8
0
 10
-142.17
 11
-142.432
 20
6.828
 21
7.245
  0
LINE
  8
0
 10
-142.432
 11
-142.595
 20
7.245
 21
7.71
  0
LINE
  8
0
 10
-142.595
 11
-142.65
 20
7.71
 21
8.2
  0
LINE
  8
0
 10
-113.95
 11
-113.895
 20
26.6
 21
27.09
  0
LINE
  8
0
 10
-113.895
 11
-113.732
 20
27.09
 21
27.555
  0
LINE
  8
0
 10
-113.732
 11
-113.47
 20
27.555
 21
27.972
  0
LINE
  8
0
 10
-113.47
 11
-113.122
 20
27.972
 21
28.32
  0
LINE
  8
0
 10
-113.122
 11
-112.705
 20
28.32
 21
28.582
  0
LINE
  8
0
 10
-112.705
 11
-112.24
 20
28.582
 21
28.745
  0
LINE
  8
0
 10
-112.24
 11
-111.75
 20
28.745
 21
28.8
  0
LINE
  8
0
 10
-111.75
 11
-111.26
 20
28.8
 21
28.745
  0
LINE
  8
0
 10
-111.26
 11
-110.795
 20
28.745
 21
28.582
  0
LINE
  8
0
 10
-110.795
 11
-110.378
 20
28.582
 21
28.32
  0
LINE
  8
0
 10
-110.378
 11
-110.03
 20
28.32
 21
27.972
  0
LINE
  8
0
 10
-110.03
 11
-109.768
 20
27.972
 21
27.555
  0
LINE
  8
0
 10
-109.768
 11
-109.605
 20
27.555
 21
27.09
  0
LINE
  8
0
 10
-109.605
 11
-109.55
 20
27.09
 21
26.6
  0
LINE
  8
0
 10
-109.55
 11
-109.605
 20
26.6
 21
26.11
  0
LINE
  8
0
 10
-109.605
 11
-109.768
 20
26.11
 21
25.645
  0
LINE
  8
0
 10
-109.768
 11
-110.03
 20
25.645
 21
25.228
  0
LINE
  8
0
 10
-110.03
 11
-110.378
 20
25.228
 21
24.88
  0
LINE
  8
0
 10
-110.378
 11
-110.795
 20
24.88
 21
24.618
  0
LINE
  8
0
 10
-110.795
 11
-111.26
 20
24.618
 21
24.455
  0
LINE
  8
0
 10
-111.26
 11
-111.75
 20
24.455
 21
24.4
  0
LINE
  8
0
 10
-111.75
 11
-112.24
 20
24.4
 21
24.455
  0
LINE
  8
0
 10
-112.24
 11
-112.705
 20
24.455
 21
24.618
  0
LINE
  8
0
 10
-112.705
 11
-113.122
 20
24.618
 21
24.88
  0
LINE
  8
0
 10
-113.122
 11
-113.47
 20
24.88
 21
25.228
  0
LINE
  8
0
 10
-113.47
 11
-113.732
 20
25.228
 21
25.645
  0
LINE
  8
0
 10
-113.732
 11
-113.895
 20
25.645
 21
26.11
  0
LINE
  8
0
 10
-113.895
 11
-113.95
 20
26.11
 21
26.6
  0
LINE
  8
0
 10
-113.95
 11
-113.895
 20
194.6
 21
195.09
  0
LINE
  8
0
 10
-113.895
 11
-113.732
 20
195.09
 21
195.555
  0
LINE
  8
0
 10
-113.732
 11
-113.47
 20
195.555
 21
195.972
  0
LINE
  8
0
 10
-113.47
 11
-113.122
 20
195.972
 21
196.32
  0
LINE
  8
0
 10
-113.122
 11
-112.705
 20
196.32
 21
196.582
  0
LINE
  8
0
 10
-112.705
 11
-112.24
 20
196.582
 21
196.745
  0
LINE
  8
0
 10
-112.24
 11
-111.75
 20
196.745
 21
196.8
  0
LINE
  8
0
 10
-111.75
 11
-111.26
 20
196.8
 21
196.745
  0
LINE
  8
0
 10
-111.26
 11
-110.795
 20
196.745
 21
196.582
  0
LINE
  8
0
 10
-110.795
 11
-110.378
 20
196.582
 21
196.32
  0
LINE
  8
0
 10
-110.378
 11
-110.03
 20
196.32
 21
195.972
  0
LINE
  8
0
 10
-110.03
 11
-109.768
 20
195.972
 21
195.555
  0
LINE
  8
0
 10
-109.768
 11
-109.605
 20
195.555
 21
195.09
  0
LINE
  8
0
 10
-109.605
 11
-109.55
 20
195.09
 21
194.6
  0
LINE
  8
0
 10
-109.55
 11
-109.605
 20
194.6
 21
194.11
  0
LINE
  8
0
 10
-109.605
 11
-109.768
 20
194.11
 21
193.645
  0
LINE
  8
0
 10
-109.768
 11
-110.03
 20
193.645
 21
193.228
  0
LINE
  8
0
 10
-110.03
 11
-110.378
 20
193.228
 21
192.88
  0
LINE
  8
0
 10
-110.378
 11
-110.795
 20
192.88
 21
192.618
  0
LINE
  8
0
 10
-110.795
 11
-111.26
 20
192.618
 21
192.455
  0
LINE
  8
0
 10
-111.26
 11
-111.75
 20
192.455
 21
192.4
  0
LINE
  8
0
 10
-111.75
 11
-112.24
 20
192.4
 21
192.455
  0
LINE
  8
0
 10
-112.24
 11
-112.705
 20
192.455
 21
192.618
  0
LINE
  8
0
 10
-112.705
 11
-113.122
 20
192.618
 21
192.88
  0
LINE
  8
0
 10
-113.122
 11
-113.47
 20
192.88
 21
193.228
  0
LINE
  8
0
 10
-113.47
 11
-113.732
 20
193.228
 21
193.645
  0
LINE
  8
0
 10
-113.732
 11
-113.895
 20
193.645
 21
194.11
  0
LINE
  8
0
 10
-113.895
 11
-113.95
 20
194.11
 21
194.6
  0
LINE
  8
0
 10
-112
 11
-111.905
 20
15.6
 21
16.078
  0
LINE
  8
0
 10
-111.905
 11
-111.634
 20
16.078
 21
16.484
  0
LINE
  8
0
 10
-111.634
 11
-111.228
 20
16.484
 21
16.755
  0
LINE
  8
0
 10
-111.228
 11
-110.75
 20
16.755
 21
16.85
  0
LINE
  8
0
 10
-110.75
 11
-110.272
 20
16.85
 21
16.755
  0
LINE
  8
0
 10
-110.272
 11
-109.866
 20
16.755
 21
16.484
  0
LINE
  8
0
 10
-109.866
 11
-109.595
 20
16.484
 21
16.078
  0
LINE
  8
0
 10
-109.595
 11
-109.5
 20
16.078
 21
15.6
  0
LINE
  8
0
 10
-109.5
 11
-109.595
 20
15.6
 21
15.122
  0
LINE
  8
0
 10
-109.595
 11
-109.866
 20
15.122
 21
14.716
  0
LINE
  8
0
 10
-109.866
 11
-110.272
 20
14.716
 21
14.445
  0
LINE
  8
0
 10
-110.272
 11
-110.75
 20
14.445
 21
14.35
  0
LINE
  8
0
 10
-110.75
 11
-111.228
 20
14.35
 21
14.445
  0
LINE
  8
0
 10
-111.228
 11
-111.634
 20
14.445
 21
14.716
  0
LINE
  8
0
 10
-111.634
 11
-111.905
 20
14.716
 21
15.122
  0
LINE
  8
0
 10
-111.905
 11
-112
 20
15.122
 21
15.6
  0
LINE
  8
0
 10
-112
 11
-111.905
 20
224.6
 21
225.078
  0
LINE
  8
0
 10
-111.905
 11
-111.634
 20
225.078
 21
225.484
  0
LINE
  8
0
 10
-111.634
 11
-111.228
 20
225.484
 21
225.755
  0
LINE
  8
0
 10
-111.228
 11
-110.75
 20
225.755
 21
225.85
  0
LINE
  8
0
 10
-110.75
 11
-110.272
 20
225.85
 21
225.755
  0
LINE
  8
0
 10
-110.272
 11
-109.866
 20
225.755
 21
225.484
  0
LINE
  8
0
 10
-109.866
 11
-109.595
 20
225.484
 21
225.078
  0
LINE
  8
0
 10
-109.595
 11
-109.5
 20
225.078
 21
224.6
  0
LINE
  8
0
 10
-109.5
 11
-109.595
 20
224.6
 21
224.122
  0
LINE
  8
0
 10
-109.595
 11
-109.866
 20
224.122
 21
223.716
  0
LINE
  8
0
 10
-109.866
 11
-110.272
 20
223.716
 21
223.445
  0
LINE
  8
0
 10
-110.272
 11
-110.75
 20
223.445
 21
223.35
  0
LINE
  8
0
 10
-110.75
 11
-111.228
 20
223.35
 21
223.445
  0
LINE
  8
0
 10
-111.228
 11
-111.634
 20
223.445
 21
223.716
  0
LINE
  8
0
 10
-111.634
 11
-111.905
 20
223.716
 21
224.122
  0
LINE
  8
0
 10
-111.905
 11
-112
 20
224.122
 21
224.6
  0
LINE
  8
0
 10
-80.95
 11
-80.895
 20
45.6
 21
46.09
  0
LINE
  8
0
 10
-80.895
 11
-80.732
 20
46.09
 21
46.555
  0
LINE
  8
0
 10
-80.732
 11
-80.47
 20
46.555
 21
46.972
  0
LINE
  8
0
 10
-80.47
 11
-80.122
 20
46.972
 21
47.32
  0
LINE
  8
0
 10
-80.122
 11
-79.705
 20
47.32
 21
47.582
  0
LINE
  8
0
 10
-79.705
 11
-79.24
 20
47.582
 21
47.745
  0
LINE
  8
0
 10
-79.24
 11
-78.75
 20
47.745
 21
47.8
  0
LINE
  8
0
 10
-78.75
 11
-78.26
 20
47.8
 21
47.745
  0
LINE
  8
0
 10
-78.26
 11
-77.795
 20
47.745
 21
47.582
  0
LINE
  8
0
 10
-77.795
 11
-77.378
 20
47.582
 21
47.32
  0
LINE
  8
0
 10
-77.378
 11
-77.03
 20
47.32
 21
46.972
  0
LINE
  8
0
 10
-77.03
 11
-76.768
 20
46.972
 21
46.555
  0
LINE
  8
0
 10
-76.768
 11
-76.605
 20
46.555
 21
46.09
  0
LINE
  8
0
 10
-76.605
 11
-76.55
 20
46.09
 21
45.6
  0
LINE
  8
0
 10
-76.55
 11
-76.605
 20
45.6
 21
45.11
  0
LINE
  8
0
 10
-76.605
 11
-76.768
 20
45.11
 21
44.645
  0
LINE
  8
0
 10
-76.768
 11
-77.03
 20
44.645
 21
44.228
  0
LINE
  8
0
 10
-77.03
 11
-77.378
 20
44.228
 21
43.88
  0
LINE
  8
0
 10
-77.378
 11
-77.795
 20
43.88
 21
43.618
  0
LINE
  8
0
 10
-77.795
 11
-78.26
 20
43.618
 21
43.455
  0
LINE
  8
0
 10
-78.26
 11
-78.75
 20
43.455
 21
43.4
  0
LINE
  8
0
 10
-78.75
 11
-79.24
 20
43.4
 21
43.455
  0
LINE
  8
0
 10
-79.24
 11
-79.705
 20
43.455
 21
43.618
  0
LINE
  8
0
 10
-79.705
 11
-80.122
 20
43.618
 21
43.88
  0
LINE
  8
0
 10
-80.122
 11
-80.47
 20
43.88
 21
44.228
  0
LINE
  8
0
 10
-80.47
 11
-80.732
 20
44.228
 21
44.645
  0
LINE
  8
0
 10
-80.732
 11
-80.895
 20
44.645
 21
45.11
  0
LINE
  8
0
 10
-80.895
 11
-80.95
 20
45.11
 21
45.6
  0
LINE
  8
0
 10
-80.95
 11
-80.895
 20
213.6
 21
214.09
  0
LINE
  8
0
 10
-80.895
 11
-80.732
 20
214.09
 21
214.555
  0
LINE
  8
0
 10
-80.732
 11
-80.47
 20
214.555
 21
214.972
  0
LINE
  8
0
 10
-80.47
 11
-80.122
 20
214.972
 21
215.32
  0
LINE
  8
0
 10
-80.122
 11
-79.705
 20
215.32
 21
215.582
  0
LINE
  8
0
 10
-79.705
 11
-79.24
 20
215.582
 21
215.745
  0
LINE
  8
0
 10
-79.24
 11
-78.75
 20
215.745
 21
215.8
  0
LINE
  8
0
 10
-78.75
 11
-78.26
 20
215.8
 21
215.745
  0
LINE
  8
0
 10
-78.26
 11
-77.795
 20
215.745
 21
215.582
  0
LINE
  8
0
 10
-77.795
 11
-77.378
 20
215.582
 21
215.32
  0
LINE
  8
0
 10
-77.378
 11
-77.03
 20
215.32
 21
214.972
  0
LINE
  8
0
 10
-77.03
 11
-76.768
 20
214.972
 21
214.555
  0
LINE
  8
0
 10
-76.768
 11
-76.605
 20
214.555
 21
214.09
  0
LINE
  8
0
 10
-76.605
 11
-76.55
 20
214.09
 21
213.6
  0
LINE
  8
0
 10
-76.55
 11
-76.605
 20
213.6
 21
213.11
  0
LINE
  8
0
 10
-76.605
 11
-76.768
 20
213.11
 21
212.645
  0
LINE
  8
0
 10
-76.768
 11
-77.03
 20
212.645
 21
212.228
  0
LINE
  8
0
 10
-77.03
 11
-77.378
 20
212.228
 21
211.88
  0
LINE
  8
0
 10
-77.378
 11
-77.795
 20
211.88
 21
211.618
  0
LINE
  8
0
 10
-77.795
 11
-78.26
 20
211.618
 21
211.455
  0
LINE
  8
0
 10
-78.26
 11
-78.75
 20
211.455
 21
211.4
  0
LINE
  8
0
 10
-78.75
 11
-79.24
 20
211.4
 21
211.455
  0
LINE
  8
0
 10
-79.24
 11
-79.705
 20
211.455
 21
211.618
  0
LINE
  8
0
 10
-79.705
 11
-80.122
 20
211.618
 21
211.88
  0
LINE
  8
0
 10
-80.122
 11
-80.47
 20
211.88
 21
212.228
  0
LINE
  8
0
 10
-80.47
 11
-80.732
 20
212.228
 21
212.645
  0
LINE
  8
0
 10
-80.732
 11
-80.895
 20
212.645
 21
213.11
  0
LINE
  8
0
 10
-80.895
 11
-80.95
 20
213.11
 21
213.6
  0
LINE
  8
0
 10
-36.87
 11
-36.797
 20
61.425
 21
61.912
  0
LINE
  8
0
 10
-36.797
 11
-36.583
 20
61.912
 21
62.355
  0
LINE
  8
0
 10
-36.583
 11
-36.249
 20
62.355
 21
62.715
  0
LINE
  8
0
 10
-36.249
 11
-35.823
 20
62.715
 21
62.961
  0
LINE
  8
0
 10
-35.823
 11
-35.343
 20
62.961
 21
63.071
  0
LINE
  8
0
 10
-35.343
 11
-34.853
 20
63.071
 21
63.034
  0
LINE
  8
0
 10
-34.853
 11
-34.395
 20
63.034
 21
62.854
  0
LINE
  8
0
 10
-34.395
 11
-34.01
 20
62.854
 21
62.548
  0
LINE
  8
0
 10
-34.01
 11
-33.733
 20
62.548
 21
62.141
  0
LINE
  8
0
 10
-33.733
 11
-33.588
 20
62.141
 21
61.671
  0
LINE
  8
0
 10
-33.588
 11
-33.588
 20
61.671
 21
61.179
  0
LINE
  8
0
 10
-33.588
 11
-33.733
 20
61.179
 21
60.71
  0
LINE
  8
0
 10
-33.733
 11
-34.01
 20
60.71
 21
60.303
  0
LINE
  8
0
 10
-34.01
 11
-34.395
 20
60.303
 21
59.996
  0
LINE
  8
0
 10
-34.395
 11
-34.853
 20
59.996
 21
59.817
  0
LINE
  8
0
 10
-34.853
 11
-35.343
 20
59.817
 21
59.78
  0
LINE
  8
0
 10
-35.343
 11
-35.823
 20
59.78
 21
59.889
  0
LINE
  8
0
 10
-35.823
 11
-36.249
 20
59.889
 21
60.135
  0
LINE
  8
0
 10
-36.249
 11
-36.583
 20
60.135
 21
60.496
  0
LINE
  8
0
 10
-36.583
 11
-36.797
 20
60.496
 21
60.939
  0
LINE
  8
0
 10
-36.797
 11
-36.87
 20
60.939
 21
61.425
  0
LINE
  8
0
 10
-36.87
 11
-36.797
 20
76.075
 21
76.561
  0
LINE
  8
0
 10
-36.797
 11
-36.583
 20
76.561
 21
77.004
  0
LINE
  8
0
 10
-36.583
 11
-36.249
 20
77.004
 21
77.365
  0
LINE
  8
0
 10
-36.249
 11
-35.823
 20
77.365
 21
77.611
  0
LINE
  8
0
 10
-35.823
 11
-35.343
 20
77.611
 21
77.72
  0
LINE
  8
0
 10
-35.343
 11
-34.853
 20
77.72
 21
77.683
  0
LINE
  8
0
 10
-34.853
 11
-34.395
 20
77.683
 21
77.504
  0
LINE
  8
0
 10
-34.395
 11
-34.01
 20
77.504
 21
77.197
  0
LINE
  8
0
 10
-34.01
 11
-33.733
 20
77.197
 21
76.79
  0
LINE
  8
0
 10
-33.733
 11
-33.588
 20
76.79
 21
76.321
  0
LINE
  8
0
 10
-33.588
 11
-33.588
 20
76.321
 21
75.829
  0
LINE
  8
0
 10
-33.588
 11
-33.733
 20
75.829
 21
75.359
  0
LINE
  8
0
 10
-33.733
 11
-34.01
 20
75.359
 21
74.952
  0
LINE
  8
0
 10
-34.01
 11
-34.395
 20
74.952
 21
74.646
  0
LINE
  8
0
 10
-34.395
 11
-34.853
 20
74.646
 21
74.466
  0
LINE
  8
0
 10
-34.853
 11
-35.343
 20
74.466
 21
74.429
  0
LINE
  8
0
 10
-35.343
 11
-35.823
 20
74.429
 21
74.539
  0
LINE
  8
0
 10
-35.823
 11
-36.249
 20
74.539
 21
74.785
  0
LINE
  8
0
 10
-36.249
 11
-36.583
 20
74.785
 21
75.145
  0
LINE
  8
0
 10
-36.583
 11
-36.797
 20
75.145
 21
75.588
  0
LINE
  8
0
 10
-36.797
 11
-36.87
 20
75.588
 21
76.075
  0
LINE
  8
0
 10
-36.852
 11
-36.852
 20
165.029
 21
165.521
  0
LINE
  8
0
 10
-36.852
 11
-36.707
 20
165.521
 21
165.991
  0
LINE
  8
0
 10
-36.707
 11
-36.43
 20
165.991
 21
166.398
  0
LINE
  8
0
 10
-36.43
 11
-36.045
 20
166.398
 21
166.704
  0
LINE
  8
0
 10
-36.045
 11
-35.587
 20
166.704
 21
166.884
  0
LINE
  8
0
 10
-35.587
 11
-35.097
 20
166.884
 21
166.921
  0
LINE
  8
0
 10
-35.097
 11
-34.617
 20
166.921
 21
166.811
  0
LINE
  8
0
 10
-34.617
 11
-34.191
 20
166.811
 21
166.565
  0
LINE
  8
0
 10
-34.191
 11
-33.857
 20
166.565
 21
166.205
  0
LINE
  8
0
 10
-33.857
 11
-33.643
 20
166.205
 21
165.762
  0
LINE
  8
0
 10
-33.643
 11
-33.57
 20
165.762
 21
165.275
  0
LINE
  8
0
 10
-33.57
 11
-33.643
 20
165.275
 21
164.789
  0
LINE
  8
0
 10
-33.643
 11
-33.857
 20
164.789
 21
164.346
  0
LINE
  8
0
 10
-33.857
 11
-34.191
 20
164.346
 21
163.985
  0
LINE
  8
0
 10
-34.191
 11
-34.617
 20
163.985
 21
163.739
  0
LINE
  8
0
 10
-34.617
 11
-35.097
 20
163.739
 21
163.63
  0
LINE
  8
0
 10
-35.097
 11
-35.587
 20
163.63
 21
163.667
  0
LINE
  8
0
 10
-35.587
 11
-36.045
 20
163.667
 21
163.846
  0
LINE
  8
0
 10
-36.045
 11
-36.43
 20
163.846
 21
164.153
  0
LINE
  8
0
 10
-36.43
 11
-36.707
 20
164.153
 21
164.56
  0
LINE
  8
0
 10
-36.707
 11
-36.852
 20
164.56
 21
165.029
  0
LINE
  8
0
 10
-36.852
 11
-36.852
 20
179.679
 21
180.171
  0
LINE
  8
0
 10
-36.852
 11
-36.707
 20
180.171
 21
180.64
  0
LINE
  8
0
 10
-36.707
 11
-36.43
 20
180.64
 21
181.047
  0
LINE
  8
0
 10
-36.43
 11
-36.045
 20
181.047
 21
181.354
  0
LINE
  8
0
 10
-36.045
 11
-35.587
 20
181.354
 21
181.533
  0
LINE
  8
0
 10
-35.587
 11
-35.097
 20
181.533
 21
181.57
  0
LINE
  8
0
 10
-35.097
 11
-34.617
 20
181.57
 21
181.461
  0
LINE
  8
0
 10
-34.617
 11
-34.191
 20
181.461
 21
181.215
  0
LINE
  8
0
 10
-34.191
 11
-33.857
 20
181.215
 21
180.854
  0
LINE
  8
0
 10
-33.857
 11
-33.643
 20
180.854
 21
180.411
  0
LINE
  8
0
 10
-33.643
 11
-33.57
 20
180.411
 21
179.925
  0
LINE
  8
0
 10
-33.57
 11
-33.643
 20
179.925
 21
179.438
  0
LINE
  8
0
 10
-33.643
 11
-33.857
 20
179.438
 21
178.995
  0
LINE
  8
0
 10
-33.857
 11
-34.191
 20
178.995
 21
178.635
  0
LINE
  8
0
 10
-34.191
 11
-34.617
 20
178.635
 21
178.389
  0
LINE
  8
0
 10
-34.617
 11
-35.097
 20
178.389
 21
178.279
  0
LINE
  8
0
 10
-35.097
 11
-35.587
 20
178.279
 21
178.316
  0
LINE
  8
0
 10
-35.587
 11
-36.045
 20
178.316
 21
178.496
  0
LINE
  8
0
 10
-36.045
 11
-36.43
 20
178.496
 21
178.802
  0
LINE
  8
0
 10
-36.43
 11
-36.707
 20
178.802
 21
179.209
  0
LINE
  8
0
 10
-36.707
 11
-36.852
 20
179.209
 21
179.679
  0
LINE
  8
0
 10
-118.25
 11
-118.209
 20
229.1
 21
229.594
  0
LINE
  8
0
 10
-118.209
 11
-118.087
 20
229.594
 21
230.074
  0
LINE
  8
0
 10
-118.087
 11
-117.888
 20
230.074
 21
230.528
  0
LINE
  8
0
 10
-117.888
 11
-117.617
 20
230.528
 21
230.943
  0
LINE
  8
0
 10
-117.617
 11
-117.282
 20
230.943
 21
231.307
  0
LINE
  8
0
 10
-117.282
 11
-116.891
 20
231.307
 21
231.611
  0
LINE
  8
0
 10
-116.891
 11
-116.455
 20
231.611
 21
231.847
  0
LINE
  8
0
 10
-116.455
 11
-115.986
 20
231.847
 21
232.008
  0
LINE
  8
0
 10
-115.986
 11
-115.498
 20
232.008
 21
232.09
  0
LINE
  8
0
 10
-115.498
 11
102.75
 20
232.09
 21
232.1
  0
LINE
  8
0
 10
102.75
 11
103.244
 20
232.1
 21
232.059
  0
LINE
  8
0
 10
103.244
 11
103.724
 20
232.059
 21
231.937
  0
LINE
  8
0
 10
103.724
 11
104.178
 20
231.937
 21
231.738
  0
LINE
  8
0
 10
104.178
 11
104.593
 20
231.738
 21
231.467
  0
LINE
  8
0
 10
104.593
 11
104.957
 20
231.467
 21
231.132
  0
LINE
  8
0
 10
104.957
 11
105.261
 20
231.132
 21
230.741
  0
LINE
  8
0
 10
105.261
 11
105.497
 20
230.741
 21
230.305
  0
LINE
  8
0
 10
105.497
 11
105.658
 20
230.305
 21
229.836
  0
LINE
  8
0
 10
105.658
 11
105.74
 20
229.836
 21
229.348
  0
LINE
  8
0
 10
105.74
 11
105.75
 20
229.348
 21
11.1
  0
LINE
  8
0
 10
105.75
 11
105.709
 20
11.1
 21
10.606
  0
LINE
  8
0
 10
105.709
 11
105.587
 20
10.606
 21
10.126
  0
LINE
  8
0
 10
105.587
 11
105.388
 20
10.126
 21
9.672
  0
LINE
  8
0
 10
105.388
 11
105.117
 20
9.672
 21
9.257
  0
LINE
  8
0
 10
105.117
 11
104.782
 20
9.257
 21
8.893
  0
LINE
  8
0
 10
104.782
 11
104.391
 20
8.893
 21
8.589
  0
LINE
  8
0
 10
104.391
 11
103.955
 20
8.589
 21
8.353
  0
LINE
  8
0
 10
103.955
 11
103.486
 20
8.353
 21
8.192
  0
LINE
  8
0
 10
103.486
 11
102.998
 20
8.192
 21
8.11
  0
LINE
  8
0
 10
102.998
 11
-115.25
 20
8.11
 21
8.1
  0
LINE
  8
0
 10
-115.25
 11
-115.744
 20
8.1
 21
8.141
  0
LINE
  8
0
 10
-115.744
 11
-116.224
 20
8.141
 21
8.263
  0
LINE
  8
0
 10
-116.224
 11
-116.678
 20
8.263
 21
8.462
  0
LINE
  8
0
 10
-116.678
 11
-117.093
 20
8.462
 21
8.733
  0
LINE
  8
0
 10
-117.093
 11
-117.457
 20
8.733
 21
9.068
  0
LINE
  8
0
 10
-117.457
 11
-117.761
 20
9.068
 21
9.459
  0
LINE
  8
0
 10
-117.761
 11
-117.997
 20
9.459
 21
9.895
  0
LINE
  8
0
 10
-117.997
 11
-118.158
 20
9.895
 21
10.364
  0
LINE
  8
0
 10
-118.158
 11
-118.24
 20
10.364
 21
10.852
  0
LINE
  8
0
 10
-118.24
 11
-118.25
 20
10.852
 21
229.1
  0
LINE
  8
0
 10
-27.12
 11
-27.065
 20
221.1
 21
221.59
  0
LINE
  8
0
 10
-27.065
 11
-26.902
 20
221.59
 21
222.055
  0
LINE
  8
0
 10
-26.902
 11
-26.64
 20
222.055
 21
222.472
  0
LINE
  8
0
 10
-26.64
 11
-26.292
 20
222.472
 21
222.82
  0
LINE
  8
0
 10
-26.292
 11
-25.875
 20
222.82
 21
223.082
  0
LINE
  8
0
 10
-25.875
 11
-25.41
 20
223.082
 21
223.245
  0
LINE
  8
0
 10
-25.41
 11
-24.92
 20
223.245
 21
223.3
  0
LINE
  8
0
 10
-24.92
 11
-24.43
 20
223.3
 21
223.245
  0
LINE
  8
0
 10
-24.43
 11
-23.965
 20
223.245
 21
223.082
  0
LINE
  8
0
 10
-23.965
 11
-23.548
 20
223.082
 21
222.82
  0
LINE
  8
0
 10
-23.548
 11
-23.2
 20
222.82
 21
222.472
  0
LINE
  8
0
 10
-23.2
 11
-22.938
 20
222.472
 21
222.055
  0
LINE
  8
0
 10
-22.938
 11
-22.775
 20
222.055
 21
221.59
  0
LINE
  8
0
 10
-22.775
 11
-22.72
 20
221.59
 21
221.1
  0
LINE
  8
0
 10
-22.72
 11
-22.775
 20
221.1
 21
220.61
  0
LINE
  8
0
 10
-22.775
 11
-22.938
 20
220.61
 21
220.145
  0
LINE
  8
0
 10
-22.938
 11
-23.2
 20
220.145
 21
219.728
  0
LINE
  8
0
 10
-23.2
 11
-23.548
 20
219.728
 21
219.38
  0
LINE
  8
0
 10
-23.548
 11
-23.965
 20
219.38
 21
219.118
  0
LINE
  8
0
 10
-23.965
 11
-24.43
 20
219.118
 21
218.955
  0
LINE
  8
0
 10
-24.43
 11
-24.92
 20
218.955
 21
218.9
  0
LINE
  8
0
 10
-24.92
 11
-25.41
 20
218.9
 21
218.955
  0
LINE
  8
0
 10
-25.41
 11
-25.875
 20
218.955
 21
219.118
  0
LINE
  8
0
 10
-25.875
 11
-26.292
 20
219.118
 21
219.38
  0
LINE
  8
0
 10
-26.292
 11
-26.64
 20
219.38
 21
219.728
  0
LINE
  8
0
 10
-26.64
 11
-26.902
 20
219.728
 21
220.145
  0
LINE
  8
0
 10
-26.902
 11
-27.065
 20
220.145
 21
220.61
  0
LINE
  8
0
 10
-27.065
 11
-27.12
 20
220.61
 21
221.1
  0
LINE
  8
0
 10
10.22
 11
10.275
 20
221.1
 21
221.59
  0
LINE
  8
0
 10
10.275
 11
10.438
 20
221.59
 21
222.055
  0
LINE
  8
0
 10
10.438
 11
10.7
 20
222.055
 21
222.472
  0
LINE
  8
0
 10
10.7
 11
11.048
 20
222.472
 21
222.82
  0
LINE
  8
0
 10
11.048
 11
11.465
 20
222.82
 21
223.082
  0
LINE
  8
0
 10
11.465
 11
11.93
 20
223.082
 21
223.245
  0
LINE
  8
0
 10
11.93
 11
12.42
 20
223.245
 21
223.3
  0
LINE
  8
0
 10
12.42
 11
12.91
 20
223.3
 21
223.245
  0
LINE
  8
0
 10
12.91
 11
13.375
 20
223.245
 21
223.082
  0
LINE
  8
0
 10
13.375
 11
13.792
 20
223.082
 21
222.82
  0
LINE
  8
0
 10
13.792
 11
14.14
 20
222.82
 21
222.472
  0
LINE
  8
0
 10
14.14
 11
14.402
 20
222.472
 21
222.055
  0
LINE
  8
0
 10
14.402
 11
14.565
 20
222.055
 21
221.59
  0
LINE
  8
0
 10
14.565
 11
14.62
 20
221.59
 21
221.1
  0
LINE
  8
0
 10
14.62
 11
14.565
 20
221.1
 21
220.61
  0
LINE
  8
0
 10
14.565
 11
14.402
 20
220.61
 21
220.145
  0
LINE
  8
0
 10
14.402
 11
14.14
 20
220.145
 21
219.728
  0
LINE
  8
0
 10
14.14
 11
13.792
 20
219.728
 21
219.38
  0
LINE
  8
0
 10
13.792
 11
13.375
 20
219.38
 21
219.118
  0
LINE
  8
0
 10
13.375
 11
12.91
 20
219.118
 21
218.955
  0
LINE
  8
0
 10
12.91
 11
12.42
 20
218.955
 21
218.9
  0
LINE
  8
0
 10
12.42
 11
11.93
 20
218.9
 21
218.955
  0
LINE
  8
0
 10
11.93
 11
11.465
 20
218.955
 21
219.118
  0
LINE
  8
0
 10
11.465
 11
11.048
 20
219.118
 21
219.38
  0
LINE
  8
0
 10
11.048
 11
10.7
 20
219.38
 21
219.728
  0
LINE
  8
0
 10
10.7
 11
10.438
 20
219.728
 21
220.145
  0
LINE
  8
0
 10
10.438
 11
10.275
 20
220.145
 21
220.61
  0
LINE
  8
0
 10
10.275
 11
10.22
 20
220.61
 21
221.1
  0
LINE
  8
0
 10
64.05
 11
64.105
 20
110.6
 21
111.09
  0
LINE
  8
0
 10
64.105
 11
64.268
 20
111.09
 21
111.555
  0
LINE
  8
0
 10
64.268
 11
64.53
 20
111.555
 21
111.972
  0
LINE
  8
0
 10
64.53
 11
64.878
 20
111.972
 21
112.32
  0
LINE
  8
0
 10
64.878
 11
65.295
 20
112.32
 21
112.582
  0
LINE
  8
0
 10
65.295
 11
65.76
 20
112.582
 21
112.745
  0
LINE
  8
0
 10
65.76
 11
66.25
 20
112.745
 21
112.8
  0
LINE
  8
0
 10
66.25
 11
66.74
 20
112.8
 21
112.745
  0
LINE
  8
0
 10
66.74
 11
67.205
 20
112.745
 21
112.582
  0
LINE
  8
0
 10
67.205
 11
67.622
 20
112.582
 21
112.32
  0
LINE
  8
0
 10
67.622
 11
67.97
 20
112.32
 21
111.972
  0
LINE
  8
0
 10
67.97
 11
68.232
 20
111.972
 21
111.555
  0
LINE
  8
0
 10
68.232
 11
68.395
 20
111.555
 21
111.09
  0
LINE
  8
0
 10
68.395
 11
68.45
 20
111.09
 21
110.6
  0
LINE
  8
0
 10
68.45
 11
68.395
 20
110.6
 21
110.11
  0
LINE
  8
0
 10
68.395
 11
68.232
 20
110.11
 21
109.645
  0
LINE
  8
0
 10
68.232
 11
67.97
 20
109.645
 21
109.228
  0
LINE
  8
0
 10
67.97
 11
67.622
 20
109.228
 21
108.88
  0
LINE
  8
0
 10
67.622
 11
67.205
 20
108.88
 21
108.618
  0
LINE
  8
0
 10
67.205
 11
66.74
 20
108.618
 21
108.455
  0
LINE
  8
0
 10
66.74
 11
66.25
 20
108.455
 21
108.4
  0
LINE
  8
0
 10
66.25
 11
65.76
 20
108.4
 21
108.455
  0
LINE
  8
0
 10
65.76
 11
65.295
 20
108.455
 21
108.618
  0
LINE
  8
0
 10
65.295
 11
64.878
 20
108.618
 21
108.88
  0
LINE
  8
0
 10
64.878
 11
64.53
 20
108.88
 21
109.228
  0
LINE
  8
0
 10
64.53
 11
64.268
 20
109.228
 21
109.645
  0
LINE
  8
0
 10
64.268
 11
64.105
 20
109.645
 21
110.11
  0
LINE
  8
0
 10
64.105
 11
64.05
 20
110.11
 21
110.6
  0
LINE
  8
0
 10
97
 11
97.095
 20
15.6
 21
16.078
  0
LINE
  8
0
 10
97.095
 11
97.366
 20
16.078
 21
16.484
  0
LINE
  8
0
 10
97.366
 11
97.772
 20
16.484
 21
16.755
  0
LINE
  8
0
 10
97.772
 11
98.25
 20
16.755
 21
16.85
  0
LINE
  8
0
 10
98.25
 11
98.728
 20
16.85
 21
16.755
  0
LINE
  8
0
 10
98.728
 11
99.134
 20
16.755
 21
16.484
  0
LINE
  8
0
 10
99.134
 11
99.405
 20
16.484
 21
16.078
  0
LINE
  8
0
 10
99.405
 11
99.5
 20
16.078
 21
15.6
  0
LINE
  8
0
 10
99.5
 11
99.405
 20
15.6
 21
15.122
  0
LINE
  8
0
 10
99.405
 11
99.134
 20
15.122
 21
14.716
  0
LINE
  8
0
 10
99.134
 11
98.728
 20
14.716
 21
14.445
  0
LINE
  8
0
 10
98.728
 11
98.25
 20
14.445
 21
14.35
  0
LINE
  8
0
 10
98.25
 11
97.772
 20
14.35
 21
14.445
  0
LINE
  8
0
 10
97.772
 11
97.366
 20
14.445
 21
14.716
  0
LINE
  8
0
 10
97.366
 11
97.095
 20
14.716
 21
15.122
  0
LINE
  8
0
 10
97.095
 11
97
 20
15.122
 21
15.6
  0
LINE
  8
0
 10
97
 11
97.095
 20
224.6
 21
225.078
  0
LINE
  8
0
 10
97.095
 11
97.366
 20
225.078
 21
225.484
  0
LINE
  8
0
 10
97.366
 11
97.772
 20
225.484
 21
225.755
  0
LINE
  8
0
 10
97.772
 11
98.25
 20
225.755
 21
225.85
  0
LINE
  8
0
 10
98.25
 11
98.728
 20
225.85
 21
225.755
  0
LINE
  8
0
 10
98.728
 11
99.134
 20
225.755
 21
225.484
  0
LINE
  8
0
 10
99.134
 11
99.405
 20
225.484
 21
225.078
  0
LINE
  8
0
 10
99.405
 11
99.5
 20
225.078
 21
224.6
  0
LINE
  8
0
 10
99.5
 11
99.405
 20
224.6
 21
224.122
  0
LINE
  8
0
 10
99.405
 11
99.134
 20
224.122
 21
223.716
  0
LINE
  8
0
 10
99.134
 11
98.728
 20
223.716
 21
223.445
  0
LINE
  8
0
 10
98.728
 11
98.25
 20
223.445
 21
223.35
  0
LINE
  8
0
 10
98.25
 11
97.772
 20
223.35
 21
223.445
  0
LINE
  8
0
 10
97.772
 11
97.366
 20
223.445
 21
223.716
  0
LINE
  8
0
 10
97.366
 11
97.095
 20
223.716
 21
224.122
  0
LINE
  8
0
 10
97.095
 11
97
 20
224.122
 21
224.6
  0
LINE
  8
0
 10
97.05
 11
97.105
 20
129.6
 21
130.09
  0
LINE
  8
0
 10
97.105
 11
97.268
 20
130.09
 21
130.555
  0
LINE
  8
0
 10
97.268
 11
97.53
 20
130.555
 21
130.972
  0
LINE
  8
0
 10
97.53
 11
97.878
 20
130.972
 21
131.32
  0
LINE
  8
0
 10
97.878
 11
98.295
 20
131.32
 21
131.582
  0
LINE
  8
0
 10
98.295
 11
98.76
 20
131.582
 21
131.745
  0
LINE
  8
0
 10
98.76
 11
99.25
 20
131.745
 21
131.8
  0
LINE
  8
0
 10
99.25
 11
99.74
 20
131.8
 21
131.745
  0
LINE
  8
0
 10
99.74
 11
100.205
 20
131.745
 21
131.582
  0
LINE
  8
0
 10
100.205
 11
100.622
 20
131.582
 21
131.32
  0
LINE
  8
0
 10
100.622
 11
100.97
 20
131.32
 21
130.972
  0
LINE
  8
0
 10
100.97
 11
101.232
 20
130.972
 21
130.555
  0
LINE
  8
0
 10
101.232
 11
101.395
 20
130.555
 21
130.09
  0
LINE
  8
0
 10
101.395
 11
101.45
 20
130.09
 21
129.6
  0
LINE
  8
0
 10
101.45
 11
101.395
 20
129.6
 21
129.11
  0
LINE
  8
0
 10
101.395
 11
101.232
 20
129.11
 21
128.645
  0
LINE
  8
0
 10
101.232
 11
100.97
 20
128.645
 21
128.228
  0
LINE
  8
0
 10
100.97
 11
100.622
 20
128.228
 21
127.88
  0
LINE
  8
0
 10
100.622
 11
100.205
 20
127.88
 21
127.618
  0
LINE
  8
0
 10
100.205
 11
99.74
 20
127.618
 21
127.455
  0
LINE
  8
0
 10
99.74
 11
99.25
 20
127.455
 21
127.4
  0
LINE
  8
0
 10
99.25
 11
98.76
 20
127.4
 21
127.455
  0
LINE
  8
0
 10
98.76
 11
98.295
 20
127.455
 21
127.618
  0
LINE
  8
0
 10
98.295
 11
97.878
 20
127.618
 21
127.88
  0
LINE
  8
0
 10
97.878
 11
97.53
 20
127.88
 21
128.228
  0
LINE
  8
0
 10
97.53
 11
97.268
 20
128.228
 21
128.645
  0
LINE
  8
0
 10
97.268
 11
97.105
 20
128.645
 21
129.11
  0
LINE
  8
0
 10
97.105
 11
97.05
 20
129.11
 21
129.6
  0
LINE
  8
0
 10
126.25
 11
126.305
 20
8.2
 21
8.69
  0
LINE
  8
0
 10
126.305
 11
126.468
 20
8.69
 21
9.155
  0
LINE
  8
0
 10
126.468
 11
126.73
 20
9.155
 21
9.572
  0
LINE
  8
0
 10
126.73
 11
127.078
 20
9.572
 21
9.92
  0
LINE
  8
0
 10
127.078
 11
127.495
 20
9.92
 21
10.182
  0
LINE
  8
0
 10
127.495
 11
127.96
 20
10.182
 21
10.345
  0
LINE
  8
0
 10
127.96
 11
128.45
 20
10.345
 21
10.4
  0
LINE
  8
0
 10
128.45
 11
128.94
 20
10.4
 21
10.345
  0
LINE
  8
0
 10
128.94
 11
129.405
 20
10.345
 21
10.182
  0
LINE
  8
0
 10
129.405
 11
129.822
 20
10.182
 21
9.92
  0
LINE
  8
0
 10
129.822
 11
130.17
 20
9.92
 21
9.572
  0
LINE
  8
0
 10
130.17
 11
130.432
 20
9.572
 21
9.155
  0
LINE
  8
0
 10
130.432
 11
130.595
 20
9.155
 21
8.69
  0
LINE
  8
0
 10
130.595
 11
130.65
 20
8.69
 21
8.2
  0
LINE
  8
0
 10
130.65
 11
130.595
 20
8.2
 21
7.71
  0
LINE
  8
0
 10
130.595
 11
130.432
 20
7.71
 21
7.245
  0
LINE
  8
0
 10
130.432
 11
130.17
 20
7.245
 21
6.828
  0
LINE
  8
0
 10
130.17
 11
129.822
 20
6.828
 21
6.48
  0
LINE
  8
0
 10
129.822
 11
129.405
 20
6.48
 21
6.218
  0
LINE
  8
0
 10
129.405
 11
128.94
 20
6.218
 21
6.055
  0
LINE
  8
0
 10
128.94
 11
128.45
 20
6.055
 21
6
  0
LINE
  8
0
 10
128.45
 11
127.96
 20
6
 21
6.055
  0
LINE
  8
0
 10
127.96
 11
127.495
 20
6.055
 21
6.218
  0
LINE
  8
0
 10
127.495
 11
127.078
 20
6.218
 21
6.48
  0
LINE
  8
0
 10
127.078
 11
126.73
 20
6.48
 21
6.828
  0
LINE
  8
0
 10
126.73
 11
126.468
 20
6.828
 21
7.245
  0
LINE
  8
0
 10
126.468
 11
126.305
 20
7.245
 21
7.71
  0
LINE
  8
0
 10
126.305
 11
126.25
 20
7.71
 21
8.2
  0
LINE
  8
0
 10
127.55
 11
127.605
 20
322.5
 21
322.99
  0
LINE
  8
0
 10
127.605
 11
127.768
 20
322.99
 21
323.455
  0
LINE
  8
0
 10
127.768
 11
128.03
 20
323.455
 21
323.872
  0
LINE
  8
0
 10
128.03
 11
128.378
 20
323.872
 21
324.22
  0
LINE
  8
0
 10
128.378
 11
128.795
 20
324.22
 21
324.482
  0
LINE
  8
0
 10
128.795
 11
129.26
 20
324.482
 21
324.645
  0
LINE
  8
0
 10
129.26
 11
129.75
 20
324.645
 21
324.7
  0
LINE
  8
0
 10
129.75
 11
130.24
 20
324.7
 21
324.645
  0
LINE
  8
0
 10
130.24
 11
130.705
 20
324.645
 21
324.482
  0
LINE
  8
0
 10
130.705
 11
131.122
 20
324.482
 21
324.22
  0
LINE
  8
0
 10
131.122
 11
131.47
 20
324.22
 21
323.872
  0
LINE
  8
0
 10
131.47
 11
131.732
 20
323.872
 21
323.455
  0
LINE
  8
0
 10
131.732
 11
131.895
 20
323.455
 21
322.99
  0
LINE
  8
0
 10
131.895
 11
131.95
 20
322.99
 21
322.5
  0
LINE
  8
0
 10
131.95
 11
131.895
 20
322.5
 21
322.01
  0
LINE
  8
0
 10
131.895
 11
131.732
 20
322.01
 21
321.545
  0
LINE
  8
0
 10
131.732
 11
131.47
 20
321.545
 21
321.128
  0
LINE
  8
0
 10
131.47
 11
131.122
 20
321.128
 21
320.78
  0
LINE
  8
0
 10
131.122
 11
130.705
 20
320.78
 21
320.518
  0
LINE
  8
0
 10
130.705
 11
130.24
 20
320.518
 21
320.355
  0
LINE
  8
0
 10
130.24
 11
129.75
 20
320.355
 21
320.3
  0
LINE
  8
0
 10
129.75
 11
129.26
 20
320.3
 21
320.355
  0
LINE
  8
0
 10
129.26
 11
128.795
 20
320.355
 21
320.518
  0
LINE
  8
0
 10
128.795
 11
128.378
 20
320.518
 21
320.78
  0
LINE
  8
0
 10
128.378
 11
128.03
 20
320.78
 21
321.128
  0
LINE
  8
0
 10
128.03
 11
127.768
 20
321.128
 21
321.545
  0
LINE
  8
0
 10
127.768
 11
127.605
 20
321.545
 21
322.01
  0
LINE
  8
0
 10
127.605
 11
127.55
 20
322.01
 21
322.5
  0
LINE
  8
0
 10
145.55
 11
145.605
 20
61.5
 21
61.99
  0
LINE
  8
0
 10
145.605
 11
145.768
 20
61.99
 21
62.455
  0
LINE
  8
0
 10
145.768
 11
146.03
 20
62.455
 21
62.872
  0
LINE
  8
0
 10
146.03
 11
146.378
 20
62.872
 21
63.22
  0
LINE
  8
0
 10
146.378
 11
146.795
 20
63.22
 21
63.482
  0
LINE
  8
0
 10
146.795
 11
147.26
 20
63.482
 21
63.645
  0
LINE
  8
0
 10
147.26
 11
147.75
 20
63.645
 21
63.7
  0
LINE
  8
0
 10
147.75
 11
148.24
 20
63.7
 21
63.645
  0
LINE
  8
0
 10
148.24
 11
148.705
 20
63.645
 21
63.482
  0
LINE
  8
0
 10
148.705
 11
149.122
 20
63.482
 21
63.22
  0
LINE
  8
0
 10
149.122
 11
149.47
 20
63.22
 21
62.872
  0
LINE
  8
0
 10
149.47
 11
149.732
 20
62.872
 21
62.455
  0
LINE
  8
0
 10
149.732
 11
149.895
 20
62.455
 21
61.99
  0
LINE
  8
0
 10
149.895
 11
149.95
 20
61.99
 21
61.5
  0
LINE
  8
0
 10
149.95
 11
149.895
 20
61.5
 21
61.01
  0
LINE
  8
0
 10
149.895
 11
149.732
 20
61.01
 21
60.545
  0
LINE
  8
0
 10
149.732
 11
149.47
 20
60.545
 21
60.128
  0
LINE
  8
0
 10
149.47
 11
149.122
 20
60.128
 21
59.78
  0
LINE
  8
0
 10
149.122
 11
148.705
 20
59.78
 21
59.518
  0
LINE
  8
0
 10
148.705
 11
148.24
 20
59.518
 21
59.355
  0
LINE
  8
0
 10
148.24
 11
147.75
 20
59.355
 21
59.3
  0
LINE
  8
0
 10
147.75
 11
147.26
 20
59.3
 21
59.355
  0
LINE
  8
0
 10
147.26
 11
146.795
 20
59.355
 21
59.518
  0
LINE
  8
0
 10
146.795
 11
146.378
 20
59.518
 21
59.78
  0
LINE
  8
0
 10
146.378
 11
146.03
 20
59.78
 21
60.128
  0
LINE
  8
0
 10
146.03
 11
145.768
 20
60.128
 21
60.545
  0
LINE
  8
0
 10
145.768
 11
145.605
 20
60.545
 21
61.01
  0
LINE
  8
0
 10
145.605
 11
145.55
 20
61.01
 21
61.5
  0
LINE
  8
0
 10
146.57
 11
146.625
 20
8.2
 21
8.69
  0
LINE
  8
0
 10
146.625
 11
146.788
 20
8.69
 21
9.155
  0
LINE
  8
0
 10
146.788
 11
147.05
 20
9.155
 21
9.572
  0
LINE
  8
0
 10
147.05
 11
147.398
 20
9.572
 21
9.92
  0
LINE
  8
0
 10
147.398
 11
147.815
 20
9.92
 21
10.182
  0
LINE
  8
0
 10
147.815
 11
148.28
 20
10.182
 21
10.345
  0
LINE
  8
0
 10
148.28
 11
148.77
 20
10.345
 21
10.4
  0
LINE
  8
0
 10
148.77
 11
149.26
 20
10.4
 21
10.345
  0
LINE
  8
0
 10
149.26
 11
149.725
 20
10.345
 21
10.182
  0
LINE
  8
0
 10
149.725
 11
150.142
 20
10.182
 21
9.92
  0
LINE
  8
0
 10
150.142
 11
150.49
 20
9.92
 21
9.572
  0
LINE
  8
0
 10
150.49
 11
150.752
 20
9.572
 21
9.155
  0
LINE
  8
0
 10
150.752
 11
150.915
 20
9.155
 21
8.69
  0
LINE
  8
0
 10
150.915
 11
150.97
 20
8.69
 21
8.2
  0
LINE
  8
0
 10
150.97
 11
150.915
 20
8.2
 21
7.71
  0
LINE
  8
0
 10
150.915
 11
150.752
 20
7.71
 21
7.245
  0
LINE
  8
0
 10
150.752
 11
150.49
 20
7.245
 21
6.828
  0
LINE
  8
0
 10
150.49
 11
150.142
 20
6.828
 21
6.48
  0
LINE
  8
0
 10
150.142
 11
149.725
 20
6.48
 21
6.218
  0
LINE
  8
0
 10
149.725
 11
149.26
 20
6.218
 21
6.055
  0
LINE
  8
0
 10
149.26
 11
148.77
 20
6.055
 21
6
  0
LINE
  8
0
 10
148.77
 11
148.28
 20
6
 21
6.055
  0
LINE
  8
0
 10
148.28
 11
147.815
 20
6.055
 21
6.218
  0
LINE
  8
0
 10
147.815
 11
147.398
 20
6.218
 21
6.48
  0
LINE
  8
0
 10
147.398
 11
147.05
 20
6.48
 21
6.828
  0
LINE
  8
0
 10
147.05
 11
146.788
 20
6.828
 21
7.245
  0
LINE
  8
0
 10
146.788
 11
146.625
 20
7.245
 21
7.71
  0
LINE
  8
0
 10
146.625
 11
146.57
 20
7.71
 21
8.2
  0
LINE
  8
0
 10
159.25
 11
159.298
 20
7.5
 21
7.988
  0
LINE
  8
0
 10
159.298
 11
159.44
 20
7.988
 21
8.457
  0
LINE
  8
0
 10
159.44
 11
159.671
 20
8.457
 21
8.889
  0
LINE
  8
0
 10
159.671
 11
159.982
 20
8.889
 21
9.268
  0
LINE
  8
0
 10
159.982
 11
160.361
 20
9.268
 21
9.579
  0
LINE
  8
0
 10
160.361
 11
160.793
 20
9.579
 21
9.81
  0
LINE
  8
0
 10
160.793
 11
161.262
 20
9.81
 21
9.952
  0
LINE
  8
0
 10
161.262
 11
161.75
 20
9.952
 21
10
  0
LINE
  8
0
 10
161.75
 11
162.238
 20
10
 21
9.952
  0
LINE
  8
0
 10
162.238
 11
162.707
 20
9.952
 21
9.81
  0
LINE
  8
0
 10
162.707
 11
163.139
 20
9.81
 21
9.579
  0
LINE
  8
0
 10
163.139
 11
163.518
 20
9.579
 21
9.268
  0
LINE
  8
0
 10
163.518
 11
163.829
 20
9.268
 21
8.889
  0
LINE
  8
0
 10
163.829
 11
164.06
 20
8.889
 21
8.457
  0
LINE
  8
0
 10
164.06
 11
164.202
 20
8.457
 21
7.988
  0
LINE
  8
0
 10
164.202
 11
164.25
 20
7.988
 21
7.5
  0
LINE
  8
0
 10
164.25
 11
164.202
 20
7.5
 21
7.012
  0
LINE
  8
0
 10
164.202
 11
164.06
 20
7.012
 21
6.543
  0
LINE
  8
0
 10
164.06
 11
163.829
 20
6.543
 21
6.111
  0
LINE
  8
0
 10
163.829
 11
163.518
 20
6.111
 21
5.732
  0
LINE
  8
0
 10
163.518
 11
163.139
 20
5.732
 21
5.421
  0
LINE
  8
0
 10
163.139
 11
162.707
 20
5.421
 21
5.19
  0
LINE
  8
0
 10
162.707
 11
162.238
 20
5.19
 21
5.048
  0
LINE
  8
0
 10
162.238
 11
161.75
 20
5.048
 21
5
  0
LINE
  8
0
 10
161.75
 11
161.262
 20
5
 21
5.048
  0
LINE
  8
0
 10
161.262
 11
160.793
 20
5.048
 21
5.19
  0
LINE
  8
0
 10
160.793
 11
160.361
 20
5.19
 21
5.421
  0
LINE
  8
0
 10
160.361
 11
159.982
 20
5.421
 21
5.732
  0
LINE
  8
0
 10
159.982
 11
159.671
 20
5.732
 21
6.111
  0
LINE
  8
0
 10
159.671
 11
159.44
 20
6.111
 21
6.543
  0
LINE
  8
0
 10
159.44
 11
159.298
 20
6.543
 21
7.012
  0
LINE
  8
0
 10
159.298
 11
159.25
 20
7.012
 21
7.5
  0
LINE
  8
0
 10
160.55
 11
160.605
 20
322.5
 21
322.99
  0
LINE
  8
0
 10
160.605
 11
160.768
 20
322.99
 21
323.455
  0
LINE
  8
0
 10
160.768
 11
161.03
 20
323.455
 21
323.872
  0
LINE
  8
0
 10
161.03
 11
161.378
 20
323.872
 21
324.22
  0
LINE
  8
0
 10
161.378
 11
161.795
 20
324.22
 21
324.482
  0
LINE
  8
0
 10
161.795
 11
162.26
 20
324.482
 21
324.645
  0
LINE
  8
0
 10
162.26
 11
162.75
 20
324.645
 21
324.7
  0
LINE
  8
0
 10
162.75
 11
163.24
 20
324.7
 21
324.645
  0
LINE
  8
0
 10
163.24
 11
163.705
 20
324.645
 21
324.482
  0
LINE
  8
0
 10
163.705
 11
164.122
 20
324.482
 21
324.22
  0
LINE
  8
0
 10
164.122
 11
164.47
 20
324.22
 21
323.872
  0
LINE
  8
0
 10
164.47
 11
164.732
 20
323.872
 21
323.455
  0
LINE
  8
0
 10
164.732
 11
164.895
 20
323.455
 21
322.99
  0
LINE
  8
0
 10
164.895
 11
164.95
 20
322.99
 21
322.5
  0
LINE
  8
0
 10
164.95
 11
164.895
 20
322.5
 21
322.01
  0
LINE
  8
0
 10
164.895
 11
164.732
 20
322.01
 21
321.545
  0
LINE
  8
0
 10
164.732
 11
164.47
 20
321.545
 21
321.128
  0
LINE
  8
0
 10
164.47
 11
164.122
 20
321.128
 21
320.78
  0
LINE
  8
0
 10
164.122
 11
163.705
 20
320.78
 21
320.518
  0
LINE
  8
0
 10
163.705
 11
163.24
 20
320.518
 21
320.355
  0
LINE
  8
0
 10
163.24
 11
162.75
 20
320.355
 21
320.3
  0
LINE
  8
0
 10
162.75
 11
162.26
 20
320.3
 21
320.355
  0
LINE
  8
0
 10
162.26
 11
161.795
 20
320.355
 21
320.518
  0
LINE
  8
0
 10
161.795
 11
161.378
 20
320.518
 21
320.78
  0
LINE
  8
0
 10
161.378
 11
161.03
 20
320.78
 21
321.128
  0
LINE
  8
0
 10
161.03
 11
160.768
 20
321.128
 21
321.545
  0
LINE
  8
0
 10
160.768
 11
160.605
 20
321.545
 21
322.01
  0
LINE
  8
0
 10
160.605
 11
160.55
 20
322.01
 21
322.5
  0
LINE
  8
0
 10
174.05
 11
174.105
 20
265.88
 21
266.37
  0
LINE
  8
0
 10
174.105
 11
174.268
 20
266.37
 21
266.835
  0
LINE
  8
0
 10
174.268
 11
174.53
 20
266.835
 21
267.252
  0
LINE
  8
0
 10
174.53
 11
174.878
 20
267.252
 21
267.6
  0
LINE
  8
0
 10
174.878
 11
175.295
 20
267.6
 21
267.862
  0
LINE
  8
0
 10
175.295
 11
175.76
 20
267.862
 21
268.025
  0
LINE
  8
0
 10
175.76
 11
176.25
 20
268.025
 21
268.08
  0
LINE
  8
0
 10
176.25
 11
176.74
 20
268.08
 21
268.025
  0
LINE
  8
0
 10
176.74
 11
177.205
 20
268.025
 21
267.862
  0
LINE
  8
0
 10
177.205
 11
177.622
 20
267.862
 21
267.6
  0
LINE
  8
0
 10
177.622
 11
177.97
 20
267.6
 21
267.252
  0
LINE
  8
0
 10
177.97
 11
178.232
 20
267.252
 21
266.835
  0
LINE
  8
0
 10
178.232
 11
178.395
 20
266.835
 21
266.37
  0
LINE
  8
0
 10
178.395
 11
178.45
 20
266.37
 21
265.88
  0
LINE
  8
0
 10
178.45
 11
178.395
 20
265.88
 21
265.39
  0
LINE
  8
0
 10
178.395
 11
178.232
 20
265.39
 21
264.925
  0
LINE
  8
0
 10
178.232
 11
177.97
 20
264.925
 21
264.508
  0
LINE
  8
0
 10
177.97
 11
177.622
 20
264.508
 21
264.16
  0
LINE
  8
0
 10
177.622
 11
177.205
 20
264.16
 21
263.898
  0
LINE
  8
0
 10
177.205
 11
176.74
 20
263.898
 21
263.735
  0
LINE
  8
0
 10
176.74
 11
176.25
 20
263.735
 21
263.68
  0
LINE
  8
0
 10
176.25
 11
175.76
 20
263.68
 21
263.735
  0
LINE
  8
0
 10
175.76
 11
175.295
 20
263.735
 21
263.898
  0
LINE
  8
0
 10
175.295
 11
174.878
 20
263.898
 21
264.16
  0
LINE
  8
0
 10
174.878
 11
174.53
 20
264.16
 21
264.508
  0
LINE
  8
0
 10
174.53
 11
174.268
 20
264.508
 21
264.925
  0
LINE
  8
0
 10
174.268
 11
174.105
 20
264.925
 21
265.39
  0
LINE
  8
0
 10
174.105
 11
174.05
 20
265.39
 21
265.88
  0
LINE
  8
0
 10
174.85
 11
174.905
 20
36.26
 21
36.75
  0
LINE
  8
0
 10
174.905
 11
175.068
 20
36.75
 21
37.215
  0
LINE
  8
0
 10
175.068
 11
175.33
 20
37.215
 21
37.632
  0
LINE
  8
0
 10
175.33
 11
175.678
 20
37.632
 21
37.98
  0
LINE
  8
0
 10
175.678
 11
176.095
 20
37.98
 21
38.242
  0
LINE
  8
0
 10
176.095
 11
176.56
 20
38.242
 21
38.405
  0
LINE
  8
0
 10
176.56
 11
177.05
 20
38.405
 21
38.46
  0
LINE
  8
0
 10
177.05
 11
177.54
 20
38.46
 21
38.405
  0
LINE
  8
0
 10
177.54
 11
178.005
 20
38.405
 21
38.242
  0
LINE
  8
0
 10
178.005
 11
178.422
 20
38.242
 21
37.98
  0
LINE
  8
0
 10
178.422
 11
178.77
 20
37.98
 21
37.632
  0
LINE
  8
0
 10
178.77
 11
179.032
 20
37.632
 21
37.215
  0
LINE
  8
0
 10
179.032
 11
179.195
 20
37.215
 21
36.75
  0
LINE
  8
0
 10
179.195
 11
179.25
 20
36.75
 21
36.26
  0
LINE
  8
0
 10
179.25
 11
179.195
 20
36.26
 21
35.77
  0
LINE
  8
0
 10
179.195
 11
179.032
 20
35.77
 21
35.305
  0
LINE
  8
0
 10
179.032
 11
178.77
 20
35.305
 21
34.888
  0
LINE
  8
0
 10
178.77
 11
178.422
 20
34.888
 21
34.54
  0
LINE
  8
0
 10
178.422
 11
178.005
 20
34.54
 21
34.278
  0
LINE
  8
0
 10
178.005
 11
177.54
 20
34.278
 21
34.115
  0
LINE
  8
0
 10
177.54
 11
177.05
 20
34.115
 21
34.06
  0
LINE
  8
0
 10
177.05
 11
176.56
 20
34.06
 21
34.115
  0
LINE
  8
0
 10
176.56
 11
176.095
 20
34.115
 21
34.278
  0
LINE
  8
0
 10
176.095
 11
175.678
 20
34.278
 21
34.54
  0
LINE
  8
0
 10
175.678
 11
175.33
 20
34.54
 21
34.888
  0
LINE
  8
0
 10
175.33
 11
175.068
 20
34.888
 21
35.305
  0
LINE
  8
0
 10
175.068
 11
174.905
 20
35.305
 21
35.77
  0
LINE
  8
0
 10
174.905
 11
174.85
 20
35.77
 21
36.26
  0
LINE
  8
0
 10
174.85
 11
174.905
 20
294.74
 21
295.23
  0
LINE
  8
0
 10
174.905
 11
175.068
 20
295.23
 21
295.695
  0
LINE
  8
0
 10
175.068
 11
175.33
 20
295.695
 21
296.112
  0
LINE
  8
0
 10
175.33
 11
175.678
 20
296.112
 21
296.46
  0
LINE
  8
0
 10
175.678
 11
176.095
 20
296.46
 21
296.722
  0
LINE
  8
0
 10
176.095
 11
176.56
 20
296.722
 21
296.885
  0
LINE
  8
0
 10
176.56
 11
177.05
 20
296.885
 21
296.94
  0
LINE
  8
0
 10
177.05
 11
177.54
 20
296.94
 21
296.885
  0
LINE
  8
0
 10
177.54
 11
178.005
 20
296.885
 21
296.722
  0
LINE
  8
0
 10
178.005
 11
178.422
 20
296.722
 21
296.46
  0
LINE
  8
0
 10
178.422
 11
178.77
 20
296.46
 21
296.112
  0
LINE
  8
0
 10
178.77
 11
179.032
 20
296.112
 21
295.695
  0
LINE
  8
0
 10
179.032
 11
179.195
 20
295.695
 21
295.23
  0
LINE
  8
0
 10
179.195
 11
179.25
 20
295.23
 21
294.74
  0
LINE
  8
0
 10
179.25
 11
179.195
 20
294.74
 21
294.25
  0
LINE
  8
0
 10
179.195
 11
179.032
 20
294.25
 21
293.785
  0
LINE
  8
0
 10
179.032
 11
178.77
 20
293.785
 21
293.368
  0
LINE
  8
0
 10
178.77
 11
178.422
 20
293.368
 21
293.02
  0
LINE
  8
0
 10
178.422
 11
178.005
 20
293.02
 21
292.758
  0
LINE
  8
0
 10
178.005
 11
177.54
 20
292.758
 21
292.595
  0
LINE
  8
0
 10
177.54
 11
177.05
 20
292.595
 21
292.54
  0
LINE
  8
0
 10
177.05
 11
176.56
 20
292.54
 21
292.595
  0
LINE
  8
0
 10
176.56
 11
176.095
 20
292.595
 21
292.758
  0
LINE
  8
0
 10
176.095
 11
175.678
 20
292.758
 21
293.02
  0
LINE
  8
0
 10
175.678
 11
175.33
 20
293.02
 21
293.368
  0
LINE
  8
0
 10
175.33
 11
175.068
 20
293.368
 21
293.785
  0
LINE
  8
0
 10
175.068
 11
174.905
 20
293.785
 21
294.25
  0
LINE
  8
0
 10
174.905
 11
174.85
 20
294.25
 21
294.74
  0
LINE
  8
0
 10
177.55
 11
177.605
 20
61.5
 21
61.99
  0
LINE
  8
0
 10
177.605
 11
177.768
 20
61.99
 21
62.455
  0
LINE
  8
0
 10
177.768
 11
178.03
 20
62.455
 21
62.872
  0
LINE
  8
0
 10
178.03
 11
178.378
 20
62.872
 21
63.22
  0
LINE
  8
0
 10
178.378
 11
178.795
 20
63.22
 21
63.482
  0
LINE
  8
0
 10
178.795
 11
179.26
 20
63.482
 21
63.645
  0
LINE
  8
0
 10
179.26
 11
179.75
 20
63.645
 21
63.7
  0
LINE
  8
0
 10
179.75
 11
180.24
 20
63.7
 21
63.645
  0
LINE
  8
0
 10
180.24
 11
180.705
 20
63.645
 21
63.482
  0
LINE
  8
0
 10
180.705
 11
181.122
 20
63.482
 21
63.22
  0
LINE
  8
0
 10
181.122
 11
181.47
 20
63.22
 21
62.872
  0
LINE
  8
0
 10
181.47
 11
181.732
 20
62.872
 21
62.455
  0
LINE
  8
0
 10
181.732
 11
181.895
 20
62.455
 21
61.99
  0
LINE
  8
0
 10
181.895
 11
181.95
 20
61.99
 21
61.5
  0
LINE
  8
0
 10
181.95
 11
181.895
 20
61.5
 21
61.01
  0
LINE
  8
0
 10
181.895
 11
181.732
 20
61.01
 21
60.545
  0
LINE
  8
0
 10
181.732
 11
181.47
 20
60.545
 21
60.128
  0
LINE
  8
0
 10
181.47
 11
181.122
 20
60.128
 21
59.78
  0
LINE
  8
0
 10
181.122
 11
180.705
 20
59.78
 21
59.518
  0
LINE
  8
0
 10
180.705
 11
180.24
 20
59.518
 21
59.355
  0
LINE
  8
0
 10
180.24
 11
179.75
 20
59.355
 21
59.3
  0
LINE
  8
0
 10
179.75
 11
179.26
 20
59.3
 21
59.355
  0
LINE
  8
0
 10
179.26
 11
178.795
 20
59.355
 21
59.518
  0
LINE
  8
0
 10
178.795
 11
178.378
 20
59.518
 21
59.78
  0
LINE
  8
0
 10
178.378
 11
178.03
 20
59.78
 21
60.128
  0
LINE
  8
0
 10
178.03
 11
177.768
 20
60.128
 21
60.545
  0
LINE
  8
0
 10
177.768
 11
177.605
 20
60.545
 21
61.01
  0
LINE
  8
0
 10
177.605
 11
177.55
 20
61.01
 21
61.5
  0
LINE
  8
0
 10
187.65
 11
187.705
 20
318
 21
318.49
  0
LINE
  8
0
 10
187.705
 11
187.868
 20
318.49
 21
318.955
  0
LINE
  8
0
 10
187.868
 11
188.13
 20
318.955
 21
319.372
  0
LINE
  8
0
 10
188.13
 11
188.478
 20
319.372
 21
319.72
  0
LINE
  8
0
 10
188.478
 11
188.895
 20
319.72
 21
319.982
  0
LINE
  8
0
 10
188.895
 11
189.36
 20
319.982
 21
320.145
  0
LINE
  8
0
 10
189.36
 11
189.85
 20
320.145
 21
320.2
  0
LINE
  8
0
 10
189.85
 11
190.34
 20
320.2
 21
320.145
  0
LINE
  8
0
 10
190.34
 11
190.805
 20
320.145
 21
319.982
  0
LINE
  8
0
 10
190.805
 11
191.222
 20
319.982
 21
319.72
  0
LINE
  8
0
 10
191.222
 11
191.57
 20
319.72
 21
319.372
  0
LINE
  8
0
 10
191.57
 11
191.832
 20
319.372
 21
318.955
  0
LINE
  8
0
 10
191.832
 11
191.995
 20
318.955
 21
318.49
  0
LINE
  8
0
 10
191.995
 11
192.05
 20
318.49
 21
318
  0
LINE
  8
0
 10
192.05
 11
191.995
 20
318
 21
317.51
  0
LINE
  8
0
 10
191.995
 11
191.832
 20
317.51
 21
317.045
  0
LINE
  8
0
 10
191.832
 11
191.57
 20
317.045
 21
316.628
  0
LINE
  8
0
 10
191.57
 11
191.222
 20
316.628
 21
316.28
  0
LINE
  8
0
 10
191.222
 11
190.805
 20
316.28
 21
316.018
  0
LINE
  8
0
 10
190.805
 11
190.34
 20
316.018
 21
315.855
  0
LINE
  8
0
 10
190.34
 11
189.85
 20
315.855
 21
315.8
  0
LINE
  8
0
 10
189.85
 11
189.36
 20
315.8
 21
315.855
  0
LINE
  8
0
 10
189.36
 11
188.895
 20
315.855
 21
316.018
  0
LINE
  8
0
 10
188.895
 11
188.478
 20
316.018
 21
316.28
  0
LINE
  8
0
 10
188.478
 11
188.13
 20
316.28
 21
316.628
  0
LINE
  8
0
 10
188.13
 11
187.868
 20
316.628
 21
317.045
  0
LINE
  8
0
 10
187.868
 11
187.705
 20
317.045
 21
317.51
  0
LINE
  8
0
 10
187.705
 11
187.65
 20
317.51
 21
318
  0
LINE
  8
0
 10
208.53
 11
208.585
 20
8.2
 21
8.69
  0
LINE
  8
0
 10
208.585
 11
208.748
 20
8.69
 21
9.155
  0
LINE
  8
0
 10
208.748
 11
209.01
 20
9.155
 21
9.572
  0
LINE
  8
0
 10
209.01
 11
209.358
 20
9.572
 21
9.92
  0
LINE
  8
0
 10
209.358
 11
209.775
 20
9.92
 21
10.182
  0
LINE
  8
0
 10
209.775
 11
210.24
 20
10.182
 21
10.345
  0
LINE
  8
0
 10
210.24
 11
210.73
 20
10.345
 21
10.4
  0
LINE
  8
0
 10
210.73
 11
211.22
 20
10.4
 21
10.345
  0
LINE
  8
0
 10
211.22
 11
211.685
 20
10.345
 21
10.182
  0
LINE
  8
0
 10
211.685
 11
212.102
 20
10.182
 21
9.92
  0
LINE
  8
0
 10
212.102
 11
212.45
 20
9.92
 21
9.572
  0
LINE
  8
0
 10
212.45
 11
212.712
 20
9.572
 21
9.155
  0
LINE
  8
0
 10
212.712
 11
212.875
 20
9.155
 21
8.69
  0
LINE
  8
0
 10
212.875
 11
212.93
 20
8.69
 21
8.2
  0
LINE
  8
0
 10
212.93
 11
212.875
 20
8.2
 21
7.71
  0
LINE
  8
0
 10
212.875
 11
212.712
 20
7.71
 21
7.245
  0
LINE
  8
0
 10
212.712
 11
212.45
 20
7.245
 21
6.828
  0
LINE
  8
0
 10
212.45
 11
212.102
 20
6.828
 21
6.48
  0
LINE
  8
0
 10
212.102
 11
211.685
 20
6.48
 21
6.218
  0
LINE
  8
0
 10
211.685
 11
211.22
 20
6.218
 21
6.055
  0
LINE
  8
0
 10
211.22
 11
210.73
 20
6.055
 21
6
  0
LINE
  8
0
 10
210.73
 11
210.24
 20
6
 21
6.055
  0
LINE
  8
0
 10
210.24
 11
209.775
 20
6.055
 21
6.218
  0
LINE
  8
0
 10
209.775
 11
209.358
 20
6.218
 21
6.48
  0
LINE
  8
0
 10
209.358
 11
209.01
 20
6.48
 21
6.828
  0
LINE
  8
0
 10
209.01
 11
208.748
 20
6.828
 21
7.245
  0
LINE
  8
0
 10
208.748
 11
208.585
 20
7.245
 21
7.71
  0
LINE
  8
0
 10
208.585
 11
208.53
 20
7.71
 21
8.2
  0
LINE
  8
0
 10
222.45
 11
222.505
 20
318
 21
318.49
  0
LINE
  8
0
 10
222.505
 11
222.668
 20
318.49
 21
318.955
  0
LINE
  8
0
 10
222.668
 11
222.93
 20
318.955
 21
319.372
  0
LINE
  8
0
 10
222.93
 11
223.278
 20
319.372
 21
319.72
  0
LINE
  8
0
 10
223.278
 11
223.695
 20
319.72
 21
319.982
  0
LINE
  8
0
 10
223.695
 11
224.16
 20
319.982
 21
320.145
  0
LINE
  8
0
 10
224.16
 11
224.65
 20
320.145
 21
320.2
  0
LINE
  8
0
 10
224.65
 11
225.14
 20
320.2
 21
320.145
  0
LINE
  8
0
 10
225.14
 11
225.605
 20
320.145
 21
319.982
  0
LINE
  8
0
 10
225.605
 11
226.022
 20
319.982
 21
319.72
  0
LINE
  8
0
 10
226.022
 11
226.37
 20
319.72
 21
319.372
  0
LINE
  8
0
 10
226.37
 11
226.632
 20
319.372
 21
318.955
  0
LINE
  8
0
 10
226.632
 11
226.795
 20
318.955
 21
318.49
  0
LINE
  8
0
 10
226.795
 11
226.85
 20
318.49
 21
318
  0
LINE
  8
0
 10
226.85
 11
226.795
 20
318
 21
317.51
  0
LINE
  8
0
 10
226.795
 11
226.632
 20
317.51
 21
317.045
  0
LINE
  8
0
 10
226.632
 11
226.37
 20
317.045
 21
316.628
  0
LINE
  8
0
 10
226.37
 11
226.022
 20
316.628
 21
316.28
  0
LINE
  8
0
 10
226.022
 11
225.605
 20
316.28
 21
316.018
  0
LINE
  8
0
 10
225.605
 11
225.14
 20
316.018
 21
315.855
  0
LINE
  8
0
 10
225.14
 11
224.65
 20
315.855
 21
315.8
  0
LINE
  8
0
 10
224.65
 11
224.16
 20
315.8
 21
315.855
  0
LINE
  8
0
 10
224.16
 11
223.695
 20
315.855
 21
316.018
  0
LINE
  8
0
 10
223.695
 11
223.278
 20
316.018
 21
316.28
  0
LINE
  8
0
 10
223.278
 11
222.93
 20
316.28
 21
316.628
  0
LINE
  8
0
 10
222.93
 11
222.668
 20
316.628
 21
317.045
  0
LINE
  8
0
 10
222.668
 11
222.505
 20
317.045
 21
317.51
  0
LINE
  8
0
 10
222.505
 11
222.45
 20
317.51
 21
318
  0
LINE
  8
0
 10
228.85
 11
228.905
 20
8.2
 21
8.69
  0
LINE
  8
0
 10
228.905
 11
229.068
 20
8.69
 21
9.155
  0
LINE
  8
0
 10
229.068
 11
229.33
 20
9.155
 21
9.572
  0
LINE
  8
0
 10
229.33
 11
229.678
 20
9.572
 21
9.92
  0
LINE
  8
0
 10
229.678
 11
230.095
 20
9.92
 21
10.182
  0
LINE
  8
0
 10
230.095
 11
230.56
 20
10.182
 21
10.345
  0
LINE
  8
0
 10
230.56
 11
231.05
 20
10.345
 21
10.4
  0
LINE
  8
0
 10
231.05
 11
231.54
 20
10.4
 21
10.345
  0
LINE
  8
0
 10
231.54
 11
232.005
 20
10.345
 21
10.182
  0
LINE
  8
0
 10
232.005
 11
232.422
 20
10.182
 21
9.92
  0
LINE
  8
0
 10
232.422
 11
232.77
 20
9.92
 21
9.572
  0
LINE
  8
0
 10
232.77
 11
233.032
 20
9.572
 21
9.155
  0
LINE
  8
0
 10
233.032
 11
233.195
 20
9.155
 21
8.69
  0
LINE
  8
0
 10
233.195
 11
233.25
 20
8.69
 21
8.2
  0
LINE
  8
0
 10
233.25
 11
233.195
 20
8.2
 21
7.71
  0
LINE
  8
0
 10
233.195
 11
233.032
 20
7.71
 21
7.245
  0
LINE
  8
0
 10
233.032
 11
232.77
 20
7.245
 21
6.828
  0
LINE
  8
0
 10
232.77
 11
232.422
 20
6.828
 21
6.48
  0
LINE
  8
0
 10
232.422
 11
232.005
 20
6.48
 21
6.218
  0
LINE
  8
0
 10
232.005
 11
231.54
 20
6.218
 21
6.055
  0
LINE
  8
0
 10
231.54
 11
231.05
 20
6.055
 21
6
  0
LINE
  8
0
 10
231.05
 11
230.56
 20
6
 21
6.055
  0
LINE
  8
0
 10
230.56
 11
230.095
 20
6.055
 21
6.218
  0
LINE
  8
0
 10
230.095
 11
229.678
 20
6.218
 21
6.48
  0
LINE
  8
0
 10
229.678
 11
229.33
 20
6.48
 21
6.828
  0
LINE
  8
0
 10
229.33
 11
229.068
 20
6.828
 21
7.245
  0
LINE
  8
0
 10
229.068
 11
228.905
 20
7.245
 21
7.71
  0
LINE
  8
0
 10
228.905
 11
228.85
 20
7.71
 21
8.2
  0
ENDSEC
  0
SECTION
  2
OBJECTS
  0
DICTIONARY
  0
ENDSEC
  0
EOF
