  0
SECTION
  2
BLOCKS
  0
ENDSEC
  0
SECTION
  2
ENTITIES
  0
LINE
  8
0
 10
-222.522
 11
-222.522
 20
59.954
 21
60.446
  0
LINE
  8
0
 10
-222.522
 11
-222.377
 20
60.446
 21
60.916
  0
LINE
  8
0
 10
-222.377
 11
-222.1
 20
60.916
 21
61.322
  0
LINE
  8
0
 10
-222.1
 11
-221.715
 20
61.322
 21
61.629
  0
LINE
  8
0
 10
-221.715
 11
-221.257
 20
61.629
 21
61.809
  0
LINE
  8
0
 10
-221.257
 11
-220.767
 20
61.809
 21
61.845
  0
LINE
  8
0
 10
-220.767
 11
-220.287
 20
61.845
 21
61.736
  0
LINE
  8
0
 10
-220.287
 11
-219.861
 20
61.736
 21
61.49
  0
LINE
  8
0
 10
-219.861
 11
-219.527
 20
61.49
 21
61.129
  0
LINE
  8
0
 10
-219.527
 11
-219.313
 20
61.129
 21
60.686
  0
LINE
  8
0
 10
-219.313
 11
-219.24
 20
60.686
 21
60.2
  0
LINE
  8
0
 10
-219.24
 11
-219.313
 20
60.2
 21
59.714
  0
LINE
  8
0
 10
-219.313
 11
-219.527
 20
59.714
 21
59.271
  0
LINE
  8
0
 10
-219.527
 11
-219.861
 20
59.271
 21
58.91
  0
LINE
  8
0
 10
-219.861
 11
-220.287
 20
58.91
 21
58.664
  0
LINE
  8
0
 10
-220.287
 11
-220.767
 20
58.664
 21
58.555
  0
LINE
  8
0
 10
-220.767
 11
-221.257
 20
58.555
 21
58.591
  0
LINE
  8
0
 10
-221.257
 11
-221.715
 20
58.591
 21
58.771
  0
LINE
  8
0
 10
-221.715
 11
-222.1
 20
58.771
 21
59.078
  0
LINE
  8
0
 10
-222.1
 11
-222.377
 20
59.078
 21
59.484
  0
LINE
  8
0
 10
-222.377
 11
-222.522
 20
59.484
 21
59.954
  0
LINE
  8
0
 10
-212.242
 11
-212.242
 20
-0.246
 21
0.246
  0
LINE
  8
0
 10
-212.242
 11
-212.182
 20
0.246
 21
0.735
  0
LINE
  8
0
 10
-212.182
 11
-212.062
 20
0.735
 21
1.213
  0
LINE
  8
0
 10
-212.062
 11
-211.884
 20
1.213
 21
1.672
  0
LINE
  8
0
 10
-211.884
 11
-211.651
 20
1.672
 21
2.106
  0
LINE
  8
0
 10
-211.651
 11
-211.366
 20
2.106
 21
2.508
  0
LINE
  8
0
 10
-211.366
 11
-211.035
 20
2.508
 21
2.872
  0
LINE
  8
0
 10
-211.035
 11
-210.661
 20
2.872
 21
3.192
  0
LINE
  8
0
 10
-210.661
 11
-210.25
 20
3.192
 21
3.464
  0
LINE
  8
0
 10
-210.25
 11
-209.809
 20
3.464
 21
3.684
  0
LINE
  8
0
 10
-209.809
 11
-209.345
 20
3.684
 21
3.847
  0
LINE
  8
0
 10
-209.345
 11
-208.864
 20
3.847
 21
3.953
  0
LINE
  8
0
 10
-208.864
 11
-208.373
 20
3.953
 21
3.998
  0
LINE
  8
0
 10
-208.373
 11
-207.881
 20
3.998
 21
3.983
  0
LINE
  8
0
 10
-207.881
 11
-207.394
 20
3.983
 21
3.907
  0
LINE
  8
0
 10
-207.394
 11
-206.921
 20
3.907
 21
3.773
  0
LINE
  8
0
 10
-206.921
 11
-206.467
 20
3.773
 21
3.581
  0
LINE
  8
0
 10
-206.467
 11
-206.041
 20
3.581
 21
3.334
  0
LINE
  8
0
 10
-206.041
 11
-205.648
 20
3.334
 21
3.038
  0
LINE
  8
0
 10
-205.648
 11
-205.294
 20
3.038
 21
2.695
  0
LINE
  8
0
 10
-205.294
 11
-204.985
 20
2.695
 21
2.311
  0
LINE
  8
0
 10
-204.985
 11
-204.726
 20
2.311
 21
1.892
  0
LINE
  8
0
 10
-204.726
 11
-204.52
 20
1.892
 21
1.445
  0
LINE
  8
0
 10
-204.52
 11
-204.371
 20
1.445
 21
0.976
  0
LINE
  8
0
 10
-204.371
 11
-204.28
 20
0.976
 21
0.492
  0
LINE
  8
0
 10
-204.28
 11
-204.25
 20
0.492
 21
0
  0
LINE
  8
0
 10
-204.25
 11
-204.28
 20
0
 21
-0.492
  0
LINE
  8
0
 10
-204.28
 11
-204.371
 20
-0.492
 21
-0.976
  0
LINE
  8
0
 10
-204.371
 11
-204.52
 20
-0.976
 21
-1.445
  0
LINE
  8
0
 10
-204.52
 11
-204.726
 20
-1.445
 21
-1.892
  0
LINE
  8
0
 10
-204.726
 11
-204.985
 20
-1.892
 21
-2.311
  0
LINE
  8
0
 10
-204.985
 11
-205.294
 20
-2.311
 21
-2.695
  0
LINE
  8
0
 10
-205.294
 11
-205.648
 20
-2.695
 21
-3.038
  0
LINE
  8
0
 10
-205.648
 11
-206.041
 20
-3.038
 21
-3.334
  0
LINE
  8
0
 10
-206.041
 11
-206.467
 20
-3.334
 21
-3.581
  0
LINE
  8
0
 10
-206.467
 11
-206.921
 20
-3.581
 21
-3.773
  0
LINE
  8
0
 10
-206.921
 11
-207.394
 20
-3.773
 21
-3.907
  0
LINE
  8
0
 10
-207.394
 11
-207.881
 20
-3.907
 21
-3.983
  0
LINE
  8
0
 10
-207.881
 11
-208.373
 20
-3.983
 21
-3.998
  0
LINE
  8
0
 10
-208.373
 11
-208.864
 20
-3.998
 21
-3.953
  0
LINE
  8
0
 10
-208.864
 11
-209.345
 20
-3.953
 21
-3.847
  0
LINE
  8
0
 10
-209.345
 11
-209.809
 20
-3.847
 21
-3.684
  0
LINE
  8
0
 10
-209.809
 11
-210.25
 20
-3.684
 21
-3.464
  0
LINE
  8
0
 10
-210.25
 11
-210.661
 20
-3.464
 21
-3.192
  0
LINE
  8
0
 10
-210.661
 11
-211.035
 20
-3.192
 21
-2.872
  0
LINE
  8
0
 10
-211.035
 11
-211.366
 20
-2.872
 21
-2.508
  0
LINE
  8
0
 10
-211.366
 11
-211.651
 20
-2.508
 21
-2.106
  0
LINE
  8
0
 10
-211.651
 11
-211.884
 20
-2.106
 21
-1.672
  0
LINE
  8
0
 10
-211.884
 11
-212.062
 20
-1.672
 21
-1.213
  0
LINE
  8
0
 10
-212.062
 11
-212.182
 20
-1.213
 21
-0.735
  0
LINE
  8
0
 10
-212.182
 11
-212.242
 20
-0.735
 21
-0.246
  0
LINE
  8
0
 10
-167.195
 11
-167.159
 20
205.017
 21
205.507
  0
LINE
  8
0
 10
-167.159
 11
-166.979
 20
205.507
 21
205.965
  0
LINE
  8
0
 10
-166.979
 11
-166.672
 20
205.965
 21
206.35
  0
LINE
  8
0
 10
-166.672
 11
-166.266
 20
206.35
 21
206.627
  0
LINE
  8
0
 10
-166.266
 11
-165.796
 20
206.627
 21
206.772
  0
LINE
  8
0
 10
-165.796
 11
-165.304
 20
206.772
 21
206.772
  0
LINE
  8
0
 10
-165.304
 11
-164.834
 20
206.772
 21
206.627
  0
LINE
  8
0
 10
-164.834
 11
-164.428
 20
206.627
 21
206.35
  0
LINE
  8
0
 10
-164.428
 11
-164.121
 20
206.35
 21
205.965
  0
LINE
  8
0
 10
-164.121
 11
-163.941
 20
205.965
 21
205.507
  0
LINE
  8
0
 10
-163.941
 11
-163.905
 20
205.507
 21
205.017
  0
LINE
  8
0
 10
-163.905
 11
-164.014
 20
205.017
 21
204.537
  0
LINE
  8
0
 10
-164.014
 11
-164.26
 20
204.537
 21
204.111
  0
LINE
  8
0
 10
-164.26
 11
-164.621
 20
204.111
 21
203.777
  0
LINE
  8
0
 10
-164.621
 11
-165.064
 20
203.777
 21
203.563
  0
LINE
  8
0
 10
-165.064
 11
-165.55
 20
203.563
 21
203.49
  0
LINE
  8
0
 10
-165.55
 11
-166.036
 20
203.49
 21
203.563
  0
LINE
  8
0
 10
-166.036
 11
-166.479
 20
203.563
 21
203.777
  0
LINE
  8
0
 10
-166.479
 11
-166.84
 20
203.777
 21
204.111
  0
LINE
  8
0
 10
-166.84
 11
-167.086
 20
204.111
 21
204.537
  0
LINE
  8
0
 10
-167.086
 11
-167.195
 20
204.537
 21
205.017
  0
LINE
  8
0
 10
-152.242
 11
-152.242
 20
59.954
 21
60.446
  0
LINE
  8
0
 10
-152.242
 11
-152.097
 20
60.446
 21
60.916
  0
LINE
  8
0
 10
-152.097
 11
-151.82
 20
60.916
 21
61.322
  0
LINE
  8
0
 10
-151.82
 11
-151.435
 20
61.322
 21
61.629
  0
LINE
  8
0
 10
-151.435
 11
-150.977
 20
61.629
 21
61.809
  0
LINE
  8
0
 10
-150.977
 11
-150.487
 20
61.809
 21
61.845
  0
LINE
  8
0
 10
-150.487
 11
-150.007
 20
61.845
 21
61.736
  0
LINE
  8
0
 10
-150.007
 11
-149.581
 20
61.736
 21
61.49
  0
LINE
  8
0
 10
-149.581
 11
-149.247
 20
61.49
 21
61.129
  0
LINE
  8
0
 10
-149.247
 11
-149.033
 20
61.129
 21
60.686
  0
LINE
  8
0
 10
-149.033
 11
-148.96
 20
60.686
 21
60.2
  0
LINE
  8
0
 10
-148.96
 11
-149.033
 20
60.2
 21
59.714
  0
LINE
  8
0
 10
-149.033
 11
-149.247
 20
59.714
 21
59.271
  0
LINE
  8
0
 10
-149.247
 11
-149.581
 20
59.271
 21
58.91
  0
LINE
  8
0
 10
-149.581
 11
-150.007
 20
58.91
 21
58.664
  0
LINE
  8
0
 10
-150.007
 11
-150.487
 20
58.664
 21
58.555
  0
LINE
  8
0
 10
-150.487
 11
-150.977
 20
58.555
 21
58.591
  0
LINE
  8
0
 10
-150.977
 11
-151.435
 20
58.591
 21
58.771
  0
LINE
  8
0
 10
-151.435
 11
-151.82
 20
58.771
 21
59.078
  0
LINE
  8
0
 10
-151.82
 11
-152.097
 20
59.078
 21
59.484
  0
LINE
  8
0
 10
-152.097
 11
-152.242
 20
59.484
 21
59.954
  0
LINE
  8
0
 10
-109.895
 11
-109.786
 20
-216.377
 21
-215.897
  0
LINE
  8
0
 10
-109.786
 11
-109.54
 20
-215.897
 21
-215.471
  0
LINE
  8
0
 10
-109.54
 11
-109.179
 20
-215.471
 21
-215.137
  0
LINE
  8
0
 10
-109.179
 11
-108.736
 20
-215.137
 21
-214.923
  0
LINE
  8
0
 10
-108.736
 11
-108.25
 20
-214.923
 21
-214.85
  0
LINE
  8
0
 10
-108.25
 11
-107.764
 20
-214.85
 21
-214.923
  0
LINE
  8
0
 10
-107.764
 11
-107.321
 20
-214.923
 21
-215.137
  0
LINE
  8
0
 10
-107.321
 11
-106.96
 20
-215.137
 21
-215.471
  0
LINE
  8
0
 10
-106.96
 11
-106.714
 20
-215.471
 21
-215.897
  0
LINE
  8
0
 10
-106.714
 11
-106.605
 20
-215.897
 21
-216.377
  0
LINE
  8
0
 10
-106.605
 11
-106.641
 20
-216.377
 21
-216.867
  0
LINE
  8
0
 10
-106.641
 11
-106.821
 20
-216.867
 21
-217.325
  0
LINE
  8
0
 10
-106.821
 11
-107.128
 20
-217.325
 21
-217.71
  0
LINE
  8
0
 10
-107.128
 11
-107.534
 20
-217.71
 21
-217.987
  0
LINE
  8
0
 10
-107.534
 11
-108.004
 20
-217.987
 21
-218.132
  0
LINE
  8
0
 10
-108.004
 11
-108.496
 20
-218.132
 21
-218.132
  0
LINE
  8
0
 10
-108.496
 11
-108.966
 20
-218.132
 21
-217.987
  0
LINE
  8
0
 10
-108.966
 11
-109.372
 20
-217.987
 21
-217.71
  0
LINE
  8
0
 10
-109.372
 11
-109.679
 20
-217.71
 21
-217.325
  0
LINE
  8
0
 10
-109.679
 11
-109.859
 20
-217.325
 21
-216.867
  0
LINE
  8
0
 10
-109.859
 11
-109.895
 20
-216.867
 21
-216.377
  0
LINE
  8
0
 10
-109.895
 11
-109.786
 20
216.623
 21
217.103
  0
LINE
  8
0
 10
-109.786
 11
-109.54
 20
217.103
 21
217.529
  0
LINE
  8
0
 10
-109.54
 11
-109.179
 20
217.529
 21
217.863
  0
LINE
  8
0
 10
-109.179
 11
-108.736
 20
217.863
 21
218.077
  0
LINE
  8
0
 10
-108.736
 11
-108.25
 20
218.077
 21
218.15
  0
LINE
  8
0
 10
-108.25
 11
-107.764
 20
218.15
 21
218.077
  0
LINE
  8
0
 10
-107.764
 11
-107.321
 20
218.077
 21
217.863
  0
LINE
  8
0
 10
-107.321
 11
-106.96
 20
217.863
 21
217.529
  0
LINE
  8
0
 10
-106.96
 11
-106.714
 20
217.529
 21
217.103
  0
LINE
  8
0
 10
-106.714
 11
-106.605
 20
217.103
 21
216.623
  0
LINE
  8
0
 10
-106.605
 11
-106.641
 20
216.623
 21
216.133
  0
LINE
  8
0
 10
-106.641
 11
-106.821
 20
216.133
 21
215.675
  0
LINE
  8
0
 10
-106.821
 11
-107.128
 20
215.675
 21
215.29
  0
LINE
  8
0
 10
-107.128
 11
-107.534
 20
215.29
 21
215.013
  0
LINE
  8
0
 10
-107.534
 11
-108.004
 20
215.013
 21
214.868
  0
LINE
  8
0
 10
-108.004
 11
-108.496
 20
214.868
 21
214.868
  0
LINE
  8
0
 10
-108.496
 11
-108.966
 20
214.868
 21
215.013
  0
LINE
  8
0
 10
-108.966
 11
-109.372
 20
215.013
 21
215.29
  0
LINE
  8
0
 10
-109.372
 11
-109.679
 20
215.29
 21
215.675
  0
LINE
  8
0
 10
-109.679
 11
-109.859
 20
215.675
 21
216.133
  0
LINE
  8
0
 10
-109.859
 11
-109.895
 20
216.133
 21
216.623
  0
LINE
  8
0
 10
-76.895
 11
-76.786
 20
-216.377
 21
-215.897
  0
LINE
  8
0
 10
-76.786
 11
-76.54
 20
-215.897
 21
-215.471
  0
LINE
  8
0
 10
-76.54
 11
-76.179
 20
-215.471
 21
-215.137
  0
LINE
  8
0
 10
-76.179
 11
-75.736
 20
-215.137
 21
-214.923
  0
LINE
  8
0
 10
-75.736
 11
-75.25
 20
-214.923
 21
-214.85
  0
LINE
  8
0
 10
-75.25
 11
-74.764
 20
-214.85
 21
-214.923
  0
LINE
  8
0
 10
-74.764
 11
-74.321
 20
-214.923
 21
-215.137
  0
LINE
  8
0
 10
-74.321
 11
-73.96
 20
-215.137
 21
-215.471
  0
LINE
  8
0
 10
-73.96
 11
-73.714
 20
-215.471
 21
-215.897
  0
LINE
  8
0
 10
-73.714
 11
-73.605
 20
-215.897
 21
-216.377
  0
LINE
  8
0
 10
-73.605
 11
-73.641
 20
-216.377
 21
-216.867
  0
LINE
  8
0
 10
-73.641
 11
-73.821
 20
-216.867
 21
-217.325
  0
LINE
  8
0
 10
-73.821
 11
-74.128
 20
-217.325
 21
-217.71
  0
LINE
  8
0
 10
-74.128
 11
-74.534
 20
-217.71
 21
-217.987
  0
LINE
  8
0
 10
-74.534
 11
-75.004
 20
-217.987
 21
-218.132
  0
LINE
  8
0
 10
-75.004
 11
-75.496
 20
-218.132
 21
-218.132
  0
LINE
  8
0
 10
-75.496
 11
-75.966
 20
-218.132
 21
-217.987
  0
LINE
  8
0
 10
-75.966
 11
-76.372
 20
-217.987
 21
-217.71
  0
LINE
  8
0
 10
-76.372
 11
-76.679
 20
-217.71
 21
-217.325
  0
LINE
  8
0
 10
-76.679
 11
-76.859
 20
-217.325
 21
-216.867
  0
LINE
  8
0
 10
-76.859
 11
-76.895
 20
-216.867
 21
-216.377
  0
LINE
  8
0
 10
-76.895
 11
-76.786
 20
216.623
 21
217.103
  0
LINE
  8
0
 10
-76.786
 11
-76.54
 20
217.103
 21
217.529
  0
LINE
  8
0
 10
-76.54
 11
-76.179
 20
217.529
 21
217.863
  0
LINE
  8
0
 10
-76.179
 11
-75.736
 20
217.863
 21
218.077
  0
LINE
  8
0
 10
-75.736
 11
-75.25
 20
218.077
 21
218.15
  0
LINE
  8
0
 10
-75.25
 11
-74.764
 20
218.15
 21
218.077
  0
LINE
  8
0
 10
-74.764
 11
-74.321
 20
218.077
 21
217.863
  0
LINE
  8
0
 10
-74.321
 11
-73.96
 20
217.863
 21
217.529
  0
LINE
  8
0
 10
-73.96
 11
-73.714
 20
217.529
 21
217.103
  0
LINE
  8
0
 10
-73.714
 11
-73.605
 20
217.103
 21
216.623
  0
LINE
  8
0
 10
-73.605
 11
-73.641
 20
216.623
 21
216.133
  0
LINE
  8
0
 10
-73.641
 11
-73.821
 20
216.133
 21
215.675
  0
LINE
  8
0
 10
-73.821
 11
-74.128
 20
215.675
 21
215.29
  0
LINE
  8
0
 10
-74.128
 11
-74.534
 20
215.29
 21
215.013
  0
LINE
  8
0
 10
-74.534
 11
-75.004
 20
215.013
 21
214.868
  0
LINE
  8
0
 10
-75.004
 11
-75.496
 20
214.868
 21
214.868
  0
LINE
  8
0
 10
-75.496
 11
-75.966
 20
214.868
 21
215.013
  0
LINE
  8
0
 10
-75.966
 11
-76.372
 20
215.013
 21
215.29
  0
LINE
  8
0
 10
-76.372
 11
-76.679
 20
215.29
 21
215.675
  0
LINE
  8
0
 10
-76.679
 11
-76.859
 20
215.675
 21
216.133
  0
LINE
  8
0
 10
-76.859
 11
-76.895
 20
216.133
 21
216.623
  0
LINE
  8
0
 10
-36.852
 11
-36.852
 20
207.254
 21
207.746
  0
LINE
  8
0
 10
-36.852
 11
-36.707
 20
207.746
 21
208.216
  0
LINE
  8
0
 10
-36.707
 11
-36.43
 20
208.216
 21
208.622
  0
LINE
  8
0
 10
-36.43
 11
-36.045
 20
208.622
 21
208.929
  0
LINE
  8
0
 10
-36.045
 11
-35.587
 20
208.929
 21
209.109
  0
LINE
  8
0
 10
-35.587
 11
-35.097
 20
209.109
 21
209.145
  0
LINE
  8
0
 10
-35.097
 11
-34.617
 20
209.145
 21
209.036
  0
LINE
  8
0
 10
-34.617
 11
-34.191
 20
209.036
 21
208.79
  0
LINE
  8
0
 10
-34.191
 11
-33.857
 20
208.79
 21
208.429
  0
LINE
  8
0
 10
-33.857
 11
-33.643
 20
208.429
 21
207.986
  0
LINE
  8
0
 10
-33.643
 11
-33.57
 20
207.986
 21
207.5
  0
LINE
  8
0
 10
-33.57
 11
-33.643
 20
207.5
 21
207.014
  0
LINE
  8
0
 10
-33.643
 11
-33.857
 20
207.014
 21
206.571
  0
LINE
  8
0
 10
-33.857
 11
-34.191
 20
206.571
 21
206.21
  0
LINE
  8
0
 10
-34.191
 11
-34.617
 20
206.21
 21
205.964
  0
LINE
  8
0
 10
-34.617
 11
-35.097
 20
205.964
 21
205.855
  0
LINE
  8
0
 10
-35.097
 11
-35.587
 20
205.855
 21
205.891
  0
LINE
  8
0
 10
-35.587
 11
-36.045
 20
205.891
 21
206.071
  0
LINE
  8
0
 10
-36.045
 11
-36.43
 20
206.071
 21
206.378
  0
LINE
  8
0
 10
-36.43
 11
-36.707
 20
206.378
 21
206.784
  0
LINE
  8
0
 10
-36.707
 11
-36.852
 20
206.784
 21
207.254
  0
LINE
  8
0
 10
-26.552
 11
-26.552
 20
100.754
 21
101.246
  0
LINE
  8
0
 10
-26.552
 11
-26.407
 20
101.246
 21
101.716
  0
LINE
  8
0
 10
-26.407
 11
-26.13
 20
101.716
 21
102.122
  0
LINE
  8
0
 10
-26.13
 11
-25.745
 20
102.122
 21
102.429
  0
LINE
  8
0
 10
-25.745
 11
-25.287
 20
102.429
 21
102.609
  0
LINE
  8
0
 10
-25.287
 11
-24.797
 20
102.609
 21
102.645
  0
LINE
  8
0
 10
-24.797
 11
-24.317
 20
102.645
 21
102.536
  0
LINE
  8
0
 10
-24.317
 11
-23.891
 20
102.536
 21
102.29
  0
LINE
  8
0
 10
-23.891
 11
-23.557
 20
102.29
 21
101.929
  0
LINE
  8
0
 10
-23.557
 11
-23.343
 20
101.929
 21
101.486
  0
LINE
  8
0
 10
-23.343
 11
-23.27
 20
101.486
 21
101
  0
LINE
  8
0
 10
-23.27
 11
-23.343
 20
101
 21
100.514
  0
LINE
  8
0
 10
-23.343
 11
-23.557
 20
100.514
 21
100.071
  0
LINE
  8
0
 10
-23.557
 11
-23.891
 20
100.071
 21
99.71
  0
LINE
  8
0
 10
-23.891
 11
-24.317
 20
99.71
 21
99.464
  0
LINE
  8
0
 10
-24.317
 11
-24.797
 20
99.464
 21
99.355
  0
LINE
  8
0
 10
-24.797
 11
-25.287
 20
99.355
 21
99.391
  0
LINE
  8
0
 10
-25.287
 11
-25.745
 20
99.391
 21
99.571
  0
LINE
  8
0
 10
-25.745
 11
-26.13
 20
99.571
 21
99.878
  0
LINE
  8
0
 10
-26.13
 11
-26.407
 20
99.878
 21
100.284
  0
LINE
  8
0
 10
-26.407
 11
-26.552
 20
100.284
 21
100.754
  0
LINE
  8
0
 10
-18.365
 11
-18.329
 20
-217.623
 21
-217.133
  0
LINE
  8
0
 10
-18.329
 11
-18.149
 20
-217.133
 21
-216.675
  0
LINE
  8
0
 10
-18.149
 11
-17.842
 20
-216.675
 21
-216.29
  0
LINE
  8
0
 10
-17.842
 11
-17.436
 20
-216.29
 21
-216.013
  0
LINE
  8
0
 10
-17.436
 11
-16.966
 20
-216.013
 21
-215.868
  0
LINE
  8
0
 10
-16.966
 11
-16.474
 20
-215.868
 21
-215.868
  0
LINE
  8
0
 10
-16.474
 11
-16.004
 20
-215.868
 21
-216.013
  0
LINE
  8
0
 10
-16.004
 11
-15.598
 20
-216.013
 21
-216.29
  0
LINE
  8
0
 10
-15.598
 11
-15.291
 20
-216.29
 21
-216.675
  0
LINE
  8
0
 10
-15.291
 11
-15.111
 20
-216.675
 21
-217.133
  0
LINE
  8
0
 10
-15.111
 11
-15.075
 20
-217.133
 21
-217.623
  0
LINE
  8
0
 10
-15.075
 11
-15.184
 20
-217.623
 21
-218.103
  0
LINE
  8
0
 10
-15.184
 11
-15.43
 20
-218.103
 21
-218.529
  0
LINE
  8
0
 10
-15.43
 11
-15.791
 20
-218.529
 21
-218.863
  0
LINE
  8
0
 10
-15.791
 11
-16.234
 20
-218.863
 21
-219.077
  0
LINE
  8
0
 10
-16.234
 11
-16.72
 20
-219.077
 21
-219.15
  0
LINE
  8
0
 10
-16.72
 11
-17.206
 20
-219.15
 21
-219.077
  0
LINE
  8
0
 10
-17.206
 11
-17.649
 20
-219.077
 21
-218.863
  0
LINE
  8
0
 10
-17.649
 11
-18.01
 20
-218.863
 21
-218.529
  0
LINE
  8
0
 10
-18.01
 11
-18.256
 20
-218.529
 21
-218.103
  0
LINE
  8
0
 10
-18.256
 11
-18.365
 20
-218.103
 21
-217.623
  0
LINE
  8
0
 10
-18.365
 11
-18.329
 20
-154.623
 21
-154.133
  0
LINE
  8
0
 10
-18.329
 11
-18.149
 20
-154.133
 21
-153.675
  0
LINE
  8
0
 10
-18.149
 11
-17.842
 20
-153.675
 21
-153.29
  0
LINE
  8
0
 10
-17.842
 11
-17.436
 20
-153.29
 21
-153.013
  0
LINE
  8
0
 10
-17.436
 11
-16.966
 20
-153.013
 21
-152.868
  0
LINE
  8
0
 10
-16.966
 11
-16.474
 20
-152.868
 21
-152.868
  0
LINE
  8
0
 10
-16.474
 11
-16.004
 20
-152.868
 21
-153.013
  0
LINE
  8
0
 10
-16.004
 11
-15.598
 20
-153.013
 21
-153.29
  0
LINE
  8
0
 10
-15.598
 11
-15.291
 20
-153.29
 21
-153.675
  0
LINE
  8
0
 10
-15.291
 11
-15.111
 20
-153.675
 21
-154.133
  0
LINE
  8
0
 10
-15.111
 11
-15.075
 20
-154.133
 21
-154.623
  0
LINE
  8
0
 10
-15.075
 11
-15.184
 20
-154.623
 21
-155.103
  0
LINE
  8
0
 10
-15.184
 11
-15.43
 20
-155.103
 21
-155.529
  0
LINE
  8
0
 10
-15.43
 11
-15.791
 20
-155.529
 21
-155.863
  0
LINE
  8
0
 10
-15.791
 11
-16.234
 20
-155.863
 21
-156.077
  0
LINE
  8
0
 10
-16.234
 11
-16.72
 20
-156.077
 21
-156.15
  0
LINE
  8
0
 10
-16.72
 11
-17.206
 20
-156.15
 21
-156.077
  0
LINE
  8
0
 10
-17.206
 11
-17.649
 20
-156.077
 21
-155.863
  0
LINE
  8
0
 10
-17.649
 11
-18.01
 20
-155.863
 21
-155.529
  0
LINE
  8
0
 10
-18.01
 11
-18.256
 20
-155.529
 21
-155.103
  0
LINE
  8
0
 10
-18.256
 11
-18.365
 20
-155.103
 21
-154.623
  0
LINE
  8
0
 10
10.788
 11
10.788
 20
100.754
 21
101.246
  0
LINE
  8
0
 10
10.788
 11
10.933
 20
101.246
 21
101.716
  0
LINE
  8
0
 10
10.933
 11
11.21
 20
101.716
 21
102.122
  0
LINE
  8
0
 10
11.21
 11
11.595
 20
102.122
 21
102.429
  0
LINE
  8
0
 10
11.595
 11
12.053
 20
102.429
 21
102.609
  0
LINE
  8
0
 10
12.053
 11
12.543
 20
102.609
 21
102.645
  0
LINE
  8
0
 10
12.543
 11
13.023
 20
102.645
 21
102.536
  0
LINE
  8
0
 10
13.023
 11
13.449
 20
102.536
 21
102.29
  0
LINE
  8
0
 10
13.449
 11
13.783
 20
102.29
 21
101.929
  0
LINE
  8
0
 10
13.783
 11
13.997
 20
101.929
 21
101.486
  0
LINE
  8
0
 10
13.997
 11
14.07
 20
101.486
 21
101
  0
LINE
  8
0
 10
14.07
 11
13.997
 20
101
 21
100.514
  0
LINE
  8
0
 10
13.997
 11
13.783
 20
100.514
 21
100.071
  0
LINE
  8
0
 10
13.783
 11
13.449
 20
100.071
 21
99.71
  0
LINE
  8
0
 10
13.449
 11
13.023
 20
99.71
 21
99.464
  0
LINE
  8
0
 10
13.023
 11
12.543
 20
99.464
 21
99.355
  0
LINE
  8
0
 10
12.543
 11
12.053
 20
99.355
 21
99.391
  0
LINE
  8
0
 10
12.053
 11
11.595
 20
99.391
 21
99.571
  0
LINE
  8
0
 10
11.595
 11
11.21
 20
99.571
 21
99.878
  0
LINE
  8
0
 10
11.21
 11
10.933
 20
99.878
 21
100.284
  0
LINE
  8
0
 10
10.933
 11
10.788
 20
100.284
 21
100.754
  0
LINE
  8
0
 10
11.635
 11
11.671
 20
-217.623
 21
-217.133
  0
LINE
  8
0
 10
11.671
 11
11.851
 20
-217.133
 21
-216.675
  0
LINE
  8
0
 10
11.851
 11
12.158
 20
-216.675
 21
-216.29
  0
LINE
  8
0
 10
12.158
 11
12.564
 20
-216.29
 21
-216.013
  0
LINE
  8
0
 10
12.564
 11
13.034
 20
-216.013
 21
-215.868
  0
LINE
  8
0
 10
13.034
 11
13.526
 20
-215.868
 21
-215.868
  0
LINE
  8
0
 10
13.526
 11
13.996
 20
-215.868
 21
-216.013
  0
LINE
  8
0
 10
13.996
 11
14.402
 20
-216.013
 21
-216.29
  0
LINE
  8
0
 10
14.402
 11
14.709
 20
-216.29
 21
-216.675
  0
LINE
  8
0
 10
14.709
 11
14.889
 20
-216.675
 21
-217.133
  0
LINE
  8
0
 10
14.889
 11
14.925
 20
-217.133
 21
-217.623
  0
LINE
  8
0
 10
14.925
 11
14.816
 20
-217.623
 21
-218.103
  0
LINE
  8
0
 10
14.816
 11
14.57
 20
-218.103
 21
-218.529
  0
LINE
  8
0
 10
14.57
 11
14.209
 20
-218.529
 21
-218.863
  0
LINE
  8
0
 10
14.209
 11
13.766
 20
-218.863
 21
-219.077
  0
LINE
  8
0
 10
13.766
 11
13.28
 20
-219.077
 21
-219.15
  0
LINE
  8
0
 10
13.28
 11
12.794
 20
-219.15
 21
-219.077
  0
LINE
  8
0
 10
12.794
 11
12.351
 20
-219.077
 21
-218.863
  0
LINE
  8
0
 10
12.351
 11
11.99
 20
-218.863
 21
-218.529
  0
LINE
  8
0
 10
11.99
 11
11.744
 20
-218.529
 21
-218.103
  0
LINE
  8
0
 10
11.744
 11
11.635
 20
-218.103
 21
-217.623
  0
LINE
  8
0
 10
11.635
 11
11.671
 20
-154.623
 21
-154.133
  0
LINE
  8
0
 10
11.671
 11
11.851
 20
-154.133
 21
-153.675
  0
LINE
  8
0
 10
11.851
 11
12.158
 20
-153.675
 21
-153.29
  0
LINE
  8
0
 10
12.158
 11
12.564
 20
-153.29
 21
-153.013
  0
LINE
  8
0
 10
12.564
 11
13.034
 20
-153.013
 21
-152.868
  0
LINE
  8
0
 10
13.034
 11
13.526
 20
-152.868
 21
-152.868
  0
LINE
  8
0
 10
13.526
 11
13.996
 20
-152.868
 21
-153.013
  0
LINE
  8
0
 10
13.996
 11
14.402
 20
-153.013
 21
-153.29
  0
LINE
  8
0
 10
14.402
 11
14.709
 20
-153.29
 21
-153.675
  0
LINE
  8
0
 10
14.709
 11
14.889
 20
-153.675
 21
-154.133
  0
LINE
  8
0
 10
14.889
 11
14.925
 20
-154.133
 21
-154.623
  0
LINE
  8
0
 10
14.925
 11
14.816
 20
-154.623
 21
-155.103
  0
LINE
  8
0
 10
14.816
 11
14.57
 20
-155.103
 21
-155.529
  0
LINE
  8
0
 10
14.57
 11
14.209
 20
-155.529
 21
-155.863
  0
LINE
  8
0
 10
14.209
 11
13.766
 20
-155.863
 21
-156.077
  0
LINE
  8
0
 10
13.766
 11
13.28
 20
-156.077
 21
-156.15
  0
LINE
  8
0
 10
13.28
 11
12.794
 20
-156.15
 21
-156.077
  0
LINE
  8
0
 10
12.794
 11
12.351
 20
-156.077
 21
-155.863
  0
LINE
  8
0
 10
12.351
 11
11.99
 20
-155.863
 21
-155.529
  0
LINE
  8
0
 10
11.99
 11
11.744
 20
-155.529
 21
-155.103
  0
LINE
  8
0
 10
11.744
 11
11.635
 20
-155.103
 21
-154.623
  0
LINE
  8
0
 10
18.355
 11
18.391
 20
173.357
 21
173.847
  0
LINE
  8
0
 10
18.391
 11
18.571
 20
173.847
 21
174.305
  0
LINE
  8
0
 10
18.571
 11
18.878
 20
174.305
 21
174.69
  0
LINE
  8
0
 10
18.878
 11
19.284
 20
174.69
 21
174.967
  0
LINE
  8
0
 10
19.284
 11
19.754
 20
174.967
 21
175.112
  0
LINE
  8
0
 10
19.754
 11
20.246
 20
175.112
 21
175.112
  0
LINE
  8
0
 10
20.246
 11
20.716
 20
175.112
 21
174.967
  0
LINE
  8
0
 10
20.716
 11
21.122
 20
174.967
 21
174.69
  0
LINE
  8
0
 10
21.122
 11
21.429
 20
174.69
 21
174.305
  0
LINE
  8
0
 10
21.429
 11
21.609
 20
174.305
 21
173.847
  0
LINE
  8
0
 10
21.609
 11
21.645
 20
173.847
 21
173.357
  0
LINE
  8
0
 10
21.645
 11
21.536
 20
173.357
 21
172.877
  0
LINE
  8
0
 10
21.536
 11
21.29
 20
172.877
 21
172.451
  0
LINE
  8
0
 10
21.29
 11
20.929
 20
172.451
 21
172.117
  0
LINE
  8
0
 10
20.929
 11
20.486
 20
172.117
 21
171.903
  0
LINE
  8
0
 10
20.486
 11
20
 20
171.903
 21
171.83
  0
LINE
  8
0
 10
20
 11
19.514
 20
171.83
 21
171.903
  0
LINE
  8
0
 10
19.514
 11
19.071
 20
171.903
 21
172.117
  0
LINE
  8
0
 10
19.071
 11
18.71
 20
172.117
 21
172.451
  0
LINE
  8
0
 10
18.71
 11
18.464
 20
172.451
 21
172.877
  0
LINE
  8
0
 10
18.464
 11
18.355
 20
172.877
 21
173.357
  0
LINE
  8
0
 10
-240.75
 11
-240.75
 20
-225
 21
225
  0
LINE
  8
0
 10
-240.75
 11
240.75
 20
225
 21
225
  0
LINE
  8
0
 10
240.75
 11
240.75
 20
225
 21
-225
  0
LINE
  8
0
 10
240.75
 11
-240.75
 20
-225
 21
-225
  0
LINE
  8
0
 10
61.105
 11
61.141
 20
-142.623
 21
-142.133
  0
LINE
  8
0
 10
61.141
 11
61.321
 20
-142.133
 21
-141.675
  0
LINE
  8
0
 10
61.321
 11
61.628
 20
-141.675
 21
-141.29
  0
LINE
  8
0
 10
61.628
 11
62.034
 20
-141.29
 21
-141.013
  0
LINE
  8
0
 10
62.034
 11
62.504
 20
-141.013
 21
-140.868
  0
LINE
  8
0
 10
62.504
 11
62.996
 20
-140.868
 21
-140.868
  0
LINE
  8
0
 10
62.996
 11
63.466
 20
-140.868
 21
-141.013
  0
LINE
  8
0
 10
63.466
 11
63.872
 20
-141.013
 21
-141.29
  0
LINE
  8
0
 10
63.872
 11
64.179
 20
-141.29
 21
-141.675
  0
LINE
  8
0
 10
64.179
 11
64.359
 20
-141.675
 21
-142.133
  0
LINE
  8
0
 10
64.359
 11
64.395
 20
-142.133
 21
-142.623
  0
LINE
  8
0
 10
64.395
 11
64.286
 20
-142.623
 21
-143.103
  0
LINE
  8
0
 10
64.286
 11
64.04
 20
-143.103
 21
-143.529
  0
LINE
  8
0
 10
64.04
 11
63.679
 20
-143.529
 21
-143.863
  0
LINE
  8
0
 10
63.679
 11
63.236
 20
-143.863
 21
-144.077
  0
LINE
  8
0
 10
63.236
 11
62.75
 20
-144.077
 21
-144.15
  0
LINE
  8
0
 10
62.75
 11
62.264
 20
-144.15
 21
-144.077
  0
LINE
  8
0
 10
62.264
 11
61.821
 20
-144.077
 21
-143.863
  0
LINE
  8
0
 10
61.821
 11
61.46
 20
-143.863
 21
-143.529
  0
LINE
  8
0
 10
61.46
 11
61.214
 20
-143.529
 21
-143.103
  0
LINE
  8
0
 10
61.214
 11
61.105
 20
-143.103
 21
-142.623
  0
LINE
  8
0
 10
61.105
 11
61.141
 20
132.377
 21
132.867
  0
LINE
  8
0
 10
61.141
 11
61.321
 20
132.867
 21
133.325
  0
LINE
  8
0
 10
61.321
 11
61.628
 20
133.325
 21
133.71
  0
LINE
  8
0
 10
61.628
 11
62.034
 20
133.71
 21
133.987
  0
LINE
  8
0
 10
62.034
 11
62.504
 20
133.987
 21
134.132
  0
LINE
  8
0
 10
62.504
 11
62.996
 20
134.132
 21
134.132
  0
LINE
  8
0
 10
62.996
 11
63.466
 20
134.132
 21
133.987
  0
LINE
  8
0
 10
63.466
 11
63.872
 20
133.987
 21
133.71
  0
LINE
  8
0
 10
63.872
 11
64.179
 20
133.71
 21
133.325
  0
LINE
  8
0
 10
64.179
 11
64.359
 20
133.325
 21
132.867
  0
LINE
  8
0
 10
64.359
 11
64.395
 20
132.867
 21
132.377
  0
LINE
  8
0
 10
64.395
 11
64.286
 20
132.377
 21
131.897
  0
LINE
  8
0
 10
64.286
 11
64.04
 20
131.897
 21
131.471
  0
LINE
  8
0
 10
64.04
 11
63.679
 20
131.471
 21
131.137
  0
LINE
  8
0
 10
63.679
 11
63.236
 20
131.137
 21
130.923
  0
LINE
  8
0
 10
63.236
 11
62.75
 20
130.923
 21
130.85
  0
LINE
  8
0
 10
62.75
 11
62.264
 20
130.85
 21
130.923
  0
LINE
  8
0
 10
62.264
 11
61.821
 20
130.923
 21
131.137
  0
LINE
  8
0
 10
61.821
 11
61.46
 20
131.137
 21
131.471
  0
LINE
  8
0
 10
61.46
 11
61.214
 20
131.471
 21
131.897
  0
LINE
  8
0
 10
61.214
 11
61.105
 20
131.897
 21
132.377
  0
LINE
  8
0
 10
94.105
 11
94.141
 20
-142.623
 21
-142.133
  0
LINE
  8
0
 10
94.141
 11
94.321
 20
-142.133
 21
-141.675
  0
LINE
  8
0
 10
94.321
 11
94.628
 20
-141.675
 21
-141.29
  0
LINE
  8
0
 10
94.628
 11
95.034
 20
-141.29
 21
-141.013
  0
LINE
  8
0
 10
95.034
 11
95.504
 20
-141.013
 21
-140.868
  0
LINE
  8
0
 10
95.504
 11
95.996
 20
-140.868
 21
-140.868
  0
LINE
  8
0
 10
95.996
 11
96.466
 20
-140.868
 21
-141.013
  0
LINE
  8
0
 10
96.466
 11
96.872
 20
-141.013
 21
-141.29
  0
LINE
  8
0
 10
96.872
 11
97.179
 20
-141.29
 21
-141.675
  0
LINE
  8
0
 10
97.179
 11
97.359
 20
-141.675
 21
-142.133
  0
LINE
  8
0
 10
97.359
 11
97.395
 20
-142.133
 21
-142.623
  0
LINE
  8
0
 10
97.395
 11
97.286
 20
-142.623
 21
-143.103
  0
LINE
  8
0
 10
97.286
 11
97.04
 20
-143.103
 21
-143.529
  0
LINE
  8
0
 10
97.04
 11
96.679
 20
-143.529
 21
-143.863
  0
LINE
  8
0
 10
96.679
 11
96.236
 20
-143.863
 21
-144.077
  0
LINE
  8
0
 10
96.236
 11
95.75
 20
-144.077
 21
-144.15
  0
LINE
  8
0
 10
95.75
 11
95.264
 20
-144.15
 21
-144.077
  0
LINE
  8
0
 10
95.264
 11
94.821
 20
-144.077
 21
-143.863
  0
LINE
  8
0
 10
94.821
 11
94.46
 20
-143.863
 21
-143.529
  0
LINE
  8
0
 10
94.46
 11
94.214
 20
-143.529
 21
-143.103
  0
LINE
  8
0
 10
94.214
 11
94.105
 20
-143.103
 21
-142.623
  0
LINE
  8
0
 10
94.105
 11
94.141
 20
132.377
 21
132.867
  0
LINE
  8
0
 10
94.141
 11
94.321
 20
132.867
 21
133.325
  0
LINE
  8
0
 10
94.321
 11
94.628
 20
133.325
 21
133.71
  0
LINE
  8
0
 10
94.628
 11
95.034
 20
133.71
 21
133.987
  0
LINE
  8
0
 10
95.034
 11
95.504
 20
133.987
 21
134.132
  0
LINE
  8
0
 10
95.504
 11
95.996
 20
134.132
 21
134.132
  0
LINE
  8
0
 10
95.996
 11
96.466
 20
134.132
 21
133.987
  0
LINE
  8
0
 10
96.466
 11
96.872
 20
133.987
 21
133.71
  0
LINE
  8
0
 10
96.872
 11
97.179
 20
133.71
 21
133.325
  0
LINE
  8
0
 10
97.179
 11
97.359
 20
133.325
 21
132.867
  0
LINE
  8
0
 10
97.359
 11
97.395
 20
132.867
 21
132.377
  0
LINE
  8
0
 10
97.395
 11
97.286
 20
132.377
 21
131.897
  0
LINE
  8
0
 10
97.286
 11
97.04
 20
131.897
 21
131.471
  0
LINE
  8
0
 10
97.04
 11
96.679
 20
131.471
 21
131.137
  0
LINE
  8
0
 10
96.679
 11
96.236
 20
131.137
 21
130.923
  0
LINE
  8
0
 10
96.236
 11
95.75
 20
130.923
 21
130.85
  0
LINE
  8
0
 10
95.75
 11
95.264
 20
130.85
 21
130.923
  0
LINE
  8
0
 10
95.264
 11
94.821
 20
130.923
 21
131.137
  0
LINE
  8
0
 10
94.821
 11
94.46
 20
131.137
 21
131.471
  0
LINE
  8
0
 10
94.46
 11
94.214
 20
131.471
 21
131.897
  0
LINE
  8
0
 10
94.214
 11
94.105
 20
131.897
 21
132.377
  0
LINE
  8
0
 10
108.118
 11
108.118
 20
-124.246
 21
-123.754
  0
LINE
  8
0
 10
108.118
 11
108.263
 20
-123.754
 21
-123.284
  0
LINE
  8
0
 10
108.263
 11
108.54
 20
-123.284
 21
-122.878
  0
LINE
  8
0
 10
108.54
 11
108.925
 20
-122.878
 21
-122.571
  0
LINE
  8
0
 10
108.925
 11
109.383
 20
-122.571
 21
-122.391
  0
LINE
  8
0
 10
109.383
 11
109.873
 20
-122.391
 21
-122.355
  0
LINE
  8
0
 10
109.873
 11
110.353
 20
-122.355
 21
-122.464
  0
LINE
  8
0
 10
110.353
 11
110.779
 20
-122.464
 21
-122.71
  0
LINE
  8
0
 10
110.779
 11
111.113
 20
-122.71
 21
-123.071
  0
LINE
  8
0
 10
111.113
 11
111.327
 20
-123.071
 21
-123.514
  0
LINE
  8
0
 10
111.327
 11
111.4
 20
-123.514
 21
-124
  0
LINE
  8
0
 10
111.4
 11
111.327
 20
-124
 21
-124.486
  0
LINE
  8
0
 10
111.327
 11
111.113
 20
-124.486
 21
-124.929
  0
LINE
  8
0
 10
111.113
 11
110.779
 20
-124.929
 21
-125.29
  0
LINE
  8
0
 10
110.779
 11
110.353
 20
-125.29
 21
-125.536
  0
LINE
  8
0
 10
110.353
 11
109.873
 20
-125.536
 21
-125.645
  0
LINE
  8
0
 10
109.873
 11
109.383
 20
-125.645
 21
-125.609
  0
LINE
  8
0
 10
109.383
 11
108.925
 20
-125.609
 21
-125.429
  0
LINE
  8
0
 10
108.925
 11
108.54
 20
-125.429
 21
-125.122
  0
LINE
  8
0
 10
108.54
 11
108.263
 20
-125.122
 21
-124.716
  0
LINE
  8
0
 10
108.263
 11
108.118
 20
-124.716
 21
-124.246
  0
LINE
  8
0
 10
108.118
 11
108.118
 20
59.754
 21
60.246
  0
LINE
  8
0
 10
108.118
 11
108.263
 20
60.246
 21
60.716
  0
LINE
  8
0
 10
108.263
 11
108.54
 20
60.716
 21
61.122
  0
LINE
  8
0
 10
108.54
 11
108.925
 20
61.122
 21
61.429
  0
LINE
  8
0
 10
108.925
 11
109.383
 20
61.429
 21
61.609
  0
LINE
  8
0
 10
109.383
 11
109.873
 20
61.609
 21
61.645
  0
LINE
  8
0
 10
109.873
 11
110.353
 20
61.645
 21
61.536
  0
LINE
  8
0
 10
110.353
 11
110.779
 20
61.536
 21
61.29
  0
LINE
  8
0
 10
110.779
 11
111.113
 20
61.29
 21
60.929
  0
LINE
  8
0
 10
111.113
 11
111.327
 20
60.929
 21
60.486
  0
LINE
  8
0
 10
111.327
 11
111.4
 20
60.486
 21
60
  0
LINE
  8
0
 10
111.4
 11
111.327
 20
60
 21
59.514
  0
LINE
  8
0
 10
111.327
 11
111.113
 20
59.514
 21
59.071
  0
LINE
  8
0
 10
111.113
 11
110.779
 20
59.071
 21
58.71
  0
LINE
  8
0
 10
110.779
 11
110.353
 20
58.71
 21
58.464
  0
LINE
  8
0
 10
110.353
 11
109.873
 20
58.464
 21
58.355
  0
LINE
  8
0
 10
109.873
 11
109.383
 20
58.355
 21
58.391
  0
LINE
  8
0
 10
109.383
 11
108.925
 20
58.391
 21
58.571
  0
LINE
  8
0
 10
108.925
 11
108.54
 20
58.571
 21
58.878
  0
LINE
  8
0
 10
108.54
 11
108.263
 20
58.878
 21
59.284
  0
LINE
  8
0
 10
108.263
 11
108.118
 20
59.284
 21
59.754
  0
LINE
  8
0
 10
136.978
 11
136.978
 20
59.954
 21
60.446
  0
LINE
  8
0
 10
136.978
 11
137.123
 20
60.446
 21
60.916
  0
LINE
  8
0
 10
137.123
 11
137.4
 20
60.916
 21
61.322
  0
LINE
  8
0
 10
137.4
 11
137.785
 20
61.322
 21
61.629
  0
LINE
  8
0
 10
137.785
 11
138.243
 20
61.629
 21
61.809
  0
LINE
  8
0
 10
138.243
 11
138.733
 20
61.809
 21
61.845
  0
LINE
  8
0
 10
138.733
 11
139.213
 20
61.845
 21
61.736
  0
LINE
  8
0
 10
139.213
 11
139.639
 20
61.736
 21
61.49
  0
LINE
  8
0
 10
139.639
 11
139.973
 20
61.49
 21
61.129
  0
LINE
  8
0
 10
139.973
 11
140.187
 20
61.129
 21
60.686
  0
LINE
  8
0
 10
140.187
 11
140.26
 20
60.686
 21
60.2
  0
LINE
  8
0
 10
140.26
 11
140.187
 20
60.2
 21
59.714
  0
LINE
  8
0
 10
140.187
 11
139.973
 20
59.714
 21
59.271
  0
LINE
  8
0
 10
139.973
 11
139.639
 20
59.271
 21
58.91
  0
LINE
  8
0
 10
139.639
 11
139.213
 20
58.91
 21
58.664
  0
LINE
  8
0
 10
139.213
 11
138.733
 20
58.664
 21
58.555
  0
LINE
  8
0
 10
138.733
 11
138.243
 20
58.555
 21
58.591
  0
LINE
  8
0
 10
138.243
 11
137.785
 20
58.591
 21
58.771
  0
LINE
  8
0
 10
137.785
 11
137.4
 20
58.771
 21
59.078
  0
LINE
  8
0
 10
137.4
 11
137.123
 20
59.078
 21
59.484
  0
LINE
  8
0
 10
137.123
 11
136.978
 20
59.484
 21
59.954
  0
LINE
  8
0
 10
159.758
 11
159.758
 20
-0.246
 21
0.246
  0
LINE
  8
0
 10
159.758
 11
159.818
 20
0.246
 21
0.735
  0
LINE
  8
0
 10
159.818
 11
159.938
 20
0.735
 21
1.213
  0
LINE
  8
0
 10
159.938
 11
160.116
 20
1.213
 21
1.672
  0
LINE
  8
0
 10
160.116
 11
160.349
 20
1.672
 21
2.106
  0
LINE
  8
0
 10
160.349
 11
160.634
 20
2.106
 21
2.508
  0
LINE
  8
0
 10
160.634
 11
160.965
 20
2.508
 21
2.872
  0
LINE
  8
0
 10
160.965
 11
161.339
 20
2.872
 21
3.192
  0
LINE
  8
0
 10
161.339
 11
161.75
 20
3.192
 21
3.464
  0
LINE
  8
0
 10
161.75
 11
162.191
 20
3.464
 21
3.684
  0
LINE
  8
0
 10
162.191
 11
162.655
 20
3.684
 21
3.847
  0
LINE
  8
0
 10
162.655
 11
163.136
 20
3.847
 21
3.953
  0
LINE
  8
0
 10
163.136
 11
163.627
 20
3.953
 21
3.998
  0
LINE
  8
0
 10
163.627
 11
164.119
 20
3.998
 21
3.983
  0
LINE
  8
0
 10
164.119
 11
164.606
 20
3.983
 21
3.907
  0
LINE
  8
0
 10
164.606
 11
165.079
 20
3.907
 21
3.773
  0
LINE
  8
0
 10
165.079
 11
165.533
 20
3.773
 21
3.581
  0
LINE
  8
0
 10
165.533
 11
165.959
 20
3.581
 21
3.334
  0
LINE
  8
0
 10
165.959
 11
166.352
 20
3.334
 21
3.038
  0
LINE
  8
0
 10
166.352
 11
166.706
 20
3.038
 21
2.695
  0
LINE
  8
0
 10
166.706
 11
167.015
 20
2.695
 21
2.311
  0
LINE
  8
0
 10
167.015
 11
167.274
 20
2.311
 21
1.892
  0
LINE
  8
0
 10
167.274
 11
167.48
 20
1.892
 21
1.445
  0
LINE
  8
0
 10
167.48
 11
167.629
 20
1.445
 21
0.976
  0
LINE
  8
0
 10
167.629
 11
167.72
 20
0.976
 21
0.492
  0
LINE
  8
0
 10
167.72
 11
167.75
 20
0.492
 21
0
  0
LINE
  8
0
 10
167.75
 11
167.72
 20
0
 21
-0.492
  0
LINE
  8
0
 10
167.72
 11
167.629
 20
-0.492
 21
-0.976
  0
LINE
  8
0
 10
167.629
 11
167.48
 20
-0.976
 21
-1.445
  0
LINE
  8
0
 10
167.48
 11
167.274
 20
-1.445
 21
-1.892
  0
LINE
  8
0
 10
167.274
 11
167.015
 20
-1.892
 21
-2.311
  0
LINE
  8
0
 10
167.015
 11
166.706
 20
-2.311
 21
-2.695
  0
LINE
  8
0
 10
166.706
 11
166.352
 20
-2.695
 21
-3.038
  0
LINE
  8
0
 10
166.352
 11
165.959
 20
-3.038
 21
-3.334
  0
LINE
  8
0
 10
165.959
 11
165.533
 20
-3.334
 21
-3.581
  0
LINE
  8
0
 10
165.533
 11
165.079
 20
-3.581
 21
-3.773
  0
LINE
  8
0
 10
165.079
 11
164.606
 20
-3.773
 21
-3.907
  0
LINE
  8
0
 10
164.606
 11
164.119
 20
-3.907
 21
-3.983
  0
LINE
  8
0
 10
164.119
 11
163.627
 20
-3.983
 21
-3.998
  0
LINE
  8
0
 10
163.627
 11
163.136
 20
-3.998
 21
-3.953
  0
LINE
  8
0
 10
163.136
 11
162.655
 20
-3.953
 21
-3.847
  0
LINE
  8
0
 10
162.655
 11
162.191
 20
-3.847
 21
-3.684
  0
LINE
  8
0
 10
162.191
 11
161.75
 20
-3.684
 21
-3.464
  0
LINE
  8
0
 10
161.75
 11
161.339
 20
-3.464
 21
-3.192
  0
LINE
  8
0
 10
161.339
 11
160.965
 20
-3.192
 21
-2.872
  0
LINE
  8
0
 10
160.965
 11
160.634
 20
-2.872
 21
-2.508
  0
LINE
  8
0
 10
160.634
 11
160.349
 20
-2.508
 21
-2.106
  0
LINE
  8
0
 10
160.349
 11
160.116
 20
-2.106
 21
-1.672
  0
LINE
  8
0
 10
160.116
 11
159.938
 20
-1.672
 21
-1.213
  0
LINE
  8
0
 10
159.938
 11
159.818
 20
-1.213
 21
-0.735
  0
LINE
  8
0
 10
159.818
 11
159.758
 20
-0.735
 21
-0.246
  0
LINE
  8
0
 10
175.405
 11
175.514
 20
205.263
 21
205.743
  0
LINE
  8
0
 10
175.514
 11
175.76
 20
205.743
 21
206.169
  0
LINE
  8
0
 10
175.76
 11
176.121
 20
206.169
 21
206.503
  0
LINE
  8
0
 10
176.121
 11
176.564
 20
206.503
 21
206.717
  0
LINE
  8
0
 10
176.564
 11
177.05
 20
206.717
 21
206.79
  0
LINE
  8
0
 10
177.05
 11
177.536
 20
206.79
 21
206.717
  0
LINE
  8
0
 10
177.536
 11
177.979
 20
206.717
 21
206.503
  0
LINE
  8
0
 10
177.979
 11
178.34
 20
206.503
 21
206.169
  0
LINE
  8
0
 10
178.34
 11
178.586
 20
206.169
 21
205.743
  0
LINE
  8
0
 10
178.586
 11
178.695
 20
205.743
 21
205.263
  0
LINE
  8
0
 10
178.695
 11
178.659
 20
205.263
 21
204.773
  0
LINE
  8
0
 10
178.659
 11
178.479
 20
204.773
 21
204.315
  0
LINE
  8
0
 10
178.479
 11
178.172
 20
204.315
 21
203.93
  0
LINE
  8
0
 10
178.172
 11
177.766
 20
203.93
 21
203.653
  0
LINE
  8
0
 10
177.766
 11
177.296
 20
203.653
 21
203.508
  0
LINE
  8
0
 10
177.296
 11
176.804
 20
203.508
 21
203.508
  0
LINE
  8
0
 10
176.804
 11
176.334
 20
203.508
 21
203.653
  0
LINE
  8
0
 10
176.334
 11
175.928
 20
203.653
 21
203.93
  0
LINE
  8
0
 10
175.928
 11
175.621
 20
203.93
 21
204.315
  0
LINE
  8
0
 10
175.621
 11
175.441
 20
204.315
 21
204.773
  0
LINE
  8
0
 10
175.441
 11
175.405
 20
204.773
 21
205.263
  0
LINE
  8
0
 10
219.258
 11
219.258
 20
59.954
 21
60.446
  0
LINE
  8
0
 10
219.258
 11
219.403
 20
60.446
 21
60.916
  0
LINE
  8
0
 10
219.403
 11
219.68
 20
60.916
 21
61.322
  0
LINE
  8
0
 10
219.68
 11
220.065
 20
61.322
 21
61.629
  0
LINE
  8
0
 10
220.065
 11
220.523
 20
61.629
 21
61.809
  0
LINE
  8
0
 10
220.523
 11
221.013
 20
61.809
 21
61.845
  0
LINE
  8
0
 10
221.013
 11
221.493
 20
61.845
 21
61.736
  0
LINE
  8
0
 10
221.493
 11
221.919
 20
61.736
 21
61.49
  0
LINE
  8
0
 10
221.919
 11
222.253
 20
61.49
 21
61.129
  0
LINE
  8
0
 10
222.253
 11
222.467
 20
61.129
 21
60.686
  0
LINE
  8
0
 10
222.467
 11
222.54
 20
60.686
 21
60.2
  0
LINE
  8
0
 10
222.54
 11
222.467
 20
60.2
 21
59.714
  0
LINE
  8
0
 10
222.467
 11
222.253
 20
59.714
 21
59.271
  0
LINE
  8
0
 10
222.253
 11
221.919
 20
59.271
 21
58.91
  0
LINE
  8
0
 10
221.919
 11
221.493
 20
58.91
 21
58.664
  0
LINE
  8
0
 10
221.493
 11
221.013
 20
58.664
 21
58.555
  0
LINE
  8
0
 10
221.013
 11
220.523
 20
58.555
 21
58.591
  0
LINE
  8
0
 10
220.523
 11
220.065
 20
58.591
 21
58.771
  0
LINE
  8
0
 10
220.065
 11
219.68
 20
58.771
 21
59.078
  0
LINE
  8
0
 10
219.68
 11
219.403
 20
59.078
 21
59.484
  0
LINE
  8
0
 10
219.403
 11
219.258
 20
59.484
 21
59.954
  0
ENDSEC
  0
SECTION
  2
OBJECTS
  0
DICTIONARY
  0
ENDSEC
  0
EOF
