<?xml version="1.0"?>
<svg xmlns="http://www.w3.org/2000/svg" version="1.1" height="460mm" width="492mm" >
 <g style="fill-opacity:1.0; stroke:black; stroke-width:1;">
  <circle cx="19.859456mm" cy="164.800195mm" r="1.649827mm" fill="none"/>
  <line x1="23.159111mm" y1="164.800195mm" x2="16.559802mm" y2="164.800195mm" />
  <line x1="19.859456mm" y1="161.500541mm" x2="19.859456mm" y2="168.099849mm" />
  <text x="21mm" y="163mm" font-size="24">
   3.3
  </text>
  <circle cx="32.499971mm" cy="224.999864mm" r="4.000103mm" fill="none"/>
  <line x1="40.500177mm" y1="224.999864mm" x2="24.499766mm" y2="224.999864mm" />
  <line x1="32.499971mm" y1="216.999659mm" x2="32.499971mm" y2="233.000070mm" />
  <text x="36mm" y="220mm" font-size="24">
   8.0
  </text>
  <circle cx="75.200037mm" cy="19.859798mm" r="1.650231mm" fill="none"/>
  <line x1="78.500499mm" y1="19.859798mm" x2="71.899575mm" y2="19.859798mm" />
  <line x1="75.200037mm" y1="16.559336mm" x2="75.200037mm" y2="23.160260mm" />
  <text x="76mm" y="18mm" font-size="24">
   3.3
  </text>
  <circle cx="90.139456mm" cy="164.800195mm" r="1.649827mm" fill="none"/>
  <line x1="93.439111mm" y1="164.800195mm" x2="86.839802mm" y2="164.800195mm" />
  <line x1="90.139456mm" y1="161.500541mm" x2="90.139456mm" y2="168.099849mm" />
  <text x="91mm" y="163mm" font-size="24">
   3.3
  </text>
  <circle cx="132.499893mm" cy="441.499999mm" r="1.650220mm" fill="none"/>
  <line x1="135.800333mm" y1="441.499999mm" x2="129.199453mm" y2="441.499999mm" />
  <line x1="132.499893mm" y1="438.199559mm" x2="132.499893mm" y2="444.800439mm" />
  <text x="134mm" y="439mm" font-size="24">
   3.3
  </text>
  <circle cx="132.499893mm" cy="8.499999mm" r="1.650220mm" fill="none"/>
  <line x1="135.800333mm" y1="8.499999mm" x2="129.199453mm" y2="8.499999mm" />
  <line x1="132.499893mm" y1="5.199559mm" x2="132.499893mm" y2="11.800439mm" />
  <text x="134mm" y="6mm" font-size="24">
   3.3
  </text>
  <circle cx="165.499893mm" cy="441.499999mm" r="1.650220mm" fill="none"/>
  <line x1="168.800333mm" y1="441.499999mm" x2="162.199453mm" y2="441.499999mm" />
  <line x1="165.499893mm" y1="438.199559mm" x2="165.499893mm" y2="444.800439mm" />
  <text x="167mm" y="439mm" font-size="24">
   3.3
  </text>
  <circle cx="165.499893mm" cy="8.499999mm" r="1.650220mm" fill="none"/>
  <line x1="168.800333mm" y1="8.499999mm" x2="162.199453mm" y2="8.499999mm" />
  <line x1="165.499893mm" y1="5.199559mm" x2="165.499893mm" y2="11.800439mm" />
  <text x="167mm" y="6mm" font-size="24">
   3.3
  </text>
  <circle cx="205.529456mm" cy="17.500195mm" r="1.649827mm" fill="none"/>
  <line x1="208.829111mm" y1="17.500195mm" x2="202.229802mm" y2="17.500195mm" />
  <line x1="205.529456mm" y1="14.200541mm" x2="205.529456mm" y2="20.799849mm" />
  <text x="207mm" y="15mm" font-size="24">
   3.3
  </text>
  <circle cx="215.829456mm" cy="124.000195mm" r="1.649827mm" fill="none"/>
  <line x1="219.129111mm" y1="124.000195mm" x2="212.529802mm" y2="124.000195mm" />
  <line x1="215.829456mm" y1="120.700541mm" x2="215.829456mm" y2="127.299849mm" />
  <text x="217mm" y="122mm" font-size="24">
   3.3
  </text>
  <circle cx="224.030037mm" cy="442.499798mm" r="1.650231mm" fill="none"/>
  <line x1="227.330499mm" y1="442.499798mm" x2="220.729575mm" y2="442.499798mm" />
  <line x1="224.030037mm" y1="439.199336mm" x2="224.030037mm" y2="445.800260mm" />
  <text x="225mm" y="440mm" font-size="24">
   3.3
  </text>
  <circle cx="224.030037mm" cy="379.499798mm" r="1.650231mm" fill="none"/>
  <line x1="227.330499mm" y1="379.499798mm" x2="220.729575mm" y2="379.499798mm" />
  <line x1="224.030037mm" y1="376.199336mm" x2="224.030037mm" y2="382.800260mm" />
  <text x="225mm" y="377mm" font-size="24">
   3.3
  </text>
  <circle cx="253.169456mm" cy="124.000195mm" r="1.649827mm" fill="none"/>
  <line x1="256.469111mm" y1="124.000195mm" x2="249.869802mm" y2="124.000195mm" />
  <line x1="253.169456mm" y1="120.700541mm" x2="253.169456mm" y2="127.299849mm" />
  <text x="254mm" y="122mm" font-size="24">
   3.3
  </text>
  <circle cx="254.030037mm" cy="442.499798mm" r="1.650231mm" fill="none"/>
  <line x1="257.330499mm" y1="442.499798mm" x2="250.729575mm" y2="442.499798mm" />
  <line x1="254.030037mm" y1="439.199336mm" x2="254.030037mm" y2="445.800260mm" />
  <text x="255mm" y="440mm" font-size="24">
   3.3
  </text>
  <circle cx="254.030037mm" cy="379.499798mm" r="1.650231mm" fill="none"/>
  <line x1="257.330499mm" y1="379.499798mm" x2="250.729575mm" y2="379.499798mm" />
  <line x1="254.030037mm" y1="376.199336mm" x2="254.030037mm" y2="382.800260mm" />
  <text x="255mm" y="377mm" font-size="24">
   3.3
  </text>
  <circle cx="260.750037mm" cy="51.519798mm" r="1.650231mm" fill="none"/>
  <line x1="264.050499mm" y1="51.519798mm" x2="257.449575mm" y2="51.519798mm" />
  <line x1="260.750037mm" y1="48.219336mm" x2="260.750037mm" y2="54.820260mm" />
  <text x="262mm" y="49mm" font-size="24">
   3.3
  </text>
  <line x1="481.500000mm" y1="450.000000mm" x2="481.500000mm" y2="450.000000mm" />
  <line x1="481.500000mm" y1="450.000000mm" x2="0.000000mm" y2="450.000000mm" />
  <line x1="0.000000mm" y1="450.000000mm" x2="0.000000mm" y2="0.000000mm" />
  <line x1="0.000000mm" y1="0.000000mm" x2="481.500000mm" y2="0.000000mm" />
  <line x1="481.500000mm" y1="0.000000mm" x2="481.500000mm" y2="450.000000mm" />
  <circle cx="303.500037mm" cy="367.499798mm" r="1.650231mm" fill="none"/>
  <line x1="306.800499mm" y1="367.499798mm" x2="300.199575mm" y2="367.499798mm" />
  <line x1="303.500037mm" y1="364.199336mm" x2="303.500037mm" y2="370.800260mm" />
  <text x="305mm" y="365mm" font-size="24">
   3.3
  </text>
  <circle cx="303.500037mm" cy="92.499798mm" r="1.650231mm" fill="none"/>
  <line x1="306.800499mm" y1="92.499798mm" x2="300.199575mm" y2="92.499798mm" />
  <line x1="303.500037mm" y1="89.199336mm" x2="303.500037mm" y2="95.800260mm" />
  <text x="305mm" y="90mm" font-size="24">
   3.3
  </text>
  <circle cx="336.500037mm" cy="367.499798mm" r="1.650231mm" fill="none"/>
  <line x1="339.800499mm" y1="367.499798mm" x2="333.199575mm" y2="367.499798mm" />
  <line x1="336.500037mm" y1="364.199336mm" x2="336.500037mm" y2="370.800260mm" />
  <text x="338mm" y="365mm" font-size="24">
   3.3
  </text>
  <circle cx="336.500037mm" cy="92.499798mm" r="1.650231mm" fill="none"/>
  <line x1="339.800499mm" y1="92.499798mm" x2="333.199575mm" y2="92.499798mm" />
  <line x1="336.500037mm" y1="89.199336mm" x2="336.500037mm" y2="95.800260mm" />
  <text x="338mm" y="90mm" font-size="24">
   3.3
  </text>
  <circle cx="350.499456mm" cy="349.000195mm" r="1.649827mm" fill="none"/>
  <line x1="353.799111mm" y1="349.000195mm" x2="347.199802mm" y2="349.000195mm" />
  <line x1="350.499456mm" y1="345.700541mm" x2="350.499456mm" y2="352.299849mm" />
  <text x="352mm" y="347mm" font-size="24">
   3.3
  </text>
  <circle cx="350.499456mm" cy="165.000195mm" r="1.649827mm" fill="none"/>
  <line x1="353.799111mm" y1="165.000195mm" x2="347.199802mm" y2="165.000195mm" />
  <line x1="350.499456mm" y1="161.700541mm" x2="350.499456mm" y2="168.299849mm" />
  <text x="352mm" y="163mm" font-size="24">
   3.3
  </text>
  <circle cx="379.359456mm" cy="164.800195mm" r="1.649827mm" fill="none"/>
  <line x1="382.659111mm" y1="164.800195mm" x2="376.059802mm" y2="164.800195mm" />
  <line x1="379.359456mm" y1="161.500541mm" x2="379.359456mm" y2="168.099849mm" />
  <text x="381mm" y="163mm" font-size="24">
   3.3
  </text>
  <circle cx="404.499971mm" cy="224.999864mm" r="4.000103mm" fill="none"/>
  <line x1="412.500177mm" y1="224.999864mm" x2="396.499766mm" y2="224.999864mm" />
  <line x1="404.499971mm" y1="216.999659mm" x2="404.499971mm" y2="233.000070mm" />
  <text x="408mm" y="220mm" font-size="24">
   8.0
  </text>
  <circle cx="417.799893mm" cy="19.859999mm" r="1.650220mm" fill="none"/>
  <line x1="421.100333mm" y1="19.859999mm" x2="414.499453mm" y2="19.859999mm" />
  <line x1="417.799893mm" y1="16.559559mm" x2="417.799893mm" y2="23.160439mm" />
  <text x="419mm" y="18mm" font-size="24">
   3.3
  </text>
  <circle cx="461.639456mm" cy="164.800195mm" r="1.649827mm" fill="none"/>
  <line x1="464.939111mm" y1="164.800195mm" x2="458.339802mm" y2="164.800195mm" />
  <line x1="461.639456mm" y1="161.500541mm" x2="461.639456mm" y2="168.099849mm" />
  <text x="463mm" y="163mm" font-size="24">
   3.3
  </text>
 </g>
</svg>
