<?xml version="1.0"?>
<svg xmlns="http://www.w3.org/2000/svg" version="1.1" height="341mm" width="492mm" >
 <g style="fill-opacity:1.0; stroke:black; stroke-width:1;">
  <line x1="109.500000mm" y1="331.000000mm" x2="109.500000mm" y2="331.000000mm" />
  <line x1="109.500000mm" y1="331.000000mm" x2="0.000000mm" y2="331.000000mm" />
  <line x1="0.000000mm" y1="331.000000mm" x2="0.000000mm" y2="0.000000mm" />
  <line x1="0.000000mm" y1="0.000000mm" x2="481.500000mm" y2="0.000000mm" />
  <line x1="481.500000mm" y1="0.000000mm" x2="481.500000mm" y2="331.000000mm" />
  <line x1="481.500000mm" y1="331.000000mm" x2="359.500000mm" y2="331.000000mm" />
  <line x1="359.500000mm" y1="331.000000mm" x2="359.500000mm" y2="102.900000mm" />
  <line x1="359.500000mm" y1="102.900000mm" x2="359.475000mm" y2="102.402000mm" />
  <line x1="359.475000mm" y1="102.402000mm" x2="359.401000mm" y2="101.909000mm" />
  <line x1="359.401000mm" y1="101.909000mm" x2="359.278000mm" y2="101.426000mm" />
  <line x1="359.278000mm" y1="101.426000mm" x2="359.107000mm" y2="100.958000mm" />
  <line x1="359.107000mm" y1="100.958000mm" x2="358.891000mm" y2="100.509000mm" />
  <line x1="358.891000mm" y1="100.509000mm" x2="358.631000mm" y2="100.083000mm" />
  <line x1="358.631000mm" y1="100.083000mm" x2="358.330000mm" y2="99.686000mm" />
  <line x1="358.330000mm" y1="99.686000mm" x2="357.991000mm" y2="99.321000mm" />
  <line x1="357.991000mm" y1="99.321000mm" x2="357.617000mm" y2="98.991000mm" />
  <line x1="357.617000mm" y1="98.991000mm" x2="357.213000mm" y2="98.700000mm" />
  <line x1="357.213000mm" y1="98.700000mm" x2="356.781000mm" y2="98.451000mm" />
  <line x1="356.781000mm" y1="98.451000mm" x2="356.327000mm" y2="98.246000mm" />
  <line x1="356.327000mm" y1="98.246000mm" x2="355.854000mm" y2="98.087000mm" />
  <line x1="355.854000mm" y1="98.087000mm" x2="355.368000mm" y2="97.976000mm" />
  <line x1="355.368000mm" y1="97.976000mm" x2="354.874000mm" y2="97.914000mm" />
  <line x1="354.874000mm" y1="97.914000mm" x2="354.500000mm" y2="97.905000mm" />
  <line x1="354.500000mm" y1="97.905000mm" x2="354.500000mm" y2="97.900000mm" />
  <line x1="354.500000mm" y1="97.900000mm" x2="114.500000mm" y2="97.900000mm" />
  <line x1="114.500000mm" y1="97.900000mm" x2="114.500000mm" y2="97.905000mm" />
  <line x1="114.500000mm" y1="97.905000mm" x2="114.375000mm" y2="97.902000mm" />
  <line x1="114.375000mm" y1="97.902000mm" x2="113.878000mm" y2="97.939000mm" />
  <line x1="113.878000mm" y1="97.939000mm" x2="113.387000mm" y2="98.025000mm" />
  <line x1="113.387000mm" y1="98.025000mm" x2="112.908000mm" y2="98.160000mm" />
  <line x1="112.908000mm" y1="98.160000mm" x2="112.444000mm" y2="98.342000mm" />
  <line x1="112.444000mm" y1="98.342000mm" x2="112.000000mm" y2="98.570000mm" />
  <line x1="112.000000mm" y1="98.570000mm" x2="111.581000mm" y2="98.840000mm" />
  <line x1="111.581000mm" y1="98.840000mm" x2="111.192000mm" y2="99.151000mm" />
  <line x1="111.192000mm" y1="99.151000mm" x2="110.835000mm" y2="99.499000mm" />
  <line x1="110.835000mm" y1="99.499000mm" x2="110.514000mm" y2="99.881000mm" />
  <line x1="110.514000mm" y1="99.881000mm" x2="110.234000mm" y2="100.293000mm" />
  <line x1="110.234000mm" y1="100.293000mm" x2="109.995000mm" y2="100.731000mm" />
  <line x1="109.995000mm" y1="100.731000mm" x2="109.802000mm" y2="101.190000mm" />
  <line x1="109.802000mm" y1="101.190000mm" x2="109.655000mm" y2="101.666000mm" />
  <line x1="109.655000mm" y1="101.666000mm" x2="109.556000mm" y2="102.155000mm" />
  <line x1="109.556000mm" y1="102.155000mm" x2="109.506000mm" y2="102.651000mm" />
  <line x1="109.506000mm" y1="102.651000mm" x2="109.506000mm" y2="102.900000mm" />
  <line x1="109.506000mm" y1="102.900000mm" x2="109.500000mm" y2="102.900000mm" />
  <line x1="109.500000mm" y1="102.900000mm" x2="109.500000mm" y2="331.000000mm" />
  <circle cx="7.499964mm" cy="224.899964mm" r="2.200229mm" fill="none"/>
  <line x1="11.900421mm" y1="224.899964mm" x2="3.099507mm" y2="224.899964mm" />
  <line x1="7.499964mm" y1="220.499507mm" x2="7.499964mm" y2="229.300421mm" />
  <text x="9mm" y="222mm" font-size="24">
   4.4
  </text>
  <circle cx="7.499964mm" cy="183.499964mm" r="2.200229mm" fill="none"/>
  <line x1="11.900421mm" y1="183.499964mm" x2="3.099507mm" y2="183.499964mm" />
  <line x1="7.499964mm" y1="179.099507mm" x2="7.499964mm" y2="187.900421mm" />
  <text x="9mm" y="181mm" font-size="24">
   4.4
  </text>
  <circle cx="9.699964mm" cy="322.799964mm" r="2.200229mm" fill="none"/>
  <line x1="14.100421mm" y1="322.799964mm" x2="5.299507mm" y2="322.799964mm" />
  <line x1="9.699964mm" y1="318.399507mm" x2="9.699964mm" y2="327.200421mm" />
  <text x="11mm" y="320mm" font-size="24">
   4.4
  </text>
  <circle cx="16.499964mm" cy="269.499964mm" r="2.200229mm" fill="none"/>
  <line x1="20.900421mm" y1="269.499964mm" x2="12.099507mm" y2="269.499964mm" />
  <line x1="16.499964mm" y1="265.099507mm" x2="16.499964mm" y2="273.900421mm" />
  <text x="18mm" y="267mm" font-size="24">
   4.4
  </text>
  <circle cx="30.019964mm" cy="322.799964mm" r="2.200229mm" fill="none"/>
  <line x1="34.420421mm" y1="322.799964mm" x2="25.619507mm" y2="322.799964mm" />
  <line x1="30.019964mm" y1="318.399507mm" x2="30.019964mm" y2="327.200421mm" />
  <text x="32mm" y="320mm" font-size="24">
   4.4
  </text>
  <circle cx="34.499818mm" cy="257.500055mm" r="2.000011mm" fill="none"/>
  <line x1="38.499840mm" y1="257.500055mm" x2="30.499795mm" y2="257.500055mm" />
  <line x1="34.499818mm" y1="253.500033mm" x2="34.499818mm" y2="261.500077mm" />
  <text x="36mm" y="255mm" font-size="24">
   4.0
  </text>
  <circle cx="40.499964mm" cy="8.499964mm" r="2.200229mm" fill="none"/>
  <line x1="44.900421mm" y1="8.499964mm" x2="36.099507mm" y2="8.499964mm" />
  <line x1="40.499964mm" y1="4.099507mm" x2="40.499964mm" y2="12.900421mm" />
  <text x="42mm" y="6mm" font-size="24">
   4.4
  </text>
  <circle cx="40.499818mm" cy="19.000055mm" r="2.000011mm" fill="none"/>
  <line x1="44.499840mm" y1="19.000055mm" x2="36.499795mm" y2="19.000055mm" />
  <line x1="40.499818mm" y1="15.000033mm" x2="40.499818mm" y2="23.000077mm" />
  <text x="42mm" y="17mm" font-size="24">
   4.0
  </text>
  <circle cx="42.220170mm" cy="323.499939mm" r="2.500268mm" fill="none"/>
  <line x1="47.220707mm" y1="323.499939mm" x2="37.219633mm" y2="323.499939mm" />
  <line x1="42.220170mm" y1="318.499402mm" x2="42.220170mm" y2="328.500476mm" />
  <text x="44mm" y="320mm" font-size="24">
   5.0
  </text>
  <circle cx="48.499964mm" cy="269.499964mm" r="2.200229mm" fill="none"/>
  <line x1="52.900421mm" y1="269.499964mm" x2="44.099507mm" y2="269.499964mm" />
  <line x1="48.499964mm" y1="265.099507mm" x2="48.499964mm" y2="273.900421mm" />
  <text x="50mm" y="267mm" font-size="24">
   4.4
  </text>
  <circle cx="73.499964mm" cy="8.499964mm" r="2.200229mm" fill="none"/>
  <line x1="77.900421mm" y1="8.499964mm" x2="69.099507mm" y2="8.499964mm" />
  <line x1="73.499964mm" y1="4.099507mm" x2="73.499964mm" y2="12.900421mm" />
  <text x="75mm" y="6mm" font-size="24">
   4.4
  </text>
  <circle cx="75.199964mm" cy="294.739964mm" r="2.200229mm" fill="none"/>
  <line x1="79.600421mm" y1="294.739964mm" x2="70.799507mm" y2="294.739964mm" />
  <line x1="75.199964mm" y1="290.339507mm" x2="75.199964mm" y2="299.140421mm" />
  <text x="77mm" y="292mm" font-size="24">
   4.4
  </text>
  <circle cx="75.199964mm" cy="36.259964mm" r="2.200229mm" fill="none"/>
  <line x1="79.600421mm" y1="36.259964mm" x2="70.799507mm" y2="36.259964mm" />
  <line x1="75.199964mm" y1="31.859507mm" x2="75.199964mm" y2="40.660421mm" />
  <text x="77mm" y="34mm" font-size="24">
   4.4
  </text>
  <circle cx="75.999964mm" cy="65.119964mm" r="2.200229mm" fill="none"/>
  <line x1="80.400421mm" y1="65.119964mm" x2="71.599507mm" y2="65.119964mm" />
  <line x1="75.999964mm" y1="60.719507mm" x2="75.999964mm" y2="69.520421mm" />
  <text x="78mm" y="62mm" font-size="24">
   4.4
  </text>
  <circle cx="79.979964mm" cy="322.799964mm" r="2.200229mm" fill="none"/>
  <line x1="84.380421mm" y1="322.799964mm" x2="75.579507mm" y2="322.799964mm" />
  <line x1="79.979964mm" y1="318.399507mm" x2="79.979964mm" y2="327.200421mm" />
  <text x="82mm" y="320mm" font-size="24">
   4.4
  </text>
  <circle cx="100.299964mm" cy="322.799964mm" r="2.200229mm" fill="none"/>
  <line x1="104.700421mm" y1="322.799964mm" x2="95.899507mm" y2="322.799964mm" />
  <line x1="100.299964mm" y1="318.399507mm" x2="100.299964mm" y2="327.200421mm" />
  <text x="102mm" y="320mm" font-size="24">
   4.4
  </text>
  <circle cx="369.199964mm" cy="322.799964mm" r="2.200229mm" fill="none"/>
  <line x1="373.600421mm" y1="322.799964mm" x2="364.799507mm" y2="322.799964mm" />
  <line x1="369.199964mm" y1="318.399507mm" x2="369.199964mm" y2="327.200421mm" />
  <text x="371mm" y="320mm" font-size="24">
   4.4
  </text>
  <circle cx="370.499964mm" cy="8.499964mm" r="2.200229mm" fill="none"/>
  <line x1="374.900421mm" y1="8.499964mm" x2="366.099507mm" y2="8.499964mm" />
  <line x1="370.499964mm" y1="4.099507mm" x2="370.499964mm" y2="12.900421mm" />
  <text x="372mm" y="6mm" font-size="24">
   4.4
  </text>
  <circle cx="388.499964mm" cy="269.499964mm" r="2.200229mm" fill="none"/>
  <line x1="392.900421mm" y1="269.499964mm" x2="384.099507mm" y2="269.499964mm" />
  <line x1="388.499964mm" y1="265.099507mm" x2="388.499964mm" y2="273.900421mm" />
  <text x="390mm" y="267mm" font-size="24">
   4.4
  </text>
  <circle cx="389.519964mm" cy="322.799964mm" r="2.200229mm" fill="none"/>
  <line x1="393.920421mm" y1="322.799964mm" x2="385.119507mm" y2="322.799964mm" />
  <line x1="389.519964mm" y1="318.399507mm" x2="389.519964mm" y2="327.200421mm" />
  <text x="391mm" y="320mm" font-size="24">
   4.4
  </text>
  <circle cx="402.500170mm" cy="323.499939mm" r="2.500268mm" fill="none"/>
  <line x1="407.500707mm" y1="323.499939mm" x2="397.499633mm" y2="323.499939mm" />
  <line x1="402.500170mm" y1="318.499402mm" x2="402.500170mm" y2="328.500476mm" />
  <text x="405mm" y="320mm" font-size="24">
   5.0
  </text>
  <circle cx="403.499964mm" cy="8.499964mm" r="2.200229mm" fill="none"/>
  <line x1="407.900421mm" y1="8.499964mm" x2="399.099507mm" y2="8.499964mm" />
  <line x1="403.499964mm" y1="4.099507mm" x2="403.499964mm" y2="12.900421mm" />
  <text x="405mm" y="6mm" font-size="24">
   4.4
  </text>
  <circle cx="416.999964mm" cy="65.119964mm" r="2.200229mm" fill="none"/>
  <line x1="421.400421mm" y1="65.119964mm" x2="412.599507mm" y2="65.119964mm" />
  <line x1="416.999964mm" y1="60.719507mm" x2="416.999964mm" y2="69.520421mm" />
  <text x="419mm" y="62mm" font-size="24">
   4.4
  </text>
  <circle cx="417.799964mm" cy="294.739964mm" r="2.200229mm" fill="none"/>
  <line x1="422.200421mm" y1="294.739964mm" x2="413.399507mm" y2="294.739964mm" />
  <line x1="417.799964mm" y1="290.339507mm" x2="417.799964mm" y2="299.140421mm" />
  <text x="420mm" y="292mm" font-size="24">
   4.4
  </text>
  <circle cx="417.799964mm" cy="36.259964mm" r="2.200229mm" fill="none"/>
  <line x1="422.200421mm" y1="36.259964mm" x2="413.399507mm" y2="36.259964mm" />
  <line x1="417.799964mm" y1="31.859507mm" x2="417.799964mm" y2="40.660421mm" />
  <text x="420mm" y="34mm" font-size="24">
   4.4
  </text>
  <circle cx="420.499964mm" cy="269.499964mm" r="2.200229mm" fill="none"/>
  <line x1="424.900421mm" y1="269.499964mm" x2="416.099507mm" y2="269.499964mm" />
  <line x1="420.499964mm" y1="265.099507mm" x2="420.499964mm" y2="273.900421mm" />
  <text x="422mm" y="267mm" font-size="24">
   4.4
  </text>
  <circle cx="430.599964mm" cy="12.999964mm" r="2.200229mm" fill="none"/>
  <line x1="435.000421mm" y1="12.999964mm" x2="426.199507mm" y2="12.999964mm" />
  <line x1="430.599964mm" y1="8.599507mm" x2="430.599964mm" y2="17.400421mm" />
  <text x="432mm" y="10mm" font-size="24">
   4.4
  </text>
  <circle cx="451.479964mm" cy="322.799964mm" r="2.200229mm" fill="none"/>
  <line x1="455.880421mm" y1="322.799964mm" x2="447.079507mm" y2="322.799964mm" />
  <line x1="451.479964mm" y1="318.399507mm" x2="451.479964mm" y2="327.200421mm" />
  <text x="453mm" y="320mm" font-size="24">
   4.4
  </text>
  <circle cx="465.399964mm" cy="12.999964mm" r="2.200229mm" fill="none"/>
  <line x1="469.800421mm" y1="12.999964mm" x2="460.999507mm" y2="12.999964mm" />
  <line x1="465.399964mm" y1="8.599507mm" x2="465.399964mm" y2="17.400421mm" />
  <text x="467mm" y="10mm" font-size="24">
   4.4
  </text>
  <circle cx="471.799964mm" cy="322.799964mm" r="2.200229mm" fill="none"/>
  <line x1="476.200421mm" y1="322.799964mm" x2="467.399507mm" y2="322.799964mm" />
  <line x1="471.799964mm" y1="318.399507mm" x2="471.799964mm" y2="327.200421mm" />
  <text x="474mm" y="320mm" font-size="24">
   4.4
  </text>
 </g>
</svg>
