solid OpenSCAD_Model
  facet normal -0.997866 -0.0653 0
    outer loop
      vertex 0 -9.85 0
      vertex 0.032 -10.339 0
      vertex 0 -9.85 5.4
    endloop
  endfacet
  facet normal -0.997866 -0.0653 0
    outer loop
      vertex 0 -9.85 5.4
      vertex 0.032 -10.339 0
      vertex 0.032 -10.339 5.4
    endloop
  endfacet
  facet normal 0 0 -1
    outer loop
      vertex 0 -9.85 0
      vertex 0 5 0
      vertex 0.032 -10.339 0
    endloop
  endfacet
  facet normal 0 0 -1
    outer loop
      vertex 0.032 -10.339 0
      vertex 0 5 0
      vertex 7.5 5 0
    endloop
  endfacet
  facet normal 0 0 -1
    outer loop
      vertex 4.95418 -8.34 0
      vertex 7.5 5 0
      vertex 7.5 -9.85 0
    endloop
  endfacet
  facet normal 0 0 -1
    outer loop
      vertex 5.68136 -9.85 0
      vertex 7.372 -10.821 0
      vertex 7.215 -11.285 0
    endloop
  endfacet
  facet normal 0 0 -1
    outer loop
      vertex 5.68136 -9.85 0
      vertex 7.468 -10.339 0
      vertex 7.372 -10.821 0
    endloop
  endfacet
  facet normal 0 0 -1
    outer loop
      vertex 4.95418 -11.36 0
      vertex 6.998 -11.725 0
      vertex 6.725 -12.133 0
    endloop
  endfacet
  facet normal 0 0 -1
    outer loop
      vertex 4.95418 -11.36 0
      vertex 6.033 -12.825 0
      vertex 3.32023 -11.7329 0
    endloop
  endfacet
  facet normal 0 0 -1
    outer loop
      vertex 4.95418 -11.36 0
      vertex 6.402 -12.502 0
      vertex 6.033 -12.825 0
    endloop
  endfacet
  facet normal 0 0 -1
    outer loop
      vertex 3.32023 -11.7329 0
      vertex 6.033 -12.825 0
      vertex 5.625 -13.098 0
    endloop
  endfacet
  facet normal 0 0 -1
    outer loop
      vertex 0.032 -10.339 0
      vertex 5.625 -13.098 0
      vertex 5.185 -13.315 0
    endloop
  endfacet
  facet normal 0 0 -1
    outer loop
      vertex 0.032 -10.339 0
      vertex 5.185 -13.315 0
      vertex 4.721 -13.472 0
    endloop
  endfacet
  facet normal 0 0 -1
    outer loop
      vertex 0.032 -10.339 0
      vertex 4.721 -13.472 0
      vertex 4.239 -13.568 0
    endloop
  endfacet
  facet normal 0 0 -1
    outer loop
      vertex 0.032 -10.339 0
      vertex 4.239 -13.568 0
      vertex 3.75 -13.6 0
    endloop
  endfacet
  facet normal 0 0 -1
    outer loop
      vertex 0.032 -10.339 0
      vertex 3.75 -13.6 0
      vertex 3.261 -13.568 0
    endloop
  endfacet
  facet normal 0 0 -1
    outer loop
      vertex 0.032 -10.339 0
      vertex 3.261 -13.568 0
      vertex 2.779 -13.472 0
    endloop
  endfacet
  facet normal 0 0 -1
    outer loop
      vertex 0.032 -10.339 0
      vertex 2.779 -13.472 0
      vertex 2.315 -13.315 0
    endloop
  endfacet
  facet normal 0 0 -1
    outer loop
      vertex 0.032 -10.339 0
      vertex 2.315 -13.315 0
      vertex 1.875 -13.098 0
    endloop
  endfacet
  facet normal 0 0 -1
    outer loop
      vertex 0.032 -10.339 0
      vertex 1.875 -13.098 0
      vertex 1.467 -12.825 0
    endloop
  endfacet
  facet normal 0 0 -1
    outer loop
      vertex 0.032 -10.339 0
      vertex 1.467 -12.825 0
      vertex 1.098 -12.502 0
    endloop
  endfacet
  facet normal 0 0 -1
    outer loop
      vertex 0.032 -10.339 0
      vertex 1.098 -12.502 0
      vertex 0.775 -12.133 0
    endloop
  endfacet
  facet normal 0 0 -1
    outer loop
      vertex 0.032 -10.339 0
      vertex 0.775 -12.133 0
      vertex 0.502 -11.725 0
    endloop
  endfacet
  facet normal 0 0 -1
    outer loop
      vertex 0.032 -10.339 0
      vertex 0.502 -11.725 0
      vertex 0.285 -11.285 0
    endloop
  endfacet
  facet normal 0 0 -1
    outer loop
      vertex 0.032 -10.339 0
      vertex 0.285 -11.285 0
      vertex 0.128 -10.821 0
    endloop
  endfacet
  facet normal 0 0 -1
    outer loop
      vertex 0.032 -10.339 0
      vertex 7.5 5 0
      vertex 2.0099 -9.01201 0
    endloop
  endfacet
  facet normal 0 0 -1
    outer loop
      vertex 3.32023 -11.7329 0
      vertex 0.032 -10.339 0
      vertex 2.0099 -10.688 0
    endloop
  endfacet
  facet normal 0 0 -1
    outer loop
      vertex 4.95418 -11.36 0
      vertex 6.725 -12.133 0
      vertex 6.402 -12.502 0
    endloop
  endfacet
  facet normal 0 0 -1
    outer loop
      vertex 0.032 -10.339 0
      vertex 3.32023 -11.7329 0
      vertex 5.625 -13.098 0
    endloop
  endfacet
  facet normal 0 0 -1
    outer loop
      vertex 5.68136 -9.85 0
      vertex 6.998 -11.725 0
      vertex 4.95418 -11.36 0
    endloop
  endfacet
  facet normal 0 0 -1
    outer loop
      vertex 5.68136 -9.85 0
      vertex 7.215 -11.285 0
      vertex 6.998 -11.725 0
    endloop
  endfacet
  facet normal 0 0 -1
    outer loop
      vertex 3.32023 -7.96706 0
      vertex 7.5 5 0
      vertex 4.95418 -8.34 0
    endloop
  endfacet
  facet normal 0 0 -1
    outer loop
      vertex 2.0099 -9.01201 0
      vertex 7.5 5 0
      vertex 3.32023 -7.96706 0
    endloop
  endfacet
  facet normal 0 0 -1
    outer loop
      vertex 2.0099 -10.688 0
      vertex 0.032 -10.339 0
      vertex 2.0099 -9.01201 0
    endloop
  endfacet
  facet normal 0 0 -1
    outer loop
      vertex 5.68136 -9.85 0
      vertex 7.5 -9.85 0
      vertex 7.468 -10.339 0
    endloop
  endfacet
  facet normal 0 0 -1
    outer loop
      vertex 4.95418 -8.34 0
      vertex 7.5 -9.85 0
      vertex 5.68136 -9.85 0
    endloop
  endfacet
  facet normal -1 0 0
    outer loop
      vertex 0 -2 4.19
      vertex 0 5 0
      vertex 0 -8.2 4.19
    endloop
  endfacet
  facet normal -1 0 0
    outer loop
      vertex 0 -9.85 0
      vertex 0 -9.85 5.4
      vertex 0 -8.2 4.19
    endloop
  endfacet
  facet normal -1 0 0
    outer loop
      vertex 0 -9.85 0
      vertex 0 -8.2 4.19
      vertex 0 5 0
    endloop
  endfacet
  facet normal -1 0 0
    outer loop
      vertex 0 5 0
      vertex 0 -2 4.19
      vertex 0 -2 5.4
    endloop
  endfacet
  facet normal -1 0 0
    outer loop
      vertex 0 5 0
      vertex 0 -2 5.4
      vertex 0 5 5.4
    endloop
  endfacet
  facet normal -1 0 0
    outer loop
      vertex 0 -8.2 4.19
      vertex 0 -9.85 5.4
      vertex 0 -8.2 5.4
    endloop
  endfacet
  facet normal 0 0 1
    outer loop
      vertex 0 -8.2 5.4
      vertex 0 -9.85 5.4
      vertex 0.032 -10.339 5.4
    endloop
  endfacet
  facet normal 0 0 1
    outer loop
      vertex 0.285 -11.285 5.4
      vertex 0 -8.2 5.4
      vertex 0.128 -10.821 5.4
    endloop
  endfacet
  facet normal 0 0 1
    outer loop
      vertex 0.128 -10.821 5.4
      vertex 0 -8.2 5.4
      vertex 0.032 -10.339 5.4
    endloop
  endfacet
  facet normal 0 0 1
    outer loop
      vertex 0.502 -11.725 5.4
      vertex 0 -8.2 5.4
      vertex 0.285 -11.285 5.4
    endloop
  endfacet
  facet normal 0 0 1
    outer loop
      vertex 0.775 -12.133 5.4
      vertex 0 -8.2 5.4
      vertex 0.502 -11.725 5.4
    endloop
  endfacet
  facet normal 0 0 1
    outer loop
      vertex 1.098 -12.502 5.4
      vertex 0 -8.2 5.4
      vertex 0.775 -12.133 5.4
    endloop
  endfacet
  facet normal 0 0 1
    outer loop
      vertex 1.467 -12.825 5.4
      vertex 0 -8.2 5.4
      vertex 1.098 -12.502 5.4
    endloop
  endfacet
  facet normal 0 0 1
    outer loop
      vertex 1.875 -13.098 5.4
      vertex 0 -8.2 5.4
      vertex 1.467 -12.825 5.4
    endloop
  endfacet
  facet normal 0 0 1
    outer loop
      vertex 2.315 -13.315 5.4
      vertex 0 -8.2 5.4
      vertex 1.875 -13.098 5.4
    endloop
  endfacet
  facet normal 0 0 1
    outer loop
      vertex 2.779 -13.472 5.4
      vertex 0 -8.2 5.4
      vertex 2.315 -13.315 5.4
    endloop
  endfacet
  facet normal 0 0 1
    outer loop
      vertex 3.261 -13.568 5.4
      vertex 0 -8.2 5.4
      vertex 2.779 -13.472 5.4
    endloop
  endfacet
  facet normal 0 0 1
    outer loop
      vertex 3.75 -13.6 5.4
      vertex 0 -8.2 5.4
      vertex 3.261 -13.568 5.4
    endloop
  endfacet
  facet normal 0 0 1
    outer loop
      vertex 4.239 -13.568 5.4
      vertex 0 -8.2 5.4
      vertex 3.75 -13.6 5.4
    endloop
  endfacet
  facet normal 0 0 1
    outer loop
      vertex 2.0099 -10.688 5.4
      vertex 0 -8.2 5.4
      vertex 4.239 -13.568 5.4
    endloop
  endfacet
  facet normal 0 0 1
    outer loop
      vertex 3.32023 -11.7329 5.4
      vertex 2.0099 -10.688 5.4
      vertex 4.721 -13.472 5.4
    endloop
  endfacet
  facet normal 0 0 1
    outer loop
      vertex 2.0099 -10.688 5.4
      vertex 2.0099 -9.01201 5.4
      vertex 0 -8.2 5.4
    endloop
  endfacet
  facet normal 0 0 1
    outer loop
      vertex 4.95418 -11.36 5.4
      vertex 6.033 -12.825 5.4
      vertex 6.402 -12.502 5.4
    endloop
  endfacet
  facet normal 0 0 1
    outer loop
      vertex 4.95418 -11.36 5.4
      vertex 5.625 -13.098 5.4
      vertex 6.033 -12.825 5.4
    endloop
  endfacet
  facet normal 0 0 1
    outer loop
      vertex 4.95418 -11.36 5.4
      vertex 5.185 -13.315 5.4
      vertex 5.625 -13.098 5.4
    endloop
  endfacet
  facet normal 0 0 1
    outer loop
      vertex 2.0099 -9.01201 5.4
      vertex 2.1 -8.94016 5.4
      vertex 0 -8.2 5.4
    endloop
  endfacet
  facet normal 0 0 1
    outer loop
      vertex 7.5 -8.2 5.4
      vertex 5.4 -8.2 5.4
      vertex 7.5 -9.85 5.4
    endloop
  endfacet
  facet normal 0 0 1
    outer loop
      vertex 5.4 -8.2 5.4
      vertex 5.4 -9.26575 5.4
      vertex 7.5 -9.85 5.4
    endloop
  endfacet
  facet normal 0 0 1
    outer loop
      vertex 7.468 -10.339 5.4
      vertex 5.68136 -9.85 5.4
      vertex 7.372 -10.821 5.4
    endloop
  endfacet
  facet normal 0 0 1
    outer loop
      vertex 6.725 -12.133 5.4
      vertex 4.95418 -11.36 5.4
      vertex 6.402 -12.502 5.4
    endloop
  endfacet
  facet normal 0 0 1
    outer loop
      vertex 5.185 -13.315 5.4
      vertex 3.32023 -11.7329 5.4
      vertex 4.721 -13.472 5.4
    endloop
  endfacet
  facet normal 0 0 1
    outer loop
      vertex 2.1 -8.94016 5.4
      vertex 2.1 -8.2 5.4
      vertex 0 -8.2 5.4
    endloop
  endfacet
  facet normal 0 0 1
    outer loop
      vertex 4.721 -13.472 5.4
      vertex 2.0099 -10.688 5.4
      vertex 4.239 -13.568 5.4
    endloop
  endfacet
  facet normal 0 0 1
    outer loop
      vertex 4.95418 -11.36 5.4
      vertex 3.32023 -11.7329 5.4
      vertex 5.185 -13.315 5.4
    endloop
  endfacet
  facet normal 0 0 1
    outer loop
      vertex 5.4 -9.26575 5.4
      vertex 7.468 -10.339 5.4
      vertex 7.5 -9.85 5.4
    endloop
  endfacet
  facet normal 0 0 1
    outer loop
      vertex 5.4 -9.26575 5.4
      vertex 5.68136 -9.85 5.4
      vertex 7.468 -10.339 5.4
    endloop
  endfacet
  facet normal 0 0 1
    outer loop
      vertex 5.68136 -9.85 5.4
      vertex 7.215 -11.285 5.4
      vertex 7.372 -10.821 5.4
    endloop
  endfacet
  facet normal 0 0 1
    outer loop
      vertex 5.68136 -9.85 5.4
      vertex 6.998 -11.725 5.4
      vertex 7.215 -11.285 5.4
    endloop
  endfacet
  facet normal 0 0 1
    outer loop
      vertex 5.68136 -9.85 5.4
      vertex 6.725 -12.133 5.4
      vertex 6.998 -11.725 5.4
    endloop
  endfacet
  facet normal 0 0 1
    outer loop
      vertex 5.68136 -9.85 5.4
      vertex 4.95418 -11.36 5.4
      vertex 6.725 -12.133 5.4
    endloop
  endfacet
  facet normal -0.980737 -0.195333 0
    outer loop
      vertex 0.032 -10.339 0
      vertex 0.128 -10.821 0
      vertex 0.032 -10.339 5.4
    endloop
  endfacet
  facet normal -0.980737 -0.195333 0
    outer loop
      vertex 0.032 -10.339 5.4
      vertex 0.128 -10.821 0
      vertex 0.128 -10.821 5.4
    endloop
  endfacet
  facet normal -0.947245 -0.320512 0
    outer loop
      vertex 0.128 -10.821 0
      vertex 0.285 -11.285 0
      vertex 0.128 -10.821 5.4
    endloop
  endfacet
  facet normal -0.947245 -0.320512 0
    outer loop
      vertex 0.128 -10.821 5.4
      vertex 0.285 -11.285 0
      vertex 0.285 -11.285 5.4
    endloop
  endfacet
  facet normal -0.89686 -0.442315 0
    outer loop
      vertex 0.285 -11.285 0
      vertex 0.502 -11.725 0
      vertex 0.285 -11.285 5.4
    endloop
  endfacet
  facet normal -0.89686 -0.442315 0
    outer loop
      vertex 0.285 -11.285 5.4
      vertex 0.502 -11.725 0
      vertex 0.502 -11.725 5.4
    endloop
  endfacet
  facet normal -0.831109 -0.55611 0
    outer loop
      vertex 0.502 -11.725 0
      vertex 0.775 -12.133 0
      vertex 0.502 -11.725 5.4
    endloop
  endfacet
  facet normal -0.831109 -0.55611 0
    outer loop
      vertex 0.502 -11.725 5.4
      vertex 0.775 -12.133 0
      vertex 0.775 -12.133 5.4
    endloop
  endfacet
  facet normal -0.75245 -0.658649 0
    outer loop
      vertex 0.775 -12.133 0
      vertex 1.098 -12.502 0
      vertex 0.775 -12.133 5.4
    endloop
  endfacet
  facet normal -0.75245 -0.658649 0
    outer loop
      vertex 0.775 -12.133 5.4
      vertex 1.098 -12.502 0
      vertex 1.098 -12.502 5.4
    endloop
  endfacet
  facet normal -0.658649 -0.75245 0
    outer loop
      vertex 1.098 -12.502 5.4
      vertex 1.098 -12.502 0
      vertex 1.467 -12.825 0
    endloop
  endfacet
  facet normal -0.658649 -0.75245 0
    outer loop
      vertex 1.467 -12.825 5.4
      vertex 1.098 -12.502 5.4
      vertex 1.467 -12.825 0
    endloop
  endfacet
  facet normal -0.55611 -0.831109 0
    outer loop
      vertex 1.467 -12.825 5.4
      vertex 1.467 -12.825 0
      vertex 1.875 -13.098 0
    endloop
  endfacet
  facet normal -0.55611 -0.831109 0
    outer loop
      vertex 1.875 -13.098 5.4
      vertex 1.467 -12.825 5.4
      vertex 1.875 -13.098 0
    endloop
  endfacet
  facet normal -0.442315 -0.89686 0
    outer loop
      vertex 1.875 -13.098 5.4
      vertex 1.875 -13.098 0
      vertex 2.315 -13.315 0
    endloop
  endfacet
  facet normal -0.442315 -0.89686 0
    outer loop
      vertex 2.315 -13.315 5.4
      vertex 1.875 -13.098 5.4
      vertex 2.315 -13.315 0
    endloop
  endfacet
  facet normal -0.320512 -0.947245 0
    outer loop
      vertex 2.315 -13.315 5.4
      vertex 2.315 -13.315 0
      vertex 2.779 -13.472 0
    endloop
  endfacet
  facet normal -0.320512 -0.947245 0
    outer loop
      vertex 2.779 -13.472 5.4
      vertex 2.315 -13.315 5.4
      vertex 2.779 -13.472 0
    endloop
  endfacet
  facet normal -0.195333 -0.980737 0
    outer loop
      vertex 2.779 -13.472 5.4
      vertex 2.779 -13.472 0
      vertex 3.261 -13.568 0
    endloop
  endfacet
  facet normal -0.195333 -0.980737 0
    outer loop
      vertex 3.261 -13.568 5.4
      vertex 2.779 -13.472 5.4
      vertex 3.261 -13.568 0
    endloop
  endfacet
  facet normal -0.0653 -0.997866 0
    outer loop
      vertex 3.261 -13.568 5.4
      vertex 3.261 -13.568 0
      vertex 3.75 -13.6 0
    endloop
  endfacet
  facet normal -0.0653 -0.997866 0
    outer loop
      vertex 3.75 -13.6 5.4
      vertex 3.261 -13.568 5.4
      vertex 3.75 -13.6 0
    endloop
  endfacet
  facet normal 0.0653 -0.997866 0
    outer loop
      vertex 3.75 -13.6 5.4
      vertex 3.75 -13.6 0
      vertex 4.239 -13.568 0
    endloop
  endfacet
  facet normal 0.0653 -0.997866 0
    outer loop
      vertex 4.239 -13.568 5.4
      vertex 3.75 -13.6 5.4
      vertex 4.239 -13.568 0
    endloop
  endfacet
  facet normal 0.195333 -0.980737 0
    outer loop
      vertex 4.239 -13.568 5.4
      vertex 4.239 -13.568 0
      vertex 4.721 -13.472 0
    endloop
  endfacet
  facet normal 0.195333 -0.980737 0
    outer loop
      vertex 4.721 -13.472 5.4
      vertex 4.239 -13.568 5.4
      vertex 4.721 -13.472 0
    endloop
  endfacet
  facet normal 0.320512 -0.947245 0
    outer loop
      vertex 4.721 -13.472 5.4
      vertex 4.721 -13.472 0
      vertex 5.185 -13.315 0
    endloop
  endfacet
  facet normal 0.320512 -0.947245 0
    outer loop
      vertex 5.185 -13.315 5.4
      vertex 4.721 -13.472 5.4
      vertex 5.185 -13.315 0
    endloop
  endfacet
  facet normal 0.442315 -0.89686 0
    outer loop
      vertex 5.185 -13.315 5.4
      vertex 5.185 -13.315 0
      vertex 5.625 -13.098 0
    endloop
  endfacet
  facet normal 0.442315 -0.89686 0
    outer loop
      vertex 5.625 -13.098 5.4
      vertex 5.185 -13.315 5.4
      vertex 5.625 -13.098 0
    endloop
  endfacet
  facet normal 0.55611 -0.831109 0
    outer loop
      vertex 5.625 -13.098 5.4
      vertex 5.625 -13.098 0
      vertex 6.033 -12.825 0
    endloop
  endfacet
  facet normal 0.55611 -0.831109 0
    outer loop
      vertex 6.033 -12.825 5.4
      vertex 5.625 -13.098 5.4
      vertex 6.033 -12.825 0
    endloop
  endfacet
  facet normal 0.658649 -0.75245 0
    outer loop
      vertex 6.033 -12.825 5.4
      vertex 6.033 -12.825 0
      vertex 6.402 -12.502 0
    endloop
  endfacet
  facet normal 0.658649 -0.75245 0
    outer loop
      vertex 6.402 -12.502 5.4
      vertex 6.033 -12.825 5.4
      vertex 6.402 -12.502 0
    endloop
  endfacet
  facet normal 0.75245 -0.658649 0
    outer loop
      vertex 6.402 -12.502 5.4
      vertex 6.402 -12.502 0
      vertex 6.725 -12.133 0
    endloop
  endfacet
  facet normal 0.75245 -0.658649 0
    outer loop
      vertex 6.725 -12.133 5.4
      vertex 6.402 -12.502 5.4
      vertex 6.725 -12.133 0
    endloop
  endfacet
  facet normal 0.831109 -0.55611 0
    outer loop
      vertex 6.725 -12.133 5.4
      vertex 6.725 -12.133 0
      vertex 6.998 -11.725 0
    endloop
  endfacet
  facet normal 0.831109 -0.55611 0
    outer loop
      vertex 6.998 -11.725 5.4
      vertex 6.725 -12.133 5.4
      vertex 6.998 -11.725 0
    endloop
  endfacet
  facet normal 0.89686 -0.442315 0
    outer loop
      vertex 6.998 -11.725 5.4
      vertex 6.998 -11.725 0
      vertex 7.215 -11.285 0
    endloop
  endfacet
  facet normal 0.89686 -0.442315 0
    outer loop
      vertex 7.215 -11.285 5.4
      vertex 6.998 -11.725 5.4
      vertex 7.215 -11.285 0
    endloop
  endfacet
  facet normal 0.947245 -0.320512 0
    outer loop
      vertex 7.215 -11.285 5.4
      vertex 7.215 -11.285 0
      vertex 7.372 -10.821 0
    endloop
  endfacet
  facet normal 0.947245 -0.320512 0
    outer loop
      vertex 7.372 -10.821 5.4
      vertex 7.215 -11.285 5.4
      vertex 7.372 -10.821 0
    endloop
  endfacet
  facet normal 0.980737 -0.195333 0
    outer loop
      vertex 7.372 -10.821 5.4
      vertex 7.372 -10.821 0
      vertex 7.468 -10.339 0
    endloop
  endfacet
  facet normal 0.980737 -0.195333 0
    outer loop
      vertex 7.468 -10.339 5.4
      vertex 7.372 -10.821 5.4
      vertex 7.468 -10.339 0
    endloop
  endfacet
  facet normal 0.997866 -0.0653 0
    outer loop
      vertex 7.468 -10.339 5.4
      vertex 7.468 -10.339 0
      vertex 7.5 -9.85 0
    endloop
  endfacet
  facet normal 0.997866 -0.0653 0
    outer loop
      vertex 7.5 -9.85 5.4
      vertex 7.468 -10.339 5.4
      vertex 7.5 -9.85 0
    endloop
  endfacet
  facet normal 1 0 0
    outer loop
      vertex 7.5 -8.2 4.19
      vertex 7.5 -9.85 0
      vertex 7.5 5 0
    endloop
  endfacet
  facet normal 1 0 0
    outer loop
      vertex 7.5 -8.2 4.19
      vertex 7.5 -8.2 5.4
      vertex 7.5 -9.85 5.4
    endloop
  endfacet
  facet normal 1 0 0
    outer loop
      vertex 7.5 5 5.4
      vertex 7.5 -2 5.4
      vertex 7.5 5 0
    endloop
  endfacet
  facet normal 1 0 0
    outer loop
      vertex 7.5 -2 5.4
      vertex 7.5 -2 4.19
      vertex 7.5 5 0
    endloop
  endfacet
  facet normal 1 0 0
    outer loop
      vertex 7.5 -9.85 5.4
      vertex 7.5 -9.85 0
      vertex 7.5 -8.2 4.19
    endloop
  endfacet
  facet normal 1 0 0
    outer loop
      vertex 7.5 -2 4.19
      vertex 7.5 -8.2 4.19
      vertex 7.5 5 0
    endloop
  endfacet
  facet normal 0 1 0
    outer loop
      vertex 0 5 0
      vertex 0 5 5.4
      vertex 7.5 5 0
    endloop
  endfacet
  facet normal 0 1 0
    outer loop
      vertex 7.5 5 0
      vertex 0 5 5.4
      vertex 7.5 5 5.4
    endloop
  endfacet
  facet normal 1 0 0
    outer loop
      vertex 2.0099 -9.01201 0
      vertex 2.0099 -9.01201 5.4
      vertex 2.0099 -10.688 5.4
    endloop
  endfacet
  facet normal 1 0 0
    outer loop
      vertex 2.0099 -10.688 0
      vertex 2.0099 -9.01201 0
      vertex 2.0099 -10.688 5.4
    endloop
  endfacet
  facet normal 0.62349 -0.781831 0
    outer loop
      vertex 2.1 -8.94016 3
      vertex 2.0099 -9.01201 0
      vertex 3.32023 -7.96706 0
    endloop
  endfacet
  facet normal 0.62349 -0.781831 0
    outer loop
      vertex 3.32023 -7.96706 0
      vertex 3.32023 -7.96706 2.99
      vertex 3.02187 -8.205 2.99
    endloop
  endfacet
  facet normal 0.62349 -0.781831 0
    outer loop
      vertex 2.1 -8.94016 3
      vertex 3.32023 -7.96706 0
      vertex 3.02187 -8.205 2.99
    endloop
  endfacet
  facet normal 0.62349 -0.781831 0
    outer loop
      vertex 3.02187 -8.205 3
      vertex 2.1 -8.94016 3
      vertex 3.02187 -8.205 2.99
    endloop
  endfacet
  facet normal 0.62349 -0.781831 0
    outer loop
      vertex 2.1 -8.94016 5.4
      vertex 2.0099 -9.01201 5.4
      vertex 2.1 -8.94016 3
    endloop
  endfacet
  facet normal 0.62349 -0.781831 0
    outer loop
      vertex 2.0099 -9.01201 5.4
      vertex 2.0099 -9.01201 0
      vertex 2.1 -8.94016 3
    endloop
  endfacet
  facet normal -0.222522 -0.974928 0
    outer loop
      vertex 4.95418 -8.34 0
      vertex 4.95418 -8.34 3
      vertex 4.36271 -8.205 3
    endloop
  endfacet
  facet normal -0.222522 -0.974928 0
    outer loop
      vertex 3.32023 -7.96706 2.99
      vertex 4.95418 -8.34 0
      vertex 4.36271 -8.205 2.99
    endloop
  endfacet
  facet normal -0.222522 -0.974928 0
    outer loop
      vertex 4.36271 -8.205 2.99
      vertex 4.95418 -8.34 0
      vertex 4.36271 -8.205 3
    endloop
  endfacet
  facet normal -0.222522 -0.974928 0
    outer loop
      vertex 3.32023 -7.96706 0
      vertex 4.95418 -8.34 0
      vertex 3.32023 -7.96706 2.99
    endloop
  endfacet
  facet normal -0.900969 -0.433884 0
    outer loop
      vertex 5.68136 -9.85 5.4
      vertex 5.4 -9.26575 5.4
      vertex 5.68136 -9.85 0
    endloop
  endfacet
  facet normal -0.900969 -0.433884 0
    outer loop
      vertex 5.68136 -9.85 0
      vertex 5.4 -9.26575 5.4
      vertex 5.4 -9.26575 3
    endloop
  endfacet
  facet normal -0.900969 -0.433884 0
    outer loop
      vertex 5.68136 -9.85 0
      vertex 5.4 -9.26575 3
      vertex 4.95418 -8.34 3
    endloop
  endfacet
  facet normal -0.900969 -0.433884 0
    outer loop
      vertex 5.68136 -9.85 0
      vertex 4.95418 -8.34 3
      vertex 4.95418 -8.34 0
    endloop
  endfacet
  facet normal -0.900969 0.433884 0
    outer loop
      vertex 5.68136 -9.85 5.4
      vertex 5.68136 -9.85 0
      vertex 4.95418 -11.36 5.4
    endloop
  endfacet
  facet normal -0.900969 0.433884 0
    outer loop
      vertex 4.95418 -11.36 5.4
      vertex 5.68136 -9.85 0
      vertex 4.95418 -11.36 0
    endloop
  endfacet
  facet normal -0.222522 0.974928 0
    outer loop
      vertex 4.95418 -11.36 5.4
      vertex 4.95418 -11.36 0
      vertex 3.32023 -11.7329 5.4
    endloop
  endfacet
  facet normal -0.222522 0.974928 0
    outer loop
      vertex 3.32023 -11.7329 5.4
      vertex 4.95418 -11.36 0
      vertex 3.32023 -11.7329 0
    endloop
  endfacet
  facet normal 0.62349 0.781831 0
    outer loop
      vertex 3.32023 -11.7329 5.4
      vertex 3.32023 -11.7329 0
      vertex 2.0099 -10.688 5.4
    endloop
  endfacet
  facet normal 0.62349 0.781831 0
    outer loop
      vertex 2.0099 -10.688 5.4
      vertex 3.32023 -11.7329 0
      vertex 2.0099 -10.688 0
    endloop
  endfacet
  facet normal 0 0 1
    outer loop
      vertex 4.11343 0.127676 5.4
      vertex 0 -2 5.4
      vertex 7.5 -2 5.4
    endloop
  endfacet
  facet normal 0 0 1
    outer loop
      vertex 0 5 5.4
      vertex 0 -2 5.4
      vertex 1.36231 2.2572 5.4
    endloop
  endfacet
  facet normal 0 0 1
    outer loop
      vertex 4.58353 0.249395 5.4
      vertex 4.11343 0.127676 5.4
      vertex 7.5 -2 5.4
    endloop
  endfacet
  facet normal 0 0 1
    outer loop
      vertex 0 5 5.4
      vertex 1.36231 2.2572 5.4
      vertex 1.36231 2.7428 5.4
    endloop
  endfacet
  facet normal 0 0 1
    outer loop
      vertex 0 5 5.4
      vertex 1.36231 2.7428 5.4
      vertex 1.46007 3.21847 5.4
    endloop
  endfacet
  facet normal 0 0 1
    outer loop
      vertex 1.92898 4.06329 5.4
      vertex 0 5 5.4
      vertex 1.65157 3.66472 5.4
    endloop
  endfacet
  facet normal 0 0 1
    outer loop
      vertex 2.28095 4.39786 5.4
      vertex 0 5 5.4
      vertex 1.92898 4.06329 5.4
    endloop
  endfacet
  facet normal 0 0 1
    outer loop
      vertex 5.01951 4.53675 5.4
      vertex 5.40352 4.2395 5.4
      vertex 7.5 5 5.4
    endloop
  endfacet
  facet normal 0 0 1
    outer loop
      vertex 2.69305 4.65473 5.4
      vertex 0 5 5.4
      vertex 2.28095 4.39786 5.4
    endloop
  endfacet
  facet normal 0 0 1
    outer loop
      vertex 3.14843 4.82339 5.4
      vertex 0 5 5.4
      vertex 2.69305 4.65473 5.4
    endloop
  endfacet
  facet normal 0 0 1
    outer loop
      vertex 3.62844 4.89692 5.4
      vertex 0 5 5.4
      vertex 3.14843 4.82339 5.4
    endloop
  endfacet
  facet normal 0 0 1
    outer loop
      vertex 7.5 5 5.4
      vertex 0 5 5.4
      vertex 3.62844 4.89692 5.4
    endloop
  endfacet
  facet normal 0 0 1
    outer loop
      vertex 4.58353 4.7506 5.4
      vertex 5.01951 4.53675 5.4
      vertex 7.5 5 5.4
    endloop
  endfacet
  facet normal 0 0 1
    outer loop
      vertex 7.5 5 5.4
      vertex 3.62844 4.89692 5.4
      vertex 4.11343 4.87232 5.4
    endloop
  endfacet
  facet normal 0 0 1
    outer loop
      vertex 6.15 2.5 5.4
      vertex 6.10087 2.01688 5.4
      vertex 7.5 -2 5.4
    endloop
  endfacet
  facet normal 0 0 1
    outer loop
      vertex 6.10087 2.98312 5.4
      vertex 6.15 2.5 5.4
      vertex 7.5 -2 5.4
    endloop
  endfacet
  facet normal 0 0 1
    outer loop
      vertex 7.5 5 5.4
      vertex 5.40352 4.2395 5.4
      vertex 5.71983 3.87104 5.4
    endloop
  endfacet
  facet normal 0 0 1
    outer loop
      vertex 7.5 5 5.4
      vertex 5.71983 3.87104 5.4
      vertex 5.9555 3.44645 5.4
    endloop
  endfacet
  facet normal 0 0 1
    outer loop
      vertex 7.5 5 5.4
      vertex 6.10087 2.98312 5.4
      vertex 7.5 -2 5.4
    endloop
  endfacet
  facet normal 0 0 1
    outer loop
      vertex 7.5 5 5.4
      vertex 5.9555 3.44645 5.4
      vertex 6.10087 2.98312 5.4
    endloop
  endfacet
  facet normal 0 0 1
    outer loop
      vertex 6.10087 2.01688 5.4
      vertex 5.9555 1.55355 5.4
      vertex 7.5 -2 5.4
    endloop
  endfacet
  facet normal 0 0 1
    outer loop
      vertex 5.9555 1.55355 5.4
      vertex 5.71983 1.12896 5.4
      vertex 7.5 -2 5.4
    endloop
  endfacet
  facet normal 0 0 1
    outer loop
      vertex 5.71983 1.12896 5.4
      vertex 5.40352 0.760497 5.4
      vertex 7.5 -2 5.4
    endloop
  endfacet
  facet normal 0 0 1
    outer loop
      vertex 5.40352 0.760497 5.4
      vertex 5.01951 0.463254 5.4
      vertex 7.5 -2 5.4
    endloop
  endfacet
  facet normal 0 0 1
    outer loop
      vertex 3.62844 0.10308 5.4
      vertex 0 -2 5.4
      vertex 4.11343 0.127676 5.4
    endloop
  endfacet
  facet normal 0 0 1
    outer loop
      vertex 3.14843 0.176615 5.4
      vertex 0 -2 5.4
      vertex 3.62844 0.10308 5.4
    endloop
  endfacet
  facet normal 0 0 1
    outer loop
      vertex 2.69305 0.345269 5.4
      vertex 0 -2 5.4
      vertex 3.14843 0.176615 5.4
    endloop
  endfacet
  facet normal 0 0 1
    outer loop
      vertex 2.28095 0.602138 5.4
      vertex 0 -2 5.4
      vertex 2.69305 0.345269 5.4
    endloop
  endfacet
  facet normal 0 0 1
    outer loop
      vertex 1.92898 0.936706 5.4
      vertex 0 -2 5.4
      vertex 2.28095 0.602138 5.4
    endloop
  endfacet
  facet normal 0 0 1
    outer loop
      vertex 1.65157 1.33527 5.4
      vertex 0 -2 5.4
      vertex 1.92898 0.936706 5.4
    endloop
  endfacet
  facet normal 0 0 1
    outer loop
      vertex 1.46007 1.78153 5.4
      vertex 0 -2 5.4
      vertex 1.65157 1.33527 5.4
    endloop
  endfacet
  facet normal 0 0 1
    outer loop
      vertex 1.36231 2.2572 5.4
      vertex 0 -2 5.4
      vertex 1.46007 1.78153 5.4
    endloop
  endfacet
  facet normal 0 0 1
    outer loop
      vertex 1.46007 3.21847 5.4
      vertex 1.65157 3.66472 5.4
      vertex 0 5 5.4
    endloop
  endfacet
  facet normal 0 0 1
    outer loop
      vertex 4.11343 4.87232 5.4
      vertex 4.58353 4.7506 5.4
      vertex 7.5 5 5.4
    endloop
  endfacet
  facet normal 0 0 1
    outer loop
      vertex 5.01951 0.463254 5.4
      vertex 4.58353 0.249395 5.4
      vertex 7.5 -2 5.4
    endloop
  endfacet
  facet normal 0 -1 0
    outer loop
      vertex 1.5 -2 4.19
      vertex 1.5 -2 3.02
      vertex 3 -2 3.02
    endloop
  endfacet
  facet normal 0 -1 0
    outer loop
      vertex 7.5 -2 5.4
      vertex 1.5 -2 4.19
      vertex 3 -2 4.19
    endloop
  endfacet
  facet normal 0 -1 0
    outer loop
      vertex 3 -2 4.19
      vertex 1.5 -2 4.19
      vertex 3 -2 3.02
    endloop
  endfacet
  facet normal 0 -1 0
    outer loop
      vertex 7.5 -2 5.4
      vertex 3 -2 4.19
      vertex 4.5 -2 4.19
    endloop
  endfacet
  facet normal 0 -1 0
    outer loop
      vertex 6 -2 3.02
      vertex 4.5 -2 4.19
      vertex 4.5 -2 3.02
    endloop
  endfacet
  facet normal 0 -1 0
    outer loop
      vertex 6 -2 4.19
      vertex 4.5 -2 4.19
      vertex 6 -2 3.02
    endloop
  endfacet
  facet normal 0 -1 0
    outer loop
      vertex 7.5 -2 5.4
      vertex 4.5 -2 4.19
      vertex 6 -2 4.19
    endloop
  endfacet
  facet normal 0 -1 0
    outer loop
      vertex 7.5 -2 5.4
      vertex 6 -2 4.19
      vertex 7.5 -2 4.19
    endloop
  endfacet
  facet normal 0 -1 0
    outer loop
      vertex 0 -2 5.4
      vertex 1.5 -2 4.19
      vertex 7.5 -2 5.4
    endloop
  endfacet
  facet normal 0 -1 0
    outer loop
      vertex 0 -2 4.19
      vertex 1.5 -2 4.19
      vertex 0 -2 5.4
    endloop
  endfacet
  facet normal 0 0 1
    outer loop
      vertex 0 -2 4.19
      vertex 0 -8.2 4.19
      vertex 1.5 -8.2 4.19
    endloop
  endfacet
  facet normal 0 0 1
    outer loop
      vertex 1.5 -2 4.19
      vertex 0 -2 4.19
      vertex 1.5 -8.2 4.19
    endloop
  endfacet
  facet normal 0 1 0
    outer loop
      vertex 0 -8.2 4.19
      vertex 0 -8.2 5.4
      vertex 1.5 -8.2 4.19
    endloop
  endfacet
  facet normal 0 1 0
    outer loop
      vertex 2.1 -8.2 5.4
      vertex 2.1 -8.2 3.02
      vertex 1.5 -8.2 4.19
    endloop
  endfacet
  facet normal 0 1 0
    outer loop
      vertex 2.1 -8.2 5.4
      vertex 1.5 -8.2 4.19
      vertex 0 -8.2 5.4
    endloop
  endfacet
  facet normal 0 1 0
    outer loop
      vertex 1.5 -8.2 4.19
      vertex 2.1 -8.2 3.02
      vertex 1.5 -8.2 3.02
    endloop
  endfacet
  facet normal 1 0 0
    outer loop
      vertex 2.1 -6.55 3
      vertex 2.1 -6.55 3.02
      vertex 2.1 -8.2 3.02
    endloop
  endfacet
  facet normal 1 0 0
    outer loop
      vertex 2.1 -8.94016 3
      vertex 2.1 -6.55 3
      vertex 2.1 -8.2 3.02
    endloop
  endfacet
  facet normal 1 0 0
    outer loop
      vertex 2.1 -8.2 5.4
      vertex 2.1 -8.94016 5.4
      vertex 2.1 -8.2 3.02
    endloop
  endfacet
  facet normal 1 0 0
    outer loop
      vertex 2.1 -8.94016 5.4
      vertex 2.1 -8.94016 3
      vertex 2.1 -8.2 3.02
    endloop
  endfacet
  facet normal -1 0 0
    outer loop
      vertex 5.4 -8.2 5.4
      vertex 5.4 -8.2 3.02
      vertex 5.4 -9.26575 5.4
    endloop
  endfacet
  facet normal -1 0 0
    outer loop
      vertex 5.4 -6.55 3
      vertex 5.4 -8.2 3.02
      vertex 5.4 -6.55 3.02
    endloop
  endfacet
  facet normal -1 0 0
    outer loop
      vertex 5.4 -9.26575 3
      vertex 5.4 -8.2 3.02
      vertex 5.4 -6.55 3
    endloop
  endfacet
  facet normal -1 0 0
    outer loop
      vertex 5.4 -9.26575 5.4
      vertex 5.4 -8.2 3.02
      vertex 5.4 -9.26575 3
    endloop
  endfacet
  facet normal 0 1 0
    outer loop
      vertex 7.5 -8.2 5.4
      vertex 7.5 -8.2 4.19
      vertex 5.4 -8.2 5.4
    endloop
  endfacet
  facet normal 0 1 0
    outer loop
      vertex 5.4 -8.2 5.4
      vertex 7.5 -8.2 4.19
      vertex 6 -8.2 4.19
    endloop
  endfacet
  facet normal 0 1 0
    outer loop
      vertex 5.4 -8.2 5.4
      vertex 6 -8.2 4.19
      vertex 6 -8.2 3.02
    endloop
  endfacet
  facet normal 0 1 0
    outer loop
      vertex 5.4 -8.2 5.4
      vertex 6 -8.2 3.02
      vertex 5.4 -8.2 3.02
    endloop
  endfacet
  facet normal 0 0 1
    outer loop
      vertex 6 -2 4.19
      vertex 6 -8.2 4.19
      vertex 7.5 -8.2 4.19
    endloop
  endfacet
  facet normal 0 0 1
    outer loop
      vertex 7.5 -2 4.19
      vertex 6 -2 4.19
      vertex 7.5 -8.2 4.19
    endloop
  endfacet
  facet normal 0 0 1
    outer loop
      vertex 2.1 -6.55 3
      vertex 3 -8.205 3
      vertex 3 -6.55 3
    endloop
  endfacet
  facet normal 0 0 1
    outer loop
      vertex 2.1 -8.94016 3
      vertex 3 -8.205 3
      vertex 2.1 -6.55 3
    endloop
  endfacet
  facet normal 0 0 1
    outer loop
      vertex 3.02187 -8.205 3
      vertex 3 -8.205 3
      vertex 2.1 -8.94016 3
    endloop
  endfacet
  facet normal 0 -1 0
    outer loop
      vertex 4.36271 -8.205 3
      vertex 4.5 -8.205 3
      vertex 3 -8.205 4.19
    endloop
  endfacet
  facet normal 0 -1 0
    outer loop
      vertex 3 -8.205 4.19
      vertex 3 -8.205 3
      vertex 3.02187 -8.205 3
    endloop
  endfacet
  facet normal 0 -1 0
    outer loop
      vertex 4.36271 -8.205 2.99
      vertex 3 -8.205 4.19
      vertex 3.02187 -8.205 3
    endloop
  endfacet
  facet normal 0 -1 0
    outer loop
      vertex 3.02187 -8.205 2.99
      vertex 4.36271 -8.205 2.99
      vertex 3.02187 -8.205 3
    endloop
  endfacet
  facet normal 0 -1 0
    outer loop
      vertex 4.36271 -8.205 2.99
      vertex 4.36271 -8.205 3
      vertex 3 -8.205 4.19
    endloop
  endfacet
  facet normal 0 -1 0
    outer loop
      vertex 4.5 -8.205 3
      vertex 4.5 -8.205 4.19
      vertex 3 -8.205 4.19
    endloop
  endfacet
  facet normal 0 0 -1
    outer loop
      vertex 4.36271 -8.205 2.99
      vertex 3.02187 -8.205 2.99
      vertex 3.32023 -7.96706 2.99
    endloop
  endfacet
  facet normal 0 0 1
    outer loop
      vertex 4.95418 -8.34 3
      vertex 5.4 -9.26575 3
      vertex 5.4 -6.55 3
    endloop
  endfacet
  facet normal 0 0 1
    outer loop
      vertex 4.5 -8.205 3
      vertex 4.95418 -8.34 3
      vertex 4.5 -6.55 3
    endloop
  endfacet
  facet normal 0 0 1
    outer loop
      vertex 4.5 -6.55 3
      vertex 4.95418 -8.34 3
      vertex 5.4 -6.55 3
    endloop
  endfacet
  facet normal 0 0 1
    outer loop
      vertex 4.36271 -8.205 3
      vertex 4.95418 -8.34 3
      vertex 4.5 -8.205 3
    endloop
  endfacet
  facet normal -1 0 0
    outer loop
      vertex 1.36231 2.2572 5.4
      vertex 1.36231 2.2572 7.41
      vertex 1.36231 2.7428 5.4
    endloop
  endfacet
  facet normal -1 0 0
    outer loop
      vertex 1.36231 2.7428 5.4
      vertex 1.36231 2.2572 7.41
      vertex 1.36231 2.7428 7.41
    endloop
  endfacet
  facet normal -0.97953 -0.201298 0
    outer loop
      vertex 1.36231 2.2572 5.4
      vertex 1.46007 1.78153 5.4
      vertex 1.36231 2.2572 7.41
    endloop
  endfacet
  facet normal -0.97953 -0.201298 0
    outer loop
      vertex 1.36231 2.2572 7.41
      vertex 1.46007 1.78153 5.4
      vertex 1.46007 1.78153 7.41
    endloop
  endfacet
  facet normal -0.918958 -0.394355 0
    outer loop
      vertex 1.46007 1.78153 5.4
      vertex 1.65157 1.33527 5.4
      vertex 1.46007 1.78153 7.41
    endloop
  endfacet
  facet normal -0.918958 -0.394355 0
    outer loop
      vertex 1.46007 1.78153 7.41
      vertex 1.65157 1.33527 5.4
      vertex 1.65157 1.33527 7.41
    endloop
  endfacet
  facet normal -0.820763 -0.571269 0
    outer loop
      vertex 1.65157 1.33527 5.4
      vertex 1.92898 0.936706 5.4
      vertex 1.65157 1.33527 7.41
    endloop
  endfacet
  facet normal -0.820763 -0.571269 0
    outer loop
      vertex 1.65157 1.33527 7.41
      vertex 1.92898 0.936706 5.4
      vertex 1.92898 0.936706 7.41
    endloop
  endfacet
  facet normal -0.688967 -0.724792 0
    outer loop
      vertex 1.92898 0.936706 7.41
      vertex 1.92898 0.936706 5.4
      vertex 2.28095 0.602138 5.4
    endloop
  endfacet
  facet normal -0.688967 -0.724792 0
    outer loop
      vertex 2.28095 0.602138 7.41
      vertex 1.92898 0.936706 7.41
      vertex 2.28095 0.602138 5.4
    endloop
  endfacet
  facet normal -0.528964 -0.848644 0
    outer loop
      vertex 2.28095 0.602138 7.41
      vertex 2.28095 0.602138 5.4
      vertex 2.69305 0.345269 5.4
    endloop
  endfacet
  facet normal -0.528964 -0.848644 0
    outer loop
      vertex 2.69305 0.345269 7.41
      vertex 2.28095 0.602138 7.41
      vertex 2.69305 0.345269 5.4
    endloop
  endfacet
  facet normal -0.347305 -0.937752 0
    outer loop
      vertex 2.69305 0.345269 7.41
      vertex 2.69305 0.345269 5.4
      vertex 3.14843 0.176615 5.4
    endloop
  endfacet
  facet normal -0.347305 -0.937752 0
    outer loop
      vertex 3.14843 0.176615 7.41
      vertex 2.69305 0.345269 7.41
      vertex 3.14843 0.176615 5.4
    endloop
  endfacet
  facet normal -0.151429 -0.988468 0
    outer loop
      vertex 3.14843 0.176615 7.41
      vertex 3.14843 0.176615 5.4
      vertex 3.62844 0.10308 5.4
    endloop
  endfacet
  facet normal -0.151429 -0.988468 0
    outer loop
      vertex 3.62844 0.10308 7.41
      vertex 3.14843 0.176615 7.41
      vertex 3.62844 0.10308 5.4
    endloop
  endfacet
  facet normal 0.0506499 -0.998716 0
    outer loop
      vertex 3.62844 0.10308 7.41
      vertex 3.62844 0.10308 5.4
      vertex 4.11343 0.127676 5.4
    endloop
  endfacet
  facet normal 0.0506499 -0.998716 0
    outer loop
      vertex 4.11343 0.127676 7.41
      vertex 3.62844 0.10308 7.41
      vertex 4.11343 0.127676 5.4
    endloop
  endfacet
  facet normal 0.250653 -0.968077 0
    outer loop
      vertex 4.11343 0.127676 7.41
      vertex 4.11343 0.127676 5.4
      vertex 4.58353 0.249395 5.4
    endloop
  endfacet
  facet normal 0.250653 -0.968077 0
    outer loop
      vertex 4.58353 0.249395 7.41
      vertex 4.11343 0.127676 7.41
      vertex 4.58353 0.249395 5.4
    endloop
  endfacet
  facet normal 0.440394 -0.897804 0
    outer loop
      vertex 4.58353 0.249395 7.41
      vertex 4.58353 0.249395 5.4
      vertex 5.01951 0.463254 5.4
    endloop
  endfacet
  facet normal 0.440394 -0.897804 0
    outer loop
      vertex 5.01951 0.463254 7.41
      vertex 4.58353 0.249395 7.41
      vertex 5.01951 0.463254 5.4
    endloop
  endfacet
  facet normal 0.612105 -0.790776 0
    outer loop
      vertex 5.01951 0.463254 7.41
      vertex 5.01951 0.463254 5.4
      vertex 5.40352 0.760497 5.4
    endloop
  endfacet
  facet normal 0.612105 -0.790776 0
    outer loop
      vertex 5.40352 0.760497 7.41
      vertex 5.01951 0.463254 7.41
      vertex 5.40352 0.760497 5.4
    endloop
  endfacet
  facet normal 0.758759 -0.651372 0
    outer loop
      vertex 5.40352 0.760497 7.41
      vertex 5.40352 0.760497 5.4
      vertex 5.71983 1.12896 5.4
    endloop
  endfacet
  facet normal 0.758759 -0.651372 0
    outer loop
      vertex 5.71983 1.12896 7.41
      vertex 5.40352 0.760497 7.41
      vertex 5.71983 1.12896 5.4
    endloop
  endfacet
  facet normal 0.874346 -0.485302 0
    outer loop
      vertex 5.71983 1.12896 7.41
      vertex 5.71983 1.12896 5.4
      vertex 5.9555 1.55355 5.4
    endloop
  endfacet
  facet normal 0.874346 -0.485302 0
    outer loop
      vertex 5.9555 1.55355 7.41
      vertex 5.71983 1.12896 7.41
      vertex 5.9555 1.55355 5.4
    endloop
  endfacet
  facet normal 0.954139 -0.299363 0
    outer loop
      vertex 5.9555 1.55355 7.41
      vertex 5.9555 1.55355 5.4
      vertex 6.10087 2.01688 5.4
    endloop
  endfacet
  facet normal 0.954139 -0.299363 0
    outer loop
      vertex 6.10087 2.01688 7.41
      vertex 5.9555 1.55355 7.41
      vertex 6.10087 2.01688 5.4
    endloop
  endfacet
  facet normal 0.994869 -0.101168 0
    outer loop
      vertex 6.10087 2.01688 7.41
      vertex 6.10087 2.01688 5.4
      vertex 6.15 2.5 5.4
    endloop
  endfacet
  facet normal 0.994869 -0.101168 0
    outer loop
      vertex 6.15 2.5 7.41
      vertex 6.10087 2.01688 7.41
      vertex 6.15 2.5 5.4
    endloop
  endfacet
  facet normal 0.994869 0.101168 0
    outer loop
      vertex 6.15 2.5 5.4
      vertex 6.10087 2.98312 5.4
      vertex 6.10087 2.98312 7.41
    endloop
  endfacet
  facet normal 0.994869 0.101168 0
    outer loop
      vertex 6.15 2.5 7.41
      vertex 6.15 2.5 5.4
      vertex 6.10087 2.98312 7.41
    endloop
  endfacet
  facet normal 0.954139 0.299363 0
    outer loop
      vertex 6.10087 2.98312 5.4
      vertex 5.9555 3.44645 5.4
      vertex 5.9555 3.44645 7.41
    endloop
  endfacet
  facet normal 0.954139 0.299363 0
    outer loop
      vertex 6.10087 2.98312 7.41
      vertex 6.10087 2.98312 5.4
      vertex 5.9555 3.44645 7.41
    endloop
  endfacet
  facet normal 0.874346 0.485302 0
    outer loop
      vertex 5.9555 3.44645 5.4
      vertex 5.71983 3.87104 5.4
      vertex 5.71983 3.87104 7.41
    endloop
  endfacet
  facet normal 0.874346 0.485302 0
    outer loop
      vertex 5.9555 3.44645 7.41
      vertex 5.9555 3.44645 5.4
      vertex 5.71983 3.87104 7.41
    endloop
  endfacet
  facet normal 0.758759 0.651372 0
    outer loop
      vertex 5.71983 3.87104 5.4
      vertex 5.40352 4.2395 5.4
      vertex 5.40352 4.2395 7.41
    endloop
  endfacet
  facet normal 0.758759 0.651372 0
    outer loop
      vertex 5.71983 3.87104 7.41
      vertex 5.71983 3.87104 5.4
      vertex 5.40352 4.2395 7.41
    endloop
  endfacet
  facet normal 0.612105 0.790776 0
    outer loop
      vertex 5.01951 4.53675 5.4
      vertex 5.01951 4.53675 7.41
      vertex 5.40352 4.2395 5.4
    endloop
  endfacet
  facet normal 0.612105 0.790776 0
    outer loop
      vertex 5.40352 4.2395 5.4
      vertex 5.01951 4.53675 7.41
      vertex 5.40352 4.2395 7.41
    endloop
  endfacet
  facet normal 0.440394 0.897804 0
    outer loop
      vertex 4.58353 4.7506 5.4
      vertex 4.58353 4.7506 7.41
      vertex 5.01951 4.53675 5.4
    endloop
  endfacet
  facet normal 0.440394 0.897804 0
    outer loop
      vertex 5.01951 4.53675 5.4
      vertex 4.58353 4.7506 7.41
      vertex 5.01951 4.53675 7.41
    endloop
  endfacet
  facet normal 0.250653 0.968077 0
    outer loop
      vertex 4.11343 4.87232 5.4
      vertex 4.11343 4.87232 7.41
      vertex 4.58353 4.7506 5.4
    endloop
  endfacet
  facet normal 0.250653 0.968077 0
    outer loop
      vertex 4.58353 4.7506 5.4
      vertex 4.11343 4.87232 7.41
      vertex 4.58353 4.7506 7.41
    endloop
  endfacet
  facet normal 0.0506499 0.998716 0
    outer loop
      vertex 3.62844 4.89692 5.4
      vertex 3.62844 4.89692 7.41
      vertex 4.11343 4.87232 5.4
    endloop
  endfacet
  facet normal 0.0506499 0.998716 0
    outer loop
      vertex 4.11343 4.87232 5.4
      vertex 3.62844 4.89692 7.41
      vertex 4.11343 4.87232 7.41
    endloop
  endfacet
  facet normal -0.151429 0.988468 0
    outer loop
      vertex 3.14843 4.82339 5.4
      vertex 3.14843 4.82339 7.41
      vertex 3.62844 4.89692 5.4
    endloop
  endfacet
  facet normal -0.151429 0.988468 0
    outer loop
      vertex 3.62844 4.89692 5.4
      vertex 3.14843 4.82339 7.41
      vertex 3.62844 4.89692 7.41
    endloop
  endfacet
  facet normal -0.347305 0.937752 0
    outer loop
      vertex 2.69305 4.65473 5.4
      vertex 2.69305 4.65473 7.41
      vertex 3.14843 4.82339 5.4
    endloop
  endfacet
  facet normal -0.347305 0.937752 0
    outer loop
      vertex 3.14843 4.82339 5.4
      vertex 2.69305 4.65473 7.41
      vertex 3.14843 4.82339 7.41
    endloop
  endfacet
  facet normal -0.528964 0.848644 0
    outer loop
      vertex 2.28095 4.39786 5.4
      vertex 2.28095 4.39786 7.41
      vertex 2.69305 4.65473 5.4
    endloop
  endfacet
  facet normal -0.528964 0.848644 0
    outer loop
      vertex 2.69305 4.65473 5.4
      vertex 2.28095 4.39786 7.41
      vertex 2.69305 4.65473 7.41
    endloop
  endfacet
  facet normal -0.688967 0.724792 0
    outer loop
      vertex 1.92898 4.06329 5.4
      vertex 1.92898 4.06329 7.41
      vertex 2.28095 4.39786 5.4
    endloop
  endfacet
  facet normal -0.688967 0.724792 0
    outer loop
      vertex 2.28095 4.39786 5.4
      vertex 1.92898 4.06329 7.41
      vertex 2.28095 4.39786 7.41
    endloop
  endfacet
  facet normal -0.820763 0.571269 0
    outer loop
      vertex 1.65157 3.66472 5.4
      vertex 1.65157 3.66472 7.41
      vertex 1.92898 4.06329 5.4
    endloop
  endfacet
  facet normal -0.820763 0.571269 0
    outer loop
      vertex 1.92898 4.06329 5.4
      vertex 1.65157 3.66472 7.41
      vertex 1.92898 4.06329 7.41
    endloop
  endfacet
  facet normal -0.918958 0.394355 0
    outer loop
      vertex 1.46007 3.21847 5.4
      vertex 1.46007 3.21847 7.41
      vertex 1.65157 3.66472 5.4
    endloop
  endfacet
  facet normal -0.918958 0.394355 0
    outer loop
      vertex 1.65157 3.66472 5.4
      vertex 1.46007 3.21847 7.41
      vertex 1.65157 3.66472 7.41
    endloop
  endfacet
  facet normal -0.97953 0.201298 0
    outer loop
      vertex 1.36231 2.7428 5.4
      vertex 1.36231 2.7428 7.41
      vertex 1.46007 3.21847 5.4
    endloop
  endfacet
  facet normal -0.97953 0.201298 0
    outer loop
      vertex 1.46007 3.21847 5.4
      vertex 1.36231 2.7428 7.41
      vertex 1.46007 3.21847 7.41
    endloop
  endfacet
  facet normal 1 0 0
    outer loop
      vertex 1.5 -8.2 4.19
      vertex 1.5 -8.2 3.02
      vertex 1.5 -2 3.02
    endloop
  endfacet
  facet normal 1 0 0
    outer loop
      vertex 1.5 -2 4.19
      vertex 1.5 -8.2 4.19
      vertex 1.5 -2 3.02
    endloop
  endfacet
  facet normal -1 0 0
    outer loop
      vertex 6 -8.2 3.02
      vertex 6 -8.2 4.19
      vertex 6 -2 3.02
    endloop
  endfacet
  facet normal -1 0 0
    outer loop
      vertex 6 -2 3.02
      vertex 6 -8.2 4.19
      vertex 6 -2 4.19
    endloop
  endfacet
  facet normal 0 0 1
    outer loop
      vertex 5.4 -6.55 3.02
      vertex 5.4 -8.2 3.02
      vertex 6 -8.2 3.02
    endloop
  endfacet
  facet normal 0 0 1
    outer loop
      vertex 4.5 -2 3.02
      vertex 5.4 -6.55 3.02
      vertex 6 -2 3.02
    endloop
  endfacet
  facet normal 0 0 1
    outer loop
      vertex 6 -2 3.02
      vertex 5.4 -6.55 3.02
      vertex 6 -8.2 3.02
    endloop
  endfacet
  facet normal 0 0 1
    outer loop
      vertex 4.5 -6.55 3.02
      vertex 5.4 -6.55 3.02
      vertex 4.5 -2 3.02
    endloop
  endfacet
  facet normal 1 0 0
    outer loop
      vertex 4.5 -8.205 4.19
      vertex 4.5 -8.205 3
      vertex 4.5 -6.55 3
    endloop
  endfacet
  facet normal 1 0 0
    outer loop
      vertex 4.5 -2 3.02
      vertex 4.5 -8.205 4.19
      vertex 4.5 -6.55 3.02
    endloop
  endfacet
  facet normal 1 0 0
    outer loop
      vertex 4.5 -6.55 3.02
      vertex 4.5 -8.205 4.19
      vertex 4.5 -6.55 3
    endloop
  endfacet
  facet normal 1 0 0
    outer loop
      vertex 4.5 -2 4.19
      vertex 4.5 -8.205 4.19
      vertex 4.5 -2 3.02
    endloop
  endfacet
  facet normal 0 0 1
    outer loop
      vertex 3 -2 4.19
      vertex 3 -8.205 4.19
      vertex 4.5 -8.205 4.19
    endloop
  endfacet
  facet normal 0 0 1
    outer loop
      vertex 4.5 -2 4.19
      vertex 3 -2 4.19
      vertex 4.5 -8.205 4.19
    endloop
  endfacet
  facet normal -1 0 0
    outer loop
      vertex 3 -8.205 3
      vertex 3 -8.205 4.19
      vertex 3 -6.55 3
    endloop
  endfacet
  facet normal -1 0 0
    outer loop
      vertex 3 -6.55 3.02
      vertex 3 -8.205 4.19
      vertex 3 -2 4.19
    endloop
  endfacet
  facet normal -1 0 0
    outer loop
      vertex 3 -6.55 3
      vertex 3 -8.205 4.19
      vertex 3 -6.55 3.02
    endloop
  endfacet
  facet normal -1 0 0
    outer loop
      vertex 3 -6.55 3.02
      vertex 3 -2 4.19
      vertex 3 -2 3.02
    endloop
  endfacet
  facet normal 0 0 1
    outer loop
      vertex 3 -2 3.02
      vertex 2.1 -6.55 3.02
      vertex 3 -6.55 3.02
    endloop
  endfacet
  facet normal 0 0 1
    outer loop
      vertex 1.5 -2 3.02
      vertex 2.1 -6.55 3.02
      vertex 3 -2 3.02
    endloop
  endfacet
  facet normal 0 0 1
    outer loop
      vertex 2.1 -8.2 3.02
      vertex 2.1 -6.55 3.02
      vertex 1.5 -2 3.02
    endloop
  endfacet
  facet normal 0 0 1
    outer loop
      vertex 1.5 -8.2 3.02
      vertex 2.1 -8.2 3.02
      vertex 1.5 -2 3.02
    endloop
  endfacet
  facet normal 0 -1 0
    outer loop
      vertex 3 -6.55 3
      vertex 3 -6.55 3.02
      vertex 2.1 -6.55 3.02
    endloop
  endfacet
  facet normal 0 -1 0
    outer loop
      vertex 2.1 -6.55 3
      vertex 3 -6.55 3
      vertex 2.1 -6.55 3.02
    endloop
  endfacet
  facet normal 0 -1 0
    outer loop
      vertex 5.4 -6.55 3
      vertex 5.4 -6.55 3.02
      vertex 4.5 -6.55 3.02
    endloop
  endfacet
  facet normal 0 -1 0
    outer loop
      vertex 4.5 -6.55 3
      vertex 5.4 -6.55 3
      vertex 4.5 -6.55 3.02
    endloop
  endfacet
  facet normal 0 0 1
    outer loop
      vertex 1.36231 2.7428 7.41
      vertex 1.36231 2.2572 7.41
      vertex 1.46007 1.78153 7.41
    endloop
  endfacet
  facet normal 0 0 1
    outer loop
      vertex 1.92898 0.936706 7.41
      vertex 1.36231 2.7428 7.41
      vertex 1.65157 1.33527 7.41
    endloop
  endfacet
  facet normal 0 0 1
    outer loop
      vertex 1.65157 1.33527 7.41
      vertex 1.36231 2.7428 7.41
      vertex 1.46007 1.78153 7.41
    endloop
  endfacet
  facet normal 0 0 1
    outer loop
      vertex 2.28095 0.602138 7.41
      vertex 1.36231 2.7428 7.41
      vertex 1.92898 0.936706 7.41
    endloop
  endfacet
  facet normal 0 0 1
    outer loop
      vertex 2.69305 0.345269 7.41
      vertex 1.36231 2.7428 7.41
      vertex 2.28095 0.602138 7.41
    endloop
  endfacet
  facet normal 0 0 1
    outer loop
      vertex 3.14843 0.176615 7.41
      vertex 1.36231 2.7428 7.41
      vertex 2.69305 0.345269 7.41
    endloop
  endfacet
  facet normal 0 0 1
    outer loop
      vertex 3.62844 0.10308 7.41
      vertex 1.36231 2.7428 7.41
      vertex 3.14843 0.176615 7.41
    endloop
  endfacet
  facet normal 0 0 1
    outer loop
      vertex 4.11343 0.127676 7.41
      vertex 1.36231 2.7428 7.41
      vertex 3.62844 0.10308 7.41
    endloop
  endfacet
  facet normal 0 0 1
    outer loop
      vertex 4.58353 0.249395 7.41
      vertex 1.36231 2.7428 7.41
      vertex 4.11343 0.127676 7.41
    endloop
  endfacet
  facet normal 0 0 1
    outer loop
      vertex 5.01951 0.463254 7.41
      vertex 1.36231 2.7428 7.41
      vertex 4.58353 0.249395 7.41
    endloop
  endfacet
  facet normal 0 0 1
    outer loop
      vertex 5.40352 0.760497 7.41
      vertex 1.36231 2.7428 7.41
      vertex 5.01951 0.463254 7.41
    endloop
  endfacet
  facet normal 0 0 1
    outer loop
      vertex 5.71983 1.12896 7.41
      vertex 1.36231 2.7428 7.41
      vertex 5.40352 0.760497 7.41
    endloop
  endfacet
  facet normal 0 0 1
    outer loop
      vertex 5.9555 1.55355 7.41
      vertex 1.36231 2.7428 7.41
      vertex 5.71983 1.12896 7.41
    endloop
  endfacet
  facet normal 0 0 1
    outer loop
      vertex 6.10087 2.01688 7.41
      vertex 1.36231 2.7428 7.41
      vertex 5.9555 1.55355 7.41
    endloop
  endfacet
  facet normal 0 0 1
    outer loop
      vertex 6.15 2.5 7.41
      vertex 1.36231 2.7428 7.41
      vertex 6.10087 2.01688 7.41
    endloop
  endfacet
  facet normal 0 0 1
    outer loop
      vertex 6.10087 2.98312 7.41
      vertex 1.36231 2.7428 7.41
      vertex 6.15 2.5 7.41
    endloop
  endfacet
  facet normal 0 0 1
    outer loop
      vertex 5.9555 3.44645 7.41
      vertex 1.36231 2.7428 7.41
      vertex 6.10087 2.98312 7.41
    endloop
  endfacet
  facet normal 0 0 1
    outer loop
      vertex 5.71983 3.87104 7.41
      vertex 1.36231 2.7428 7.41
      vertex 5.9555 3.44645 7.41
    endloop
  endfacet
  facet normal 0 0 1
    outer loop
      vertex 5.40352 4.2395 7.41
      vertex 1.36231 2.7428 7.41
      vertex 5.71983 3.87104 7.41
    endloop
  endfacet
  facet normal 0 0 1
    outer loop
      vertex 5.01951 4.53675 7.41
      vertex 1.36231 2.7428 7.41
      vertex 5.40352 4.2395 7.41
    endloop
  endfacet
  facet normal 0 0 1
    outer loop
      vertex 4.58353 4.7506 7.41
      vertex 1.36231 2.7428 7.41
      vertex 5.01951 4.53675 7.41
    endloop
  endfacet
  facet normal 0 0 1
    outer loop
      vertex 4.11343 4.87232 7.41
      vertex 1.36231 2.7428 7.41
      vertex 4.58353 4.7506 7.41
    endloop
  endfacet
  facet normal 0 0 1
    outer loop
      vertex 3.62844 4.89692 7.41
      vertex 1.36231 2.7428 7.41
      vertex 4.11343 4.87232 7.41
    endloop
  endfacet
  facet normal 0 0 1
    outer loop
      vertex 3.14843 4.82339 7.41
      vertex 1.36231 2.7428 7.41
      vertex 3.62844 4.89692 7.41
    endloop
  endfacet
  facet normal 0 0 1
    outer loop
      vertex 2.69305 4.65473 7.41
      vertex 1.36231 2.7428 7.41
      vertex 3.14843 4.82339 7.41
    endloop
  endfacet
  facet normal 0 0 1
    outer loop
      vertex 2.28095 4.39786 7.41
      vertex 1.36231 2.7428 7.41
      vertex 2.69305 4.65473 7.41
    endloop
  endfacet
  facet normal 0 0 1
    outer loop
      vertex 1.92898 4.06329 7.41
      vertex 1.36231 2.7428 7.41
      vertex 2.28095 4.39786 7.41
    endloop
  endfacet
  facet normal 0 0 1
    outer loop
      vertex 1.65157 3.66472 7.41
      vertex 1.36231 2.7428 7.41
      vertex 1.92898 4.06329 7.41
    endloop
  endfacet
  facet normal 0 0 1
    outer loop
      vertex 1.46007 3.21847 7.41
      vertex 1.36231 2.7428 7.41
      vertex 1.65157 3.66472 7.41
    endloop
  endfacet
endsolid OpenSCAD_Model
